<?xml version="1.0" standalone="no"?><!DOCTYPE svg PUBLIC "-//W3C//DTD SVG 1.1//EN" "http://www.w3.org/Graphics/SVG/1.1/DTD/svg11.dtd"><svg t="1711555742863" class="icon" viewBox="0 0 1024 1024" version="1.1" xmlns="http://www.w3.org/2000/svg" p-id="64661" xmlns:xlink="http://www.w3.org/1999/xlink" width="200" height="200"><path d="M890.88 784.91648L551.3216 961.60768l-0.38912-420.2496 142.336-73.216v303.32928l196.85376-100.864z" fill="#B39DDB" p-id="64662"></path><path d="M396.21632 917.54496l87.81824 44.06272V540.08832l-133.39648-64.4096-42.25024 201.14432-42.5984-242.5856L133.12 369.42848V791.3472l87.4496 44.83072V581.89824l47.81056 274.60608 77.81376 39.55712 50.0224-228.28032z" fill="#FBC02D" p-id="64663"></path><path d="M463.22688 62.39232l-100.096 89.6512s195.29728 101.69344 219.0336 113.7152c23.72608 12.01152 57.4976 35.1232 20.992 69.33504-36.5056 34.2016-76.66688 29.5936-104.0384 15.7184a223534.97088 223534.97088 0 0 1-229.96992-117.41184l-103.1168 88.75008S364.97408 424.7552 397.824 442.32704c32.84992 17.5616 155.136 61.00992 271.0528-30.5152 115.89632-91.51488 99.47136-124.80512 99.47136-131.2768 0-6.46144-2.73408-40.67328-22.81472-61.93152-20.0704-21.26848-78.47936-51.77344-103.1168-64.7168-24.64768-12.94336-179.16928-91.50464-179.16928-91.50464z" fill="#F06292" p-id="64664"></path></svg>