<?xml version="1.0" standalone="no"?><!DOCTYPE svg PUBLIC "-//W3C//DTD SVG 1.1//EN" "http://www.w3.org/Graphics/SVG/1.1/DTD/svg11.dtd"><svg t="1711555945965" class="icon" viewBox="0 0 1024 1024" version="1.1" xmlns="http://www.w3.org/2000/svg" p-id="9024" xmlns:xlink="http://www.w3.org/1999/xlink" width="200" height="200"><path d="M138.24 523.264l382.976-365.568 353.28 365.568h34.816l18.432-37.888-394.752-404.48-52.736 14.336-390.656 392.192 25.6 32.256zM190.976 194.048H291.84l11.264 62.976-11.264 25.6L209.92 361.472l-18.944-17.408z" fill="#DCE5F7" p-id="9025"></path><path d="M519.68 169.984L173.056 512 163.84 852.48l27.136 50.176 218.624 7.68 27.136-11.264v-184.32l16.384-26.624 82.944-4.096 51.2 21.504 7.68 194.56 64 10.24 174.08-7.68 15.36-46.08v-343.04l-328.704-343.552z m-5.12 288.768c-31.232 0-56.832-25.088-56.832-56.832s25.088-56.832 56.832-56.832 56.832 25.088 56.832 56.832-25.6 56.832-56.832 56.832z" fill="#DCE5F7" p-id="9026"></path><path d="M929.792 534.528c-11.264 11.264-25.6 16.896-39.936 16.896-6.656 0-12.8-1.536-19.456-3.584v307.2c0 41.984-33.792 76.288-75.264 76.288h-188.416c-20.992 0-37.888-16.896-37.888-37.888V721.92c0-10.24-8.192-18.944-18.944-18.944h-75.264c-10.24 0-18.944 8.704-18.944 18.944v171.008c0 20.992-16.896 37.888-37.888 37.888H228.864c-41.984 0-75.264-34.304-75.264-76.288V546.816c-20.48 7.68-43.52 2.56-59.904-13.824-22.016-22.528-21.504-58.368 1.024-80.896l77.312-76.288v-167.424c0-20.992 16.896-37.888 37.888-37.888h75.264c20.992 0 37.888 16.896 37.888 37.888v18.944L481.28 72.704c22.528-21.504 57.856-21.504 79.872 0.512l369.152 380.416c22.016 23.04 22.016 58.88-0.512 80.896z m-700.928 358.4h169.984c10.24 0 18.944-8.192 18.944-18.944V702.976c0-20.992 16.896-37.888 37.888-37.888h113.152c20.992 0 37.888 16.896 37.888 37.888v171.008c0 10.24 8.192 18.944 18.944 18.944h169.984c20.992 0 37.888-16.896 37.888-37.888V517.12l-312.832-323.072L190.976 517.12v337.92c0 20.992 16.896 37.888 37.888 37.888z m56.32-664.576c0-10.24-8.192-18.944-18.944-18.944h-37.888c-10.24 0-18.944 8.192-18.944 18.944v111.104l75.264-74.24v-36.864h0.512zM903.168 481.28l-369.152-380.416c-4.608-4.608-10.24-5.632-13.312-5.632-5.12 0-9.728 2.048-13.312 5.632l-386.56 378.88c-7.68 7.168-7.68 19.456-0.512 27.136 4.608 5.12 10.752 5.632 13.312 5.632 5.12 0 9.728-2.048 13.312-5.632l6.144-6.144v-6.656h6.656l360.448-353.28 343.04 353.28h7.68V501.76l5.632 6.144c4.608 4.608 10.24 5.632 13.312 5.632 3.072 0 8.192-1.024 13.312-5.632 4.608-4.608 5.632-10.24 5.632-13.312 0-3.072-0.512-8.704-5.632-13.312zM512 323.072c41.984 0 75.264 34.304 75.264 76.288s-33.792 76.288-75.264 76.288c-41.984 0-75.264-34.304-75.264-76.288S470.016 323.072 512 323.072z m0 114.176c20.992 0 37.888-16.896 37.888-37.888S532.992 361.472 512 361.472c-20.992 0-37.888 16.896-37.888 37.888s16.896 37.888 37.888 37.888z" fill="#4969C2" p-id="9027"></path></svg>