<?xml version="1.0" standalone="no"?><!DOCTYPE svg PUBLIC "-//W3C//DTD SVG 1.1//EN" "http://www.w3.org/Graphics/SVG/1.1/DTD/svg11.dtd"><svg t="1711552715173" class="icon" viewBox="0 0 1165 1024" version="1.1" xmlns="http://www.w3.org/2000/svg" p-id="5367" xmlns:xlink="http://www.w3.org/1999/xlink" width="227.5390625" height="200"><path d="M450.862164 170.3677v-61.200187c0-33.664899 32.374707-61.204984 71.943794-61.204984h78.289236c39.569087 0 71.943794 27.540084 71.943794 61.204984v61.200187" fill="#FFEC3F" p-id="5368"></path><path d="M673.038988 187.154585a16.786885 16.786885 0 0 1-16.786885-16.786885v-61.200187c0-24.07719-25.261864-44.418098-55.156909-44.418098h-78.289236c-29.899841 0-55.156909 20.340909-55.156909 44.418098v61.200187a16.786885 16.786885 0 1 1-33.57377 0v-61.200187c0-43.003204 39.804103-77.991869 88.730679-77.991869h78.289236c48.926576 0 88.730679 34.983869 88.73068 77.991869v61.200187a16.786885 16.786885 0 0 1-16.786886 16.786885z" fill="#6E6E96" p-id="5369"></path><path d="M235.145892 422.573864c-43.228628 0.666679-94.227185 0.719438-143.599812 0.148684a35.971897 35.971897 0 1 0-0.829752 71.938998c50.000937 0.580347 101.690155 0.522792 145.547091-0.15348a35.971897 35.971897 0 0 0-1.117527-71.934202z" fill="#9999BD" p-id="5370"></path><path d="M234.886895 405.786979c-43.017593 0.666679-93.853077 0.714642-143.144169 0.148684-14.091391-0.167869-27.405789 5.170361-37.487513 15.021864s-15.717321 23.036403-15.880393 37.127794c-0.326145 29.089274 23.06518 53.032169 52.149658 53.36311 50.096862 0.580347 101.944356 0.522792 145.997939-0.158276 29.084478-0.450848 52.384674-24.480075 51.938623-53.569349-0.450848-29.084478-24.484871-52.379878-53.574145-51.933827z m0.517995 33.568974a19.213789 19.213789 0 0 1 19.487176 18.887644 19.208993 19.208993 0 0 1-18.887644 19.48238c-43.756215 0.676272-95.287157 0.72903-145.091448 0.15348a19.208993 19.208993 0 0 1-18.964384-19.410436 19.026735 19.026735 0 0 1 5.769892-13.491859 19.055513 19.055513 0 0 1 13.630951-5.462932c49.583663 0.565958 100.745293 0.513199 144.055457-0.158277z" fill="#6E6E96" p-id="5371"></path><path d="M914.899635 493.366557c32.758407 1.6643 68.711119 2.076778 116.572927 1.342951l-0.647494 0.004796 22.283391 0.033574c19.875672 0 35.971897-16.105817 35.971897-35.971897s-16.096225-35.971897-35.971897-35.971897l-22.091541-0.033573-0.647494 0.004796c-46.216693 0.705049-80.692159 0.321349-111.810248-1.256618a35.967101 35.967101 0 0 0-37.746511 34.101358 35.962304 35.962304 0 0 0 34.08697 37.74651z" fill="#9999BD" p-id="5372"></path><path d="M914.050698 510.129461c33.103738 1.683485 69.406576 2.100759 117.680862 1.362136l-0.647494-33.568974h-0.258998l-0.028778 33.57377 22.283391 0.033574c14.115372 0 27.367419-5.486913 37.334033-15.453527a52.408656 52.408656 0 0 0 15.448731-37.305255c0-14.091391-5.486913-27.338642-15.448731-37.305255a52.423044 52.423044 0 0 0-37.310051-15.453527l-22.077152-0.033574c-0.292571 0-0.657087 0-1.05038 0.009593-45.751457 0.700253-79.895981 0.316553-110.592-1.237434a52.413452 52.413452 0 0 0-38.039082 13.535026 52.403859 52.403859 0 0 0-17.319269 36.4803c-1.462857 29.060496 20.97881 53.895494 50.024918 55.363147z m1.697873-33.530604a19.204197 19.204197 0 0 1-18.182594-20.129873 19.08429 19.08429 0 0 1 6.29748-13.26164 19.050717 19.050717 0 0 1 13.827597-4.920955c31.468215 1.592356 66.284215 1.985649 112.927775 1.275803h0.393293l22.072356 0.033574c5.146379 0 9.966614 1.995241 13.592581 5.616412a19.074698 19.074698 0 0 1 5.616412 13.5686 19.074698 19.074698 0 0 1-5.616412 13.568599 19.074698 19.074698 0 0 1-13.5686 5.616412l-22.264206-0.033574-0.019185 33.573771c0.273386 0 0.642698 0 1.035991-0.009593l-0.652291-33.568974c-47.506885 0.724234-83.119063 0.316553-115.460197-1.328562z" fill="#6E6E96" p-id="5373"></path><path d="M200.574501 844.639326c-26.379391 0-47.962529 21.583138-47.962529 47.962529v55.857161c0 26.379391 21.583138 47.962529 47.962529 47.96253h47.962529c26.379391 0 47.962529-21.583138 47.96253-47.96253v-55.857161c0-26.379391-21.583138-47.962529-47.96253-47.962529h-47.962529z" fill="#9999BD" p-id="5374"></path><path d="M200.574501 827.85244c-35.703307 0-64.749415 29.050904-64.749414 64.749415v55.857161c0 35.698511 29.046108 64.749415 64.749414 64.749415h47.962529c35.703307 0 64.749415-29.050904 64.749415-64.749415v-55.857161c0-35.698511-29.046108-64.749415-64.749415-64.749415h-47.962529z m47.962529 33.573771c17.18977 0 31.175644 13.985874 31.175644 31.175644v55.857161c0 17.18977-13.985874 31.175644-31.175644 31.175644h-47.962529a31.214014 31.214014 0 0 1-31.175644-31.175644v-55.857161c0-17.18977 13.985874-31.175644 31.175644-31.175644h47.962529z" fill="#6E6E96" p-id="5375"></path><path d="M930.506642 844.639326c-26.379391 0-47.962529 21.583138-47.96253 47.962529v55.857161c0 26.379391 21.583138 47.962529 47.96253 47.96253h47.962529c26.379391 0 47.962529-21.583138 47.962529-47.96253v-55.857161c0-26.379391-21.583138-47.962529-47.962529-47.962529h-47.962529z" fill="#9999BD" p-id="5376"></path><path d="M930.506642 827.85244c-35.703307 0-64.749415 29.050904-64.749415 64.749415v55.857161c0 35.698511 29.046108 64.749415 64.749415 64.749415h47.962529c35.698511 0 64.749415-29.050904 64.749414-64.749415v-55.857161c0-35.698511-29.050904-64.749415-64.749414-64.749415h-47.962529z m47.962529 33.573771c17.18977 0 31.175644 13.985874 31.175644 31.175644v55.857161c0 17.18977-13.985874 31.175644-31.175644 31.175644h-47.962529a31.214014 31.214014 0 0 1-31.175644-31.175644v-55.857161c0-17.18977 13.985874-31.175644 31.175644-31.175644h47.962529z" fill="#6E6E96" p-id="5377"></path><path d="M968.97259 492.76223c14.18252 3.875372 48.048862 15.520674 60.48075 22.71985 49.737143 28.806295 83.310913 65.526407 83.310913 181.159269 0 138.568543-41.967213 165.470726-134.295082 165.470726h-776.992974c-92.327869 0-158.276347-22.10593-158.276347-165.470726 0-125.225368 33.57377-152.367363 83.31571-181.159269 12.431888-7.194379 50.725171-18.8157 64.864524-22.68148" fill="#FFE37F" p-id="5378"></path><path d="M137.403054 563.363073c12.148909-7.045696 49.564478-18.39363 63.382482-22.177874l759.860759-0.023981c13.870763 3.78904 46.95052 15.165752 59.099429 22.201855 44.94089 26.034061 76.356347 58.720525 80.836046 152.832599 0.374108-8.134445 0.570754-16.700553 0.570755-25.799044 0-113.009311-32.80637-148.89008-81.411598-177.0249-12.153705-7.040899-45.24785-18.422407-59.104224-22.206651l-759.851167 0.028778c-13.818005 3.779447-51.23837 15.136974-63.382482 22.177873-48.605227 28.13482-81.416393 54.658098-81.416394 177.0249 0 7.913817 0.235016 15.400768 0.637902 22.585555 4.714717-99.138548 36.043841-123.728937 80.778492-149.61911z" fill="#FFFC96" p-id="5379"></path><path d="M971.346735 767.50119H210.944c-83.905649 0-149.009986-16.139391-154.271475-110.841405-0.398089 8.49896-0.623513 17.491934-0.623513 27.141995 0 140.299991 64.538379 161.940684 154.894988 161.940684h760.402735c90.356609 0 131.422126-26.321836 131.422127-161.940684 0-8.403035-0.196646-16.331241-0.551569-23.909321-3.971297 87.83378-47.660365 107.608731-130.870558 107.608731z" fill="#E3747C" opacity=".39" p-id="5380"></path><path d="M964.545649 508.954379c15.060234 4.115185 46.355785 15.189733 56.490267 21.060347 41.003166 23.741452 74.941452 52.662857 74.941452 166.631419 0 128.016787-34.643335 148.683841-117.508197 148.683841h-776.992974c-91.761911 0-141.489461-23.688693-141.489462-148.683841 0-117.292365 28.48015-139.738829 74.941452-166.631419 9.227991-5.347822 41.856899-15.827635 60.883635-21.031569a16.791681 16.791681 0 0 0 11.765208-20.619091 16.791681 16.791681 0 0 0-20.619091-11.765209c-0.503607 0.139091-51.535738 14.326407-68.850211 24.364965-53.679663 31.074923-91.685171 63.305742-91.685171 195.682323 0 160.175663 84.135869 182.257611 175.063232 182.257611h776.992974c112.961349 0 151.081967-45.991269 151.081968-182.257611 0-118.74563-35.079794-162.914323-91.685171-195.687119-14.316815-8.297518-50.101658-20.465611-64.46164-24.388946a16.796478 16.796478 0 0 0-8.868271 32.384299z" fill="#6E6E96" p-id="5381"></path><path d="M191.380084 492.791007C215.864956 377.704918 211.068703 243.409836 311.790014 171.466042c43.166276-28.777518 119.906323-28.777518 180.37748-28.777517h138.626099c11.093733 0.028778 22.000412 0.043166 32.652889 0.100721 51.233574-0.100721 118.381115-0.100721 156.751139 28.676796 100.721311 71.943794 105.517564 211.035129 148.784562 321.296188H191.380084" fill="#AADBF7" p-id="5382"></path><path d="M207.797658 496.287475c5.458136-25.664749 9.525358-52.475803 13.45349-78.409142 14.081799-92.913012 27.381808-180.670052 100.294445-232.747766 38.48993-25.650361 111.752693-25.650361 170.621901-25.650361h138.626099l7.659615 0.019185 24.897349 0.081536c47.645977-0.095925 112.71674-0.220628 146.774932 25.31942 67.099578 47.938548 88.706698 127.594717 111.580029 211.932028 9.271157 34.120543 18.839681 69.40178 31.660065 102.064262a16.782089 16.782089 0 0 1 15.626192-22.916496H191.380084a16.786885 16.786885 0 1 0 0 33.57377h777.592506a16.782089 16.782089 0 0 0 15.626192-22.916496c-12.139316-30.959813-21.472824-65.34415-30.475391-98.591776C930.693696 301.727475 906.491803 212.474005 829.953199 157.806314c-42.725021-32.048562-114.285115-31.904674-166.554679-31.803953l-24.88296-0.081537-7.69319-0.019185h-138.669265c-63.396871 0-142.295232 0-189.691803 31.597715-84.908066 60.639026-99.905948 159.619297-114.414613 255.342913-3.856187 25.448918-7.84667 51.765958-13.098567 76.452272a16.791681 16.791681 0 1 0 32.849536 6.992936z" fill="#6E6E96" p-id="5383"></path><path d="M242.220365 665.48489m-83.92963 0a83.92963 83.92963 0 1 0 167.85926 0 83.92963 83.92963 0 1 0-167.85926 0Z" fill="#F0F0FF" p-id="5384"></path><path d="M242.220365 598.342145c37.022276 0 67.142745 30.115672 67.142745 67.142745s-30.120468 67.142745-67.142745 67.142745-67.142745-30.115672-67.142744-67.142745 30.120468-67.142745 67.142744-67.142745z m-100.716515 67.142745c0 55.535813 45.180703 100.716515 100.716515 100.716515s100.716515-45.180703 100.716516-100.716515-45.180703-100.716515-100.716516-100.716515-100.716515 45.180703-100.716515 100.716515zM611.536637 478.42623c0-50.250342 40.868871-91.128806 91.128806-91.128806 50.250342 0 91.128806 40.878464 91.128805 91.128806a16.786885 16.786885 0 1 0 33.573771 0c0-68.759082-55.943494-124.702576-124.702576-124.702577-68.768674 0-124.702576 55.943494-124.702576 124.702577a16.786885 16.786885 0 1 0 33.57377 0z" fill="#6E6E96" p-id="5385"></path><path d="M918.487232 665.48489m-83.92963 0a83.92963 83.92963 0 1 0 167.85926 0 83.92963 83.92963 0 1 0-167.85926 0Z" fill="#F0F0FF" p-id="5386"></path><path d="M918.487232 598.342145c37.022276 0 67.137948 30.115672 67.137948 67.142745s-30.115672 67.142745-67.137948 67.142745c-37.041461 0-67.147541-30.115672-67.147541-67.142745s30.130061-67.142745 67.147541-67.142745z m-100.721312 67.142745c0 55.535813 45.180703 100.716515 100.721312 100.716515 55.531016 0 100.711719-45.180703 100.711719-100.716515s-45.180703-100.716515-100.711719-100.716515c-55.540609 0-100.721311 45.180703-100.721312 100.716515z" fill="#6E6E96" p-id="5387"></path><path d="M193.778211 499.985386l0.004796-0.033573h-0.004796v0.033573z m759.568187-53.6317v-28.48015h-8.067297c-24.84459-90.409368-45.866567-184.343981-122.68815-239.213114-38.370023-28.777518-105.517564-28.777518-156.751138-28.676797-10.666867-0.057555-21.554361-0.071944-32.667279-0.100721h-138.626098c-60.466361 0-137.211204 0-180.37748 28.777518-77.368356 55.267222-92.471756 147.331297-106.41926 239.213114h-3.477284v22.858942c-3.098379 20.024356-6.379016 39.895232-10.489405 59.219335h777.58771c-6.781902-17.280899-12.614145-35.271644-18.024319-53.598127zM265.093696 417.873536c11.419878-74.663269 25.084403-148.664656 87.968074-193.581564 36.072618-24.048412 100.203316-24.048412 150.736637-24.048412h115.848694c9.280749 0.023981 18.384037 0.033574 27.281086 0.086332 42.81615-0.086333 98.922717-0.086333 130.99526 23.96208 62.413639 44.576375 80.749714 120.002248 100.802848 193.581564H265.093696z" fill="#6E6E96" opacity=".15" p-id="5388"></path><path d="M387.326201 306.945799c-37.113405 34.230857-70.543288 67.075597-63.56474 25.194716 0 0 14.388759-100.721311 100.721312-100.721311 44.451672 0 2.230258 39.199775-37.156572 75.526595z" fill="#FFFFFF" opacity=".46" p-id="5389"></path><path d="M1112.745068 867.723691c0 18.47037-15.108197 33.57377-33.573771 33.57377H78.572215c-18.465574 0-33.57377-15.1034-33.57377-33.57377v-31.976618c0-18.465574 15.108197-33.57377 33.57377-33.573771h1000.603879c18.47037 0 33.57377 15.108197 33.57377 33.573771v31.976618h-0.004796z" fill="#E4E4F7" p-id="5390"></path><path d="M1095.958183 867.723691c0 9.261564-7.530117 16.786885-16.786886 16.786885H78.572215c-9.256768 0-16.786885-7.525321-16.786885-16.786885v-31.976618c0-9.256768 7.530117-16.786885 16.786885-16.786886h1000.603879c9.261564 0 16.786885 7.530117 16.786885 16.786886v31.976618h-0.004796z m33.57377-31.976618c0-27.770304-22.595148-50.360656-50.360656-50.360656H78.572215c-27.770304 0-50.360656 22.590351-50.360655 50.360656v31.976618c0 27.770304 22.590351 50.360656 50.360655 50.360656h1000.603879c27.765508 0 50.360656-22.590351 50.360655-50.360656v-31.976618h-0.004796z" fill="#6E6E96" p-id="5391"></path><path d="M1064.293321 861.037714H93.133639c-15.798857 0-29.050904-11.400693-31.971822-26.379391-0.393293 2.014426-0.61392 4.086407-0.61392 6.201555v31.041349c0 17.914005 14.662145 32.585742 32.585742 32.585743H1064.288525c17.918801 0 32.585742-14.671738 32.585742-32.585743v-31.041349c0-2.115148-0.220628-4.187129-0.61392-6.201555-2.916122 14.978698-16.168169 26.379391-31.967026 26.379391z" fill="#6E6E96" opacity=".15" p-id="5392"></path><path d="M561.5357 718.238876h37.664974v-105.517565h-37.664974v105.517565z m-91.483728 0h37.66977v-105.517565h-37.66977v105.517565z m182.957864-105.517565v105.517565h37.669771v-105.517565h-37.669771z" fill="#6E6E96" p-id="5393"></path></svg>