<?xml version="1.0" standalone="no"?><!DOCTYPE svg PUBLIC "-//W3C//DTD SVG 1.1//EN" "http://www.w3.org/Graphics/SVG/1.1/DTD/svg11.dtd"><svg t="1711552921649" class="icon" viewBox="0 0 1140 1024" version="1.1" xmlns="http://www.w3.org/2000/svg" p-id="2772" xmlns:xlink="http://www.w3.org/1999/xlink" width="222.65625" height="200"><path d="M1090.995936 606.717788c0-173.489377-151.712303-252.720954-349.646677-252.720954-197.943135 0-591.551376 469.102975-438.419686 379.230378 25.951999-15.236505 88.199122-35.055351 117.436739 5.353367l-0.516937-0.109521s34.735551 29.645033 8.56451 172.328459c-6.001728 61.331531-2.746776 58.08096 10.001421 70.829157 33.714819 33.706057 165.717796 26.670454 203.112506 0 8.568891-26.771213 13.98797-51.172401 17.313015-72.931952 27.778803 7.846055 55.58389 12.148024 82.512813 12.148024 45.218861 0 87.187152-6.260197 125.36603-17.641577 3.206763 23.117606 8.83174 49.376263 18.123467 78.425505 22.464864 22.460483 155.379052 26.670454 182.06265 0 15.284694-56.337392 19.525331-202.328339 20.664345-289.598727 3.425804-55.732838 3.425804-55.732838 3.425804-85.312159z" fill="#D8D8E6" p-id="2773"></path><path d="M1101.947995 606.717788c0-165.104481-134.802324-263.673013-360.598736-263.673013-96.132794 0-224.727491 102.489369-292.823013 163.579954-89.237377 80.059552-173.826701 178.373996-188.563791 219.168226-4.280065 11.841366-3.162955 20.581109 3.320664 25.973903 8.735362 7.250263 21.825263 4.62615 45.188196-9.085828 18.452029-10.833777 76.984214-33.662249 103.019448 2.326217a10.952059 10.952059 0 0 1 11.175482-17.12902l-0.516938-0.109521a10.960821 10.960821 0 0 0-12.121739 5.857161 10.943297 10.943297 0 0 0 2.71173 13.181899c-0.021904 0.017523 28.974767 30.757763 4.902142 162.016a10.597212 10.597212 0 0 0-0.127044 0.911211c-5.384032 55.031906-4.332635 62.92177 10.251127 76.817743 0.933115 0.889307 1.896897 1.804899 2.908867 2.82125 39.120755 39.125136 177.633637 29.399707 217.214378 1.178442a10.952059 10.952059 0 0 0 4.074166-5.576789c8.021288-25.062692 13.979208-50.169192 17.716051-74.618569a10.969582 10.969582 0 0 1-13.808356 8.897453c29.509228 8.327946 58.282478 12.559821 85.496154 12.559821 45.004201 0 88.24293-6.089345 128.502699-18.101563a10.934536 10.934536 0 0 1-13.974827-8.993831c3.627322 26.157898 9.865615 53.161295 18.530884 80.256689 0.53008 1.664713 1.450053 3.176097 2.685445 4.407109 26.017712 26.017712 166.445013 31.095086 197.54448 0a10.952059 10.952059 0 0 0 2.830012-4.867095c15.753442-58.045913 19.94589-208.062837 21.049857-292.32798-0.008762 0.179614-0.008762 0.354847-0.026285 0.53446 3.438947-56.087685 3.438947-56.087685 3.438947-86.004329z m-25.347446 85.163211c-1.086444 83.226887-5.169372 231.171682-20.287594 286.869474 0.499414-1.844327 1.480718-3.530944 2.830012-4.871476-22.298392 22.289631-148.501159 18.062136-166.563295 0 1.231011 1.231011 2.150984 2.746776 2.681064 4.407108-8.288518-25.908191-14.242058-51.680576-17.698527-76.589939a10.973963 10.973963 0 0 0-4.924046-7.705869 10.912632 10.912632 0 0 0-9.055163-1.283581c-38.231448 11.403284-79.349858 17.185971-122.233741 17.185971-25.202878 0-51.960949-3.947122-79.533853-11.744988a10.938917 10.938917 0 0 0-8.901833 1.340532 10.934536 10.934536 0 0 0-4.902142 7.556921c-3.557229 23.310363-9.239157 47.282229-16.909979 71.254096 0.718455-2.256124 2.142223-4.209972 4.078547-5.576789-34.406989 24.532612-160.776227 29.408469-189.015016 1.174061a193.812018 193.812018 0 0 0-3.285618-3.189239c-7.053126-6.720183-8.520702-8.122047-3.56161-58.838843-0.030666 0.306658-0.074474 0.613315-0.127044 0.915593 26.54341-144.716128-8.183379-179.175686-12.231259-182.627776a10.952059 10.952059 0 0 1-9.410009 19.04344l0.516937 0.10514a10.947678 10.947678 0 0 0 11.175481-17.12902c-35.738759-49.380644-107.299513-22.789045-131.85403-8.376135-17.221018 10.110941-22.412294 9.94885-22.626954 9.940089 1.945086 0.100759 4.455298 2.632875 4.556057 4.577961-0.547603-10.886347 32.207815-62.290931 104.25046-138.048515 103.220966-108.543667 258.862868-235.294037 357.786246-235.294037 212.084434 0 338.698998 90.380772 338.698998 241.768895 0 29.241998 0 29.241998-3.421423 84.62437a3.837601 3.837601 0 0 0-0.030666 0.512556z" fill="#6E6E96" p-id="2774"></path><path d="M1086.60635 606.717788c0.008762-93.644486-51.251256-173.515662-121.764992-208.124169 25.592772 14.815946 46.949287 32.851796 63.079479 54.168884-9.690382-7.197693-21.303945-13.663789-35.239345-19.113534 0 0-152.417616 118.584515-232.792587 118.584515l-19.389525 38.235829s1.577097 0.122663 4.499106 0.275992h-24.67718s-61.401624 110.274092-285.726079 98.415203c-37.705749-39.164563-65.786828-84.475422-77.60629-132.169449-0.385512-1.555192-0.709693-3.097242-1.038255-4.652435-1.826803 16.975692-0.854261 35.094778 3.346949 54.387925 10.172272 46.682057 31.80478 91.458455 61.046777 131.871553l-0.398655-0.091997 0.381132 0.455606c0.420559 0.442463 1.086444 1.191584 1.923181 2.334979 0.021904 0.035047 0.05257 0.061332 0.078855 0.091997 41.192885 55.960641 60.266991 81.500843 120.612836 113.480855 32.466284 11.937744 44.390886 47.036903 44.390886 62.238361 0 67.079171-32.558281 84.059244-57.568403 87.213437 44.631831 0.21466 91.725685-8.441847 111.732906-22.718951 8.577653-26.793117 13.974827-51.176782 17.286731-72.940714 27.791945 7.850436 55.58389 12.156786 82.539098 12.156786 85.447965 0 159.418172-22.171348 217.65246-59.653675l-0.324181 0.280372 1.029493-0.735978c2.07651-1.344913 4.117974-2.685445 6.137534-4.061023 20.125504-12.638676 75.148649-41.324309 66.518426 29.474181-2.374406 19.516569-4.393966 36.2776-5.80021 50.401376-1.463195 14.52243-20.072934 39.94435-125.677068 39.94435-21.137474 0 128.616601 23.13513 141.75031 16.813601 24.234716-11.679276 44.903442 27.625474 44.903442-300.918775 0 0-0.091997 0.205899-0.258469 0.499414 8.143951-27.371386-0.648362-56.258537-0.648362-86.144516zM470.018567 721.876498l50.804412 36.189984a452.276231 452.276231 0 0 1-50.804412-36.189984z m560.320485-89.171665c-38.603818 108.197582-141.741549 187.043646-309.676042 187.043646-65.944538 0-137.356344-23.371694-199.691083-61.59438 0.670266 0.017523 169.24874 3.557229 257.920991-167.435079h-0.035047c55.4218-2.304313 157.801648-17.199114 217.091715-91.318269-0.017523 0.013142 71.267239-12.590487 34.389466 133.304082z" fill="#6E6E96" opacity=".15" p-id="2775"></path><path d="M653.916781 202.836515c-120.306179-66.422048-316.378702-9.782379-388.999615 121.75185-42.717411 77.378488-46.984333 156.277121-18.793733 221.665295l-0.026285-0.008762s0.048189 0.091997 0.078855 0.135806c1.70414 3.93398 3.495897 7.854817 5.432221 11.688037 9.699144 24.918125 21.939165 83.305742-57.143463 116.880375 0 0-112.950776 40.413098-127.946335-55.978165 0 0-0.998828-42.97588-21.991735-21.996115-20.988526 20.988526 17.987662 165.941218 143.940722 165.941218 83.98477 0 157.262807-42.669222 202.131203-86.512505 118.40052 43.194921 274.966776 15.394214 340.022006-102.436799 72.616532-131.525468 43.602338-304.712568-76.703841-371.130235z" fill="#D8D8E6" p-id="2776"></path><path d="M659.208816 193.251273c-58.983409-32.567043-137.619193-38.314683-215.751183-15.766584-83.034131 23.958724-151.602783 75.648062-188.130089 141.811641-43.08102 78.035611-49.923866 160.180435-19.262482 231.294345l13.278276-14.807184-25.785527-7.933671a12839.536933 12839.536933 0 0 0 12.92781 23.652067l0.175233 0.306657 0.271611 0.446844-0.810452-1.533288a229.064506 229.064506 0 0 0 5.708213 12.279449l-0.429321-0.968162c10.115322 25.987046 16.909979 73.895733-51.216209 102.831073l0.591411-0.236565c-0.512556 0.179614-52.837114 18.386317-86.249655-1.546431-14.877277-8.862406-23.765968-23.849204-27.183011-45.810272l0.127044 1.428148c-0.219041-9.30925-2.242982-31.581358-16.336091-37.228239-5.405936-2.164127-14.018636-2.584686-24.348618 7.745296-14.631951 14.631951-8.822979 51.014691 3.425804 80.585251 10.110941 24.405568 50.686129 104.062084 148.255833 104.062084 73.922018 0 152.347523-33.504539 209.784501-89.636032l-11.407664 2.462023c61.835326 22.556861 133.474934 26.013331 196.545652 9.471341 69.580622-18.24613 125.269652-59.771958 156.811582-116.91104 40.754802-73.803736 51.636768-164.442977 29.119334-242.456684-18.311843-63.473754-57.423836-114.453398-110.112002-143.542067z m61.817803 375.427823c-62.317216 112.86754-215.028347 138.175558-326.673638 97.433898l-6.479238-2.356883-4.928426 4.818906c-53.441667 52.219418-126.141436 83.388978-194.477904 83.388978-78.93368 0-114.479683-60.196897-126.097627-86.083184-14.978036-33.368734-13.260753-57.590307-10.080275-61.173821l-0.017523 0.017523c2.242982-2.247363 3.373234-2.681064 3.381995-2.685445-1.060159 0.407417-3.123527-0.113901-3.868267-0.968162 1.75671 2.006417 3.596656 10.846919 3.789413 18.167276l0.017523 0.700931 0.10952 0.714075c4.424632 28.435926 17.102735 49.065225 37.688226 61.305246 42.33628 25.172213 102.239662 4.205591 104.771778 3.29876l0.297896-0.100759 0.293515-0.122663c90.805712-38.551248 71.232192-109.963054 63.066337-130.934057l-0.188375-0.490652-0.240946-0.464367a205.670908 205.670908 0 0 1-5.156229-11.105388l-0.346085-0.79731-0.464367-0.731598 0.284753 0.47751-12.827051 15.731538 22.666381 6.974271c0.026285 0.008762-9.36182-21.772693-9.36182-21.772694-27.918989-64.752954-21.413466-140.054931 18.324985-212.027482 33.741104-61.11687 97.534657-108.990511 175.027047-131.354616 72.590248-20.949099 145.15421-15.880486 199.09091 13.895972 47.566983 26.263038 82.964038 72.590248 99.659357 130.447786 20.927194 72.55082 10.74616 156.96053-27.261865 225.796411z" fill="#6E6E96" p-id="2777"></path><path d="M46.984333 604.466044s74.149821 270.515859 329.762118-6.06744c0 0 100.63628 7.188932 156.553113-44.94287 59.180546-55.163331 55.697792-210.984847-67.972859-237.664063l140.983666-40.338624 134.793562 268.185261s-54.238977 202.135583-350.492175 132.752099c0 0-100.20696 101.026174-213.933141 88.391878-113.743705-12.643057-129.694284-139.498567-129.694284-160.316241z" fill="#6E6E96" opacity=".15" p-id="2778"></path><path d="M375.445347 414.044784a25.921333 25.921333 0 0 1-26.788737 25.395634c-14.46986-0.468748-25.921333-12.634295-25.597152-27.161106a25.908191 25.908191 0 0 1 26.801879-25.400016c14.46986 0.495033 25.921333 12.612391 25.58401 27.165488z" fill="#6E6E96" p-id="2779"></path><path d="M956.986541 122.233741c-89.789361-112.236701-246.69294-135.932576-350.457129-52.92035-63.968787 51.176782-127.096455 141.807261-145.092878 230.089619 54.764676-12.997904 116.288963 22.955516 143.08208 86.543171 19.985317 47.409273 15.464307 97.907027-7.81977 133.014948 111.145876 35.830756 260.247209 16.581417 334.979679-43.208064 103.764188-82.999084 115.092998-241.282623 25.308018-353.519324z" fill="#D8D8E6" p-id="2780"></path><path d="M877.308121 173.616421c-64.284206-80.353067-176.626047-97.315616-250.916054-37.885363-45.79713 36.636828-90.994088 101.525588-103.87809 164.736492 39.217133 6.619425 58.913316 19.932748 78.096943 65.462648 14.303389 33.942621 18.513361 38.152593 18.749925 91.738827 79.564519 25.654103 186.32081 11.86327 239.83257-30.937376 74.285626-59.425873 82.407673-172.749018 18.114706-253.115228z" fill="#E0A1CB" p-id="2781"></path><path d="M602.84514 201.066662c72.187212-57.743636 181.339813-41.258597 243.779692 36.812061 39.883018 49.862535 51.036595 112.779924 35.125444 166.786717 52.596168-62.531876 52.596168-159.746734-4.442155-231.044638-64.284206-80.353067-176.626047-97.315616-250.916054-37.885363-45.79713 36.636828-90.994088 101.525588-103.87809 164.736492 0.367989 0.061332 0.718455 0.144567 1.086444 0.205899 20.020364-39.6815 49.472641-75.801391 79.244719-99.611168z" fill="#CF94BB" p-id="2782"></path><path d="M109.187648 470.478554s28.926578 154.388986 195.253309 154.388986c0 0 62.505592 7.719011 62.505592-54.488684 0-46.300925-45.924174-30.034927-105.643562-38.603818-142.543239-20.432161-163.685094-126.921222-152.115339-61.296484z" fill="#F0F0FF" p-id="2783"></path><path d="M98.423964 472.493733c0.306658 1.634047 32.60647 163.321486 206.016993 163.321485l-1.340532-0.083235c1.344913 0.16209 33.158454 3.837601 55.123904-15.58259 13.054854-11.547851 19.67866-28.29574 19.67866-49.788061 0-44.132417-35.90085-45.227623-70.618877-46.283401-13.374655-0.411797-28.536685-0.867403-44.425933-3.149812-83.371454-11.950887-122.461544-53.77461-139.152481-71.639609-6.956748-7.4474-12.967238-13.878449-21.43537-9.650955-8.858025 4.429013-7.49997 12.139262-3.846364 32.856178z m161.323831 70.119463c17.098355 2.453261 32.913128 2.935152 46.866051 3.360091 40.658424 1.239773 49.380644 3.478374 49.380644 24.396807 0 14.881658-4.104832 26.087805-12.191832 33.29864-14.474241 12.888383-37.828412 10.351886-38.060596 10.321221l-0.630839-0.078855-0.674647-0.004381c-154.971636 0-183.359373-139.529233-184.494006-145.469629-1.003209-5.712594-2.562782-14.544334-2.510212-16.625226-0.048189 1.91442-1.612143 5.651262-5.594312 7.526255-3.99093 1.879373-7.885483 0.696551-9.405628-0.490652 0.810452 0.635219 3.176097 3.162955 5.261369 5.397175 16.70408 17.86938 61.051158 65.326842 152.054008 78.368554z" fill="#6E6E96" p-id="2784"></path><path d="M595.783252 368.834684s8.419943-40.014443 55.807312-55.811693" fill="#D8D8E6" p-id="2785"></path><path d="M606.498747 371.090808l-0.013143 0.070093c0.311038-1.393102 8.122047-34.262422 48.570192-47.746597a10.947678 10.947678 0 1 0-6.930463-20.778246c-52.736355 17.580245-62.663301 62.063128-63.066337 63.946882a10.952059 10.952059 0 0 0 21.439751 4.507868z" fill="#6E6E96" p-id="2786"></path><path d="M519.517493 922.724119c-3.995311 23.5075-23.384837 39.826068-43.304441 36.426549-19.919605-3.386377-15.516877-13.878449-11.521566-37.385949 3.99093-23.5075 6.067441-51.128593 25.995807-47.737835 19.915224 3.381996 32.825511 25.189736 28.8302 48.697235zM945.578876 922.649645c3.732462 15.862962-2.878201 30.989946-14.772137 33.789293-11.889555 2.794965-14.434814-3.894552-18.167276-19.766276-3.736843-15.854201-7.228359-34.89326 4.656816-37.692607 11.885175-2.786204 24.554516 7.806628 28.282597 23.66959z" fill="#D8D8E6" p-id="2787"></path><path d="M123.337708 451.816245s6.483619 177.594209 231.968992 125.15575c0 0-16.590179 104.938249-184.664858 0 0 0-64.126496-41.477638-47.304134-125.15575z" fill="#6E6E96" opacity=".15" p-id="2788"></path><path d="M531.862654 319.0291c19.564758 10.365029 37.377187 26.22361 51.268779 46.467396a141.807261 141.807261 0 0 0-5.300796-13.567411c-8.893072-19.503427-25.645342-29.128096-45.967983-32.899985z m419.507671-188.371035c-39.335415-49.161603-91.541691-81.329991-146.512265-94.989399 43.965946 14.84223 84.922266 41.184123 117.064369 78.311603 87.660281 101.267119 76.59432 244.08635-24.712226 318.97653-64.507628 47.698408-185.73816 66.768133-287.951538 48.215345-3.088481 16.975692-9.217253 32.737895-18.162894 46.22207 111.132734 35.835137 260.234066 16.581417 334.975298-43.208063 103.764188-83.003465 115.092998-241.291385 25.299256-353.528086z" fill="#6E6E96" opacity=".15" p-id="2789"></path><path d="M926.360203 112.407553C839.685607 0.170852 692.266512-15.100699 592.107741 67.915909c-61.760852 51.172401-110.501895 133.378556-127.86748 221.665295 8.993831-2.207935 1.910039-2.970198 11.079103-2.457643 26.429509-70.228984 75.402736-136.64227 124.919186-177.681825 100.167532-83.012227 251.63889-59.316352 338.326628 52.920349a281.730768 281.730768 0 0 1 43.330726 80.120884c-6.728945-45.5299-25.080215-90.648003-55.535701-130.075416z" fill="#EFEFFF" opacity=".82" p-id="2790"></path><path d="M973.143018 577.339984c11.964029 15.740299-3.097242 101.950527-33.649106 125.182036-30.565006 23.240269-65.033327 29.312091-76.997356 13.580553-11.964029-15.74468 16.068861-34.363181 46.625106-57.590308 30.556245-23.240269 52.052946-96.91258 64.021356-81.172281z" fill="#D8D8E6" p-id="2791"></path><path d="M965.537909 115.390894c-46.997476-58.742464-115.198138-97.013339-187.122501-105.003961-65.550264-7.28531-129.019637 10.605974-178.728842 50.375091-59.94281 47.956876-129.25182 139.665038-148.98305 236.454955l-3.425804 16.80484 16.686557-3.960265c50.112241-11.893936 106.199926 22.556861 130.460928 80.138407 17.860618 42.384469 15.236505 89.403849-6.847228 122.706869l-7.990622 12.042885 13.760167 4.437774c115.452226 37.215097 267.068151 17.413774 345.178236-45.083056 49.713587-39.760355 81.097807-97.753698 88.387498-163.299582 7.981861-71.928743-14.391006-146.871493-61.375339-205.613957z m-40.702233 351.810804c-71.740368 57.397551-217.433419 75.932816-324.781121 41.337451l5.760783 16.476278c26.096566-39.344177 29.469801-94.262182 8.787932-143.318645-28.365833-67.324498-95.296056-107.28199-155.703233-92.947935l13.260753 12.844575c18.636024-91.419027 84.343997-178.242571 141.198326-223.728663C658.507885 41.75363 716.264663 25.518298 775.992813 32.155245c66.189864 7.355403 129.045922 42.682365 172.433599 96.916962 43.387677 54.238977 64.052022 123.315804 56.692238 189.51443-6.636948 59.728149-35.142967 112.508312-80.282974 148.615061z" fill="#6E6E96" p-id="2792"></path></svg>