<?xml version="1.0" standalone="no"?><!DOCTYPE svg PUBLIC "-//W3C//DTD SVG 1.1//EN" "http://www.w3.org/Graphics/SVG/1.1/DTD/svg11.dtd"><svg t="1711552947228" class="icon" viewBox="0 0 1086 1024" version="1.1" xmlns="http://www.w3.org/2000/svg" p-id="4100" xmlns:xlink="http://www.w3.org/1999/xlink" width="212.109375" height="200"><path d="M247.003239 1020.403133c0-66.406524 143.966552-120.235499 321.558987-120.235499s321.558987 53.828974 321.558987 120.235499" fill="#F5E3CE" p-id="4101"></path><path d="M603.014974 523.48425a11.48425 11.48425 0 0 1-11.484249-11.48425v-55.124398a11.48425 11.48425 0 1 1 22.968499 0v55.124398a11.48425 11.48425 0 0 1-11.48425 11.48425zM490.469329 530.374799a11.48425 11.48425 0 0 1-11.48425-11.484249v-62.014948a11.48425 11.48425 0 1 1 22.9685 0v62.014948a11.48425 11.48425 0 0 1-11.48425 11.484249z" fill="#6E6E96" p-id="4102"></path><path d="M79.516944 876.454956a5.97181 5.97181 0 0 1-0.440995-1.763981c-0.004594-0.078093 0.009187-0.142405 0.009187-0.215904a3.532555 3.532555 0 0 1 0.24806-1.387297c0.027562-0.078093 0.045937-0.142405 0.078093-0.215904a4.341046 4.341046 0 0 1 0.932521-1.263268l0.234278-0.215903c0.436401-0.385871 0.927927-0.753367 1.534296-1.102488l0.03675-0.022969c0.629337-0.362902 1.368923-0.716617 2.163632-1.065738l0.463964-0.202123c0.813085-0.339934 1.681294-0.689055 2.636784-1.051957l0.096467-0.03675c14.015378-5.218443 42.652503-12.889922 64.049957-54.834995 9.196587-18.025678 20.671649-25.853343 31.825152-27.966444 20.203092-10.207201 59.267915-16.891034 100.427466-14.396655 58.95095 3.569305 73.136295 22.008416 72.07515 39.48285-1.061145 17.456059-22.247288 43.006218-81.216613 39.432319-20.841616-1.258674-40.268373-5.682407-56.640319-11.626654a68.519626 68.519626 0 0 1-2.062571 2.710282c-0.463964 0.592587-0.932521 1.194362-1.428641 1.78695-0.67068 0.817679-1.364329 1.62617-2.094727 2.448442-0.67068 0.744179-1.387297 1.497546-2.108508 2.250913-0.679868 0.716617-1.336767 1.433234-2.067165 2.154445-1.437828 1.428641-2.972124 2.861875-4.607481 4.30889-0.569619 0.500713-1.203549 1.010614-1.80073 1.515921a114.557686 114.557686 0 0 1-6.178526 4.947415c-1.479171 1.116269-3.027248 2.237132-4.639637 3.367182-0.679868 0.477745-1.345954 0.950896-2.04879 1.433234-2.374943 1.607795-4.832572 3.210996-7.47395 4.832572-46.230995 28.24666-92.696269 20.979427-100.60662 9.297649l-0.032155-0.064312a13.840818 13.840818 0 0 1-1.180581-2.108508c-0.059718-0.133217-0.133217-0.284809-0.183748-0.427214z" fill="#E67878" p-id="4103"></path><path d="M265.396413 772.995649c-44.094925-2.673533-85.079914 10.014266-85.952717 24.268516-0.859022 14.258844 34.788089 19.514037 78.883013 22.18757 44.094925 2.682721 59.966157-0.280216 60.825179-14.534466 0.877397-14.254251-9.660551-29.25268-53.755475-31.92162z" fill="#FF8787" p-id="4104"></path><path d="M69.075464 881.255372l0.137811 0.312372c0.597181 1.336767 1.300017 2.600034 2.154445 3.863301l-0.326152-0.505307-0.40884-0.744179 0.211311 0.42262 0.229684 0.376684 0.16078 0.275622 0.179154 0.266434c12.536207 18.508017 66.815364 24.172048 116.101169-5.939654a195.884547 195.884547 0 0 0 7.951695-5.14035c0.519088-0.358309 0.992239-0.684461 1.442421-1.015207l0.716618-0.500714c1.768574-1.235705 3.445275-2.448442 4.965789-3.60146a133.727195 133.727195 0 0 0 6.706802-5.370035l0.597181-0.500714c0.413433-0.339934 0.88199-0.725805 1.373516-1.166799 1.754793-1.548077 3.459056-3.142091 5.071445-4.726918 0.693649-0.684461 1.304611-1.336767 1.846667-1.910979 0 0 0.477745-0.500713 0.440995-0.473151 0.712023-0.739586 1.552671-1.62617 2.393318-2.563284a95.521394 95.521394 0 0 0 4.001112-4.809604c0.744179-0.960083 1.511327-1.947729 2.191195-2.894031l-13.110419 3.909239c18.746889 6.798676 39.4461 11.052442 59.865096 12.297334 71.174785 4.30889 92.200149-30.943162 93.371542-50.204545 0.620149-10.184232-2.627596-19.601317-9.394116-27.231453-12.563769-14.189939-36.588819-22.169195-73.448666-24.401733-40.883928-2.485192-82.608504 3.642804-106.302808 15.600204l3.036436-1.038176c-11.387782 2.159039-27.557605 9.812143-39.910064 34.030129-17.828149 34.930493-40.805835 43.166997-54.53181 48.091443l-3.298277 1.198956 0.854428-0.28481s-0.698242 0.202123-0.799304 0.238873l-0.67068 0.284809 0.528276-0.206717c-1.120863 0.413433-2.149852 0.822272-3.165059 1.249487l-0.514495 0.225091-0.055124 0.022969a33.612102 33.612102 0 0 0-3.284496 1.635357l-0.312371 0.183748-0.303184 0.202122 0.445589-0.284809-0.252654 0.146998-0.229685 0.151593 0.569619-0.353715a20.428183 20.428183 0 0 0-3.380963 2.448442l-0.376684 0.330746-0.238872 0.238872c-1.410266 1.37811-2.526535 2.939968-3.312058 4.621262 0 0-0.289403 0.624743-0.339933 0.762555l-0.21131 0.652305 0.220497-0.610962c-0.744179 1.860448-1.102488 3.831146-1.065738 5.650251l0.032156-0.854428-0.0735 0.978458 0.059719 0.854428c0.110249 1.718044 0.523682 3.482024 1.226517 5.241411-0.078093-0.197529 0.041343 0.12403 0.234279 0.569619z m21.466359-7.230483l-0.018374 1.479171 0.055124-0.666087-0.009187-0.574212c0.018375 1.04277-0.179154 2.108508-0.482339 2.852687 0 0 0.08728-0.225091 0.110249-0.303184l0.078093-0.229685-0.454777 1.134644a7.294795 7.294795 0 0 1-1.626169 2.269288 1.685888 1.685888 0 0 1-0.28481 0.206716l0.289403-0.160779 0.280216-0.188342-0.445589 0.28481 0.252654-0.151593 0.229685-0.151592-0.62015 0.385871c0.068905-0.045937 0.339934-0.197529 1.368923-0.647712 0.661493-0.284809 1.359735-0.555838 2.13607-0.849834l0.271028-0.096468 0.261841-0.110248-1.267861 0.454776s0.385871-0.105655 0.477745-0.142405l0.376683-0.133217 3.031842-1.097894c15.820702-5.664032 45.275505-16.220354 67.242578-59.272509 6.523054-12.784267 14.506904-20.157155 23.735647-21.907355l1.58942-0.29859 1.447016-0.725805c16.652162-8.406471 52.345209-15.747203 94.556717-13.179324 39.400163 2.388724 53.029671 11.48425 57.646338 16.702692 2.751626 3.105341 3.918426 6.477117 3.665773 10.620634-0.803897 13.151763-19.853971 31.655185-69.057089 28.664687-18.246176-1.102488-36.717443-4.896884-53.415542-10.960568 0 0-8.199754-2.972124-8.282441-2.871062L208.609096 831.459666c-0.473151 0.666086-1.061145 1.428641-1.681294 2.214163a60.852741 60.852741 0 0 1-3.018061 3.62443c-0.592587 0.661493-1.267861 1.373516-1.888011 2.01204l-0.542056 0.574213c-0.468557 0.486932-0.868209 0.91874-1.267861 1.318391-1.309204 1.286236-2.705689 2.59544-4.129737 3.858708a31.949182 31.949182 0 0 1-0.84524 0.70743l-0.808491 0.675274c-1.272455 1.079519-2.462223 2.053384-3.629023 2.972124-0.601775 0.473151-1.240299 0.95549-2.035009 1.557264-1.313798 0.996833-2.75622 2.044196-4.272141 3.105341l-0.826866 0.578806c-0.395058 0.284809-0.767148 0.542057-1.093301 0.767148-2.590847 1.759387-4.823385 3.197215-7.023767 4.538575-42.000197 25.665001-80.628619 17.497403-85.249881 12.481083 0 0 0.055124 0.064312 0.133218 0.179154l0.339933 0.532869 0.40884 0.74418-0.211311-0.427214-0.229685-0.376684-0.156185-0.266434-0.169967-0.252654a2.283069 2.283069 0 0 1-0.206717-0.362902c0.064312 0.21131 0.266435 0.799304 0.33534 1.809918z" fill="#6E6E96" p-id="4105"></path><path d="M146.212871 907.935581c-36.685287 88.947809-90.780696 79.241322-73.140888 96.724943 11.470468 11.374001 68.294535 6.711395 118.724172-39.230197 50.443418-45.927811 50.535292-79.448038 39.662004-91.38247-10.8641-11.934432-55.014149-39.386382-85.245288 33.887724z" fill="#FF8787" p-id="4106"></path><path d="M234.678342 906.80553c-4.92904 15.636954-17.547933 35.564424-42.882187 58.624797-50.43423 45.932404-107.253703 50.590416-118.724172 39.230197-5.737531-5.677813-3.858708-8.502938 2.494379-12.756705 114.952744-0.004594 94.768027-94.777215 94.768027-94.777214l64.343953 9.678925z" fill="#E67878" p-id="4107"></path><path d="M189.56821 848.235858c-22.279444 3.904645-40.433746 22.509129-53.971379 55.321927-20.745148 50.296419-47.140547 66.72349-61.325892 75.55258-8.080318 5.025508-15.058148 9.375741-16.027419 17.956773-0.914146 8.14463 4.850947 13.86838 6.748145 15.742609 17.713306 17.557121 82.015916 8.962308 134.535686-38.894856 39.19804-35.688454 48.357878-63.177154 49.138807-79.948752 0.514494-11.098379-2.581659-20.915115-8.718842-27.658666-7.836852-8.604-27.272796-22.118665-50.379106-18.071615z m3.959769 22.623971c13.799474-2.411692 25.926842 7.06511 29.441022 10.933006 1.947729 2.13607 2.976717 6.288775 2.75622 11.11216-0.381277 8.19516-5.209256 30.846694-41.660263 64.036175-47.659636 43.415057-96.554976 44.301641-103.041281 39.432319 0 0.009187 0.050531 0.045937 0.133218 0.12403a7.248858 7.248858 0 0 1-0.836054-0.923333c1.300017 1.878823 0.946302 5.912092-0.666086 7.565823 0.83146-0.859022 4.115955-2.894031 6.752738-4.533982 16.371946-10.19342 46.855738-29.1654 70.421419-86.292651 10.188826-24.686543 22.881219-39.032667 36.699067-41.453547z" fill="#6E6E96" p-id="4108"></path><path d="M309.14681 789.445688c-81.827575 25.669595-148.128444 74.698153-140.525871 98.916138 7.593386 24.217985 87.174641 38.499798 168.993029 12.839391 81.813794-25.678782 97.335905-71.298815 89.737926-95.535175-7.597979-24.227173-36.39129-41.889949-118.205084-16.220354z" fill="#E67878" p-id="4109"></path><path d="M269.071373 806.102443c-61.059458 19.155728-110.538199 55.739954-104.86498 73.806975 5.668626 18.085396 65.046789 28.74278 126.106248 9.587051 61.064052-19.160322 72.640175-53.195044 66.966956-71.298814-5.659438-18.057834-27.157953-31.246346-88.208224-12.095212z" fill="#FF8787" p-id="4110"></path><path d="M414.030164 773.211552c-23.10631-12.076837-58.537517-10.345012-108.319441 5.268974-67.821384 21.278018-128.720062 59.065792-144.8072 89.86655-4.391577 8.406471-5.480284 16.298447-3.238558 23.446243 2.572472 8.19516 9.283867 15.182178 19.945845 20.754336 30.235732 15.79314 96.086419 20.735961 163.448433-0.395058 94.859901-29.762581 105.099258-84.914541 97.257812-109.927237-4.014894-12.775079-12.412177-22.80772-24.286891-29.013808z m-10.639009 20.359278c6.541429 3.417713 10.795195 8.507532 13.000171 15.535893 6.353087 20.249029-10.303669 58.569673-82.213446 81.133926-60.747086 19.050073-120.524902 15.228115-145.937249 1.952322-5.641063-2.944562-8.190567-5.751312-8.663718-7.267233-0.202123-0.629337-0.068905-2.581659 1.676701-5.930466 11.23619-21.512296 64.63795-57.673901 131.32469-78.579829 53.64982-16.845097 78.997856-13.018545 90.812851-6.844613z" fill="#6E6E96" p-id="4111"></path><path d="M135.059368 547.555237s0.307778 42.753564 39.933033 82.388006c39.629848 39.625255-2.480598 95.360614 108.980934 146.134778 92.397678 42.096665 92.880017-58.202177 52.014463-99.06773s-133.754757-49.533865-133.754757-86.692303c0.004594-52.009869-67.173672-130.40595-67.173673-42.762751z" fill="#E67878" p-id="4112"></path><path d="M123.575119 547.637923c0.013781 1.938541 0.83146 47.949039 43.29562 90.431575 11.78284 11.773653 15.030586 25.756875 18.79742 41.958854 7.40045 31.83434 16.606225 71.455001 93.546103 106.514117 51.619405 23.510556 74.803808 4.708542 84.027957-8.585625 19.275164-27.791884 10.15667-79.769597-19.13276-109.063621-19.812627-19.808034-49.905955-32.279929-76.462133-43.281839-26.510242-10.992724-53.925442-22.343756-53.925442-35.293396 0-37.838305-32.642831-93.683914-61.969011-93.683914-12.853172-0.009187-28.177755 8.829091-28.177754 51.003849z m67.178266 42.670878c0 28.28341 33.079232 42.000197 68.106193 56.507101 24.576294 10.184232 52.43249 21.723606 69.011152 38.311457 21.002396 20.993208 29.32618 61.234019 16.50057 79.72366-11.980369 17.267718-40.001938 7.89657-55.634298 0.771741-66.649991-30.359762-73.7886-61.08702-80.697525-90.808258-4.180267-17.979741-8.498345-36.570444-24.925415-52.992921-35.881389-35.890577-36.565851-73.976942-36.570444-74.349031 0-23.574867 5.291942-27.920507 5.347066-27.94807a0.523682 0.523682 0 0 1-0.197529 0.064312c0.698242-0.08728 3.84952 0.693649 8.966902 5.236818 14.235876 12.6143 30.093327 42.601972 30.093328 65.483191z" fill="#6E6E96" p-id="4113"></path><path d="M354.422315 705.289107c-4.428327-10.643602-10.680352-20.543026-18.429923-28.28341-40.865554-40.874741-133.754757-49.538459-133.754758-86.696896 0-18.039459-8.080318-39.239384-18.641234-55.602143-19.987188 7.372888-31.54953 17.359592-26.661833 28.209911 0 0 24.328234-8.562656 30.901818 30.911006 6.578178 39.469069 108.296473 93.004046 123.285716 143.328028 7.10186 23.809146 26.974205 3.720897 43.300214-31.866496z" fill="#FF8787" p-id="4114"></path><path d="M204.47048 508.013478a58.091928 35.624142 88.957 1 0-71.23648 1.296917 58.091928 35.624142 88.957 1 0 71.23648-1.296917Z" fill="#FF8787" p-id="4115"></path><path d="M139.942471 473.729887a74.574123 74.574123 0 0 0-4.938227 15.627767c-0.032156 1.153019-0.018375 2.3336 0.055124 3.55093 0 0 3.436087 32.362615 29.514521 23.657554 26.083028-8.709655 6.173933 68.565563-24.824353 24.645199 6.670052 15.503737 17.750056 25.605283 30.130077 25.375598 19.674816-0.344527 35.146397-26.652646 34.558403-58.725859-0.395058-21.97626-8.23191-40.957428-19.449725-50.622571-19.518631-0.601775-36.878222 4.630449-45.04582 16.491382z" fill="#E67878" p-id="4116"></path><path d="M167.973227 461.905704c3.518774-0.064312 7.074298 1.612389 10.56551 4.974976 8.581031 8.273253 14.102658 24.052612 14.41503 41.177926 0.312372 17.129907-4.630449 33.102201-12.908297 41.678638-3.367182 3.500399-6.862988 5.296536-10.381761 5.360848-11.392376 0.21131-24.498201-19.481881-24.985133-46.152902-0.312372-17.129907 4.635043-33.102201 12.908296-41.678639 3.371776-3.491212 6.862988-5.296536 10.386355-5.360847z m-46.253963 47.457512c0.712023 39.009699 21.957885 69.185713 48.367065 68.707968 9.692707-0.179154 18.857138-4.460483 26.501054-12.380021 12.536207-13.00017 19.762097-34.700808 19.334883-58.041397-0.42262-23.345182-8.438627-44.765605-21.438797-57.297217-7.924132-7.639323-17.235562-11.580717-26.928268-11.406157-9.692707 0.174561-18.852544 4.455889-26.496461 12.380021-12.536207 12.995577-19.76669 34.696215-19.339476 58.036803z" fill="#6E6E96" p-id="4117"></path><path d="M838.483433 753.555111c0 142.367945-129.77202 229.864145-289.83949 229.864145-175.079681 0-194.639655-124.553577-289.825708-229.864145-90.9966-100.661744 129.762832-257.770871 289.825708-257.770871 160.081251 0 289.83949 115.402927 289.83949 257.770871z" fill="#D8D8ED" p-id="4118"></path><path d="M826.999184 753.555111c0 128.577658-114.461218 218.379895-278.355241 218.379895-121.733045 0-162.989063-60.972178-215.228617-138.169303-19.59213-28.95409-39.850346-58.882044-66.080372-87.914227-20.120405-22.256476-23.643773-48.578376-10.473635-78.235301 35.93192-80.922616 180.463497-160.347686 291.782624-160.347686 153.484698 0 278.35524 110.487668 278.355241 246.286622z m-278.355241-269.255121c-121.057771 0-273.058704 84.556232-312.775832 174.000162-16.946159 38.169052-11.957401 73.774819 14.428811 102.958594 25.150506 27.828633 44.949353 57.085908 64.100487 85.383098 51.591843 76.246229 100.326404 148.261661 234.246534 148.261661 82.172102 0 157.416905-22.68369 211.870623-63.866208 58.519142-44.260298 89.453116-105.632127 89.453117-177.482186 0-148.468378-135.174211-269.255121-301.32374-269.255121z" fill="#6E6E96" p-id="4119"></path><path d="M348.298913 678.360839c108.627219 13.817849 189.724396 75.194272 248.528348 68.115381 107.198579-12.903703 103.50065-57.880618 142.519536-68.634469 41.081457-22.564253 91.005787 14.901962 77.555434-21.907355-43.263465-93.950349-147.044331-160.150157-268.253694-160.150156-104.097831 0-220.90643 48.831029-272.015934 122.123509-21.085082 36.326978-40.718555 46.166683 71.66631 60.45309z" fill="#E67878" p-id="4120"></path><path d="M397.754686 625.459792c78.092897 8.773967 136.386947 47.746916 178.658173 43.254277 77.068502-8.19516 74.413343-36.745005 102.471661-43.575836 29.528302-14.32775 65.414285 9.467615 55.753735-13.895942-31.103941-59.635411-105.71022-101.667764-192.843518-101.667765-74.83137 0-158.804203 31.00288-195.544614 77.523279-15.168397 23.060373-29.280243 29.303211 51.504563 38.361987z" fill="#FF8787" p-id="4121"></path><path d="M346.847304 689.753214c52.290085 6.647084 98.263833 24.709511 138.821609 40.64965 42.882188 16.849691 79.921189 31.402532 112.522677 27.474918 73.209794-8.810716 98.525674-32.909265 117.010721-50.503135 9.421678-8.962308 16.220354-15.439425 27.194703-18.471267l1.300017-0.353715 1.180581-0.652305c16.064168-8.829091 34.540029-6.509273 49.373086-4.644231 13.643288 1.704263 25.416941 3.183434 32.523394-5.732937 7.019173-8.810716 2.586253-20.961052 0.914147-25.536378l-0.16078-0.445588-0.197529-0.427215c-46.67199-101.346205-156.066357-166.829396-278.685987-166.829396-111.741748 0-230.103017 53.433916-281.437612 127.038769l-0.275622 0.390464-0.238873 0.413433a357.44497 357.44497 0 0 1-5.985591 9.85808c-8.39269 13.49629-15.636954 25.159694-9.747831 37.548902 7.083485 14.888181 28.591188 21.663888 95.88889 30.221951zM286.049687 624.472146c47.361045-67.913258 157.798182-117.212844 262.594256-117.212844 113.684883 0 214.888684 60.241779 257.825996 153.470917l-0.358309-0.863616c1.584826 4.322672 1.543483 5.875342 1.53889 5.939654 0.064312-1.62617 1.938541-3.932207 3.527961-4.34564-2.012041 0.523682-8.980683-0.349121-14.065908-0.992239-16.206573-2.030415-40.70018-5.1036-63.291996 7.303983l2.476004-1.006021c-16.532726 4.55695-26.436742 13.987816-36.928753 23.97452-17.04722 16.229541-38.274707 36.437227-103.914084 44.329203-26.854769 3.229371-61.390204-10.335825-101.378361-26.055465-41.807262-16.427071-89.191276-35.045336-144.320267-42.050729-59.846721-7.607167-75.506644-13.670851-78.102084-17.405528a1.561858 1.561858 0 0 1 0.21131 0.656899c-0.059718-2.540316 4.80501-10.36798 8.360534-16.082543 1.943135-3.12831 4.143517-6.665458 6.343899-10.455261l-0.519088 0.79471z" fill="#6E6E96" p-id="4122"></path><path d="M925.093049 548.345353s-0.33534 47.365639-44.232735 91.253847c-43.901989 43.897395 2.751626 105.618346-120.70865 161.863606-102.352226 46.626053-102.880501-64.472577-57.618777-109.743488s148.151413-54.867151 148.151413-96.022107c0-57.609589 74.40875-144.439703 74.408749-47.351858z" fill="#FF8787" p-id="4123"></path><path d="M880.860314 639.590012c43.897395-43.901989 44.232735-91.249253 44.232735-91.249253 0-15.205146-1.819105-25.89928-4.901477-32.900078-21.999228 9.306836-48.486502 22.205945-48.486502 22.205945s-2.96753 26.404587 13.395229 34.186314c16.353571 7.795509 18.691765 40.511839-17.129907 55.312739-35.840046 14.800901-28.044537 93.46801-96.591726 112.159775-68.538001 18.696358-82.562567-9.338992-68.538001-42.836251 1.791543-4.276735 1.865042-5.999372 0.702836-5.696187-0.33534 0.316965-0.684461 0.629337-1.010614 0.946302-45.266318 45.266318-44.733449 156.369542 57.618777 109.743488 123.460276-56.231479 76.820442-117.975399 120.70865-161.872794z" fill="#E67878" p-id="4124"></path><path d="M913.6088 548.26726v-0.055124c0 0.431808-1.148425 43.548274-40.865554 83.27459-17.942991 17.938398-22.688283 38.361987-27.277389 58.105709-7.717416 33.207856-15.692079 67.541168-90.068672 101.419704-17.676557 8.057349-49.377679 18.595297-63.158779-1.272455-14.493123-20.905928-5.204662-66.268713 18.42533-89.889518 18.535579-18.535579 49.510897-31.37497 76.848004-42.698439 38.398737-15.91717 74.67059-30.943162 74.67059-61.440735 0-36.239698 31.880277-79.572068 44.434859-79.572068 1.139238-0.013781 6.991611 5.590533 6.991611 32.128336z m-74.40875 47.443732c0 15.154616-30.750227 27.892945-60.494433 40.222435-29.312399 12.150336-62.520254 25.913061-84.294391 47.678011-32.059431 32.059431-42.096665 88.888091-21.05752 119.220291 10.005078 14.419624 35.187741 34.76512 91.557031 9.090932 84.671075-38.573297 94.795589-82.135353 102.921844-117.134752 4.207829-18.112958 7.850633-33.772881 21.149394-47.062454 46.690365-46.690365 47.586136-97.170532 47.595324-99.297415 0-45.688938-16.303041-55.262209-29.973891-55.262209-31.894058-0.004594-67.403357 61.119176-67.403358 102.545161z" fill="#6E6E96" p-id="4125"></path><path d="M870.432042 474.342957a44.58645 72.704487 16.903 1 0 85.320485 25.927225 44.58645 72.704487 16.903 1 0-85.320485-25.927225Z" fill="#FF8787" p-id="4126"></path><path d="M955.751402 500.290659c6.527647-21.452578 6.385243-42.432005 0.904959-58.041397-37.994491 9.417085-78.703859 33.364042-78.703859 33.364042s-0.799304 17.263124 38.499798 20.970239c39.216415 3.697928-37.378935 80.013063-49.460366 26.188683 3.307464 17.226374 12.007931 30.176014 24.957571 34.117409 23.561086 7.161578 52.133899-18.181864 63.801897-56.598976z" fill="#E67878" p-id="4127"></path><path d="M895.3075 545.864755c-4.974977-1.506734-9.132275-5.342473-12.361646-11.396969-7.372888-13.808662-7.947101-35.573611-1.497547-56.796505 10.487417-34.51706 34.494092-53.498228 49.474147-48.950465 4.974977 1.511327 9.132275 5.347067 12.361647 11.401563 7.368294 13.808662 7.942507 35.573611 1.497546 56.796505-6.449555 21.222893-19.040886 38.982137-32.84036 46.350431-6.063684 3.238558-11.65881 4.111361-16.633787 2.59544z m71.445813-42.266632c8.282441-27.245234 7.078891-55.018743-3.210996-74.289313-6.109621-11.461281-15.090304-19.261383-25.945217-22.564254-30.079546-9.136869-64.394484 19.082229-78.120459 64.247486-8.282441 27.245234-7.083485 55.018743 3.201809 74.293907 6.127996 11.456687 15.099491 19.252196 25.954404 22.555066s22.656127 1.814511 34.122002-4.308891c19.270571-10.285294 35.716016-32.688768 43.998457-59.934001z" fill="#6E6E96" p-id="4128"></path><path d="M964.516181 292.444117c-1.300017 6.987017-6.118808 11.957401-10.74007 11.089192-4.630449-0.863616-4.43292-6.105027-3.132903-13.092045 1.304611-6.991611 3.224777-13.082857 7.85982-12.214647 4.635043 0.863616 7.322358 7.235077 6.013153 14.2175zM973.694393 184.42786c4.207829 18.278332-2.191195 35.357707-14.277219 38.146083-12.104399 2.792969-17.166656-10.083171-21.374485-28.356909-4.217016-18.278332-5.994778-35.031555 6.109621-37.829118 12.095212-2.792969 25.325067 9.761612 29.542083 28.039944z" fill="#FFFFFF" p-id="4129"></path><path d="M279.742537 216.092233S330.424828 337.471563 235.541958 358.124837c-94.88287 20.653274-119.261635 119.748567-36.244292 126.446181 83.021937 6.697614 177.160627-130.938819 129.799582-225.454193-47.356451-94.506186-54.127565-50.549073-49.354711-43.024592z" fill="#FF8787" p-id="4130"></path><path d="M329.106436 259.121419c-12.591331-25.118351-22.288631-40.392402-29.684489-49.230681 88.649219 129.992517-51.081942 243.355841-51.081941 203.891366 0-39.331258-14.382874-54.954431-14.497717-55.234646l-0.022969 0.004593c-20.97024 43.166997-46.442305 84.050925-64.348547 117.502248 7.699041 4.474264 17.566308 7.529074 29.840674 8.516719 83.012749 6.697614 177.156033-130.938819 129.794989-225.449599z" fill="#E67878" p-id="4131"></path><path d="M269.144872 220.515966l-0.004594-0.009188c0.24806 0.601775 24.691136 60.434715 5.039289 98.043335-7.699041 14.736589-21.140207 24.015863-41.081457 28.352316-63.043936 13.725975-98.14899 60.32906-95.659205 97.459935 1.520515 22.715846 18.328862 48.215473 60.940021 51.651561 41.315736 3.335026 87.165454-24.52117 119.656693-72.6953 29.454803-43.66771 50.530698-111.089443 21.333142-169.351337-28.95409-57.779556-43.525306-65.841499-53.957598-66.107934-6.30715-0.160779-12.012525 3.174247-15.269458 8.920965-4.226204 7.464762-4.267547 18.8847-0.096468 25.458284l-0.900365-1.722637z m49.690051 43.745803c24.760042 49.409835 5.985591 107.928977-19.84019 146.217465-27.442763 40.681806-66.208995 65.271881-98.764546 62.648878-24.534951-1.979885-38.692734-12.73833-39.86872-30.29545-1.80073-26.822613 27.369263-62.543223 77.628933-73.480822 26.661834-5.801843 45.698126-19.334883 56.589788-40.22703 24.594669-47.191078-3.045623-114.603623-4.230798-117.451716l-0.376683-0.900366-0.523682-0.826865c0.473151 0.744179 0.601775 1.240299 0.606369 1.244892-0.202123-0.780929-0.114842-2.563284 0.156185-3.224777-0.813085 1.975291-4.566138 3.500399-6.582771 2.66894 0.418027 0.169967 10.767632 4.869322 35.206115 53.626851z" fill="#6E6E96" p-id="4132"></path><path d="M308.039728 157.269907S154.00838 102.660003 66.333025 274.018788c-87.670761 171.35419 133.584791 319.859318 167.500077 145.211444 17.538746-90.367263-42.569816-149.235526 9.371147-218.039961 38.090959-50.457199 61.42236-28.641718 64.835479-43.920364z" fill="#E67878" p-id="4133"></path><path d="M311.880061 146.44715c-1.635357-0.578806-164.569296-55.905327-255.768018 122.344007C22.692877 334.099787 27.943476 405.031106 70.154984 458.533928c30.051984 38.090959 72.777986 57.044564 108.847717 48.29816 19.408382-4.708542 53.801412-22.068134 66.10334-85.406067 7.869008-40.534807 0.969271-75.07943-5.117382-105.554034-8.061943-40.360247-14.433405-72.240523 12.380021-107.759011 21.379079-28.324753 36.202948-30.699696 46.015091-32.275335 6.702208-1.074926 17.920023-2.875656 20.864585-16.064168l2.214163-9.926985-9.582458-3.399338zM234.039818 194.272159c-33.024108 43.745803-25.035664 83.747741-16.574069 126.09706 5.948841 29.780956 12.099805 60.581713 5.094413 96.674412-7.409638 38.159864-24.342015 61.486672-48.973433 67.467669-26.946643 6.536835-61.266174-9.614614-85.39688-40.199467-36.496945-46.258557-40.847179-107.961133-11.631248-165.056228 81.864324-159.998564 221.751671-113.216326 227.668356-111.14916l-7.391263-13.335511a0.647712 0.647712 0 0 1-0.009187 0.045937c0.24806-0.891178 1.405672-2.159039 2.29685-2.503566-0.647712 0.252653-2.802157 0.597181-4.377796 0.849834-11.801215 1.888011-33.7591 5.411378-60.705743 41.10902z" fill="#6E6E96" p-id="4134"></path><path d="M274.38169 161.289394s-120.134437-35.716016-188.516253 97.928493c-68.381815 133.649102 104.185112 249.474649 130.631041 113.257669 13.684632-70.481136-33.203262-116.395166 7.308577-170.063361 29.716644-39.345039 47.912289-29.197556 50.576635-41.122801z" fill="#FF8787" p-id="4135"></path><path d="M1026.848094 840.385225c0.252653-0.629337 0.404246-1.226518 0.440995-1.759387l-0.009187-0.215904a3.569305 3.569305 0 0 0-0.252654-1.391891c-0.027562-0.073499-0.045937-0.142405-0.078093-0.21131a4.359421 4.359421 0 0 0-0.932521-1.267862l-0.238872-0.21131a9.380335 9.380335 0 0 0-1.534296-1.107081l-0.03675-0.018375a21.1448 21.1448 0 0 0-2.163632-1.065739c-0.151592-0.073499-0.303184-0.133217-0.463964-0.206716a85.824094 85.824094 0 0 0-2.733251-1.084113c-14.015378-5.218443-42.652503-12.889922-64.049957-54.834995-9.196587-18.025678-20.671649-25.857936-31.825152-27.966444-20.203092-10.207201-59.267915-16.895628-100.427465-14.396655-58.95095 3.569305-73.136295 22.008416-72.07515 39.482849 1.061145 17.451466 22.251882 43.001624 81.216612 39.43232 20.841616-1.263267 40.272966-5.682407 56.640319-11.626655l0.08728 0.105655c0.615556 0.863616 1.295423 1.731825 1.979885 2.604628 0.468557 0.592587 0.932521 1.189768 1.433234 1.791543a81.441704 81.441704 0 0 0 4.203236 4.694761c0.679868 0.712023 1.336767 1.433234 2.062571 2.154446 1.437828 1.424047 2.972124 2.857281 4.612074 4.304296 0.565025 0.500713 1.203549 1.015208 1.800731 1.515921 1.272455 1.084113 2.586253 2.177414 3.978144 3.266121 0.70743 0.565025 1.451609 1.120863 2.200382 1.685888 1.479171 1.116269 3.027248 2.237132 4.639637 3.362588 0.679868 0.477745 1.345954 0.95549 2.053384 1.433234 2.370349 1.612389 4.827979 3.21559 7.473949 4.837166 46.226401 28.242066 92.691675 20.974833 100.602026 9.293055l0.032156-0.059718a13.872973 13.872973 0 0 0 1.180581-2.113102c0.045937-0.12403 0.12403-0.271028 0.183748-0.427214z" fill="#E67878" p-id="4136"></path><path d="M787.203962 768.861319c0.863616 14.258844 16.734848 17.212593 60.825179 14.534466s79.737441-7.942507 78.883013-22.18757c-0.863616-14.258844-41.857793-26.942049-85.952717-24.27311-44.094925 2.664346-54.637466 17.671963-53.755475 31.926214z" fill="#FF8787" p-id="4137"></path><path d="M1037.514665 844.629803c0.698242-1.759387 1.111675-3.527961 1.231111-5.241411l0.059718-0.854428c-0.004594-0.12403-0.078093-0.978458-0.078092-0.978458l0.036749 0.854428a14.621747 14.621747 0 0 0-1.065738-5.650251l0.220497 0.610962-0.21131-0.656899a15.990669 15.990669 0 0 0-3.651991-5.383816l-0.243466-0.234279-0.376684-0.330746a20.322528 20.322528 0 0 0-3.376369-2.448442l0.569619 0.349121-0.229685-0.146998a139.538226 139.538226 0 0 0-0.257247-0.151592l0.450182 0.284809-0.303184-0.197529-0.312372-0.188342a34.200095 34.200095 0 0 0-3.284495-1.630763l-0.055124-0.022969c-0.463964-0.202123-0.509901-0.229685-0.509901-0.229685a63.204716 63.204716 0 0 0-3.165059-1.249486l0.528275 0.21131-0.67068-0.284809a32.748486 32.748486 0 0 0-0.799304-0.243466l0.854429 0.284809-3.293683-1.203549c-13.725975-4.910665-36.703662-13.147169-54.531811-48.091444-12.352459-24.213392-28.53147-31.871089-39.910064-34.030128l3.036436 1.038176c-23.68971-11.961994-65.414285-18.08999-106.302807-15.600204-36.859847 2.223351-60.884897 10.216388-73.45326 24.401733-6.76652 7.634729-10.014266 17.051814-9.394117 27.236046 1.175987 19.252196 22.196757 54.513436 93.371543 50.199952 20.418996-1.240299 41.118207-5.484878 59.865096-12.297335l-13.110419-3.904644c0.675274 0.946302 1.442422 1.933948 2.195788 2.889437 0.473151 0.597181 1.028989 1.304611 1.62617 2.039602 0.753367 0.904959 1.552671 1.842074 2.374943 2.770001a132.160744 132.160744 0 0 0 2.838906 3.04103c0.542057 0.569619 1.153019 1.221924 1.842074 1.906385 1.616982 1.594014 3.321245 3.17884 5.071444 4.731511 0.486932 0.436401 0.960083 0.826866 1.373517 1.1668l0.59718 0.500713c1.488359 1.258674 2.907812 2.42088 4.313485 3.541743 0.753367 0.597181 1.497546 1.162206 2.393317 1.823698 1.515921 1.157612 3.192621 2.379537 4.961196 3.606055l0.716617 0.500713c0.45937 0.321559 0.923334 0.656899 1.442422 1.010614 2.926187 1.989072 5.443534 3.606054 7.947101 5.14035 49.285805 30.116296 103.564962 24.452264 116.096575 5.944248l0.179154-0.271029 0.16078-0.271028 0.234278-0.376683c0.009187-0.032156 0.206716-0.427214 0.206717-0.427214l-0.404246 0.744179-0.326152 0.505307a24.254735 24.254735 0 0 0 2.154445-3.858708l0.137811-0.312372c0.188342-0.445589 0.312372-0.771742 0.229685-0.565025z m-21.351517-8.470782a3.399338 3.399338 0 0 1-0.206716 0.367496l-0.169967 0.252653-0.16078 0.261841-0.225091 0.376684-0.215904 0.431807 0.413433-0.744179 0.339934-0.537463 0.128623-0.17456c-4.621262 5.01632-43.249684 13.183918-85.249881-12.485676a166.682398 166.682398 0 0 1-7.023767-4.533982l-1.0933-0.767148-0.826866-0.578806c-1.515921-1.056551-2.962936-2.108508-4.272141-3.109935-0.799304-0.601775-1.437828-1.079519-2.035009-1.552671a121.861669 121.861669 0 0 1-3.629023-2.976717 305.145697 305.145697 0 0 0-0.808491-0.67068c-0.316965-0.271028-0.624743-0.509901-0.849835-0.70743-1.428641-1.258674-2.815938-2.572472-4.125142-3.858708a63.328746 63.328746 0 0 1-1.267861-1.318392l-0.542057-0.574212a126.000592 126.000592 0 0 1-1.883417-2.016634 79.245915 79.245915 0 0 1-1.782355-2.071759c-0.445589-0.537463-0.872803-1.084113-1.244893-1.55267-0.620149-0.79471-1.212737-1.552671-1.6767-2.214164l-5.071445-7.097266c-0.08728-0.105655-8.287034 2.871062-8.287034 2.871062-16.698099 6.054496-35.164772 9.853486-53.415542 10.955974-49.203119 2.985905-68.248598-15.512924-69.057089-28.664686-0.252653-4.13433 0.914146-7.510699 3.670366-10.616041 4.612075-5.218443 18.241582-14.318562 57.646339-16.707286 42.206914-2.563284 77.904555 4.772854 94.556717 13.179325l1.442422 0.730398 1.58942 0.298591c9.233337 1.7502 17.217187 9.109307 23.740241 21.90276 21.957885 43.056748 51.412688 53.608477 67.242577 59.277103l3.027249 1.0933 0.376683 0.133218c0.096468 0.03675 0.477745 0.146998 0.477745 0.146998l-1.267861-0.454776 0.266434 0.105655 0.275622 0.096468c0.771742 0.284809 1.469984 0.565025 2.136071 0.849834 1.028989 0.454776 1.295423 0.601775 1.364328 0.643118l-0.620149-0.385871 0.234279 0.151592 0.252653 0.151592-0.450182-0.284809 0.284809 0.188342 0.289403 0.165373a1.515921 1.515921 0 0 1-0.284809-0.206717 7.492324 7.492324 0 0 1-1.62617-2.264694l-0.45937-1.139237 0.082687 0.225091 0.105655 0.307778a7.694447 7.694447 0 0 1-0.482339-2.852688l-0.009187 0.574213 0.059718 0.661493-0.018375-1.479172c0.055124-1.010614 0.257247-1.603201 0.33534-1.80073z" fill="#6E6E96" p-id="4138"></path><path d="M874.906879 837.991907c-10.873287 11.934432-10.790601 45.45466 39.65741 91.382471 50.43423 45.936998 107.258297 50.599603 118.728766 39.225602 17.639807-17.483621-36.455602-7.763353-73.140889-96.720349-30.240326-73.274106-74.390375-45.831343-85.245287-33.887724z" fill="#FF8787" p-id="4139"></path><path d="M936.021461 861.056874s-20.189311 94.777215 94.768027 94.781808c6.353087 4.25836 8.23191 7.078891 2.494379 12.756705-11.470468 11.36022-68.285348 6.702208-118.724171-39.234791-25.338848-23.060373-37.953148-42.978655-42.886782-58.624797l64.348547-9.678925z" fill="#E67878" p-id="4140"></path><path d="M866.413128 830.246929c-6.141777 6.743551-9.23793 16.555694-8.714249 27.658667 0.780929 16.771598 9.940766 44.269485 49.138807 79.948751 52.524364 47.852571 116.817786 56.451977 134.531093 38.894857 1.897198-1.87423 7.662291-7.588792 6.752739-15.74261-0.969271-8.585625-7.947101-12.931265-16.032013-17.961366-14.185345-8.829091-40.580744-25.256162-61.325892-75.547987-13.537633-32.812798-31.687341-51.417282-53.966786-55.32652-23.115497-4.042456-42.551441 9.463022-50.383699 18.076208z m83.113811 46.010498c23.570274 57.136438 54.049472 76.099231 70.421418 86.292651 2.636784 1.639951 5.921279 3.684147 6.757332 4.529388-1.616982-1.649138-1.966104-5.682407-0.67068-7.56123a7.547449 7.547449 0 0 1-0.840647 0.923333c0.091874-0.091874 0.133217-0.119436 0.133217-0.12403-6.486304 4.864728-55.381645 3.978144-103.04128-39.436912-36.460195-33.194075-41.274393-55.836421-41.660264-64.036176-0.225091-4.818791 0.808491-8.971496 2.760814-11.107566 3.518774-3.867895 15.641548-13.344698 29.441022-10.937599 13.817849 2.42088 26.510242 16.757817 36.699068 41.458141z" fill="#6E6E96" p-id="4141"></path><path d="M679.003957 769.605498c-7.593386 24.231767 7.928726 69.856393 89.737926 95.530581 81.822981 25.665001 161.399643 11.387782 168.993028-12.834797 7.597979-24.222579-58.698296-73.251137-140.530464-98.916138-81.8092-25.674188-110.607104-8.002225-118.20049 16.220354z" fill="#E67878" p-id="4142"></path><path d="M749.076254 782.150892c-5.673219 18.08999 5.902904 52.138493 66.966955 71.298815 61.059458 19.151135 120.437622 8.498345 126.106248-9.587051 5.668626-18.080802-43.805521-54.65584-104.86498-73.811569-61.050271-19.164916-82.553379-5.980997-88.208223 12.099805z" fill="#FF8787" p-id="4143"></path><path d="M668.043389 766.169411c-7.841446 25.003508 2.393318 80.155468 97.257812 109.927236 67.362014 21.131019 133.212701 16.188198 163.448433 0.390465 10.661977-5.572158 17.373373-12.545394 19.945845-20.749742 2.237132-7.152391 1.153019-15.025992-3.238558-23.446244-16.09173-30.800757-76.990409-68.602313-144.802606-89.86655-49.786519-15.618579-85.217725-17.34581-108.319441-5.268973-11.883901 6.196901-20.281185 16.234135-24.291485 29.013808z m125.72497-1.819106c66.691334 20.915115 120.093094 57.072126 131.32469 78.579829 1.7502 3.348807 1.883417 5.296536 1.676701 5.930467-0.473151 1.515921-3.022654 4.318078-8.663718 7.267233-25.40316 13.280386-85.190163 17.106938-145.937249-1.952322-71.909777-22.564253-88.566532-60.884897-82.213446-81.133926 2.200382-7.032954 6.458742-12.122774 13.000171-15.540487 11.824183-6.160151 37.181406-9.991297 90.812851 6.849206z" fill="#6E6E96" p-id="4144"></path><path d="M773.174803 125.136977s-69.222462 149.350368 48.435971 179.742286c117.663027 30.391918 143.378559 155.492145 39.230196 159.869941-104.139175 4.377796-215.242398-172.27293-151.46347-288.181164s70.127421-60.609275 63.797303-51.431063z" fill="#FF8787" p-id="4145"></path><path d="M810.539957 301.466144c-80.784805 75.102398 27.943476 138.683797-43.272652 75.906296-120.171187-105.926124-13.151763-266.292184-13.133388-266.319747-10.101546 9.265493-24.539544 28.788717-44.742636 65.510753-63.792709 115.912827 47.319702 292.563554 151.46347 288.185758 16.661349-0.702836 29.955516-4.511013 40.116781-10.514979 0.826866-43.488556-20.143374-98.948294-34.020941-130.699947-8.149223-4.823385-46.704146-18.434517-56.410634-22.068134z" fill="#E67878" p-id="4146"></path><path d="M762.751698 120.304404c-1.603201 3.449869-38.876482 85.2361-10.965161 144.2238 12.228429 25.839561 34.751339 43.153216 66.943987 51.467812 63.815678 16.482195 99.357133 64.082112 95.691361 98.727797-2.448442 23.156841-22.155414 37.208968-54.072441 38.554922-41.862386 1.759387-90.178921-31.397938-123.078999-84.473546-30.874256-49.818674-51.775591-125.022134-17.828149-186.697147 34.39303-62.524848 47.723947-66.594866 48.279785-66.737271-1.419453 0.367496-3.936801-0.762554-4.584512-2.039603 0.574212 1.148425 0.652305 4.68098 0.119436 6.09584 0 0 0.119436-0.321559 0.463964-0.803898l-0.555838 0.803898-0.413433 0.877396z m-63.429807 50.723634c-38.715702 70.347919-15.852858 154.541249 18.439111 209.872363 37.7694 60.935428 92.774361 97.455342 143.571494 95.323865 43.837677-1.846667 72.231336-23.933176 75.938452-59.084167 4.772854-45.096351-36.111074-103.57415-112.789112-123.37759-25.61447-6.614928-42.588191-19.376226-51.89962-39.005105-23.340589-49.221493 10.661977-124.043676 11.011098-124.797043l-0.969271 1.699669c4.901478-7.115641 5.324098-20.340903 0.909553-28.88059-3.348807-6.472523-9.228743-10.239357-16.137668-10.326638-11.475062-0.151592-29.597208 8.645343-68.074037 78.575236z" fill="#6E6E96" p-id="4147"></path><path d="M740.614659 50.213733s195.264398-60.866523 296.647352 157.637402c101.392142 218.503925-182.457163 393.565231-216.450541 173.531605-17.584683-113.850256 60.407153-184.570265-1.221924-273.123017-45.197412-64.931947-75.442332-38.780014-78.974887-58.04599z" fill="#E67878" p-id="4148"></path><path d="M768.668383 47.953632s156.709475-48.853998 238.091462 126.519681c81.368205 175.373678-146.442556 315.885768-173.733727 139.276384-14.107252-91.373283 48.495689-148.133038-0.978458-219.206761-36.281041-52.110931-60.544964-31.117723-63.379277-46.589304z" fill="#FF8787" p-id="4149"></path><path d="M744.027778 61.1743l-0.018375 0.004594c7.588792-2.338193 187.055456-54.926869 282.834097 151.50022 34.273594 73.857506 25.706344 151.968777-22.913374 208.939842-32.872516 38.522767-76.728568 56.998627-111.714186 47.067048-31.678154-8.989871-52.441677-39.786034-60.053438-89.062651-7.111047-46.03806 2.13607-84.537858 11.070817-121.769795 12.458114-51.89962 24.222579-100.923585-14.222095-156.158232-31.310658-44.986102-57.87143-50.301013-72.134868-53.158294-2.223351-0.445589-5.26438-1.056551-6.114215-1.506733a3.270714 3.270714 0 0 1 1.226518 1.42864s-0.03675-0.096468-0.078093-0.321559l-7.882788 13.03692z m66.144683 53.649821c32.550957 46.773051 22.917968 86.889832 10.730883 137.673183-9.022026 37.55809-19.238415 80.127906-11.438313 130.640229 8.953121 57.963304 36.120262 96.192074 76.480509 107.648761 43.598805 12.375427 96.766287-8.920965 135.45902-54.256188 54.609903-63.994832 64.431234-151.28891 26.275963-233.516136C943.270319-22.01301 739.245736 38.610047 737.196946 39.248571l-9.711081 3.027248 1.832886 10.005079c2.696502 14.709027 14.943305 17.157469 23.055779 18.779044 12.651049 2.535722 31.756247 6.362274 57.797931 43.764179z" fill="#6E6E96" p-id="4150"></path><path d="M275.327992 711.986721s-3.647398 20.588963 48.34869 81.055834c61.146738 71.105879 153.576572 164.955167 302.885598 96.701974 0 0 39.106167-6.403618 12.798047-32.702549-26.317306-26.317306-34.13119-52.611644-34.131189-69.677238s-94.901244 6.693021-144.219206-26.413774c-62.561598-42.000197-179.99494-71.712248-185.68194-48.964247z" fill="#F0F0FF" p-id="4151"></path><path d="M488.172479 431.610253m-27.562199 0a27.562199 27.562199 0 1 0 55.124398 0 27.562199 27.562199 0 1 0-55.124398 0Z" fill="#6E6E96" p-id="4152"></path><path d="M605.311824 431.610253m-27.562199 0a27.562199 27.562199 0 1 0 55.124398 0 27.562199 27.562199 0 1 0-55.124398 0Z" fill="#6E6E96" p-id="4153"></path><path d="M121.792763 235.94161s-32.155899 27.562199-32.155899 87.280296 30.470011 38.541141 41.003365-9.527333c24.489014-111.76931-8.847466-77.752963-8.847466-77.752963z" fill="#FFFFFF" opacity=".31" p-id="4154"></path><path d="M977.185605 288.153602s38.003679-55.069273 2.898625-103.376621c-65.34538-89.903299-46.782239-11.23619-43.993863 37.89343 5.861561 103.528213 41.095239 65.483191 41.095238 65.483191z" fill="#FFFFFF" opacity=".31" p-id="4155"></path><path d="M825.720275 816.784271a35.601174 10.335825 19.426 1 0 6.875166-19.49485 35.601174 10.335825 19.426 1 0-6.875166 19.49485Z" fill="#FFFFFF" opacity=".3" p-id="4156"></path><path d="M253.797439 865.186166a10.331231 35.601174 73.375 1 0-5.911664-19.798726 10.331231 35.601174 73.375 1 0 5.911664 19.798726Z" fill="#FFFFFF" opacity=".3" p-id="4157"></path><path d="M609.905524 562.732821c0 17.87868-36.506132 19.412975-81.538172 19.412975s-81.538172-1.534296-81.538171-19.412975 36.506132-32.358021 81.538171-32.358022 81.538172 14.479342 81.538172 32.358022z" fill="#FFFFFF" opacity=".33" p-id="4158"></path><path d="M440.701185 806.336722c-8.199754 13.565196-32.064025 0.744179-60.632244-16.509757-28.563625-17.263124-51.008443-32.431521-42.808688-46.005904 8.204348-13.569789 38.003679-10.579291 66.567304 6.67924 28.563625 17.272311 45.077976 42.266632 36.873628 55.836421z" fill="#FFFFFF" opacity=".84" p-id="4159"></path></svg>