<?xml version="1.0" standalone="no"?><!DOCTYPE svg PUBLIC "-//W3C//DTD SVG 1.1//EN" "http://www.w3.org/Graphics/SVG/1.1/DTD/svg11.dtd"><svg t="1711552906287" class="icon" viewBox="0 0 1024 1024" version="1.1" xmlns="http://www.w3.org/2000/svg" p-id="2039" xmlns:xlink="http://www.w3.org/1999/xlink" width="200" height="200"><path d="M99.691531 690.18662s97.729869 176.075719 307.693879 94.840823l-55.444366-81.542779-252.249513-13.298044z" fill="#6E6E96" opacity=".2" p-id="2040"></path><path d="M913.803437 528.341031s49.468049 41.053968 49.468049 75.08144c0 0-38.000437-26.20807-46.511522 0l-2.956527-75.08144z" fill="#C2944D" p-id="2041"></path><path d="M973.815447 623.502391l-16.520279-11.391696c-5.529253-3.783173-17.123393-9.789014-24.693957-9.789014-3.412026 0-4.711042 0.97848-5.811831 4.360983l-20.564943-2.842652-3.888613-98.712566 18.198878 15.10317c5.453337 4.525468 53.280745 45.309511 53.280745 83.196073v20.075702z m-41.214236-42.268632c4.841787 0 9.810102 1.033308 14.470533 2.534768-5.322592-10.404781-13.652321-20.931872-21.70369-29.679142l1.092354 27.743271a30.45096 30.45096 0 0 1 6.140803-0.598897z" fill="#6E6E96" p-id="2042"></path><path d="M709.010185 648.483144s18.540502 56.709642 69.181039 95.751822c0.101222 0.088569 0.185574 0.177139 0.291013 0.265707l0.345842 0.219315a176.029325 176.029325 0 0 0 10.23186 7.287986c16.554019 12.985943 45.693311 41.640212 35.545803 76.49433-13.909594 47.818973 87.000334 25.124151 73.116045-50.999032-13.875853-76.131618-96.498334-53.980864-96.498334-53.980864-16.166001-16.330487-31.543315-38.02996-38.91987-65.537046" fill="#F2CD5E" p-id="2043"></path><path d="M842.931146 864.0945c-7.819402 0-14.879638-2.024441-20.273928-6.140803-4.327242-3.306586-13.795719-13.087165-8.173679-32.399484 8.228507-28.270469-16.085867-52.74933-31.589708-64.984543a185.970172 185.970172 0 0 1-10.105333-7.199416l-1.113442-0.818212c-0.097004-0.084352-0.194009-0.164486-0.282578-0.248837-52.331789-40.54364-71.60615-98.109451-72.399056-100.542998l20.037744-6.570996c0.177139 0.539851 18.304317 54.225484 65.604527 90.694937l0.598897 0.451282a169.29806 169.29806 0 0 0 9.62031 6.853575l0.721207 0.518763c19.670814 15.432142 50.918898 47.355039 39.160273 87.73841-0.813994 2.804694-1.809344 7.806749 0.729642 9.742621 3.643993 2.796259 15.162216 3.158971 28.283122-4.875528 9.194334-5.630475 29.894239-22.441767 23.610038-56.920521-3.306586-18.135613-11.269386-31.30713-23.664867-39.151837-24.736133-15.655674-59.38359-6.621608-59.729432-6.533038l-5.913054 1.585811-4.306153-4.352547c-20.737863-20.948742-34.736026-44.571433-41.610689-70.222782l20.370933-5.461772c5.474425 20.429979 16.32627 39.489244 32.281392 56.730729 13.247433-2.395588 44.723266-5.689522 70.189042 10.438522 17.58311 11.125988 28.730186 29.021199 33.133344 53.187958 5.984752 32.817025-6.47821 62.234677-33.340006 78.683257-10.603008 6.486645-21.84287 9.797449-31.838546 9.797449z" fill="#6E6E96" p-id="2044"></path><path d="M922.293434 579.669035c0 123.701754-143.950377 265.534904-321.523338 265.534904-177.577179 0-321.531774-141.83315-321.531774-265.534904 0-123.701754 143.950377-223.974826 321.531774-223.974826 177.572961 0.004218 321.523339 100.281507 321.523338 223.974826z" fill="#FFD863" p-id="2045"></path><path d="M600.770096 855.7479c-187.016133 0-332.075735-148.408364-332.075736-276.078865 0-129.315359 148.969303-234.518788 332.075736-234.518788 183.102215 0.004218 332.0673 105.207646 332.0673 234.518788 0 127.670501-145.051167 276.078866-332.0673 276.078865z m0-489.50973c-171.478552 0-310.987813 95.747604-310.987813 213.430865 0 57.578464 33.858769 121.588744 90.576845 171.221279 61.72435 54.02304 140.002718 83.769664 220.410968 83.769664 80.404031 0 158.6824-29.750841 220.410967-83.769664 56.709642-49.632535 90.572628-113.638597 90.572628-171.221279-0.004218-117.679043-139.509261-213.426647-310.983595-213.430865z" fill="#6E6E96" p-id="2046"></path><path d="M793.433574 565.472645c0-66.494438-28.561482-178.450219-76.253928-194.63309a435.389686 435.389686 0 0 0-71.36153-12.93955c59.573381 22.344763 99.130107 134.34272 99.130107 207.57264 0 86.317085-48.312431 233.637312-161.605187 279.271577 0 0-13.171516-0.948957-36.659244-3.960311a334.505064 334.505064 0 0 0 54.094739 4.432681c11.028984 0 21.944092-0.552504 32.694715-1.615335 79.105015-17.528281 159.960328-163.477794 159.960328-278.128612z m-118.775615-0.805558c0-77.666819-32.720021-198.019811-92.69829-208.576425a449.931917 449.931917 0 0 0-71.108476 8.498432c6.419164 4.576079-7.726615-1.417108 0 0 75.57068 13.901159 111.846124 130.22214 111.846125 200.077993 0 105.279345-51.758197 207.298497-160.727929 250.005758 20.231753 10.889803 34.381749 13.538446 57.127182 20.434197 103.284427-56.532503 155.561388-159.104159 155.561388-270.439955z m182.764808-119.901711c-21.813347-20.105225-48.379912-37.55759-78.535642-51.568406 36.642374 25.115716 67.042724 127.700024 67.042724 184.890471 0 86.30865-37.207531 189.652123-114.40198 240.731289 0 0-39.750734 13.791501-88.700021 23.715478 55.435931-7.026496 106.413875-27.528174 149.243447-56.127615 75.532721-56.127615 97.755174-128.505583 97.755174-216.395827 0-52.589061-7.671786-88.522882-32.403702-125.24539z" fill="#6E6E96" p-id="2047"></path><path d="M886.882595 477.523355c7.093977 15.529146 10.948849 31.846981 10.948849 48.717319 0 102.044458-138.48017 219.065558-309.292344 219.065558-157.121894 0-286.783095-98.999362-306.576219-194.295684-1.720774 9.400996-2.711907 18.94539-2.711907 28.658487 0 123.701754 143.950377 265.534904 321.531774 265.534904 177.577179 0 321.523339-141.83315 321.523339-265.534904-0.012653-36.802643-12.842545-71.509146-35.423492-102.14568z" fill="#6E6E96" opacity=".21" p-id="2048"></path><path d="M738.862248 450.813392c-64.060891 41.222671-214.215336-22.370068-275.108821-117.016882-60.906138-94.651032-58.333412-204.793252 5.731697-246.020141 64.065109-41.226889 165.375707 2.079269 226.27341 96.730301 60.914573 94.646814 107.164605 225.079833 43.103714 266.306722z" fill="#B7DBE3" p-id="2049"></path><path d="M733.34143 442.234826c-18.523631 11.914676-47.654488 14.365093-82.040454 6.908403-69.265391-15.027254-142.858023-64.731487-178.977417-120.86332-35.221048-54.731594-49.775933-117.23198-38.936741-167.189268 6.258895-28.865149 20.649294-51.24787 41.614907-64.739922 20.961395-13.487835 47.295993-17.308967 76.161141-11.045854 49.961506 10.839192 100.80027 49.986812 136.021319 104.718406 40.29902 62.618477 82.824925 156.577826 70.083602 215.311908-3.643993 16.819727-11.467612 28.890454-23.926357 36.899647z m-29.004329-263.244756c-38.080571-59.181146-93.731599-101.65644-148.859646-113.613292-34.251004-7.435602-65.903976-2.652861-91.517366 13.825242-25.600738 16.48232-43.069973 43.30194-50.501357 77.565597-11.956852 55.128047 3.635558 123.368565 41.716128 182.549711 38.810213 60.315676 117.687479 113.676556 191.803092 129.758205 40.294803 8.743053 73.967997 5.390073 97.405114-9.683574 16.98843-10.936197 28.034284-27.667354 32.817026-49.729539 14.048774-64.756793-28.42652-161.617839-72.862991-230.67235z" fill="#6E6E96" p-id="2050"></path><path d="M628.357316 427.85708c53.15 54.588197 204.810122 35.195743 285.446121-43.310376 80.644434-78.514554 102.934368-186.408801 49.79702-240.992779-53.15-54.592414-161.600969-35.195743-242.24962 43.310375-80.644434 78.510336-146.130869 186.400366-92.993521 240.99278z" fill="#B7DBE3" p-id="2051"></path><path d="M934.503342 174.426643c-16.085867-16.520279-37.94139-25.313942-62.584737-26.929277 11.417001 29.830975 18.004868 64.689311 18.004868 101.960106 0 85.874239-34.845683 159.04933-83.676877 187.037221 31.383046-10.974155 61.336332-27.95415 84.558352-50.564621 70.766851-68.902678 90.328008-163.595886 43.698394-211.503429z" fill="#DCF2F7" p-id="2052"></path><path d="M621.048242 434.972145c27.536609 28.287339 80.307027 39.965831 141.166772 31.235431 61.361637-8.802099 119.205809-35.904297 158.703488-74.351798 84.537264-82.31038 106.962161-196.889498 49.986812-255.416919-56.988002-58.523203-172.12806-39.18136-256.669542 43.120585-80.960753 78.814002-153.937618 192.996668-93.18753 255.412701z m107.409225-240.802989c76.485895-74.457237 178.686404-93.972001 227.833916-43.500166 49.130642 50.463399 26.882884 152.107186-49.603011 226.572858-79.81357 77.70056-224.970176 90.808812-271.0262 43.500167-46.781448-48.055158 15.309832-151.132924 92.795295-226.572859z" fill="#6E6E96" p-id="2053"></path><path d="M603.25847 767.161755s22.264629 68.109773 83.086416 115.000877c0.126528 0.101222 0.22775 0.215097 0.350059 0.324754 0 0 0.172921 0.097004 0.421759 0.257273 3.951877 3.015573 8.017628 5.946794 12.281606 8.751488 19.885911 15.588192 54.87921 50.003682 42.694608 91.863209-16.705852 57.409761 104.482221 30.168382 87.81011-61.260416-16.676329-91.42458-115.895005-64.815839-115.895005-64.815839-19.417759-19.620203-37.894997-45.684876-46.730837-78.708562 0 0 0.054829-22.403809-28.502436-34.639022-37.355146-15.997298-35.516279 23.226238-35.51628 23.226238s-3.606035-3.601817 0 0c3.601817 3.5976 5.942577 10.438522 5.942577 10.438522" fill="#FFD863" p-id="2054"></path><path d="M764.091839 1024c-8.920191 0-16.950472-2.294366-23.061752-6.963232-10.257166-7.827837-13.559534-21.176492-9.06359-36.621286 10.24873-35.208396-19.704555-65.35569-38.742731-80.361856a223.650072 223.650072 0 0 1-11.990593-8.532174l-0.822429-0.451281-0.932086-0.885693c-62.310594-48.164815-85.300647-116.839744-86.245386-119.74566l5.259328-1.716557 1.400238-1.400238-7.169894 0.337407c-0.109657-2.340759-0.649508-23.158757 13.871636-33.234566 9.308209-6.452904 21.526551-6.520386 36.330273-0.181356 30.054507 12.880503 34.225698 35.988649 34.803507 42.589168 6.824052 24.820485 20.193795 47.966589 39.784475 68.890026 14.862768-2.834217 53.158435-7.439819 83.913062 12.024334 20.594465 13.032336 33.660542 34.044342 38.843954 62.466644 7.026496 38.527635-7.574782 73.035911-39.063268 92.322925-12.391263 7.583217-25.512169 11.463395-37.114744 11.463395z m-71.015688-149.964653l0.438628 0.324754c4.091057 3.121013 7.912189 5.845572 11.682709 8.325512l0.708555 0.510328c54.069434 42.390942 52.226349 82.799619 46.313295 103.107289-1.383368 4.753218-2.222667 11.037419 1.619553 13.968639 5.900401 4.512815 21.121663 3.606035 36.364014-5.731697 8.903321-5.453337 37.338276-26.655134 29.3333-70.555971-4.078404-22.336328-13.930682-38.607769-29.286907-48.36726-30.307562-19.257491-73.09074-8.266466-73.520933-8.152591l-5.896184 1.556289-4.310371-4.327242c-24.651782-24.909054-41.2775-52.972862-49.421655-83.398516l-0.362713-1.349627 0.004218-1.400238c-0.021088-0.459717-0.801341-15.790636-22.108578-24.921707-7.35125-3.146318-13.192604-3.829567-16.009951-1.872608-3.091489 2.146751-4.34833 7.882665-4.71526 11.842978 3.095707 4.508598 4.875528 9.422084 5.276199 10.598789l-1.615335 0.552504c8.831622 20.472155 31.93555 65.701532 75.22062 99.071061l0.286796 0.219314z" fill="#6E6E96" p-id="2055"></path><path d="M603.25847 767.161755s22.264629 68.109773 83.086416 115.000877c0.126528 0.101222 0.22775 0.215097 0.350059 0.324754 0 0 0.172921 0.097004 0.421759 0.257273 3.951877 3.015573 8.017628 5.946794 12.281606 8.751488 19.885911 15.588192 54.87921 50.003682 42.694608 91.863209-6.145021 21.130098 6.368553 30.758844 23.812482 29.970155 0.3838-0.021088 0.780253-0.063264 1.164053-0.088569 0.915216-0.067481 1.830432-0.13918 2.762518-0.26149 0.615767-0.088569 1.248405-0.181356 1.86839-0.278361 0.700119-0.109657 1.39602-0.248837 2.104575-0.388018 0.797123-0.164486 1.602682-0.337407 2.404023-0.535633 0.493457-0.118092 0.982697-0.265708 1.480372-0.404888 0.999568-0.269925 1.999135-0.560939 3.007138-0.894128l0.417541-0.143398c27.612526-9.249163 57.645945-39.65373 48.7848-88.244521-5.352115-29.337518-19.215315-46.481999-35.56689-56.292101 5.318374 8.721965 9.489565 19.405106 11.902023 32.627234 2.990267 16.406404 1.539418 30.725103-2.74143 42.875965-0.12231 0.26149-0.248837 0.527198-0.316318 0.856169-0.982697 2.695037-2.117227 5.271981-3.361415 7.73505-10.674706 16.81551-40.708126 30.66184-40.708126 17.346925 0-15.297179-3.399373-69.290696-72.753333-98.556515-44.938363-18.970695-51.138212-82.314597-54.820164-96.502551-0.008435 0.021088-28.274687-16.46545-28.274687-5.018926z" fill="#6E6E96" opacity=".21" p-id="2056"></path><path d="M739.832293 445.773379c-55.406408 35.651242-185.244748-19.341843-237.909726-101.192506-52.664978-81.850663-50.442311-177.096374 4.964097-212.747616 55.40219-35.651242 143.009856 1.796691 195.679052 83.647354s92.672985 194.645743 37.266577 230.292768z" fill="#DCF2F7" p-id="2057"></path><path d="M551.706935 243.713122a212.42708 152.971791 90 1 0 305.943581 0 212.42708 152.971791 90 1 0-305.943581 0Z" fill="#B7DBE3" p-id="2058"></path><path d="M704.678726 41.479944c78.725433 0 142.773671 90.720243 142.773671 202.233178s-64.048239 202.233178-142.773671 202.233178-142.777889-90.720243-142.777889-202.233178 64.052456-202.233178 142.777889-202.233178z m-163.174128 202.233178c0 122.757015 73.191962 222.629417 163.16991 222.629417 89.969513 0 163.165693-99.868184 163.165693-222.629417 0-58.864827-16.596195-114.321846-46.722402-156.16872C790.257733 44.689526 748.904317 21.087923 704.678726 21.087923c-89.973731 0-163.174128 99.868184-163.174128 222.625199z" fill="#6E6E96" p-id="2059"></path><path d="M598.619127 258.34814a182.634063 120.11259 90 1 0 240.22518 0 182.634063 120.11259 90 1 0-240.22518 0Z" fill="#DCF2F7" p-id="2060"></path><path d="M673.422207 537.337139s17.490323 112.993307-11.159729 200.622061l-51.551536 6.680654 62.711265-207.302715zM787.866363 507.261544s28.101766 95.659035 0 180.230039l-25.600738 14.985078 25.600738-195.215117z" fill="#6E6E96" opacity=".21" p-id="2061"></path><path d="M271.056208 296.053346a10.501785 10.501785 0 0 1-7.494648-3.129448c-1.016438-1.029091-100.526127-104.127944-9.886018-226.703603a10.543961 10.543961 0 1 1 16.958907 12.538878c-80.032884 108.227437 4.293501 195.670617 7.920624 199.339916a10.543961 10.543961 0 0 1-7.498865 17.954257z" fill="#6E6E96" p-id="2062"></path><path d="M265.79688 76.144271m-41.26063 0a41.260629 41.260629 0 1 0 82.521259 0 41.260629 41.260629 0 1 0-82.521259 0Z" fill="#EDA862" p-id="2063"></path><path d="M265.79688 127.948862c-28.5657 0-51.804591-23.238891-51.804591-51.804591s23.238891-51.804591 51.804591-51.804591 51.804591 23.238891 51.80459 51.804591-23.238891 51.804591-51.80459 51.804591z m0-82.521259c-16.937819 0-30.716668 13.778849-30.716668 30.716668s13.778849 30.716668 30.716668 30.716668 30.716668-13.778849 30.716668-30.716668-13.778849-30.716668-30.716668-30.716668zM136.456215 383.935155a10.518656 10.518656 0 0 1-7.498865-3.129448c-1.126095-1.142965-111.652115-115.65882-10.936197-251.85306a10.548179 10.548179 0 0 1 16.958907 12.538879c-37.857039 51.193041-47.848496 104.482221-29.70023 158.395604 13.61858 40.446636 38.426413 65.84493 38.67525 66.093767a10.543961 10.543961 0 0 1-7.498865 17.954258z" fill="#6E6E96" p-id="2064"></path><path d="M121.736845 134.532511m-37.291882 0a37.291882 37.291882 0 1 0 74.583764 0 37.291882 37.291882 0 1 0-74.583764 0Z" fill="#EDA862" p-id="2065"></path><path d="M121.736845 182.368355c-26.376774 0-47.835844-21.45907-47.835844-47.835844 0-26.376774 21.45907-47.835844 47.835844-47.835843 26.376774 0 47.835844 21.45907 47.835844 47.835843 0 26.376774-21.45907 47.835844-47.835844 47.835844z m0-74.583765c-14.748893 0-26.747921 11.999028-26.747921 26.747921s11.999028 26.747921 26.747921 26.747921 26.747921-11.999028 26.747921-26.747921-11.999028-26.747921-26.747921-26.747921z" fill="#6E6E96" p-id="2066"></path><path d="M536.607982 410.839126C476.140473 290.410218 344.163818 230.828401 232.684624 277.217613c-112.170878 46.67179-162.853591 183.688459-118.615348 312.160302-23.276849 23.268414-18.793557 63.647568-4.959879 96.890569 39.927873 95.954266 182.646716 114.077226 317.845605 57.814649 135.19889-56.254142 229.723394-195.5947 189.803957-291.553184-13.972858-33.57619-46.195203-49.219211-80.150977-41.690823z" fill="#FFD863" p-id="2067"></path><path d="M285.018467 477.142733a32.239216 23.091275 68.78 1 0-43.051258 16.715774 32.239216 23.091275 68.78 1 0 43.051258-16.715774Z" fill="#6E6E96" p-id="2068"></path><path d="M398.758745 422.536624a28.620529 21.290367 64.076 1 0-38.296036 18.615384 28.620529 21.290367 64.076 1 0 38.296036-18.615384Z" fill="#6E6E96" p-id="2069"></path><path d="M306.066377 533.165948c9.679356-36.477889 48.953504-77.426417 104.473786-104.165903 76.536506-36.853254 167.345319-45.123937 187.534896-3.184276" fill="#FFD863" p-id="2070"></path><path d="M376.036104 507.480858c32.437443-58.717212-126.510665-18.118743-214.607571 66.890891 0 0.012653 142.326607 63.97654 214.607571-66.890891z" fill="#FFD863" p-id="2071"></path><path d="M615.400896 453.883794c-13.96864-33.567755-46.195203-49.210776-80.142541-41.690823-60.471727-120.420473-192.448382-180.006508-303.927576-133.617295-112.170878 46.676008-162.853591 183.692676-118.619565 312.168736-23.272631 23.268414-18.793557 63.643351-4.959879 96.890569 39.927873 95.954266 182.646716 114.073009 317.845605 57.814649 135.203107-56.271013 229.727612-195.615788 189.803956-291.565836z m-204.063609 230.5163c-116.489685 48.468481-239.461797 32.859201-273.864634-49.818109-11.918894-28.641617-15.777984-63.436689 4.276631-83.487085-38.118529-110.694723 5.554559-228.749132 102.204725-268.959583 96.05127-39.970049 230.157805 31.766847 282.266063 135.523644 29.261601-6.482427 57.021743 6.996973 69.054511 35.925385 34.390184 82.673092-67.443394 182.338832-183.937296 230.815748z" fill="#C2944D" opacity=".34" p-id="2072"></path><path d="M545.7264 406.25883c-62.972755-125.393006-202.19522-186.210574-316.959912-138.459083-115.857047 48.206991-170.470549 190.921616-124.33861 324.893189l2.433546-10.527091c-23.044882 23.036447-25.723048 63.411383-7.165676 108.016557 14.664541 35.237919 43.166978 62.424469 82.420037 78.615776 66.680011 27.490216 159.669315 21.766954 248.757353-15.301397 143.722628-59.805349 236.813154-205.122223 195.303687-304.889185-15.516493-37.275012-52.386617-56.456586-91.770422-47.730404l11.319997 5.381638z m61.606257 50.189255c36.747814 88.307785-52.816811 223.51511-184.300009 278.217181-84.204075 35.04391-171.360459 40.750302-233.148072 15.271874-34.630587-14.280741-58.645513-37.013522-71.365748-67.586792-11.788149-28.33795-17.258356-65.747925 2.7583-85.756146l4.504381-4.500163-2.075052-6.031146c-42.635562-123.819847 6.950579-255.34522 112.892085-299.427413 104.929285-43.664653 232.705226 12.905809 290.899458 128.783943l3.568076 7.098195 7.75192-1.720775c29.864716-6.621608 56.760253 7.372338 68.514661 35.651242z" fill="#6E6E96" p-id="2073"></path><path d="M333.493329 640.435993c-12.020116 0-19.611768-1.353845-19.902781-1.412891a10.543961 10.543961 0 0 1-8.367688-12.340652 10.527091 10.527091 0 0 1 12.311129-8.371906c3.964529 0.725425 97.506337 16.878773 143.402092-86.371913a10.543961 10.543961 0 1 1 19.270143 8.565914c-39.312105 88.442748-111.753337 99.931448-146.712895 99.931448z" fill="#6E6E96" p-id="2074"></path><path d="M323.455478 543.756303c4.112145 7.233157-13.804154 15.48697-34.879424 27.46491s-37.325623 23.146104-41.437768 15.912947c-4.116362-7.237375 5.46599-30.138859 26.545477-42.125235 21.071052-11.973722 45.65957-8.489998 49.771715-1.252622z" fill="#FFFFFF" opacity=".35" p-id="2075"></path><path d="M450.189675 468.9237c4.019358 7.287986-14.002381 15.305614-35.233701 27.017847-21.218668 11.708015-37.612419 22.673734-41.635994 15.385748-4.023576-7.292204 5.854007-30.071378 27.08111-41.78361 21.222885-11.708015 45.76501-7.903753 49.788585-0.619985z" fill="#FFFFFF" opacity=".35" p-id="2076"></path><path d="M596.113882 618.888353s-109.606587 116.725869-69.442529 121.259773l-47.308646-11.125988 116.751175-110.133785z" fill="#6E6E96" opacity=".21" p-id="2077"></path></svg>