<?xml version="1.0" standalone="no"?><!DOCTYPE svg PUBLIC "-//W3C//DTD SVG 1.1//EN" "http://www.w3.org/Graphics/SVG/1.1/DTD/svg11.dtd"><svg t="1711552915323" class="icon" viewBox="0 0 1173 1024" version="1.1" xmlns="http://www.w3.org/2000/svg" p-id="2409" xmlns:xlink="http://www.w3.org/1999/xlink" width="229.1015625" height="200"><path d="M101.929175 53.541686s-93.700298 83.063312 4.144951 183.800168c58.043394 59.752071 155.226764 37.849081 152.368015-12.547513-0.685349-12.162591 15.434426-64.465016 7.036559-59.451644-33.460033 19.968993-157.794474-11.763586-135.417373-97.643399 0.004694 0.004694 14.378238-57.067007-28.132152-14.157612z" fill="#FFFFFF" p-id="2410"></path><path d="M190.517523 285.09563c-34.581939 0-68.431588-14.42518-92.864736-39.581229-33.117359-34.09844-49.208968-70.205984-47.824188-107.31808 1.995022-53.452497 39.820631-89.353497 43.993747-93.155774C107.03643 31.746662 116.804995 25.817927 125.484512 25.817927c6.590613 0 14.6505 3.797582 17.504555 14.453345 1.398862 5.22461 1.520911 11.805834 0.370839 20.119206-0.647795 4.675392-1.173542 8.149077-2.093599 10.834141-4.764581 18.851781-1.544381 35.699151 9.57141 50.086778 19.311809 24.987059 58.353209 38.060318 86.940694 38.060318h0.004695c9.397725 0 17.298011-1.49744 21.672976-4.107398 5.73158-3.417355 12.941823-2.168706 16.913089 2.746089 5.323187 6.585918 3.797582 15.2138-1.83542 41.491755-1.821337 8.487057-4.567426 21.316219-4.384354 24.630303 0.774538 13.645948-4.00882 26.353062-13.82902 36.750645-14.533146 15.387484-38.520347 24.212521-65.802854 24.212521zM120.597883 52.508969c-2.459744 1.858891-5.848934 4.764581-10.331865 9.289759l-0.553912 0.521053c-0.323898 0.291038-34.858895 31.732579-36.436136 76.993752-1.056188 30.375964 12.810386 60.60641 41.2148 89.851079 20.039405 20.630871 47.749082 32.460175 76.026753 32.460175 20.546376 0 38.773832-6.304268 48.74894-16.866147 5.356046-5.665861 7.862732-12.157896 7.454339-19.302421-0.347368-6.149361 1.624182-15.739547 4.867853-30.873546 0.835562-3.910242 1.858891-8.688906 2.732006-13.134284a93.395177 93.395177 0 0 1-16.528167 1.394168h-0.009388c-33.258184 0-80.458048-14.76316-105.510826-47.176393-15.673829-20.278808-20.367997-44.791756-13.580229-70.886639 0.995164-3.971267 1.671124-8.562163 1.905832-12.270556z" fill="#6E6E96" p-id="2411"></path><path d="M77.402144 100.126614c-2.45505 29.568567 7.078806 65.253636 44.219068 103.497027 48.645668 50.082084 124.766305 42.782652 146.453363 9.430585-0.445946 3.008962-0.685349 5.515648-0.596159 7.224325 2.858749 50.396593-94.329316 72.299583-152.368016 12.547513-50.41537-51.903421-49.978812-99.112674-37.708256-132.69945z" fill="#6E6E96" opacity=".15" p-id="2412"></path><path d="M350.846848 364.065627c153.494616 20.912521 265.661772 131.272422 250.030191 246.011983-15.636275 114.744255-153.241131 191.080823-306.735746 170.158914-153.49931-20.907827-265.666466-131.277116-250.034886-246.016677 15.645664-114.739561 153.241131-191.071435 306.740441-170.15422zM21.734 531.173331c-17.312093 127.075836 103.520498 248.856649 269.360777 271.444988 165.835585 22.593033 314.84727-62.404276 332.168752-189.484806 17.312093-127.08053-103.529886-248.856649-269.365471-271.444988C188.062473 319.086104 39.050788 404.088107 21.734 531.173331z" fill="#6E6E96" opacity=".21" p-id="2413"></path><path d="M342.664912 407.364637a339.637174 231.32393 0 1 0 679.274348 0 339.637174 231.32393 0 1 0-679.274348 0Z" fill="#FFFFFF" opacity=".36" p-id="2414"></path><path d="M1102.303425 511.9601c0-193.019515-156.46133-334.797486-413.1901-334.797486-256.724075 0-464.840036 48.809964-464.840036 241.834173 0 112.134297 70.252926 228.760914 179.448673 306.834324l-0.445946-0.300427s62.033437 72.224477 62.033437 216.847114v55.086067h103.299872s-17.082079-127.08053 55.710392-167.253223c7.895591 14.566005 13.157754 32.26302 13.157754 53.626181v86.081662h82.636143v-48.213805s-5.032149-64.521346 13.397156-104.515662c16.274682-16.274682 32.117501-14.913373 47.458044 0.431864 13.875962 17.082079 24.653773 35.633433 24.653773 66.206552v86.081662h82.640837v-48.20911s-3.567568-52.321202 6.360598-96.075547c43.824757 54.133151 28.64851 160.427903 28.64851 160.427903h79.195317v-44.758897c0-144.970006 27.282507-222.592776 42.914089-255.184388 37.036989-46.988627 56.921487-105.501437 56.921487-174.148957z" fill="#F0F0FF" p-id="2415"></path><path d="M568.698514 1009.199287a0.314509 0.314509 0 0 0-0.093883 0H465.304759a11.735421 11.735421 0 0 1-11.735421-11.735422v-55.086067c0-130.004997-51.513805-199.516244-58.437704-208.26148-112.678821-81.29361-182.593766-201.863328-182.593767-315.119531 0-94.366869 48.190334-163.023778 143.233164-204.074282 77.1158-33.305126 186.151946-49.495313 333.346988-49.495313 254.165754 0 424.925521 139.261897 424.925521 346.532908 0 69.849227-19.724896 130.526049-58.62547 180.36873-15.655052 33.14083-41.214799 108.763884-41.2148 248.964615v44.758897a11.735421 11.735421 0 0 1-11.735421 11.735421h-79.195317a11.735421 11.735421 0 0 1-11.618067-13.387769c0.117354-0.849644 9.777953-71.684647-10.571267-123.766446-2.990185 31.615225-1.140683 59.892896-1.112518 60.273123 0.018777 0.267568 0.028165 0.530441 0.028165 0.798009v48.213805a11.735421 11.735421 0 0 1-11.735421 11.735421H805.613199a11.735421 11.735421 0 0 1-11.735422-11.735421v-86.081662c0-26.043247-8.632576-42.209963-21.630728-58.325044-5.576672-5.459318-10.735563-8.228877-15.340543-8.228877-4.159033 0-8.731153 2.276672-13.617783 6.778379-15.927314 36.966577-11.528878 96.131877-11.481936 96.73273 0.023471 0.300427 0.037553 0.610242 0.037554 0.910669v48.213805a11.735421 11.735421 0 0 1-11.735422 11.735421h-82.636142a11.735421 11.735421 0 0 1-11.735421-11.735421v-86.081662c0-12.862022-2.131153-25.001141-6.355904-36.243675-49.36857 39.623476-40.651499 134.741413-39.294885 147.011969a11.74481 11.74481 0 0 1-11.388053 14.59417z m-91.658334-23.470843h78.683653c-2.347084-35.243817-2.126458-129.897031 62.920634-165.788643a11.740115 11.740115 0 0 1 15.988338 4.680086c9.669987 17.842534 14.570699 37.76928 14.570699 59.216936v74.34624h59.1653v-36.041825c-0.474111-6.581224-4.365577-68.976112 14.472121-109.857626a11.735421 11.735421 0 0 1 2.361167-3.38919c20.15676-20.15676 43.599437-20.039405 64.056624 0.431864 0.286344 0.286344 0.553912 0.582077 0.812091 0.896586 14.171695 17.438836 27.282507 38.431158 27.282507 73.609256v74.346241h59.169994v-36.088767c-0.342674-5.44993-3.182646-55.715086 6.651637-99.061038a11.735421 11.735421 0 0 1 20.569846-4.788052c37.389052 46.185924 35.206264 124.695892 32.57753 156.076409h54.405413v-33.023476c0-146.481528 27.611099-225.935024 44.068854-260.258784a11.641538 11.641538 0 0 1 1.366003-2.192177c36.10285-45.796308 54.410107-101.943257 54.410107-166.882384 0-193.235446-161.333877-323.062065-401.454679-323.062065-309.129773 0-453.104615 73.116369-453.104615 230.098752 0 106.402717 66.877819 220.316105 174.538573 297.291079 1.422333 1.018635 2.553628 2.295448 3.365719 3.722476 10.533714 13.37838 63.131872 86.950083 63.131872 222.367456v43.350646z" fill="#6E6E96" p-id="2416"></path><path d="M473.669767 353.146991a213.612832 145.491059 0 1 0 427.225664 0 213.612832 145.491059 0 1 0-427.225664 0Z" fill="#FFFFFF" opacity=".36" p-id="2417"></path><path d="M701.5294 172.219654c0.633713 2.154623 1.262731 4.525178 1.896445 7.144525 20.912521 85.297736-91.001151 150.096038-91.001151 150.096037-24.372123 8.430727-61.62035-6.29488-68.966724-12.256474-107.365022-87.156627 3.234282-87.410112 3.234282-87.410111 75.501006 19.677954 109.252078-32.385069 128.638994-59.531445-61.883223-3.497156-128.80329 1.084353-186.062757 24.221909-156.611544 63.319639 54.194175 296.971876 136.666022 296.971877 82.485929 0 163.765457-73.210252 175.707421-172.651518 14.889902-123.977684 118.302435-93.127609 118.302435-93.127609s-122.653929-44.557047-218.414967-53.457191z" fill="#6E6E96" p-id="2418"></path><path d="M43.552495 437.707742a293.685958 291.939728 0 1 0 587.371917 0 293.685958 291.939728 0 1 0-587.371917 0Z" fill="#F0F0FF" p-id="2419"></path><path d="M337.238454 741.382891c-168.407989 0-305.42138-136.229464-305.42138-303.670455 0-167.445685 137.01339-303.675149 305.42138-303.675149s305.42138 136.229464 305.421379 303.675149c0 167.440991-137.008696 303.670455-305.421379 303.670455z m0-583.879455c-155.470861 0-281.950537 125.700444-281.950537 280.204306s126.48437 280.199612 281.950537 280.199612 281.950537-125.69575 281.950537-280.199612-126.479676-280.204306-281.950537-280.204306z" fill="#6E6E96" p-id="2420"></path><path d="M85.734294 394.202188a231.201881 229.817102 0 1 0 462.403762 0 231.201881 229.817102 0 1 0-462.403762 0Z" fill="#FAFAFA" opacity=".57" p-id="2421"></path><path d="M269.675286 314.495207c2.192177 22.358325-8.369702 33.25349-23.28777 35.605268-14.913373 2.351778-28.521768-4.736416-30.713944-27.090046-2.187483-22.358325 8.1303-42.39773 23.038979-44.730732 14.913373-2.356473 28.779947 13.866574 30.962735 36.21551zM414.316701 322.832051c-0.93414 23.452066-13.275109 25.803844-29.545097 23.686774-16.265294-2.126458-30.305552-7.909674-29.376107-31.36174 0.938834-23.447372 14.885208-40.750077 31.145808-38.628313 16.265294 2.107682 28.70484 22.846518 27.775396 46.303279z" fill="#6E6E96" p-id="2422"></path><path d="M446.927089 814.27394s233.074855-70.839697 174.693481-275.744847l-196.864039 226.958353 22.170558 48.786494z" fill="#6E6E96" opacity=".2" p-id="2423"></path><path d="M610.776388 588.205371a292.23546 221.292492 7.759 1 0-579.119915-78.907416 292.23546 221.292492 7.759 1 0 579.119915 78.907416Z" fill="#FFABAB" p-id="2424"></path><path d="M451.527374 357.484402c46.599011 24.940117 58.104418 94.526471 58.104418 123.860331 0 107.280527-153.278684 195.756215-301.727069 195.756215-63.282086 0-121.414668-27.789478-167.337719-85.579386 30.943959 87.489913 127.953645 159.733166 250.809423 176.477264 159.939709 21.795024 302.961635-58.724048 319.466332-179.838289 12.768138-93.82704-54.170705-184.447963-159.315385-230.676135z" fill="#F0A1A1" p-id="2425"></path><path d="M349.570034 340.594784c153.49931 20.912521 265.661772 131.272422 250.030192 246.011983-15.636275 114.744255-153.236437 191.080823-306.735747 170.158914-153.49931-20.907827-265.661772-131.277116-250.030191-246.016677 15.636275-114.739561 153.236437-191.071435 306.735746-170.15422zM20.457186 507.702489C3.145093 634.783018 123.977684 756.559138 289.817963 779.152171c165.830891 22.593033 314.842576-62.404276 332.168752-189.484806 17.312093-127.08053-103.525192-248.856649-269.365471-271.444988C186.780965 295.615262 37.773974 380.617265 20.457186 507.702489zM1095.942826 446.434201c7.900286 45.880803-24.714797 27.888055-39.923903 5.027455-7.200854-10.824753-2.563016-30.676391-2.563016-30.676391s14.866432-53.856195-57.376821-79.688205c-42.346094-15.148082-51.480946-58.653635-45.707119-77.726042 5.346658-17.673544 25.578524-3.778806 25.578524-3.778806s99.690057 69.023054 119.992335 186.841989z" fill="#6E6E96" p-id="2426"></path><path d="M254.971344 446.029532a28.709535 37.539266 84.098 1 0-74.680557 7.72012 28.709535 37.539266 84.098 1 0 74.680557-7.72012Z" fill="#6E6E96" p-id="2427"></path><path d="M403.595916 463.979838a37.539266 28.155623 6.944 1 0-74.527815-9.076933 37.539266 28.155623 6.944 1 0 74.527815 9.076933Z" fill="#6E6E96" p-id="2428"></path><path d="M776.420165 605.162815c-13.059177-36.464301 30.366576-63.352498 88.363028-84.138276 58.00584-20.790472 108.632448-27.57824 121.691624 8.886061 13.068565 36.464301-15.302989 105.365306-73.304135 126.151084-58.015229 20.790472-123.681952-14.429874-136.750517-50.898869z" fill="#6E6E96" p-id="2429"></path><path d="M677.068088 100.699303s97.089487 79.092045 3.520627 183.81425c-55.49446 62.117932-133.783802 39.712666-152.762326-6.177526-8.566858-14.162306-18.100714-63.765585-9.496303-59.10897 34.26743 18.551354 157.160762-18.340116 131.225481-103.1966-0.014083 0.004694-16.748793-56.423905 27.512521-15.331154z" fill="#FFFFFF" p-id="2430"></path><path d="M601.773626 334.360928c-37.670702 0-71.506269-20.386774-84.485645-50.814374-7.153913-12.937128-18.818922-56.644531-11.618067-69.422058a13.509817 13.509817 0 0 1 18.241539-5.219915c2.262589 1.225178 7.637412 3.27653 18.274398 3.27653 28.103987 0 68.511389-14.242107 88.03913-40.632723 11.280087-15.246659 14.007399-32.76999 8.106829-52.091188l0.098577-0.032859c-0.882504-2.356473-1.422333-4.924183-1.919915-7.294738-1.197013-5.694026-1.802561-10.81067-1.80256-15.204412 0-5.295022 0.87781-9.604269 2.675676-13.171837 3.135705-6.215079 8.900143-9.782647 15.795877-9.782647 8.487057 0 18.250927 5.525036 31.624613 17.898865 4.332718 3.628592 43.618214 37.924187 47.838271 91.245247 2.933855 37.022907-11.636844 73.768858-43.313093 109.214525-24.207827 27.094741-55.301999 42.022196-87.55563 42.02689 0.009388 0.004694 0.004694 0.004694 0 0.004694z m-74.402571-99.924765c1.727454 12.233003 6.210385 30.74211 10.496161 37.82561l0.802702 1.586629c9.017498 21.809107 34.966861 37.036989 63.103708 37.03699h0.009388c25.479947 0 50.363734-12.143814 70.055771-34.192324 27.235566-30.48393 39.820631-61.343394 37.417217-91.724052-3.591039-45.350362-39.23386-74.881376-39.600006-75.172415l-0.572688-0.497582c-4.670698-4.337412-8.172547-7.097583-10.707399-8.848507 0.384922 3.689616 1.253343 8.247654 2.408109 12.167285 8.078664 26.442251 4.036985 51.649936-11.683786 72.895742-24.35804 32.920204-72.219782 50.143108-106.904993 50.143108-5.379517 0-10.327171-0.408393-14.824184-1.220484z" fill="#6E6E96" p-id="2431"></path><path d="M712.724992 136.816235c3.689616 29.446519-4.356188 65.497733-39.858184 105.243258-46.51921 52.0818-122.883943 47.955625-145.941699 15.537698 0.567994 2.985491 0.910669 5.478095 0.891892 7.191466-0.751067 50.467006 97.267866 68.304846 152.762325 6.172832 48.213805-53.954773 45.81039-101.103001 32.145666-134.145254z" fill="#6E6E96" opacity=".15" p-id="2432"></path><path d="M1116.367154 759.23012a11.735421 11.735421 0 0 1-11.233146-15.152776c31.479094-103.436003-19.983075-292.620382-20.504128-294.521521a11.735421 11.735421 0 1 1 22.625893-6.238549c2.210953 8.01764 53.795171 197.638577 20.330443 307.590085a11.740115 11.740115 0 0 1-11.219062 8.322761z" fill="#6E6E96" p-id="2433"></path><path d="M465.300065 947.776092h102.783513v44.998299H465.300065z" fill="#B8B8D4" p-id="2434"></path><path d="M579.823694 1004.505118H453.564643v-68.469142h126.254356v68.469142z m-102.788208-23.470842h79.312671v-21.527457h-79.312671v21.527457z" fill="#6E6E96" p-id="2435"></path><path d="M637.468083 923.389886h82.636142v46.523904H637.468083z" fill="#B8B8D4" p-id="2436"></path><path d="M731.839646 981.649212H625.732662V911.654465h106.106984v69.994747z m-82.636142-23.470843h59.1653v-23.053061H649.203504v23.053061z" fill="#6E6E96" p-id="2437"></path><path d="M805.60381 924.305249h82.640837v45.61793h-82.640837z" fill="#B8B8D4" p-id="2438"></path><path d="M899.984762 981.653906h-106.111679v-69.088772h106.111679v69.088772z m-82.64553-23.470843h59.169994v-22.147087h-59.169994v22.147087z" fill="#6E6E96" p-id="2439"></path><path d="M925.248777 938.115493h77.209684v47.946237h-77.209684z" fill="#B8B8D4" p-id="2440"></path><path d="M1014.193882 997.797151h-100.680526v-71.417079h100.680526v71.417079z m-77.209684-23.470842h53.738841v-24.475395h-53.738841v24.475395z" fill="#6E6E96" p-id="2441"></path><path d="M525.681154 992.769697s-16.42959-206.158492 70.412528-206.158492c0 0 41.374401-4.694169 41.374401 107.965875 0 0 5.567284-51.635854-27.291896-51.635853s-42.083221 114.237285-42.08322 149.82847h-42.411813z" fill="#6E6E96" opacity=".2" p-id="2442"></path><path d="M678.786154 969.91379s-17.664156-163.821787 73.078815-163.821786c0 0-31.770132 4.454766-31.770132 163.821786h-41.308683z" fill="#6E6E96" opacity=".2" p-id="2443"></path><path d="M847.231697 969.91379V842.931838s0.234708-64.455628 47.392325-17.307399l-6.360598 144.279963-41.031727 0.009388z" fill="#6E6E96" opacity=".2" p-id="2444"></path><path d="M964.585909 986.06173s-21.123758-211.181253 16.42959-269.858359 128.99575-174.792058 100.877681-319.75737c0 0 51.757902 120.161325 7.618636 204.909844-44.139266 84.757907-87.053355 98.417937-87.053355 336.759648v47.946237h-37.872552z" fill="#6E6E96" opacity=".2" p-id="2445"></path><path d="M351.095639 329.408581c-159.930321-21.795024-302.947553 58.71466-319.452249 179.814818-16.504696 121.109547 99.765163 236.956932 259.686096 258.737874 159.920933 21.799719 302.947553-58.719354 319.456943-179.828901 16.500002-121.100159-99.765163-236.938155-259.69079-258.723791z m225.888083 222.818096c-14.622335 98.319359-141.355496 163.680962-283.058361 145.998029-141.707559-17.697015-244.730475-111.739987-230.112834-210.054652 14.622335-98.314665 141.350802-163.676267 283.05836-145.988641 141.712253 17.687627 244.735169 111.730599 230.112835 210.045264z" fill="#6E6E96" opacity=".15" p-id="2446"></path></svg>