<?xml version="1.0" standalone="no"?><!DOCTYPE svg PUBLIC "-//W3C//DTD SVG 1.1//EN" "http://www.w3.org/Graphics/SVG/1.1/DTD/svg11.dtd"><svg t="1711552910583" class="icon" viewBox="0 0 1244 1024" version="1.1" xmlns="http://www.w3.org/2000/svg" p-id="2230" xmlns:xlink="http://www.w3.org/1999/xlink" width="242.96875" height="200"><path d="M593.236079 492.19171s-237.23288 90.02956-330.285432 199.363578c-55.823589 65.597433-46.774469 202.034136 4.353307 253.147021 219.586351 219.576424 404.485237-305.208002 404.485237-305.208002l-78.553112-147.302597z" fill="#FFA1A1" p-id="2231"></path><path d="M588.833134 480.586201c-9.808591 3.722896-241.293319 92.437033-335.328715 202.917704-61.591596 72.373104-49.181942 215.764178 5.033355 269.969548 47.434663 47.429699 97.475353 65.572613 148.732189 53.927393 159.111624-36.13195 271.5282-350.433747 276.238906-363.791498l1.811809-5.147525-2.576244-4.819909-78.56304-147.292669-5.137597-9.634856-10.210663 3.871812z m71.261199 154.773209c-1.111905 3.147088-112.525782 314.738617-258.334256 347.837647-42.396343 9.619964-84.683481-6.284249-125.675051-47.270856-45.707239-45.702275-55.327203-175.646247-3.678222-236.33442 89.940211-105.675652 322.894242-194.910995 325.237184-195.789599l-15.353224-5.763043 78.558076 147.292669-0.754507-9.972398z" fill="#6E6E96" p-id="2232"></path><path d="M594.208996 493.636194s-199.120349 75.559903-277.211822 167.326815c-46.858855 55.059154-39.264146 169.575444 3.648438 212.483065a202.704258 202.704258 0 0 0 21.706968 18.892457 12.350088 12.350088 0 0 1 8.249938-3.186799c5.842465 0 10.692158 4.020728 12.077075 9.411482a24.283212 24.283212 0 0 1 18.698868-8.776107 24.322922 24.322922 0 0 1 22.615354 15.397899 14.861802 14.861802 0 0 1 11.714713-5.748152c5.097886 0 9.590181 2.556389 12.295486 6.443092 2.203955-1.955762 5.420537-3.211619 9.034228-3.211618 6.646611 0 12.027437 4.169644 12.05722 9.317168 122.617312-43.791188 211.058437-294.719362 211.058437-294.719362l-65.944903-123.62994z" fill="#FFFFFF" opacity=".42" p-id="2233"></path><path d="M285.089471 760.33952s205.394671-1.424628 296.784329-78.806268c0 0-0.734652 68.645244 11.55587 104.09218l25.936177-49.181942-12.369943-108.440523s-202.307149 118.452632-316.982282 90.357175c0.004964 0-19.75617 4.94897-4.924151 41.979378zM711.01859 492.19171s237.23288 90.02956 330.275504 199.363578c55.828553 65.597433 46.774469 202.024209-4.353306 253.147021-219.581387 219.576424-404.480273-305.208002-404.480273-305.208002l78.558075-147.302597z" fill="#FFA1A1" p-id="2234"></path><path d="M706.615645 503.792255c2.342943 0.888531 235.341648 90.18344 325.227257 195.794562 51.648981 60.688174 42.033981 190.622218-3.673258 236.329457-40.996534 40.996534-83.273744 56.900747-125.665124 47.275819-145.803511-33.09903-257.222351-344.695522-258.334256-347.842611l-0.749543 9.967434 78.558076-147.297633-15.363152 5.772972z m-85.859916 139.817093c4.705741 13.357752 117.127281 327.659549 276.228977 363.796462 51.256836 11.640256 101.297526-6.507623 148.727225-53.932357 54.215298-54.210334 66.619988-197.606372 5.03832-269.969548-94.030433-110.485634-325.515161-199.194807-335.333679-202.917704l-10.210664-3.876776-5.142561 9.63982-78.558075 147.292669-2.566317 4.819909 1.816774 5.147525z" fill="#6E6E96" p-id="2235"></path><path d="M987.257495 660.963009c-78.086509-91.771876-277.22175-167.326815-277.221749-167.326815l-65.934976 123.624976s88.426233 250.918247 211.058437 294.719362c0.029783-5.157452 5.410609-9.317168 12.062184-9.317168 3.618655 0 6.830274 1.260821 9.034228 3.216582a14.941224 14.941224 0 0 1 12.295486-6.457984c4.775235 0 8.98459 2.278413 11.714714 5.748152a24.33285 24.33285 0 0 1 22.615354-15.387971c7.530178 0 14.241319 3.415137 18.703831 8.776107a12.464257 12.464257 0 0 1 12.072111-9.411482c3.191763 0 6.055911 1.226074 8.259866 3.191763a202.853173 202.853173 0 0 0 21.706968-18.892457c42.892729-42.917549 50.492402-157.428875 3.633546-212.483065z" fill="#FFFFFF" opacity=".42" p-id="2236"></path><path d="M1029.931815 766.723047s-220.802497-1.424628-312.19712-78.806269c0 0 3.782463 58.236026-8.52295 93.682962l-30.507895-54.225225 9.33206-104.757338s218.261 118.824922 332.926207 90.739392c0.009928 0.009928 23.806681 16.331105 8.969698 53.366478z" fill="#FFA1A1" p-id="2237"></path><path d="M866.993054 471.671105m-3.946271 0a3.94627 3.94627 0 1 0 7.892541 0 3.94627 3.94627 0 1 0-7.892541 0Z" fill="#FFFFFF" opacity=".42" p-id="2238"></path><path d="M607.939038 334.916715c-16.966479-41.373788-46.59577-82.027815-86.589604-116.695426-21.925377-19.979543-46.064637-36.767324-71.851899-49.176978-123.108735-65.274782-259.292281-52.011343-312.60912 33.918067-13.184017 21.250292-24.427164 62.574441-25.692948 87.632015-10.652447 56.151204-20.088748 135.314871 21.682148 266.921737l0.014891-0.049638c27.663601 92.134238 101.004658 156.07374 217.159023 156.07374 163.390473 0 295.846159-73.231852 295.846159-226.823662 0.004964-49.534376-13.794572-102.61295-37.95865-151.799855z" fill="#FFE073" p-id="2239"></path><path d="M619.42045 330.20601c-18.073421-44.064201-49.172014-86.033651-89.945175-121.361455-23.17627-21.126196-48.352977-38.350796-74.59195-50.983824-130.485033-69.196233-271.905454-52.716212-328.538152 38.559278-14.856838 23.950633-26.234009 67.707074-27.539505 93.548938l0.203518-1.687713c-11.952979 62.991405-18.679012 144.686642 22.04451 272.992539l12.618137 39.765497 11.163725-40.197353-0.843857 2.174172-22.98268-1.975617c31.470883 104.81194 114.95311 164.924306 229.047472 164.924306 190.140724 0 308.255813-91.667635 308.255813-239.233316 0-50.646281-13.56127-105.03035-39.234363-157.279959l0.342507 0.754507z m14.072548 156.520488c0 158.084104-146.414066 214.414007-283.436505 214.414007-102.354829 0-177.175117-53.669273-205.275538-147.238066l-8.994517-29.956906-13.988163 27.981289-0.531133 1.06723-0.337543 1.211182 23.786826-0.426892c-38.946459-122.721554-33.262837-197.904203-21.314822-260.865825l0.158843-0.833929 0.039711-0.84882c1.126797-22.238101 11.560834-61.909283 23.846392-81.715092 48.839436-78.726847 178.967071-91.682526 296.243268-29.50023 24.511549 11.804063 47.677892 27.678493 69.310401 47.385024 38.077783 33.004717 66.863217 71.742694 83.462371 112.232913l0.158844 0.387182 0.188627 0.377253c23.995308 48.854327 36.682938 99.455934 36.682938 146.32968z" fill="#6E6E96" p-id="2240"></path><path d="M616.342855 367.365479c-13.332933-32.498403-36.598553-64.425961-68.014833-91.657707-17.214672-15.695731-36.181588-28.879748-56.434144-38.628772-56.329903-29.867556-116.134509-38.762796-164.532161-27.673529a22.476366 22.476366 0 0 1-10.721941 2.799618c-1.116869 0.342506-2.208918 0.724724-3.31586 1.087086-2.387617 22.803981-21.587835 40.604389-45.02719 40.604389a45.468973 45.468973 0 0 1-8.483239-0.824001c1.444484 3.588872 2.283376 7.793263 2.283376 12.305413 0 7.679094-2.407473 14.479585-6.125405 18.818 0.481495 2.124533 0.759471 4.328487 0.759471 6.596972a29.594544 29.594544 0 0 1-28.730832 29.574688c-5.66873 33.605344-12.613173 108.519945 15.660984 195.65061 2.481931 12.682667 17.373516 47.563723 147.054403 59.094774 12.786908 1.136724-127.9485 0.814073-121.902516 11.392063 27.34095 47.737458 73.857299 78.265208 144.97951 78.265208 128.335681 0 232.383187-57.531157 232.383186-178.16789-0.009928-38.906748-10.851002-80.603187-29.832809-119.236922z" fill="#FFF1A6" p-id="2241"></path><path d="M683.608146 334.916715c16.981371-41.373788 46.600734-82.027815 86.589604-116.695426 21.925377-19.979543 46.064637-36.767324 71.861826-49.176978 123.108735-65.274782 259.282354-52.011343 312.604156 33.918067 13.184017 21.250292 24.427164 62.574441 25.692949 87.632015 10.652447 56.151204 20.093712 135.314871-21.677185 266.921737l-0.014891-0.049638c-27.668565 92.134238-101.009622 156.07374-217.159023 156.07374-163.390473 0-295.851123-73.231852-295.851123-226.823662-0.009928-49.534376 13.794572-102.61295 37.953687-151.799855z" fill="#FFE073" p-id="2242"></path><path d="M695.084594 339.62742c16.619009-40.495184 45.399479-79.233161 83.243961-112.029396 21.855883-19.915013 45.032154-35.784479 69.111847-47.375096 117.708053-62.400706 247.835688-49.440063 296.680088 29.28182 12.285558 19.800844 22.719595 59.472027 23.841428 81.715092l0.044675 0.84882 0.158843 0.833929c11.943051 62.976514 17.626673 138.159164-21.314822 260.865826l23.603162-0.173736 0.620483 3.866849-24.298103-3.569017c-28.100421 93.578721-102.920709 147.238067-205.275538 147.238067-137.022439 0-283.441469-56.329903-283.441469-214.414008 0-46.858855 12.687631-97.465425 36.692866-146.339607l0.183663-0.37229 0.148916-0.377253z m-61.849717 147.099078c0 147.565681 118.120054 239.233316 308.260777 239.233316 114.07947 0 197.571625-60.107402 229.052436-164.924306l-24.303067-3.569016v2.0054l0.650266 1.965689 12.072111 36.181588 11.536015-36.355323c40.713594-128.291006 33.992525-209.991207 22.034582-272.99254l0.203519 1.687713c-1.305496-25.846828-12.687631-69.598305-27.544469-93.548938-56.622771-91.270526-198.043191-107.75551-328.960081-38.340868-25.807117 12.409654-50.983824 29.634255-74.393396 50.968932-40.529931 35.119322-71.638452 77.083809-89.711873 121.152973l0.337543-0.75947c-25.668129 52.274428-39.234363 106.663461-39.234363 157.29485z" fill="#6E6E96" p-id="2243"></path><path d="M1047.538632 290.797912c0-2.268485 0.277976-4.467476 0.764435-6.592009-3.732824-4.333451-6.140297-11.138906-6.140297-18.822963 0-4.51215 0.84882-8.711577 2.283376-12.305414a45.950468 45.950468 0 0 1-8.488203 0.824001c-23.439355 0-42.629645-17.795444-45.017262-40.604388-1.106941-0.362362-2.194027-0.744579-3.31586-1.087086a22.4168 22.4168 0 0 1-10.716977-2.804582c-48.412543-11.089267-108.207222-2.194027-164.532161 27.673529-20.25752 9.739097-39.224435 22.933041-56.439108 38.628772-31.421245 27.226782-54.691829 59.159304-68.019797 91.652743-18.966916 38.633736-29.80799 80.335138-29.80799 119.24685 0 120.636732 104.042542 178.167889 232.373259 178.167889 76.741302 0 124.821267-35.531322 151.090024-89.880644 4.944006-10.235483-133.786001 9.158325-121.9323 7.515287 61.194487-8.468348 120.934563-20.396508 140.963745-66.381723 16.430382-26.402781 20.972316-69.36004 20.783689-109.929682-0.158844-33.982597-3.628583-66.28741-6.229646-85.775531a29.614399 29.614399 0 0 1-27.618927-29.525049z" fill="#FFF1A6" p-id="2244"></path><path d="M695.382426 529.877348c0 145.7638-20.967352 263.94342-46.848927 263.94342s-46.848927-118.17962-46.848927-263.94342c0-145.783655 20.972316-217.377433 46.848927-217.377433 25.891503 0 46.848927 71.58385 46.848927 217.377433z" fill="#C5C5E8" p-id="2245"></path><path d="M682.972771 529.877348c0 161.742471-23.707404 245.011251-35.814262 251.811742a3.117305 3.117305 0 0 1 1.370026-0.277977c0.71976 0 1.231038 0.198554 1.365062 0.277977-12.101895-6.785599-35.814262-90.069271-35.814262-251.811742 0-168.498286 27.608999-204.967779 34.439272-204.967779s34.454164 36.469492 34.454164 204.967779z m-34.444236-229.787087c-48.978424 0-59.258581 124.960255-59.258581 229.787087 0 28.27912 1.662894 276.353074 59.258581 276.353074s59.258581-248.073954 59.258581-276.353074c0.004964-104.826832-10.280158-229.787087-59.258581-229.787087z" fill="#6E6E96" p-id="2246"></path><path d="M645.426121 333.114833m-61.348367 0a61.348367 61.348367 0 1 0 122.696734 0 61.348367 61.348367 0 1 0-122.696734 0Z" fill="#C5C5E8" p-id="2247"></path><path d="M645.426121 284.17612a48.596206 48.596206 0 0 1 34.60308 14.335633 48.62599 48.62599 0 0 1 14.330669 34.598116c0 26.988516-21.950197 48.943677-48.923821 48.943677-26.99348 0-48.943677-21.95516-48.943677-48.943677-0.009928-26.983552 21.945233-48.933749 48.933749-48.933749z m-73.762985 48.928785c0 40.673883 33.094066 73.762985 73.762985 73.762986 40.658991 0 73.74313-33.094066 73.74313-73.762986 0-19.696603-7.669166-38.216771-21.597762-52.150331a73.291418 73.291418 0 0 0-52.155295-21.602726c-40.663955 0.004964-73.753058 33.089102-73.753058 73.753057z" fill="#6E6E96" p-id="2248"></path><path d="M486.334353 48.923821h-0.014892c1.484195 0.665157 148.1812 68.560858 148.181201 222.842645 0 0.183663 0 0.367326 0.014891 0.555952 0.342506 7.152925 6.001309 11.064448 11.282858 10.895677 5.95167-0.188627 10.657411-5.281549 10.573025-11.243147-0.238265-16.678575 1.677785-164.487486 142.864905-218.439699a10.940351 10.940351 0 0 0 6.309068-14.112259 10.935387 10.935387 0 0 0-14.112259-6.309068c-155.061113 59.258581-157.180682 220.941486-156.907669 239.183677-0.08935-5.961598 4.631283-10.736833 10.582953-10.920496a10.890713 10.890713 0 0 1 11.263002 10.304977c-0.019855-168.56778-159.488877-241.983295-161.097168-242.703055a10.930424 10.930424 0 0 0-8.939915 19.944796z" fill="#6E6E96" p-id="2249"></path><path d="M117.380438 443.143792s23.474102 129.258959 108.232041 183.74727c91.796695 59.020316 262.910936 74.825252 367.588853-17.810336 0 0-74.984095 115.394894-243.139875 104.469434-168.160744-10.930424-246.927302-145.972282-232.681019-270.406368zM1172.945635 443.143792s-23.474102 129.258959-108.232041 183.74727c-91.791731 59.020316-262.910936 74.825252-367.593817-17.810336 0 0 74.989059 115.394894 243.144839 104.469434 168.165708-10.930424 246.927302-145.972282 232.681019-270.406368zM236.597505 799.663233s30.497966 168.250093 148.543563 148.548526c118.05056-19.701567 227.354795-194.548633 227.354795-194.548633s-93.12701 240.002715-235.634517 240.002715c-142.502543-0.009928-155.066077-125.9431-140.263841-194.002608zM688.969116 744.911838s142.070687 290.693671 288.509572 181.414255c146.433921-109.294308 76.215133-192.622654 76.215133-192.622655s59.298292 181.692231-45.612926 236.324493c-104.916182 54.652118-277.579148-4.363234-319.111779-225.116093z" fill="#6E6E96" opacity=".15" p-id="2250"></path><path d="M634.912662 320.149226m-18.167734 0a18.167734 18.167734 0 1 0 36.335468 0 18.167734 18.167734 0 1 0-36.335468 0Z" fill="#E8E8E8" p-id="2251"></path><path d="M941.778594 531.376434m-44.193261 0a44.193261 44.193261 0 1 0 88.386522 0 44.193261 44.193261 0 1 0-88.386522 0Z" fill="#FFFFFF" p-id="2252"></path><path d="M349.048829 352.310086m-50.457654 0a50.457654 50.457654 0 1 0 100.915309 0 50.457654 50.457654 0 1 0-100.915309 0Z" fill="#FFFFFF" p-id="2253"></path><path d="M870.69113 388.308011m-17.780552 0a17.780553 17.780553 0 1 0 35.561105 0 17.780553 17.780553 0 1 0-35.561105 0Z" fill="#FFD645" p-id="2254"></path><path d="M308.126753 480.978346m-28.542205 0a28.542205 28.542205 0 1 0 57.08441 0 28.542205 28.542205 0 1 0-57.08441 0Z" fill="#FFD645" p-id="2255"></path><path d="M501.71736 344.472149m-8.686758 0a8.686758 8.686758 0 1 0 17.373516 0 8.686758 8.686758 0 1 0-17.373516 0Z" fill="#FFD645" p-id="2256"></path></svg>