<?xml version="1.0" standalone="no"?><!DOCTYPE svg PUBLIC "-//W3C//DTD SVG 1.1//EN" "http://www.w3.org/Graphics/SVG/1.1/DTD/svg11.dtd"><svg t="1711552918438" class="icon" viewBox="0 0 1110 1024" version="1.1" xmlns="http://www.w3.org/2000/svg" p-id="2599" xmlns:xlink="http://www.w3.org/1999/xlink" width="216.796875" height="200"><path d="M676.308458 101.633399s181.480141-96.711061 215.507103-60.16643c34.036002 36.549151-53.463191 114.809354-34.582928 203.596762-0.00452 0.00452-180.924174-41.100845-180.924175-143.430332z" fill="#A3D9FF" p-id="2600"></path><path d="M681.624041 111.609157c83.602906-44.540605 184.576377-81.076196 201.919822-62.440017 10.830048 11.630097 2.458909 32.779427-12.104703 66.327262-15.942228 36.725433-35.785262 82.432212-25.262578 131.922277l13.55564-13.370318c-1.71762-0.388725-172.123631-40.305315-172.12363-132.410442l-5.984551 9.971238z m186.655602 131.108666c-9.017506-42.41618 8.46154-82.689855 23.883962-118.221994 15.765946-36.314108 29.380347-67.678758 7.914613-90.726511-37.055397-39.80811-184.711979 34.248444-229.094382 57.897363l-5.980031 3.191158v6.78008c0 110.081379 181.972827 152.691921 189.720198 154.450222l17.234963 3.914366-3.679323-17.284684z" fill="#6E6E96" p-id="2601"></path><path d="M46.326027 454.739965s-32.725186-68.881093 60.19807-87.151149c0 0-80.420789-264.414079 278.204762-329.073442 389.013869-70.151228 687.296708 359.855005 656.293662 776.079596l-99.472814 39.365144s0-517.288462-691.061912-387.969737c0.00904 0-183.229402 59.976588-204.161768-11.250412z" fill="#A3D9FF" p-id="2602"></path><path d="M56.536827 449.894467l0.0226 0.049721c-0.094921-0.216963-9.916997-21.868018-0.235043-40.870322 7.553009-14.816735 25.176697-25.045615 52.387418-30.397359l12.267425-2.413708-3.638643-11.964581c-0.275723-0.899491-26.993758-92.683693 25.077256-177.601936 42.547262-69.387339 124.748952-115.500923 244.313402-137.061576 144.429264-26.044547 283.13614 16.376153 401.105012 122.674247 164.914145 148.583193 259.871426 400.363723 241.917774 641.449807l7.110044-9.672914-99.472814 39.365144 15.458583 10.500084c0-7.697651-1.70406-190.099883-149.939209-313.158334-123.713859-102.709172-310.27906-131.614913-554.502062-85.912654l13.379358 11.110291v-5.754028l-4.655655-3.38552-4.655655-3.38552-5.505425 1.785422c-43.19363 13.998605-135.163155 35.043973-174.080813 14.500331-8.271698-4.366372-13.420038-10.319282-15.734306-18.193215l-0.253123-0.85881-0.366124-0.80457z m196.039233 27.206201c237.302799-44.409524 417.612247-17.131002 535.906562 81.080717 140.162333 116.359733 141.775993 293.997828 141.775992 295.783249v16.624756l15.458583-6.120152 99.472813-39.365144 6.585718-2.603551 0.524326-7.064843c18.450858-247.784803-79.412817-506.824539-249.330661-659.914225C679.603577 44.368843 534.283863 0.067801 382.721955 27.396043c-126.353571 22.781069-213.748802 72.506175-259.753904 147.787664-57.278116 93.723306-28.507976 191.57342-27.246882 195.691188l8.628782-14.378289c-34.506087 6.7846-57.486038 21.108649-68.293486 42.565342-14.595252 28.982582-0.542406 59.248859 0.067801 60.523514l-0.637327-1.66338c4.068048 13.844923 13.103635 24.54389 26.862677 31.807615 56.026061 29.579229 177.882178-8.538381 191.60054-12.986113l-10.097799-1.622699-4.651135-9.135028v13.609881l13.374838-2.49507z" fill="#6E6E96" p-id="2603"></path><path d="M854.651682 223.127912c-2.52219-79.584579 68.365807-148.158308 37.163879-181.660943-20.195598-21.687216-92.326609 3.557282-147.629462 27.671767 0 0 110.357102-66.97815 110.357102-18.563859 0 25.086296-35.482419 93.361701-39.921111 132.2884-124.495829-124.486789-271.637124-172.882999-429.897751-144.347903C26.107828 103.179257 106.528617 367.593336 106.528617 367.593336 13.605361 385.863392 46.330547 454.744485 46.330547 454.744485c20.932367 71.22248 204.170809 11.245893 204.170808 11.245892 546.194203-102.211966 660.682634 199.501593 684.688637 330.483699-23.079392-141.134145-128.916441-486.958905-609.50207-397.027924 0 0-177.240331 52.622461-177.240331 19.45431 0 0-28.408535-59.795785 52.260857-75.656653 0 0-2.630671-4.501973-5.265862-12.199624 52.337697 71.638325 316.426333 21.456693 316.426332 21.456693 342.787284 9.912477 426.078306 375.684232 426.078307 375.684232v-0.05876c1.365056 25.140537 3.823965 72.790939 3.823965 89.677858 0 23.377716 95.612688 0 95.612688 0s7.66601-43.939438 2.106345-111.202352c3.123357 31.170288 4.018327 62.602739 2.427268 94.003549 12.796271-220.094956-58.873695-435.443857-187.265809-577.477493zM199.465433 258.773053c1.600099-3.36744 3.557282-6.78008 5.677187-10.197241l0.0226 0.158202a201.797781 201.797781 0 0 0-5.699787 10.039039z m173.836731-159.047117c232.475382-41.914454 509.622452 160.620095 605.678105 387.413771 72.560416 171.310021 45.968942 342.005315-26.338351 128.90288-27.355363-85.261766-108.734403-177.624535-204.451052-247.852604-131.171947-96.245495-297.993555-144.10834-427.841127-109.981937-29.534028 6.531477-119.867294 43.369912-143.23145 0.565007-0.00452 0-24.073804-116.554095 196.183875-159.047117z" fill="#61A7D9" opacity=".36" p-id="2604"></path><path d="M938.819595 823.98764c22.05786-331.265668-271.176079-498.146037-583.489163-498.146036-115.550643 0-337.828785 13.53304-313.958384 115.207119 1.464497 10.545284 4.953978 17.931052 4.953979 17.931052 20.936887 71.21796 204.170809 11.241373 204.170808 11.241372 581.794143-108.856444 673.781749 240.557238 688.32276 353.766493z" fill="#F0F0FF" p-id="2605"></path><path d="M950.092608 824.737969c8.570021-128.572917-30.126155-242.717823-111.87584-330.099494-107.080063-114.45227-283.09094-180.092485-482.886336-180.092484-116.906659 0-266.018698 12.303585-312.457726 70.910596-13.388398 16.900479-17.596568 36.47683-12.497948 58.182127l-0.189842-1.026053c1.65434 11.910341 5.487345 20.281479 5.92127 21.19453l-0.623767-1.631739c4.077088 13.872044 13.148835 24.58909 26.957598 31.852816 57.522199 30.261757 186.131276-11.273013 191.57342-13.058434l-1.432857 0.370644c224.723491-42.054576 398.691303-19.698392 517.066979 66.431224 117.399345 85.419968 149.365162 210.634485 157.971344 277.657835l22.473705-0.691568zM246.980234 459.490541c-34.591968 11.309173-133.296372 35.966064-174.026573 14.531971-8.303338-4.370892-13.465239-10.332842-15.788547-18.220335l-0.248603-0.84073-0.375164-0.791009c-0.00452-0.01356-2.788873-6.133712-3.977647-14.667573l-0.076841-0.519806-0.117521-0.506246c-3.484961-14.852895-0.800049-27.603966 8.208417-38.98094C91.974045 359.873085 199.406672 337.150777 355.321392 337.150777c193.562243 0 363.556929 63.032144 466.383622 172.93272 78.468126 83.874109 114.077106 189.232032 105.832528 313.153815l22.482745-0.682528c-9.071747-70.639393-42.845585-202.643031-167.088291-293.053138-123.605378-89.935501-303.44022-113.61606-534.523426-70.37271l-0.732248 0.135602-0.696088 0.226003z" fill="#6E6E96" p-id="2606"></path><path d="M938.146107 747.205495a473.86883 473.86883 0 0 1-2.965155 49.264061c-9.767835-105.249442-69.256257-465.520292-639.867788-388.620625 0 0-176.697924 34.73661-194.317093 14.007646 0 0-7.114564-6.969922-8.127055-16.782958-4.090648-20.123277 2.458909-36.124266 16.344512-48.825616C62.060332 373.487486 31.771455 400.12416 41.376568 441.062283c1.464497 10.545284 4.953978 17.931052 4.953979 17.931052 20.936887 71.22248 204.170809 11.241373 204.170808 11.241372 581.794143-108.874524 673.777228 240.539158 688.32276 353.761974 1.771861-26.668315 1.473537-52.251816-0.678008-76.791186z" fill="#6E6E96" opacity=".15" p-id="2607"></path><path d="M413.856082 421.006807s-2.621631 118.072833 209.414071 151.81051c0 0 65.26505 5.437624 18.319776-44.98357-46.949794-50.412155-49.734147-84.335155-143.968219-112.449887-94.234072-28.119252-83.765628 5.622946-83.765628 5.622947z" fill="#94CBEB" p-id="2608"></path><path d="M402.560469 420.753684c-0.108481 5.225182-0.311884 128.337874 218.942343 163.219125l0.415845 0.067801 0.420365 0.03616c5.97099 0.501726 36.210147 2.038544 45.245733-16.570515 9.049147-18.62714-11.096731-40.260115-17.714089-47.370159-11.209732-12.041422-19.757153-23.011591-28.00625-33.620157-25.972226-33.367034-46.488748-59.723465-121.001827-81.953086-49.666346-14.821255-78.933691-15.521863-92.105127-2.201266-7.028683 7.105524-7.458088 16.294792-5.686227 22.003619l-0.510766-3.611522z m91.833923 5.455704c67.574797 20.159438 85.216565 42.818465 109.620333 74.178595 8.163216 10.486524 17.415765 22.369744 29.303506 35.143415 15.033697 16.14111 13.935324 22.05786 13.917244 22.1121l0.00452-0.00904c-1.365056 2.436309-12.773671 4.777696-23.034191 3.918887l0.84073 0.094921C425.065814 529.83161 425.129095 422.335702 425.156216 421.250889l0.04068-1.844181-0.542406-1.758301c0.135602 0.456525 0.158202 0.628287 0.158201 0.632807v-0.113001a0.397765 0.397765 0 0 1-0.05876 0.135602c0.081361-0.094921 9.238989-10.111359 69.640461 7.905573z" fill="#6E6E96" p-id="2609"></path><path d="M641.589929 527.833747c-24.087364-25.863745-36.567231-47.374679-55.714177-66.006339 1.342456 1.952663 2.721072 3.918886 4.162969 5.93031 36.341229 50.425715-14.183927 44.983571-14.183928 44.983571-97.199227-19.983156-136.112366-69.554581-151.692989-106.655178-13.55564 4.388972-10.305722 14.920696-10.305722 14.920696s-2.621631 118.077353 209.414071 151.81051c0.00452 0 65.27409 5.437624 18.319776-44.98357z" fill="#61A7D9" opacity=".36" p-id="2610"></path><path d="M950.580774 777.033327s-105.10028 2.815993-120.36902 87.137588c-15.146699 83.679747 126.186329-9.681954 213.143114 115.726925 54.480203 78.544967 78.83877-215.041537-92.774094-202.864513z" fill="#A3D9FF" p-id="2611"></path><path d="M950.27793 765.742233c-39.518826 1.053172-117.80615 22.568626-131.176467 96.421778-2.919954 16.11399-0.917571 28.277454 6.106592 37.168398 11.87418 15.015617 33.633717 16.190831 61.187962 17.682449 43.672755 2.354948 103.491141 5.586786 147.683702 69.328578 15.006577 21.628455 29.095583 19.46787 36.146866 16.245071 26.329311-12.005262 30.560081-75.860055 17.872291-125.662002-19.237347-75.521051-69.644982-116.043329-137.820946-111.184272z m102.370168 207.719051c-50.502556-72.822579-119.428849-76.560663-165.040707-79.010532-20.118757-1.084813-39.125582-2.119905-44.680727-9.135028-2.730112-3.457841-3.272519-9.889877-1.600099-19.119826 13.469759-74.431718 108.589761-77.830798 109.552532-77.857918 82.811897-5.867029 108.815764 66.399583 116.178931 97.746153 12.018822 51.212204 1.333416 92.828335-6.237674 95.947172a0.971811 0.971811 0 0 1 0.397765-0.045201c-0.0226-0.01356-3.127877-0.682528-8.570021-8.52482z" fill="#6E6E96" p-id="2612"></path><path d="M1025.532298 796.537357c37.426042 35.138895 42.135937 97.538231 1.446417 97.53823-12.574788 0-25.158617-2.431789-37.439602-13.727402-8.764383-8.059255-17.379605-38.203491-25.701023-38.827258-15.2823-1.148094-29.588269 27.481924-42.154017 33.00091-28.485376 12.484387-48.025567 6.436556-49.702506-21.375333-3.127877-51.980613 53.282389-71.611205 62.381256-74.436238-30.103555 4.646615-92.647533 21.890618-104.151069 85.442568-15.142179 83.679747 126.186329-9.677434 213.143114 115.731446 44.603886 64.329399 68.994094-120.802945-17.82257-183.346923z" fill="#61A7D9" opacity=".36" p-id="2613"></path><path d="M235.793102 220.180837m-25.881826 0a25.881825 25.881825 0 1 0 51.763651 0 25.881825 25.881825 0 1 0-51.763651 0Z" fill="#6E6E96" p-id="2614"></path><path d="M631.776893 787.158246c11.395054 18.717541 6.608318 28.652618-3.127877 34.578408-9.745235 5.93483-20.774165 5.613906-32.160179-13.094595-11.395054-18.722061-20.36736-51.248365-10.626646-57.174154 9.745235-5.93483 34.519647 16.9728 45.914702 35.690341z" fill="#61A7D9" p-id="2615"></path><path d="M724.695629 654.670963c6.7394 11.069611 4.601414 16.543395-0.325444 19.535671-4.917818 3.001315-10.757727 2.391108-17.501646-8.687543s-12.74203-29.918233-7.819692-32.910508c4.917818-3.001315 18.902863 10.98373 25.646782 22.06238z" fill="#61A7D9" opacity=".51" p-id="2616"></path><path d="M1019.79183 211.430014c9.681954 6.233154 8.054735 14.581692 2.784353 22.767509s-12.195104 13.112675-21.881578 6.879521-19.748113-22.107581-14.473211-30.293397c5.274902-8.185817 23.883962-5.586786 33.570436 0.646367z" fill="#61A7D9" opacity=".31" p-id="2617"></path><path d="M1093.51842 451.670848c6.74392 11.074131 4.601414 16.547915-0.325444 19.540191-4.917818 3.001315-10.757727 2.391108-17.501646-8.687543-6.7394-11.078651-12.73751-29.918233-7.815172-32.915028 4.913298-3.001315 18.893823 10.98373 25.642262 22.06238z" fill="#61A7D9" opacity=".51" p-id="2618"></path><path d="M433.13863 601.158052c6.368755 10.459403 2.309747 16.877879-4.859058 21.23069-7.155244 4.370892-14.708254 5.030819-21.081528-5.437624s-10.007398-29.511428-2.843114-33.87328c7.159764-4.361851 22.410424 7.60725 28.7837 18.080214z" fill="#61A7D9" opacity=".51" p-id="2619"></path></svg>