<?xml version="1.0" standalone="no"?><!DOCTYPE svg PUBLIC "-//W3C//DTD SVG 1.1//EN" "http://www.w3.org/Graphics/SVG/1.1/DTD/svg11.dtd"><svg t="1711552928547" class="icon" viewBox="0 0 1024 1024" version="1.1" xmlns="http://www.w3.org/2000/svg" p-id="2945" xmlns:xlink="http://www.w3.org/1999/xlink" width="200" height="200"><path d="M548.320057 18.170101c1.426212 3.311712 34.603768 81.890348 0.132952 147.028749-20.406111 38.564125-59.892842 63.724276-117.348231 74.779432a10.072118 10.072118 0 0 1-3.81129-19.78164c51.118013-9.830387 85.86682-31.473354 103.299642-64.320545 29.98671-56.516668-0.463317-129.007715-0.773539-129.732908l0.004029 0.008058a10.072118 10.072118 0 1 1 18.496437-7.981146z" fill="#6E6E96" p-id="2946"></path><path d="M512.165183 107.006181l0.032231-0.024173c-0.197414 0.165183-19.660774 16.542447-20.748563 39.760693-0.709077 15.116235 6.518675 30.365421 21.473755 45.32453a10.06406 10.06406 0 0 1 0 14.241975 10.06406 10.06406 0 0 1-14.241975 0c-19.209543-19.209543-28.407401-39.647885-27.339757-60.746958 1.627654-32.218691 27.01342-53.285533 28.097181-54.163821a10.076147 10.076147 0 0 1 14.173484 1.43427 10.076147 10.076147 0 0 1-1.446356 14.173484zM648.40065 112.976932c-10.479032 30.441969-48.338108 83.465627-116.671385 66.258421a10.060031 10.060031 0 0 1-7.300271-12.227551 10.06406 10.06406 0 0 1 12.219493-7.308329c67.334123 16.957418 91.712677-50.421022 92.71586-53.297619l-0.008058 0.020144a10.072118 10.072118 0 0 1 12.799648-6.248742 10.092262 10.092262 0 0 1 6.244713 12.803676zM632.631742 41.207049c-0.950808 2.779905-24.165025 68.123777-78.784106 68.091546a10.072118 10.072118 0 1 1 0.012086-20.144236c40.215953 0.024173 59.546361-53.99461 59.735717-54.542533 0.14101-0.406914 0.31425-0.817856 0.507635-1.200596l-0.511664 1.216711a10.06406 10.06406 0 0 1 12.807706-6.228597c5.261674 1.812981 8.057694 7.546031 6.232626 12.807705z" fill="#6E6E96" p-id="2947"></path><path d="M387.923594 685.903174c-15.631927-21.514044 103.609863 4.145684 94.508697 59.006496-14.016359 84.460752-27.60969 82.466473-30.482258 111.421797-5.028001 50.74333-12.453167 94.355601-17.247495 114.310481-4.637203 19.245803-10.366224 21.566419-18.818745 21.566419-9.258291 0-14.185571-2.385078-16.687485-21.538217-4.673463-35.852711-0.813827-135.695602-0.813827-171.931053 0-55.598091 14.241975-78.84051-10.458887-112.835923z" fill="#E3B334" p-id="2948"></path><path d="M410.843705 756.984125c2.626808-28.044805 4.709722-50.195407-14.769754-77.003356a0.588212 0.588212 0 0 1-0.056403-0.084606c0.318279 0.511664 1.027356 2.534145 0.128923 5.019943-0.898433 2.477741-2.715443 3.581645-3.279482 3.771001 6.438098-2.13126 42.717867 4.919222 65.400276 24.314093 11.18408 9.560454 15.974379 19.741351 14.229888 30.260671-8.271223 49.804609-16.199994 68.401767-21.989447 81.974954-4.073164 9.552397-7.292213 17.098427-8.585474 30.115632-4.878934 49.268772-12.243667 93.082485-17.01785 112.932615-3.335885 13.851177-5.475203 13.851177-9.024618 13.851177-2.667097 0-3.380203-0.261875-3.49301-0.322308a1.176423 1.176423 0 0 1 0.112807 0.084606c-0.080577-0.080577-1.933847-1.929818-3.315741-12.517628-3.339914-25.599295-2.171549-86.277762-1.317433-130.574937 0.31425-16.280571 0.588212-30.341248 0.588212-40.042712 0-16.332946 1.265058-29.853758 2.389106-41.779145z m-20.05963-1.885501c-1.160308 12.360503-2.473712 26.38492-2.473712 43.640473 0 9.50405-0.265904 23.480121-0.584183 39.664-0.866202 44.933733-2.050683 106.474373 1.482616 133.568371 2.37702 18.194274 7.819992 30.30096 26.670968 30.300959 15.51509 0 23.532496-8.206762 28.612873-29.293748 5.096492-21.199794 12.47734-65.186747 17.477139-115.664173 0.987068-9.939166 3.275453-15.30559 7.066598-24.189199 6.192338-14.519965 14.673061-34.394268 23.331054-86.579925 4.326982-26.086785-13.681965-50.275984-49.401724-66.391373-13.915638-6.276944-52.467677-19.556024-63.63967-5.825713-3.130414 3.847549-4.657347 10.466945 0.447202 17.493254 15.011485 20.651871 13.589302 35.796307 11.010839 63.277074z" fill="#6E6E96" p-id="2949"></path><path d="M719.409081 788.666979v176.221775c0 18.359457 8.750656 20.228842 17.50937 22.001535 10.354137 2.070827 17.988803-1.953991 23.584872-23.472064 13.359657-51.259023 17.537572-154.85277 17.537571-154.85277l-58.631813-19.898476z" fill="#E3B334" p-id="2950"></path><path d="M788.403089 801.458569l-7.135088-2.421338-58.627784-19.902505-13.307282-4.520366v14.052619l-0.008058 176.221775c0 26.723343 16.651225 30.075344 25.603324 31.868181 25.937718 5.185126 32.742441-20.962092 35.304788-30.804565 13.484551-51.706225 17.686639-152.701366 17.859879-156.98403l0.310221-7.509771z m-72.233201-3.243222l58.627784 19.898476-6.828896-9.943195c-0.040288 1.027356-4.278636 103.078055-17.207206 152.705394-4.584828 17.585918-8.452521 16.816408-11.844811 16.139562-7.807906-1.579308-9.427502-1.897587-9.427502-12.12683l0.008058-176.221775-13.327427 9.548368z" fill="#6E6E96" p-id="2951"></path><path d="M437.575106 957.193656h-39.571337c0.306192 5.06829 0.696991 9.693406 1.192539 13.484552 2.501914 19.153139 7.429194 21.534188 16.683456 21.534188 8.448493 0 14.181542-2.304501 18.818745-21.570448 0.87426-3.642078 1.861327-8.323598 2.876597-13.448292z" fill="#3F3F3F" p-id="2952"></path><path d="M449.846975 947.121538H387.303151l0.648644 10.672416c0.338423 5.624271 0.761452 10.402483 1.26103 14.185571 2.37702 18.190245 7.815964 30.30096 26.666939 30.30096 15.51509 0 23.536525-8.210791 28.612873-29.293748 0.821885-3.416462 1.792837-7.948915 2.965231-13.843119l2.389107-12.02208z m-22.150602 8.11007a342.351289 342.351289 0 0 1-2.791991 13.049436c-3.335885 13.851177-5.475203 13.851177-9.024618 13.851176-2.667097 0-3.380203-0.257846-3.49301-0.318279a0.821885 0.821885 0 0 1 0.112807 0.084606c-0.080577-0.080577-1.929818-1.929818-3.315741-12.521657a195.153328 195.153328 0 0 1-1.124048-12.787561l-10.051974 10.680474h39.571337l-9.882762-12.038195z" fill="#6E6E96" p-id="2953"></path><path d="M693.145027 710.253526l80.532626 101.547093c-131.308187 0-152.326683-63.035343-152.326683-63.035343l71.794057-38.51175z" fill="#E3B334" p-id="2954"></path><path d="M626.113067 757.644856l71.785999-38.515779-12.658637-2.614722 80.532626 101.551122 7.892511-16.336976c-121.151463 0-142.605075-55.694783-142.802488-56.26285l0.03626 0.10475-4.786271 12.074455z m69.690999-60.247381l-7.425166 3.980501-71.785998 38.515779-5.301963 2.848395v6.027155c0 9.584627 30.272758 73.107461 162.402829 73.107461h20.841227l-12.948715-16.332946-80.536655-101.551122-5.245559-6.595223z" fill="#6E6E96" p-id="2955"></path><path d="M877.368093 534.450751c33.088922-8.59756 29.289719-25.313247 29.595911-11.099474 0.31425 14.229888-3.376174 49.768349-40.95726 62.576054-14.000244-0.064462-25.671814-11.631282-26.062613-25.841026-0.390798-14.193629 7.683012-17.908226 37.423962-25.635554z" fill="#FFD569" p-id="2956"></path><path d="M879.902238 544.200561c22.746871-5.914348 30.981835-15.768908 33.68922-19.008101l0.253817-0.302163c-2.046654 2.344789-6.301117 3.928126-10.475003 2.417308-4.657347-1.692116-6.438098-6.002982-6.482415-8.496839 0 0.128923 0 0.535837-0.008057 0.854116-0.008058 0.886346-0.024173 2.215866 0.016115 3.924097 0.265904 12.292013-2.526087 42.049078-34.14448 52.818186 1.055558-0.362596 2.171549-0.543894 3.283511-0.539865-8.613675-0.048346-15.79711-7.23581-16.030783-16.034812-0.149067-5.69679-0.2095-7.811935 29.898075-15.631927z m-50.030225 16.151648c0.535837 19.560053 16.715687 35.558605 36.086384 35.64724 1.115991 0.004029 2.240039-0.177269 3.291569-0.543894 45.461512-15.494946 48.068176-59.276428 47.782127-72.329894-0.032231-1.369808-0.024173-2.401193-0.008058-3.235164 0.072519-5.958665-2.195722-9.826358-6.728174-11.502358-2.55026-0.938721-7.509771-1.684058-12.171148 3.883808-1.684058 2.014424-6.800694 8.1423-23.302852 12.424965-26.469526 6.8853-45.598492 11.852868-44.949848 35.655297z" fill="#6E6E96" p-id="2957"></path><path d="M764.290439 945.99749h-44.885386v18.891264c0 18.359457 8.750656 20.228842 17.509369 22.001535 10.354137 2.070827 17.980745-1.953991 23.584872-23.472064 1.385923-5.318078 2.638895-11.196166 3.791145-17.412677v-0.008058z" fill="#3F3F3F" p-id="2958"></path><path d="M774.362557 946.928154v-10.994724h-65.029622v28.959353c0 26.723343 16.651225 30.075344 25.599295 31.876239 25.933689 5.185126 32.738412-20.962092 35.308816-30.804566 1.381895-5.305992 2.667097-11.232426 3.944242-18.117725 0.008058-0.008058 0.177269-0.910519 0.177269-0.918577z m-20.144236-0.922606l0.169212-1.833126a246.472784 246.472784 0 0 1-3.634021 16.7036c-4.580799 17.585918-8.448493 16.816408-11.84481 16.139562-7.803877-1.579308-9.427502-1.897587-9.427503-12.12683v-18.891264l-10.072118 10.072118h44.893445l-10.084205-10.06406z" fill="#6E6E96" p-id="2959"></path><path d="M481.288098 413.91973L348.227362 525.965999v72.23723s10.507233 150.570105 206.599283 150.570105h147.214076c128.50411 0-4.347126 15.503004-131.686899-27.770844-146.754787 0-156.955828-102.800065-167.136725-140.127333-25.317276-92.780322 11.897186-107.985191 74.549789-121.082973 0.813827-3.871722 1.92176-7.892512 3.521212-12.171147 3.754886-10.035858 6.385723-18.665649 8.194675-26.159305-3.380203-6.599252-8.194675-7.542002-8.194675-7.542002z" fill="#E3B334" p-id="2960"></path><path d="M408.406253 595.810093c-13.73434-65.235093 71.765855-110.12048 71.765854-110.120479-176.644804 16.768062-71.765855 110.12048-71.765854 110.120479z" fill="#E3B334" p-id="2961"></path><path d="M481.288098 374.094576s25.772535 4.665405 0 73.534518c-30.345277 81.084578 87.54282 87.54282 87.54282 87.542821h182.091806s83.167492-4.375328 98.050054 84.037723c9.213973 54.723831 0.918577 88.384849-8.444464 107.646767-4.447847 17.722899-6.550906 40.908914 6.873213 54.663399 7.481569 4.661376 11.889128 5.918377 18.818745 12.843965 11.852868 11.844811 8.565329 32.613518 8.561301 32.637691h0.004029s-1.418154 85.169829-14.773783 136.416765c-5.616213 21.52613-13.234763 25.550949-23.584871 23.480121-8.758714-1.764635-17.513399-3.638049-17.513399-22.009592v-142.041036c-76.963068-12.054311-114.06875-48.132637-131.179264-74.078413h-132.637707c-17.037995 59.945217-45.787848 86.209272-48.26156 110.99474-5.03203 50.74333-12.461224 94.351572-17.255553 114.306452-4.629145 19.245803-10.366224 21.570448-18.810687 21.570448-9.266349 0-14.1896-2.37702-16.695543-21.538217-4.68152-35.85674-0.821885-135.695602-0.821885-171.931053 0-22.303698 2.292414-46.662108 6.659685-68.401768-104.870892-38.068577-111.703817-135.574736-111.703817-135.574736v-112.058355l133.08088-112.04224z" fill="#FFD569" p-id="2962"></path><path d="M553.392376 543.53983s-60.404506-15.225013-94.63762-6.019098c-44.079617 11.84884-79.319943 52.1776-28.76194 102.735603 0 0-85.778185-15.696389-68.454143-68.450113 17.324043-52.753725 74.960731-75.790673 100.116853-83.9088 25.156122-8.126185 91.73685 55.642408 91.73685 55.642408z" fill="#F2C349" p-id="2963"></path><path d="M830.762389 593.284006s42.629232 116.546491-80.66155 116.546491c-123.298839 0-341.698615-24.165025-341.698615-114.020404v-85.048964h-61.601074s-12.086542 110.019759 28.201931 154.337078 88.437224 52.262206 81.487463 89.577388c-6.949761 37.32324-3.589703 205.958696-3.589703 205.958697h39.599539l15.853513-108.384047 46.750743-103.476911 141.045911-5.547722s56.975957 73.824596 122.77106 79.626135v123.141714l44.889415 0.008058s16.800293-100.99917 3.80726-136.255612c-13.00109-35.256442-49.437984-17.739014-19.221629-108.388075s-17.634264-108.073825-17.634264-108.073826z" fill="#F2C349" p-id="2964"></path><path d="M474.801654 366.39142l-133.060736 112.050297a10.072118 10.072118 0 0 0-3.585674 7.703156v112.058356c0 0.237702 0.008058 0.467346 0.024173 0.705048 0.298135 4.254463 8.549214 104.496209 118.311127 144.345536a10.072118 10.072118 0 0 1-6.438098-11.449983c-4.423674 22.005563-6.857098 46.996502-6.857098 70.375902 0 9.50405-0.265904 23.464006-0.580154 39.627741-0.870231 44.945819-2.054712 106.506604 1.486645 133.608659 2.372991 18.190245 7.819992 30.30096 26.679026 30.30096 15.51509 0 23.536525-8.206762 28.604814-29.285691 5.100521-21.207852 12.481369-65.198834 17.485197-115.664173 0.914548-9.113252 7.010194-19.926678 14.745581-33.628788 10.48306-18.560899 23.524439-41.666337 33.16547-75.613403a10.072118 10.072118 0 0 1-9.685349 7.312357h132.641736a10.072118 10.072118 0 0 1-8.408204-4.524395c19.072563 28.931152 58.50289 66.01669 138.028304 78.477914a10.060031 10.060031 0 0 1-8.512954-9.955281v142.041036c0 26.739459 16.659283 30.083402 25.607353 31.876239 25.92966 5.185126 32.742441-20.962092 35.308816-30.804566 13.512753-51.819032 15.039687-135.264515 15.096091-138.793785a10.047945 10.047945 0 0 0-2.892713-7.227752 10.051974 10.051974 0 0 0 0.503606 0.551952c1.905645 2.260183 2.739616 5.249588 2.252126 8.166473 0.17324-1.055558 4.113453-25.92966-11.373436-41.41252-5.950607-5.950607-10.479032-8.476694-15.265302-11.159906a124.680734 124.680734 0 0 1-5.350309-3.106242c0.684904 0.419 1.321462 0.926635 1.893558 1.514847-10.829541-11.095445-7.348617-33.072806-4.310866-45.183521a10.035858 10.035858 0 0 1-0.709077 1.945933c9.653118-19.854159 19.076591-55.682697 9.318723-113.722269-16.199994-96.164553-107.590364-92.482187-108.521027-92.425783 0.177269-0.016115 0.354539-0.016115 0.531808-0.016116h-182.087777c0.181298 0 0.370654 0 0.555981 0.016116-16.143591-0.890375-61.480208-8.45655-77.220914-32.532941-7.251925-11.091416-7.7233-24.640429-1.438299-41.420578 13.162244-35.167807 15.559408-60.509256 7.135089-75.331384-5.406713-9.516137-13.258936-11.369407-14.777812-11.643369a10.144637 10.144637 0 0 0-8.299425 2.223924z m-120.087848 127.456609l133.060736-112.050298a10.060031 10.060031 0 0 1-8.28331 2.207809c0.273962 0.048346-1.055558-0.326337-0.813827-0.17727 0.253817 0.157125 0.930664 0.66476 1.667943 1.953991 1.8855 3.31977 6.845011 17.332101-8.49281 58.317563-8.5613 22.883852-7.405021 42.903194 3.448693 59.506073 24.483304 37.452163 90.189773 41.464895 92.977735 41.626049 0.181298 0.008058 0.370654 0.016115 0.551952 0.016115h182.091806c0.153096 0 0.342452-0.008058 0.499577-0.016115 3.033722-0.14101 74.449067-2.558318 87.61534 75.657721 8.887637 52.777898 0.789654 84.360031-7.566175 101.567237a9.919022 9.919022 0 0 0-0.713106 1.949962c-7.114944 28.355026-3.847549 50.541888 9.43556 64.155363 0.568067 0.580154 1.196568 1.091818 1.8855 1.514846 2.328674 1.446356 4.36727 2.590549 6.168165 3.597761 4.141655 2.312558 6.881271 3.847549 10.845657 7.807906 6.63954 6.643569 6.389752 19.556024 5.753194 23.858833a10.080176 10.080176 0 1 0-0.132952 1.490673c-0.012087 0.838-1.543048 84.533271-14.451475 134.043774-4.584828 17.593976-8.45655 16.824466-11.852869 16.139562-7.803877-1.567222-9.423474-1.889529-9.423473-12.12683V822.851747c0-4.955482-3.609847-9.181743-8.508925-9.951252-72.245288-11.329118-107.489643-44.14005-124.322166-69.674883a10.080176 10.080176 0 0 0-8.412233-4.524396h-132.641736c-4.496193 0-8.460579 2.981347-9.68132 7.316387-8.9803 31.638537-21.385121 53.579639-31.328315 71.213902-8.899723 15.752792-15.930062 28.205959-17.251524 41.541443-4.886992 49.252657-12.251724 93.082485-17.029937 112.944702-3.331857 13.851177-5.471174 13.851177-9.01656 13.851177-2.675155 0-3.392289-0.265904-3.505097-0.322308a0.572096 0.572096 0 0 1 0.112808 0.080577c-0.080577-0.080577-1.929818-1.929818-3.315741-12.517628-3.339914-25.607353-2.171549-86.297906-1.317433-130.607168 0.310221-16.272514 0.584183-30.313046 0.584182-40.022568 0-22.078083 2.292414-45.666983 6.462271-66.403459a10.072118 10.072118 0 0 0-6.438098-11.449984c-97.151621-35.280615-104.818517-123.129627-105.092478-126.82408 0.016115 0.241731 0.024173 0.467346 0.024173 0.705048v-112.058355a10.088233 10.088233 0 0 1-3.593732 7.699127z" fill="#6E6E96" p-id="2965"></path><path d="M492.476207 960.63832h-39.575366c0.318279 5.064261 0.701019 9.68132 1.192539 13.476494 2.505943 19.161197 7.433223 21.538217 16.691513 21.538217 8.448493 0 14.181542-2.304501 18.810688-21.570448a361.750188 361.750188 0 0 0 2.884654-13.45232l-0.004028 0.008057z" fill="#3F3F3F" p-id="2966"></path><path d="M482.404089 960.63832l10.072118-10.072117H442.17605l0.672817 10.704646c0.366625 5.821684 0.777568 10.454858 1.261029 14.149312 2.37702 18.186216 7.824021 30.30096 26.674997 30.300959 15.519119 0 23.536525-8.214819 28.604815-29.28569 0.813827-3.38826 1.784779-7.916685 2.969261-13.847147l-19.95488-1.949963z m20.144236 10.064061v-10.072118l-19.950852-1.970106a353.769042 353.769042 0 0 1-2.79602 13.065551c-3.327828 13.851177-5.471174 13.851177-9.01656 13.851176-2.671126 0-3.384232-0.265904-3.497039-0.322307a0.725192 0.725192 0 0 1 0.112808 0.080577c-0.080577-0.080577-1.929818-1.929818-3.315741-12.509571a202.703388 202.703388 0 0 1-1.128078-12.811734l-10.051973 10.700618h39.575365c-0.004029-0.004029 10.068089-0.004029 10.06809-0.012086z" fill="#6E6E96" p-id="2967"></path><path d="M863.798935 945.99749h-44.889415v18.891264c0 18.359457 8.754685 20.228842 17.513399 22.001535 10.34608 2.070827 17.980745-1.953991 23.584871-23.472064 1.385923-5.318078 2.634866-11.196166 3.783088-17.412677v-0.008058h0.008057z" fill="#3F3F3F" p-id="2968"></path><path d="M875.885477 947.109452v-13.186417h-69.062498v30.973777c0 28.375171 18.38363 32.073652 27.230978 33.850374 27.790988 5.559809 35.208095-22.916083 37.653605-32.275095a256.049353 256.049353 0 0 0 4.177915-19.362639z m-24.173083-1.103904l0.205471-2.195722a234.88179 234.88179 0 0 1-3.605818 16.562591c-4.109424 15.744735-7.110915 15.148465-9.504051 14.669032-7.509771-1.510818-7.807906-1.575279-7.807906-10.152695v-18.891264l-12.086541 12.086541h44.889415l-12.09057-12.078483zM239.666046 51.649821l0.008058-0.016116c-2.348818 4.177915-56.419976 103.182805 45.731444 179.279671a10.072118 10.072118 0 0 1-12.030137 16.155677C156.740285 160.182935 221.487888 42.874992 222.152648 41.698568a10.072118 10.072118 0 0 1 17.513398 9.951253z" fill="#6E6E96" p-id="2969"></path><path d="M156.937698 53.837485v-0.056404c-0.012087 2.018452 0.423029 49.607195 59.445641 65.114228a10.072118 10.072118 0 1 1-5.124694 19.483505C136.600078 118.762357 136.785405 54.159793 136.793463 53.511148a10.072118 10.072118 0 0 1 20.144235 0.326337zM140.620867 125.651686l-0.004028-0.016116c0.128923 0.370654 13.347571 37.210433 42.036991 50.775561 13.536927 6.401838 28.782084 6.599252 45.300358 0.580154a10.072118 10.072118 0 1 1 6.893357 18.927524c-21.80815 7.948915-42.310953 7.489627-60.928256-1.353692-36.332144-17.259581-51.690109-60.468967-52.322638-62.302093a10.072118 10.072118 0 1 1 19.024216-6.611338zM267.775313 109.56047c1.091818 1.08376 26.691113 26.896584 26.759603 62.201372 0.03626 21.155477-8.956127 40.896828-26.731401 58.672101a10.06406 10.06406 0 0 1-14.241975 0 10.06406 10.06406 0 0 1 0-14.241975c45.558204-45.558204 1.8855-90.467763 0.004029-92.357292l0.024173 0.020144a10.068089 10.068089 0 1 1 14.185571-14.29435z" fill="#6E6E96" p-id="2970"></path><path d="M378.858687 202.497917c88.477513 0 160.207108 71.725566 160.207108 160.207108 0 88.473484-71.729595 160.211137-160.207108 160.211136-191.716722 0-264.433384-160.211137-175.955871-160.211136 81.406886 0 5.249588-160.207108 175.955871-160.207108z" fill="#F2C349" p-id="2971"></path><path d="M369.282118 208.472697c43.406799 0 81.668761 21.993477 104.254478 55.440966a124.922464 124.922464 0 0 1 15.253215 31.159104c4.028847 12.308128 6.208453 25.454256 6.208454 39.112048 0 69.429123-56.718111 117.972703-125.716147 125.716148-108.432393 12.171147-271.189761-78.260356-158.591541-94.770572 10.015714-1.4665 42.375415 19.680918 48.797397 15.035657 6.385723-4.617059-27.521055-13.045407-13.037349-41.891953 23.419689-46.645993 16.151648-129.797369 122.831493-129.801398z" fill="#FFD569" p-id="2972"></path><path d="M276.002219 381.632549s-1.595423 33.656989-24.003871 21.078928-72.938249-4.866847-51.524927 16.538418c0 0-34.055845-14.934936-34.055845-51.230821l58.285332-10.789253c0 0.004029 31.026152 24.402727 51.299311 24.402728z" fill="#F2C349" p-id="2973"></path><path d="M261.103542 306.885347c12.078484-46.368002 24.56791-94.319341 117.759174-94.319341 82.784752 0 150.13499 67.350238 150.13499 150.13499 0 82.784752-67.350238 150.13499-150.13499 150.13499-131.497543 0-203.227138-78.280501-203.227138-118.496453 0-6.63954 1.982193-11.792436 5.890175-15.321706 4.524395-4.085251 11.91733-6.240684 21.385121-6.240684 41.033808 0 49.756263-33.495835 58.192668-65.891796z m-19.491562-5.076347c-8.698281 33.395114-14.370898 50.823907-38.705135 50.823907-14.741552 0-26.477584 3.847549-34.881759 11.433868-8.198704 7.405021-12.533744 17.875995-12.533744 30.276787 0 56.528755 87.01907 138.644718 223.371374 138.644717 93.892283 0 170.279226-76.382914 170.279226-170.283254 0-93.892283-76.386942-170.279226-170.279226-170.279226-108.762758 0-125.232686 63.22067-137.250736 109.383201z" fill="#6E6E96" p-id="2974"></path><path d="M160.88194 360.074187m-28.886834 0a28.886834 28.886834 0 1 0 57.773668 0 28.886834 28.886834 0 1 0-57.773668 0Z" fill="#BABADB" p-id="2975"></path><path d="M179.696656 360.074187a18.834861 18.834861 0 0 1-18.814716 18.814717c-10.374281 0-18.814716-8.440435-18.814716-18.814717s8.440435-18.814716 18.814716-18.814716a18.834861 18.834861 0 0 1 18.814716 18.814716z m-18.814716-38.958952c-21.481813 0-38.958952 17.477139-38.958952 38.958952 0 21.485842 17.477139 38.958952 38.958952 38.958953s38.958952-17.477139 38.958952-38.958953-17.477139-38.958952-38.958952-38.958952z" fill="#6E6E96" p-id="2976"></path><path d="M760.676563 613.037444a17.698726 11.25257 0 1 0 35.397451 0 17.698726 11.25257 0 1 0-35.397451 0Z" fill="#FFF7E0" p-id="2977"></path><path d="M635.85482 640.377201a31.042267 16.087187 0 1 0 62.084535 0 31.042267 16.087187 0 1 0-62.084535 0Z" fill="#FFF7E0" p-id="2978"></path><path d="M599.820811 580.053272a11.260628 5.624271 0 1 0 22.521255 0 11.260628 5.624271 0 1 0-22.521255 0Z" fill="#FFF7E0" p-id="2979"></path><path d="M694.720306 583.268292a13.677936 5.624271 0 1 0 27.355872 0 13.677936 5.624271 0 1 0-27.355872 0Z" fill="#FFF7E0" p-id="2980"></path><path d="M574.742068 633.048385a20.974178 9.01656 17.215 1 0-40.069108-12.414957 20.974178 9.01656 17.215 1 0 40.069108 12.414957Z" fill="#FFF7E0" p-id="2981"></path><path d="M523.460681 577.200194a13.66585 9.653118 18.844 1 0-25.866761-8.827936 13.66585 9.653118 18.844 1 0 25.866761 8.827936Z" fill="#FFF7E0" p-id="2982"></path><path d="M334.88382 319.116927m-34.414412 0a34.414413 34.414413 0 1 0 68.828825 0 34.414413 34.414413 0 1 0-68.828825 0Z" fill="#F2C349" p-id="2983"></path><path d="M503.861729 203.158648c93.565947-13.613475 148.857845 18.69788 148.857845 18.697879l-1.252971 0.644616c2.618751 1.647798 4.343097 3.706539 4.915193 6.2568 4.435761 19.825957-61.524525 59.828381-100.096708 70.025392-63.925718 16.901014-89.39609-11.244512-102.872584-31.058383-1.0475-1.53902-0.495548 1.772693 0 0-16.4941-21.800092-15.97035-54.905129 50.449225-64.566304z" fill="#F2C349" p-id="2984"></path><path d="M437.135962 229.406587c-5.66053 13.80283-2.65501 29.982681 8.243021 44.393867a10.068089 10.068089 0 0 1-1.663914-8.790945c0.97901-3.513155 4.794328-7.090771 9.931109-6.804722 4.57677 0.253817 8.416262 3.609847 9.129367 7.977117 0.717135 4.375328-1.857299 8.786916-6.119819 10.48306-4.778213 1.905645-9.524195-0.269933-11.570849-3.275452 16.139562 23.72991 45.489713 53.18884 113.782702 35.135576 35.220182-9.314695 114.262135-51.009234 107.348633-81.962867-0.785625-3.545386-3.061924-8.609646-9.371098-12.58209a10.056003 10.056003 0 0 1 4.689578 8.960156 10.092262 10.092262 0 0 1-5.455059 8.521012l1.273115-0.656702a10.072118 10.072118 0 0 0 0.451231-17.638293c-2.385078-1.389952-59.441611-33.926922-155.384578-19.970995-35.586807 5.169011-57.544024 17.356274-65.283439 36.211278z m24.310064 32.238835c-3.07401-4.061078-9.778012-14.588456-5.672617-24.592083 4.705694-11.470128 22.29564-19.966967 49.538705-23.927323 88.509744-12.876196 141.823478 17.134687 142.327084 17.428792a10.060031 10.060031 0 0 1 0.447202-17.638292l-1.212683 0.6285a10.072118 10.072118 0 1 0-0.773539 17.481168c0.543894 0.338423 0.721164 0.547923 0.725193 0.547923a1.438298 1.438298 0 0 1-0.265904-0.616414c-0.032231-0.14101-0.032231-0.221587-0.032231-0.221586-0.169212 10.922205-52.221917 47.584714-92.796437 58.313534-55.312043 14.624715-78.216039-6.740261-91.98261-26.98119-3.364087-4.951453-8.726483-5.632328-12.54583-4.109424-4.520367 1.800895-7.114944 6.522704-6.301117 11.478186 0.813827 4.96354 4.778213 8.617704 9.637003 8.887636 4.109424 0.229644 8.976272-2.119174 10.583781-7.880425a10.120464 10.120464 0 0 0-1.676-8.799002z" fill="#6E6E96" p-id="2985"></path><path d="M332.700185 321.300562m-14.100965 0a14.100965 14.100965 0 1 0 28.20193 0 14.100965 14.100965 0 1 0-28.20193 0Z" fill="#6E6E96" p-id="2986"></path><path d="M444.3758 773.333186s-24.132795-24.930506-24.132794 24.132795v159.119319h-22.239237V712.05845l52.048677 19.74538-5.676646 41.529356z" fill="#6E6E96" opacity=".15" p-id="2987"></path><path d="M248.025904 346.283444l0.044318-0.064462c-1.341606 2.070827-4.673463 9.056848-2.501915 13.851177 2.163491 4.778213 9.951253 8.375973 21.933044 10.13255a10.072118 10.072118 0 1 1-2.928971 19.930707c-19.668832-2.884655-32.267037-10.27356-37.448135-21.953188-6.973934-15.724591 3.001491-31.376662 4.161799-33.109066a10.072118 10.072118 0 1 1 16.73986 11.212282z" fill="#6E6E96" p-id="2988"></path><path d="M562.36059 286.426861s104.762113-32.275095 0-46.37606c-104.766142-14.100965-94.597332 27.734584-77.357895 44.97805 0 0-72.221114-26.31643-27.408247-59.079015 44.812867-32.762585 154.18801-30.663556 188.928759 4.782242 34.740749 35.445797 0.427058 5.289876 0.427058 5.289876s-53.265389 50.404907-84.589675 50.404907z" fill="#6E6E96" opacity=".15" p-id="2989"></path><path d="M368.975925 380.053241c0 8.343743-13.9801 7.050483-31.223565 7.050482-17.243466 0-31.223566 1.29326-31.223566-7.050482s13.9801-15.108177 31.223566-15.108177c17.243466 0 31.223566 6.764434 31.223565 15.108177z" fill="#FFFFFF" opacity=".43" p-id="2990"></path></svg>