<?xml version="1.0" standalone="no"?><!DOCTYPE svg PUBLIC "-//W3C//DTD SVG 1.1//EN" "http://www.w3.org/Graphics/SVG/1.1/DTD/svg11.dtd"><svg t="1711552707476" class="icon" viewBox="0 0 1542 1024" version="1.1" xmlns="http://www.w3.org/2000/svg" p-id="5001" xmlns:xlink="http://www.w3.org/1999/xlink" width="301.171875" height="200"><path d="M401.496536 738.008148m-255.637906 0a255.637907 255.637907 0 1 0 511.275813 0 255.637907 255.637907 0 1 0-511.275813 0Z" fill="#CACAD6" p-id="5002"></path><path d="M401.496536 505.055235c128.441011 0 232.940534 104.493333 232.940534 232.940534 0 128.45339-104.499522 232.959103-232.940534 232.959102-128.46577 0-232.959103-104.505712-232.959102-232.959102 0.00619-128.441011 104.505712-232.940534 232.959102-232.940534z m-278.32909 232.946723c0 153.465685 124.857215 278.32909 278.33528 278.32909 153.459495 0 278.304332-124.869595 278.304332-278.32909S554.949842 459.685248 401.496536 459.685248c-153.471875 0-278.32909 124.851026-278.32909 278.31671z" fill="#6E6E96" p-id="5003"></path><path d="M400.970418 741.585754m-158.411199 0a158.411199 158.411199 0 1 0 316.822398 0 158.411199 158.411199 0 1 0-316.822398 0Z" fill="#F0F0FF" p-id="5004"></path><path d="M400.970418 605.865738c74.845005 0 135.738585 60.8812 135.738585 135.720016s-60.893579 135.738585-135.738585 135.738585-135.726206-60.899769-135.726206-135.738585 60.893579-135.720016 135.726206-135.720016z m-181.090004 135.720016c0 99.86349 81.226514 181.102383 181.102383 181.102383 99.86349 0 181.096193-81.238893 181.096193-181.102383 0-99.8573-81.232703-181.090004-181.096193-181.090003-99.875869 0-181.102383 81.232703-181.102383 181.090003z" fill="#6E6E96" p-id="5005"></path><path d="M406.355396 659.152262c68.469687 0 125.593781 48.594785 138.740555 113.177384 1.875458-9.166842 2.853419-18.674114 2.85342-28.398022 0-78.205974-63.388-141.593975-141.587785-141.593975s-141.587785 63.381811-141.587786 141.593975c0 9.717719 0.977962 19.218801 2.85342 28.398022 13.152964-64.582599 70.2523-113.177384 138.728176-113.177384z" fill="#6E6E96" opacity=".15" p-id="5006"></path><path d="M1258.599354 738.008148m-255.637906 0a255.637907 255.637907 0 1 0 511.275813 0 255.637907 255.637907 0 1 0-511.275813 0Z" fill="#CACAD6" p-id="5007"></path><path d="M656.503101 554.200897l103.657733 103.663922-360.595462 1.454563L304.901171 564.661372z" fill="#D8D8E6" p-id="5008"></path><path d="M641.493248 569.21075l103.663923 103.663922a21.230431 21.230431 0 0 1 14.923197-36.227904l-360.595461 1.448373a21.187103 21.187103 0 0 1 15.090318 6.220578L319.911024 549.651519a21.211862 21.211862 0 0 1-14.37851 36.209335l351.601929-10.448095a21.174724 21.174724 0 0 1-15.641195-6.202009z m-351.59574 10.454285l94.664201 94.6642a21.211862 21.211862 0 0 0 15.090318 6.220578l360.601651-1.448373a21.218051 21.218051 0 0 0 14.910819-36.221715L671.512953 539.209613a21.230431 21.230431 0 0 0-15.641194-6.214388l-351.59574 10.448095a21.211862 21.211862 0 0 0-19.088819 13.38198 21.205672 21.205672 0 0 0 4.710308 22.839735zM1258.599354 505.055235c128.447201 0 232.946723 104.493333 232.946724 232.940534 0 128.45339-104.499522 232.959103-232.946724 232.959102-128.45958 0-232.952913-104.505712-232.952912-232.959102 0-128.441011 104.499522-232.940534 232.952912-232.940534z m-278.32909 232.946723c0 153.465685 124.857215 278.32909 278.32909 278.32909 153.465685 0 278.310521-124.869595 278.310522-278.32909s-124.851026-278.316711-278.310522-278.31671c-153.471875 0-278.32909 124.851026-278.32909 278.31671z" fill="#6E6E96" p-id="5009"></path><path d="M1258.079426 741.585754m-158.4112 0a158.411199 158.411199 0 1 0 316.822399 0 158.411199 158.411199 0 1 0-316.822399 0Z" fill="#F0F0FF" p-id="5010"></path><path d="M1258.079426 605.865738c74.838816 0 135.732395 60.8812 135.732395 135.720016s-60.893579 135.738585-135.732395 135.738585c-74.845005 0-135.732395-60.899769-135.732396-135.738585s60.893579-135.720016 135.732396-135.720016z m-181.096194 135.720016c0 99.86349 81.226514 181.102383 181.096194 181.102383 99.86349 0 181.096193-81.238893 181.096193-181.102383 0-99.8573-81.232703-181.090004-181.096193-181.090003-99.869679 0-181.096193 81.232703-181.096194 181.090003z" fill="#6E6E96" p-id="5011"></path><path d="M1263.458214 659.152262c68.469687 0 125.593781 48.594785 138.740555 113.177384 1.869268-9.166842 2.853419-18.674114 2.85342-28.398022 0-78.205974-63.39419-141.593975-141.593975-141.593975s-141.587785 63.381811-141.587785 141.593975c0 9.717719 0.971772 19.218801 2.853419 28.398022 13.159153-64.582599 70.264679-113.177384 138.734366-113.177384z" fill="#6E6E96" opacity=".15" p-id="5012"></path><path d="M1015.322139 82.681077h138.103023a21.218051 21.218051 0 0 1-21.013793-18.271788l93.011569 663.831623a21.218051 21.218051 0 1 0 42.033777-5.880148L1174.438956 58.510572a21.230431 21.230431 0 0 0-21.019983-18.277977h-138.103024a21.224241 21.224241 0 1 0 0.00619 42.448482z" fill="#6E6E96" p-id="5013"></path><path d="M67.646466 104.87709h460.848898v281.813852H67.646466z" fill="#87C5FF" p-id="5014"></path><path d="M67.646466 126.095141h460.848898a21.224241 21.224241 0 0 1-21.224241-21.23043v281.813851a21.224241 21.224241 0 0 1 21.224241-21.224241H67.646466a21.218051 21.218051 0 0 1 21.224241 21.224241v-281.813851a21.224241 21.224241 0 0 1-21.224241 21.23043z m0 281.820042h460.848898a21.218051 21.218051 0 0 0 21.224241-21.224241v-281.813852a21.224241 21.224241 0 0 0-21.224241-21.224241H67.646466A21.224241 21.224241 0 0 0 46.422225 104.87709v281.813852a21.230431 21.230431 0 0 0 21.224241 21.224241z" fill="#6E6E96" p-id="5015"></path><path d="M703.457634 478.309844c0 48.84237-40.084044 88.796431-103.094477 88.796431H257.315296c-63.004243 0-103.100666-39.954061-103.100666-88.796431S194.311053 389.513413 257.315296 389.513413h343.035482c63.016623 0.012379 103.106856 39.960251 103.106856 88.796431z" fill="#F0F0FF" p-id="5016"></path><path d="M682.233393 478.309844c0 39.793131-33.665397 67.566001-81.882615 67.566001H257.315296c-48.204838 0-81.882615-27.77287-81.882614-67.566001 0-39.780752 33.671587-67.57219 81.882614-67.57219h343.035482c48.204838 0.012379 81.882615 27.797628 81.882615 67.57219z m-81.888805-110.020672h-343.029292c-72.041103 0-124.331097 46.267484-124.331096 110.008293 0 63.753189 52.289994 110.008293 124.331096 110.008293h343.041672c72.041103 0 124.324907-46.267484 124.324907-110.008293-0.00619-63.72224-52.289994-109.989724-124.337287-110.008293z" fill="#6E6E96" p-id="5017"></path><path d="M1305.331061 309.320567L1209.769364 141.928215l-82.29113-0.321861 22.443598 176.682987c-96.323021 22.833545-159.865762 69.497165-159.865763 69.497165-99.752076 69.992335-150.240888 201.633385-168.809777 270.090693H410.793361a45.481401 45.481401 0 1 0 0 90.962801h461.64117a45.481401 45.481401 0 0 0 45.301902-41.581934c0.129982-1.466942 16.031142-160.354743 136.679409-245.004122 155.526832-115.987476 326.657721-43.618322 341.72328-38.672808l24.25097-81.857856c-39.465081-17.541411-78.11313-27.655267-115.059031-32.402713z" fill="#FF8787" p-id="5018"></path><path d="M1323.757589 298.804386L1228.195892 131.405844a21.224241 21.224241 0 0 0-18.346063-10.70187l-82.284941-0.328051a21.230431 21.230431 0 0 0-21.131396 23.891972l22.443598 176.682987a21.218051 21.218051 0 0 1 16.148744-23.322526c-99.374509 23.563921-164.792708 71.032193-167.522334 73.037634-114.966187 80.650878-164.353244 235.961073-176.738694 281.634352a21.211862 21.211862 0 0 1 20.481486-15.665953H410.793361c-36.778781 0-66.699452 29.920671-66.699453 66.699452s29.920671 66.699452 66.699453 66.699452h461.64117c34.897134 0 63.462276-26.213083 66.445678-60.992613 0.129982-1.293633 16.142555-151.169332 127.723014-229.449582 120.555423-89.879617 251.268028-62.026282 318.493599-37.447262 1.912596 0.693239 3.268125 1.194599 4.419396 1.572166a21.224241 21.224241 0 0 0 26.968217-14.137114l24.25097-81.864046a21.205672 21.205672 0 0 0-11.729348-25.42081c-38.920393-17.281447-79.61721-28.738452-120.988697-34.042965 6.629094 0.872738 12.441156 4.766015 15.740229 10.553319z m76.299568 36.884005l-24.257159 81.870235a21.230431 21.230431 0 0 1 26.974407-14.130925c-0.482791-0.154741-1.807372-0.643722-3.094815-1.107944-75.278279-27.519095-221.885855-58.54152-357.940111 42.931274-127.945841 89.743445-144.967323 258.355154-145.122063 260.057302-1.107944 12.781586-11.481764 22.313616-24.170505 22.313616H410.793361c-13.37579 0-24.25716-10.881369-24.25716-24.25716s10.881369-24.25716 24.25716-24.25716h410.446741a21.24281 21.24281 0 0 0 20.493865-15.665953c11.450815-42.188518 56.845561-185.527968 160.521863-258.26231 0.947013-0.693239 62.013902-44.744835 152.574378-66.216661a21.230431 21.230431 0 0 0 16.142555-23.328715l-22.443598-176.682987a21.218051 21.218051 0 0 1-21.131397 23.891971l82.284941 0.321861a21.230431 21.230431 0 0 1-18.352253-10.70187l95.561697 167.392352a21.211862 21.211862 0 0 0 15.734039 10.528561c37.267762 4.778394 74.003216 15.121266 109.154124 30.731513a21.218051 21.218051 0 0 1-11.723159-25.427zM67.646466 223.4704h460.848898a21.224241 21.224241 0 1 0 0-42.448482H67.646466a21.224241 21.224241 0 1 0 0 42.448482z" fill="#6E6E96" p-id="5019"></path><path d="M256.164025 104.87709h101.064278V389.513413H256.164025z" fill="#FFE01F" p-id="5020"></path><path d="M357.228303 368.289172H256.164025a21.224241 21.224241 0 0 1 21.224241 21.224241V104.87709a21.224241 21.224241 0 0 1-21.224241 21.230431h101.064278a21.218051 21.218051 0 0 1-21.224241-21.230431V389.513413a21.224241 21.224241 0 0 1 21.224241-21.224241z m0-284.636323H256.164025a21.224241 21.224241 0 0 0-21.224241 21.224241V389.513413a21.218051 21.218051 0 0 0 21.224241 21.224241h101.064278a21.218051 21.218051 0 0 0 21.224241-21.224241V104.87709a21.224241 21.224241 0 0 0-21.224241-21.224241z" fill="#6E6E96" p-id="5021"></path><path d="M584.864324 505.797991H272.387045c-44.874817 0-76.899963-22.288857-88.777862-53.261766a76.94948 76.94948 0 0 0-5.149772 27.630508c0 44.48487 36.518817 80.867515 93.921445 80.867515H584.858134c57.390249 0 93.915255-36.395024 93.915255-80.867515a76.813308 76.813308 0 0 0-5.149772-27.624318c-11.865521 30.966719-43.884476 53.255576-88.759293 53.255576z" fill="#6E6E96" opacity=".15" p-id="5022"></path></svg>