<?xml version="1.0" standalone="no"?><!DOCTYPE svg PUBLIC "-//W3C//DTD SVG 1.1//EN" "http://www.w3.org/Graphics/SVG/1.1/DTD/svg11.dtd"><svg t="1711552664056" class="icon" viewBox="0 0 1314 1024" version="1.1" xmlns="http://www.w3.org/2000/svg" p-id="3339" xmlns:xlink="http://www.w3.org/1999/xlink" width="256.640625" height="200"><path d="M856.743752 721.074285h-215.293595L347.613591 621.194338c-19.126962-28.995182-93.58909-130.66646 0-224.25025h560.119494v185.270254l-50.989333 138.859943z" fill="#FFBFED" p-id="3340"></path><path d="M856.743752 707.824796h-215.293595c1.446844 0 2.888389 0.238491 4.266335 0.704873l-293.836565-99.879947c2.782393 0.953963 5.1779 2.792992 6.794337 5.246797-8.596268-13.032197-68.261367-114.210594-1.690634-207.582392a13.238889 13.238889 0 0 1-9.370039 3.87945h560.119494a13.249489 13.249489 0 0 1-13.249489-13.249489v185.270254c0-3.550863 1.430945-6.953332 3.953647-9.433637l-50.978733 138.854644a13.180592 13.180592 0 0 1 9.285242-3.810553z m64.233522-125.615754V396.944088a13.249489 13.249489 0 0 0-13.249489-13.249489H347.613591c-3.513764 0-7.181223 1.128856-9.370038 3.879451-74.340232 93.615589-39.65307 202.955671-1.690635 240.918106 2.07752 2.08282 4.011945 4.303434 6.794338 5.246798l293.836565 99.879947c1.372647 0.466382 2.814191 0.704873 4.266336 0.704873h215.293595c3.471366 0 6.815537-1.367347 9.295841-3.810553l50.984034-138.859944c2.533302-2.490904 3.953647-5.893373 3.953647-9.444235z" fill="#6E6E96" p-id="3341"></path><path d="M907.727785 737.238662V53.284145s353.427467 18.967968 353.427467 353.422167c0 179.445778-125.239469 295.834588-125.244769 295.834588" fill="#FFBFED" p-id="3342"></path><path d="M920.977274 737.238662V53.284145a13.249489 13.249489 0 0 1-13.975561 13.233589c13.922563 0.76847 340.89345 22.418135 340.89345 340.188578 0 171.257594-119.812478 285.017706-121.026131 286.146562l-0.328587 0.328587a13.22829 13.22829 0 0 0 0 18.734777 13.238889 13.238889 0 0 0 18.734777 0l-0.333887 0.328588c5.283896-4.92351 129.463406-122.669068 129.463406-305.527915 0-345.127987-363.009497-366.671656-366.676956-366.671656a13.249489 13.249489 0 0 0-13.249489 13.249489v683.949217a13.244189 13.244189 0 1 0 26.498978-0.005299zM367.795213 389.434278l-160.981291-302.883317a13.260089 13.260089 0 0 0-11.527055-6.72014H105.995911a13.249489 13.249489 0 1 0 0 26.498977h89.290956a13.249489 13.249489 0 0 1-11.527055-6.72014l160.98129 302.888616a13.249489 13.249489 0 1 0 23.054111-13.063996z" fill="#6E6E96" p-id="3343"></path><path d="M920.977274 518.176912s138.001377 0 176.859478 38.8687c38.868701 38.858101 264.586994-413.256859-176.859478-489.282426 0 0 326.928489-2.199415 326.928489 312.438848s-107.469254 317.865839-107.469254 317.865839-92.052149-141.01696-236.916762-105.688524l17.457527-74.202437z" fill="#6E6E96" opacity=".25" p-id="3344"></path><path d="M356.97833 406.314127s-16.980545 43.728613-6.693642 82.120332c7.430313 27.73383 33.611303 57.216593 69.178232 43.871708 84.796729-31.798773 231.420873 21.199182 264.989778 132.494889h70.667474s42.398365-143.09448 139.358124-143.09448l90.096525 194.332903H746.582201L341.296235 611.702404s-59.6333-114.645178 15.682095-205.388277z" fill="#6E6E96" opacity=".25" p-id="3345"></path><path d="M485.991253 758.53854m-192.318981 0a192.318981 192.318981 0 1 0 384.637963 0 192.318981 192.318981 0 1 0-384.637963 0Z" fill="#9393AD" p-id="3346"></path><path d="M485.991253 579.469047c98.740491 0 179.064193 80.334301 179.064193 179.074793 0 98.735191-80.323702 179.064193-179.064193 179.064193-98.735191 0-179.069493-80.329001-179.069492-179.064193 0.0053-98.740491 80.334301-179.074792 179.069492-179.074793z m-205.56317 179.074793c0 113.357327 92.216443 205.563171 205.56847 205.56317 113.352028 0 205.56847-92.205843 205.56847-205.56317s-92.216443-205.57377-205.56847-205.57377c-113.352028 0-205.56847 92.216443-205.56847 205.57377z" fill="#6E6E96" p-id="3347"></path><path d="M485.996553 758.53854m-129.844991 0a129.844991 129.844991 0 1 0 259.689982 0 129.844991 129.844991 0 1 0-259.689982 0Z" fill="#F0F0FF" p-id="3348"></path><path d="M488.13767 669.210486c59.585602 0 108.773004 44.364589 116.41001 101.87267a118.450431 118.450431 0 0 0 1.065259-15.607898c0-64.874798-52.595171-117.475268-117.475269-117.475268s-117.480568 52.600471-117.480568 117.475268c0 5.294496 0.386885 10.498895 1.065259 15.607898 7.642305-57.502782 56.835008-101.87267 116.415309-101.87267z" fill="#FFFFFF" p-id="3349"></path><path d="M602.592055 758.53854c0 64.29182-52.303682 116.595502-116.595502 116.595502s-116.595502-52.303682-116.595502-116.595502a115.86943 115.86943 0 0 1 34.151882-82.454219c22.020651-22.020651 51.302021-34.141283 82.44362-34.141283s60.422969 12.125932 82.44362 34.141283a115.86943 115.86943 0 0 1 34.151882 82.454219z m-116.595502-143.09448c-38.222126 0-74.15474 14.892426-101.183697 41.910783s-41.910783 62.961571-41.910783 101.183697c0 78.903356 64.191124 143.09448 143.09448 143.09448s143.09448-64.191124 143.09448-143.09448c0-38.222126-14.887126-74.15474-41.910783-101.183697-27.023658-27.028957-62.961571-41.910783-101.183697-41.910783z" fill="#6E6E96" p-id="3350"></path><path d="M485.996553 758.53854m-46.373211 0a46.373211 46.373211 0 1 0 92.746422 0 46.373211 46.373211 0 1 0-92.746422 0Z" fill="#9393AD" p-id="3351"></path><path d="M519.120275 758.53854a33.160821 33.160821 0 0 1-33.123722 33.123722c-18.263096 0-33.123722-14.860627-33.123722-33.123722s14.860627-33.123722 33.123722-33.123722a33.160821 33.160821 0 0 1 33.123722 33.123722z m-33.123722-59.6227c-32.874632 0-59.6227 26.748068-59.6227 59.6227s26.748068 59.6227 59.6227 59.6227 59.6227-26.748068 59.6227-59.6227-26.748068-59.6227-59.6227-59.6227z" fill="#6E6E96" p-id="3352"></path><path d="M485.646767 917.103123c-96.392682 0-175.465632-73.990446-183.622017-168.273809a185.678338 185.678338 0 0 0-0.741972 16.09018c0 101.824972 82.544316 184.363988 184.363989 184.363988s184.369288-82.539016 184.369288-184.363988c0-5.421691-0.280889-10.785084-0.747272-16.09018-8.156385 94.283363-87.229335 168.273809-183.622016 168.273809z" fill="#6E6E96" opacity=".15" p-id="3353"></path><path d="M1005.350019 758.53854m-192.318981 0a192.318981 192.318981 0 1 0 384.637963 0 192.318981 192.318981 0 1 0-384.637963 0Z" fill="#9393AD" p-id="3354"></path><path d="M1005.350019 579.469047c98.745791 0 179.074792 80.334301 179.074793 179.074793 0 98.735191-80.329001 179.064193-179.074793 179.064193-98.729892 0-179.064193-80.329001-179.064192-179.064193 0-98.740491 80.334301-179.074792 179.064192-179.074793z m-205.56317 179.074793c0 113.357327 92.216443 205.563171 205.56317 205.56317 113.357327 0 205.57377-92.205843 205.573771-205.56317s-92.216443-205.57377-205.573771-205.57377c-113.341428 0-205.563171 92.216443-205.56317 205.57377z" fill="#6E6E96" p-id="3355"></path><path d="M1005.360619 758.53854m-129.844991 0a129.844991 129.844991 0 1 0 259.689982 0 129.844991 129.844991 0 1 0-259.689982 0Z" fill="#F0F0FF" p-id="3356"></path><path d="M1007.507036 669.210486c59.590901 0 108.773004 44.364589 116.420609 101.87267 0.673074-5.109003 1.054659-10.313402 1.05466-15.607898 0-64.874798-52.595171-117.475268-117.475269-117.475268s-117.475268 52.600471-117.475268 117.475268c0 5.294496 0.381585 10.498895 1.065259 15.607898 7.631706-57.502782 56.824408-101.87267 116.410009-101.87267z" fill="#FFFFFF" p-id="3357"></path><path d="M1121.945522 758.53854c0 64.29182-52.298383 116.595502-116.595503 116.595502-64.28122 0-116.584903-52.303682-116.584902-116.595502a115.842931 115.842931 0 0 1 34.146582-82.454219 115.816432 115.816432 0 0 1 82.43832-34.141283 115.864131 115.864131 0 0 1 82.45422 34.141283 115.837632 115.837632 0 0 1 34.141283 82.454219z m-116.595503-143.09448c-38.216826 0-74.14414 14.892426-101.173097 41.910783-27.034257 27.023658-41.910783 62.961571-41.910783 101.183697 0 78.903356 64.185824 143.09448 143.08388 143.09448 78.913956 0 143.09448-64.191124 143.094481-143.09448 0-38.222126-14.887126-74.15474-41.905484-101.183697-27.023658-27.028957-62.956272-41.910783-101.188997-41.910783z" fill="#6E6E96" p-id="3358"></path><path d="M1005.360619 758.53854m-46.373211 0a46.373211 46.373211 0 1 0 92.746422 0 46.373211 46.373211 0 1 0-92.746422 0Z" fill="#9393AD" p-id="3359"></path><path d="M1038.473742 758.53854a33.160821 33.160821 0 0 1-33.123723 33.123722c-18.252496 0-33.113123-14.860627-33.113122-33.123722s14.860627-33.123722 33.113122-33.123722c18.284295 0 33.123722 14.860627 33.123723 33.123722z m-33.123723-59.6227c-32.864032 0-59.612101 26.748068-59.6121 59.6227s26.748068 59.6227 59.6121 59.6227c32.874632 0 59.6227-26.748068 59.622701-59.6227s-26.748068-59.6227-59.622701-59.6227z" fill="#6E6E96" p-id="3360"></path><path d="M1005.010832 917.103123c-96.392682 0-175.460332-73.990446-183.616717-168.273809a183.590218 183.590218 0 0 0-0.747271 16.09018c0 101.824972 82.539016 184.363988 184.363988 184.363988s184.369288-82.539016 184.369289-184.363988c0-5.421691-0.280889-10.785084-0.752571-16.09018-8.151086 94.283363-87.229335 168.273809-183.616718 168.273809z" fill="#6E6E96" opacity=".15" p-id="3361"></path><path d="M164.62225 94.219766c0 14.574438-11.92454 26.498978-26.498978 26.498977H52.89726c-14.574438 0-26.498978-11.92454-26.498978-26.498977v-8.855959c0-14.574438 11.92454-26.498978 26.498978-26.498978h85.226012c14.574438 0 26.498978 11.92454 26.498978 26.498978v8.855959z" fill="#FFBFDA" p-id="3362"></path><path d="M138.123272 133.968232H52.89726c-21.919954 0-39.748467-17.828512-39.748467-39.748466v-8.855959c0-21.919954 17.828512-39.748467 39.748467-39.748467h85.226012c21.919954 0 39.748467 17.828512 39.748467 39.748467v8.855959c0 21.919954-17.828512 39.748467-39.748467 39.748466zM52.89726 72.114318a13.265388 13.265388 0 0 0-13.249489 13.249489v8.855959c0 7.303118 5.946371 13.249489 13.249489 13.249488h85.226012c7.303118 0 13.249489-5.946371 13.249489-13.249488v-8.855959c0-7.303118-5.946371-13.249489-13.249489-13.249489H52.89726z" fill="#6E6E96" p-id="3363"></path><path d="M747.170478 472.248883m-29.148875 0a29.148876 29.148876 0 1 0 58.297751 0 29.148876 29.148876 0 1 0-58.297751 0Z" fill="#FFFFFF" opacity=".54" p-id="3364"></path><path d="M657.073954 570.295101m-15.899387 0a15.899387 15.899387 0 1 0 31.798774 0 15.899387 15.899387 0 1 0-31.798774 0Z" fill="#FFFFFF" p-id="3365"></path><path d="M457.006671 462.974241m-19.874233 0a19.874233 19.874233 0 1 0 39.748467 0 19.874233 19.874233 0 1 0-39.748467 0Z" fill="#BFFFC1" opacity=".67" p-id="3366"></path><path d="M1022.759848 451.049701m-34.448671 0a34.448671 34.448671 0 1 0 68.897342 0 34.448671 34.448671 0 1 0-68.897342 0Z" fill="#FFEDBF" p-id="3367"></path><path d="M990.961074 289.405936m-13.249488 0a13.249489 13.249489 0 1 0 26.498977 0 13.249489 13.249489 0 1 0-26.498977 0Z" fill="#FFE0ED" p-id="3368"></path><path d="M1083.707497 241.707776m-21.199182 0a21.199182 21.199182 0 1 0 42.398364 0 21.199182 21.199182 0 1 0-42.398364 0Z" fill="#FFFFFF" p-id="3369"></path></svg>