<?xml version="1.0" standalone="no"?><!DOCTYPE svg PUBLIC "-//W3C//DTD SVG 1.1//EN" "http://www.w3.org/Graphics/SVG/1.1/DTD/svg11.dtd"><svg t="1711552758230" class="icon" viewBox="0 0 1024 1024" version="1.1" xmlns="http://www.w3.org/2000/svg" p-id="1375" xmlns:xlink="http://www.w3.org/1999/xlink" width="200" height="200"><path d="M512 45.328591c-180.166386 0-326.223803 146.057417-326.223803 326.223803v404.682692c0 45.423568 37.164737 82.588305 82.588305 82.588305h487.270996c45.423568 0 82.588305-37.164737 82.588305-82.588305v-404.682692c0-180.166386-146.053287-326.223803-326.223803-326.223803z" fill="#78DEC2" p-id="1376"></path><path d="M489.288216 90.752158c-118.592676 0-214.729592 120.409619-214.729592 268.932297V681.353513c0 37.441408 24.462656 88.732874 54.363752 88.732874h320.731681c29.901096 0 54.363751-51.291467 54.363751-88.732874V359.684455c0-148.526807-96.136916-268.932296-214.729592-268.932297z" fill="#81F0D2" p-id="1377"></path><path d="M858.870879 371.552394c0-191.262125-155.612883-346.870879-346.870879-346.870879-191.266255 0-346.870879 155.608754-346.870879 346.870879v20.647076h693.741758v-20.647076z m-652.447606 0c0-168.496659 137.080068-305.576727 305.576727-305.576727 168.500788 0 305.576727 137.080068 305.576727 305.576727l20.647076-20.647076H185.776197l20.647076 20.647076z" fill="#6E6E96" p-id="1378"></path><path d="M302.110083 120.269219L208.541663 26.696669a20.647076 20.647076 0 0 0-29.199095 0 20.647076 20.647076 0 0 0 0 29.199096l93.56842 93.572549a20.651206 20.651206 0 0 0 29.199095-29.199095zM751.084883 149.472443l91.454159-91.458288a20.647076 20.647076 0 1 0-29.190836-29.199096l-91.458289 91.458289a20.647076 20.647076 0 1 0 29.194966 29.199095zM74.281986 679.619158v-183.048718c0 0.276671-0.004129 0.5616-0.016518 0.838271 0.503789-10.046867 8.081266-98.940789 115.991145-98.940789a20.647076 20.647076 0 0 0 0-41.294152c-119.926477 0-155.303177 90.628276-157.252262 138.558399a18.797098 18.797098 0 0 0-0.016517 0.838271v183.048718a20.647076 20.647076 0 1 0 41.294152 0zM991.012166 679.619158v-183.048718c-0.2808-48.293511-33.518463-139.39667-157.268779-139.39667-11.409574 0-20.647076 9.241631-20.647076 20.647076a20.647076 20.647076 0 0 0 20.647076 20.647076c111.184505 0 115.813579 88.262121 115.974627 98.325506v182.82573c0 11.405445 9.241631 20.647076 20.647076 20.647076s20.647076-9.241631 20.647076-20.647076z" fill="#6E6E96" p-id="1379"></path><path d="M405.324816 211.880295m-33.724934 0a33.724934 33.724934 0 1 0 67.449869 0 33.724934 33.724934 0 1 0-67.449869 0Z" fill="#6E6E96" p-id="1380"></path><path d="M626.934014 211.880295m-33.724934 0a33.724934 33.724934 0 1 0 67.449868 0 33.724934 33.724934 0 1 0-67.449868 0Z" fill="#6E6E96" p-id="1381"></path><path d="M330.30573 858.823391v123.882457c0 11.409574 9.245761 20.647076 20.647076 20.647076s20.647076-9.237502 20.647076-20.647076v-123.882457a20.647076 20.647076 0 1 0-41.294152 0zM714.341346 982.705848v-123.882457c0-11.405445-9.241631-20.647076-20.647076-20.647076s-20.647076 9.241631-20.647076 20.647076v123.882457c0 11.409574 9.241631 20.647076 20.647076 20.647076s20.647076-9.237502 20.647076-20.647076z" fill="#6E6E96" p-id="1382"></path><path d="M365.405759 369.541369h140.400118v400.553277h-140.400118z" fill="#89FFDF" p-id="1383"></path><path d="M165.129121 371.552394v404.682692c0 56.923989 46.311392 103.235381 103.235381 103.235381h487.270996c56.923989 0 103.235381-46.311392 103.235381-103.235381v-425.329768H165.129121v20.647076z m652.447606 0v404.682692c0 34.154393-27.786835 61.941228-61.941229 61.941229H268.364502c-34.154393 0-61.941228-27.786835-61.941229-61.941229v-404.682692l-20.647076 20.647076h652.447606l-20.647076-20.647076z" fill="#6E6E96" p-id="1384"></path></svg>