<?xml version="1.0" standalone="no"?><!DOCTYPE svg PUBLIC "-//W3C//DTD SVG 1.1//EN" "http://www.w3.org/Graphics/SVG/1.1/DTD/svg11.dtd"><svg t="1711552974300" class="icon" viewBox="0 0 1054 1024" version="1.1" xmlns="http://www.w3.org/2000/svg" p-id="4541" xmlns:xlink="http://www.w3.org/1999/xlink" width="205.859375" height="200"><path d="M460.624061 995.890324c0.434769-24.501496-16.99258-46.548779-27.609895-26.915077-19.353338 35.772997-43.290039 10.645758-43.635417 30.222575-0.158467 9.024515 3.713825 14.14423 18.747911 14.505861 3.205917 0.085329 7.419524-0.268176 12.067901-0.971121l-0.008127 0.01219h0.01219a134.217813 134.217813 0 0 0 7.191981-1.271802c3.998254-0.381947 8.199671-0.077202 8.130596 2.897109l19.499615 0.463212s4.315189 0.877666 4.412708-4.05514l0.227542-12.32795c0.601363-0.853286 0.946741-1.710635 0.962995-2.559857z" fill="#9292A8" p-id="4542"></path><path d="M455.756268 1020.98912c-0.004063 0 0 0 0 0-0.495718 0-0.922361-0.032506-1.251487-0.073139l-25.220694-0.5973 0.065013-2.868666a19.507742 19.507742 0 0 0-1.080829 0.065012c-2.458276 0.499782-4.871856 0.922361-7.183855 1.267739l-0.524161 0.065012c-4.343632 0.63387-8.305316 0.971121-11.482791 0.971121l-1.113335-0.016253c-10.743276-0.255986-25.001278-2.681756-24.684343-20.706405 0.251923-14.11985 10.755466-14.56681 17.033212-14.830922 8.394708-0.357567 17.910878-0.763894 27.337656-18.18718 4.806844-8.890427 10.787972-10.751403 14.956884-10.751403 4.278619 0 8.504416 1.999127 12.226368 5.790154 7.460157 7.590181 12.124787 21.287452 11.880991 34.887205a9.979382 9.979382 0 0 1-0.999564 4.128279l-0.1991 10.763592c-0.105645 5.940495-4.124215 10.093154-9.759965 10.093154z m-16.545621-12.628632l14.15642 0.337251 0.231606-12.246685 0.938615-1.320561c0.044696-11.584372-4.282683-21.291516-8.394709-25.480743-1.316498-1.336815-2.63706-2.137278-3.530978-2.137278-1.137715 0-2.79959 1.714698-4.233924 4.363948-12.71396 23.501932-28.255954 24.164245-37.536454 24.562445-1.856913 0.081265-4.372075 0.18691-5.156285 0.544477 0.044696 0.073139-0.178784 0.751704-0.207226 2.324189-0.081265 4.469593-0.142214 7.996508 12.799288 8.305316l0.80859 0.01219c2.710199 0 6.237114-0.316935 10.202862-0.918298l2.096646-0.316935c1.560294-0.255986 3.165284-0.556667 4.786527-0.889856l0.64606-0.093455c0.662312-0.065012 1.332751-0.109708 1.991-0.134087l4.095773-0.617617-0.487592 0.731388c2.925552 0.337251 5.164412 1.320562 6.793781 2.974311z" fill="#6E6E96" p-id="4543"></path><path d="M459.41727 1010.765942l0.227543-12.32795c0.617616-0.841096 0.962994-1.698445 0.979248-2.547668 0.121898-7.061957-17.248566 7.001008-32.1445 10.702643-9.959066 3.372511-22.941202 3.847913-36.82132 0.869539 2.320125 3.977938 6.781591 6.009571 16.480608 6.24524 3.205917 0.085329 7.419524-0.268176 12.067901-0.962994l-0.008126 0.004064h0.01219a134.217813 134.217813 0 0 0 7.191981-1.271803c3.998254-0.381947 8.199671-0.077202 8.130596 2.897109l19.499615 0.463212c-0.028443-0.016253 4.294873 0.861412 4.384264-4.071392z" fill="#6E6E96" opacity=".66" p-id="4544"></path><path d="M457.893546 971.726079l7.508916-127.785663a14.201116 14.201116 0 0 0-13.364083-15.021896 14.209242 14.209242 0 0 0-15.030022 13.364083l-7.504853 127.7816a14.201116 14.201116 0 0 0 13.364083 15.025959 14.221432 14.221432 0 0 0 15.025959-13.364083z" fill="#F9D5B3" p-id="4545"></path><path d="M443.712746 991.209441a20.145674 20.145674 0 0 1-15.184426-6.793782 20.20256 20.20256 0 0 1-5.107526-14.709024l7.504853-127.781599a20.348838 20.348838 0 0 1 21.474363-19.089225 20.121295 20.121295 0 0 1 13.977636 6.753148 20.19037 20.19037 0 0 1 5.111589 14.704961l-7.508916 127.789726a20.332585 20.332585 0 0 1-20.267573 19.125795z m7.47641-156.224464a8.126533 8.126533 0 0 0-8.09809 7.651131l-7.504853 127.781599c-0.130025 2.173847 0.5973 4.26643 2.03976 5.88361 1.438396 1.61718 3.425334 2.576111 5.586991 2.698008l0.499782 0.016253a8.126533 8.126533 0 0 0 8.094027-7.65113l7.508916-127.785663a8.069647 8.069647 0 0 0-2.043823-5.883609 8.041204 8.041204 0 0 0-5.582928-2.693946l-0.499782-0.016253z" fill="#6E6E96" p-id="4546"></path><path d="M511.057322 998.913394c-0.426643-24.505559 16.996643-46.548779 27.609895-26.915076 19.361464 35.772997 43.294103 10.637631 43.647607 30.214448 0.154404 9.036704-3.713825 14.152357-18.760101 14.518051-3.197791 0.085329-7.411398-0.284429-12.059774-0.975184l0.008126 0.004063-0.016253-0.004063a137.244947 137.244947 0 0 1-7.183855-1.267739c-4.002317-0.38601-8.199671-0.085329-8.146849 2.897108l-19.487425 0.463213s-4.323315 0.877666-4.420834-4.059203l-0.219416-12.32795c-0.605427-0.845159-0.950804-1.698445-0.971121-2.547668z" fill="#9292A8" p-id="4547"></path><path d="M515.933242 1024c-5.639814 0-9.662447-4.148595-9.776219-10.093154l-0.190973-10.751402a9.934686 9.934686 0 0 1-1.003627-4.095773c-0.239733-13.640385 4.42896-27.337656 11.889117-34.9319 3.721952-3.782901 7.943686-5.782028 12.218242-5.782028 4.168911 0 10.150039 1.865039 14.956883 10.755466 9.426778 17.415159 18.947011 17.821486 27.341719 18.17499 6.277746 0.264112 16.785353 0.711072 17.037276 14.822796 0.308808 18.032776-13.95732 20.462609-24.708723 20.726721l-1.101145 0.01219c-3.254676 0-7.293563-0.353504-12.002888-1.056449l0.418516-2.791464-0.020316 0.048759-0.41039 2.742705a140.300523 140.300523 0 0 1-7.175729-1.259613 20.527621 20.527621 0 0 0-1.101145-0.069076l0.048759 2.87273-25.171934 0.5973c-0.325061 0.044696-0.751704 0.077202-1.247423 0.077202z m1.210853-25.878943l0.922362 1.267739 0.243796 12.319823 14.160483-0.337251c2.060076-2.100709 5.095336-3.120589 9.272374-3.120588 1.023943 0 2.088519 0.065012 3.140904 0.16253l0.650123 0.097519c2.344505 0.483529 4.648377 0.881729 6.850667 1.210853h0.004063c4.059203 0.601363 7.590181 0.922361 10.210989 0.922362l0.78421-0.008127c12.969946-0.316935 12.91306-3.847913 12.831795-8.325633-0.032506-1.909735-0.361631-2.498909-0.365694-2.502972-0.459149-0.162531-3.084019-0.272239-4.997818-0.353504-9.284564-0.394137-24.826557-1.052386-37.548644-24.558382-1.434333-2.653313-3.096209-4.363948-4.233923-4.363948-0.889855 0-2.206354 0.7964-3.526915 2.137278-4.103899 4.181101-8.427214 13.880118-8.398772 25.452301z" fill="#6E6E96" p-id="4548"></path><path d="M512.264112 1013.784948l-0.219416-12.32795c-0.617616-0.841096-0.967057-1.694382-0.987374-2.543604-0.117835-7.057894 17.256692 6.992881 32.152627 10.69858 9.950939 3.372511 22.941202 3.84385 36.821319 0.865476-2.320125 3.977938-6.781591 6.017697-16.488735 6.253367-3.197791 0.085329-7.411398-0.284429-12.059774-0.975184l0.008126 0.004063-0.016253-0.004063a136.501369 136.501369 0 0 1-7.183855-1.267739c-4.002317-0.38601-8.199671-0.085329-8.146848 2.897108l-19.487426 0.463213c0.02438 0-4.298936 0.873602-4.392391-4.063267z" fill="#6E6E96" opacity=".66" p-id="4549"></path><path d="M543.120557 972.376201l-7.504853-127.793789a14.229559 14.229559 0 0 0-15.025959-13.364083 14.229559 14.229559 0 0 0-13.364083 15.030022l7.508916 127.79379a14.217369 14.217369 0 1 0 28.385979-1.66594z" fill="#F9D5B3" p-id="4550"></path><path d="M528.911314 993.525503a20.316332 20.316332 0 0 1-20.263509-19.133922l-7.508916-127.785662a20.348838 20.348838 0 0 1 20.275699-21.506869 20.328521 20.328521 0 0 1 20.283826 19.129858l7.504852 127.789726a20.336648 20.336648 0 0 1-20.291952 21.506869z m-7.496726-156.236654l-0.475402 0.01219a8.138722 8.138722 0 0 0-7.626751 8.593808l7.508916 127.789726a8.118406 8.118406 0 0 0 8.094027 7.651131l0.487592-0.01219a8.142786 8.142786 0 0 0 7.63894-8.589745l-7.504853-127.793789a8.142786 8.142786 0 0 0-8.122469-7.651131z" fill="#6E6E96" p-id="4551"></path><path d="M494.401994 530.715405m-84.747546 0a84.747546 84.747546 0 1 0 169.495091 0 84.747546 84.747546 0 1 0-169.495091 0Z" fill="#F9D5B3" p-id="4552"></path><path d="M494.401994 621.55785c-50.087884 0-90.838382-40.750498-90.838382-90.838382 0-50.091947 40.750498-90.842445 90.838382-90.842445 50.091947 0 90.842445 40.750498 90.842445 90.842445 0 50.087884-40.750498 90.838382-90.842445 90.838382z m0-169.495092c-43.367242 0-78.648583 35.285405-78.648583 78.652647s35.281342 78.648583 78.648583 78.648583c43.371305 0 78.652646-35.285405 78.652646-78.648583 0-43.367242-35.285405-78.652646-78.652646-78.652647z" fill="#6E6E96" p-id="4553"></path><path d="M443.993111 480.87538a50.278858 44.017364 0 1 0 100.557716 0 50.278858 44.017364 0 1 0-100.557716 0Z" fill="#EDCA5F" p-id="4554"></path><path d="M494.271969 530.987644c-31.083987 0-56.373757-22.482053-56.373757-50.112264s25.28977-50.112264 56.373757-50.112264 56.373757 22.482053 56.373757 50.112264-25.285706 50.112264-56.373757 50.112264z m0-88.034729c-24.363345 0-44.183958 17.012896-44.183958 37.922465s19.820613 37.922465 44.183958 37.922465 44.183958-17.012896 44.183958-37.922465-19.820613-37.922465-44.183958-37.922465z" fill="#6E6E96" p-id="4555"></path><path d="M405.274247 608.112502l-56.138088-40.969915a12.161356 12.161356 0 0 0-17.021023 2.645187 12.177609 12.177609 0 0 0 2.657377 17.033212l56.134024 40.969915a12.177609 12.177609 0 0 0 17.025086-2.657377 12.169483 12.169483 0 0 0-2.657376-17.021022z" fill="#F9D5B3" p-id="4556"></path><path d="M398.082265 636.234368a18.166864 18.166864 0 0 1-10.771719-3.514725l-56.134024-40.969915a18.17499 18.17499 0 0 1-7.2895-11.958193 18.166864 18.166864 0 0 1 3.303436-13.599752 18.317205 18.317205 0 0 1 14.757783-7.496726c3.900736 0 7.630814 1.21898 10.787972 3.530978l56.129961 40.961788a18.1628 18.1628 0 0 1 7.2895 11.950066 18.154674 18.154674 0 0 1-3.303436 13.595689 18.333458 18.333458 0 0 1-14.769973 7.50079z m-56.134024-65.349512a6.013634 6.013634 0 0 0-4.908426 2.490782 6.07052 6.07052 0 0 0 1.324625 8.520669l56.134024 40.969915c2.653313 1.946305 6.590618 1.308372 8.50848-1.324625 0.967057-1.316498 1.353068-2.925552 1.105208-4.526479a6.054267 6.054267 0 0 0-2.425769-3.977938L345.540168 572.067266a6.029887 6.029887 0 0 0-3.591927-1.18241z" fill="#6E6E96" p-id="4557"></path><path d="M590.693279 634.040204l61.022134-30.100677a12.189799 12.189799 0 0 0 5.530105-16.33433 12.177609 12.177609 0 0 0-16.330267-5.530106l-61.022134 30.100677a12.177609 12.177609 0 0 0-5.530105 16.326204 12.189799 12.189799 0 0 0 16.330267 5.538232z" fill="#F9D5B3" p-id="4558"></path><path d="M585.309451 641.398779c-0.004063 0-0.004063 0 0 0a18.179054 18.179054 0 0 1-16.407469-10.198798c-2.165721-4.384264-2.494846-9.349576-0.926425-13.973573s4.847477-8.362202 9.227678-10.515733l61.014007-30.100677a18.130294 18.130294 0 0 1 8.089963-1.893482c7.021324 0 13.303134 3.908862 16.403406 10.198798a18.17499 18.17499 0 0 1 0.922362 13.96951 18.150611 18.150611 0 0 1-9.223615 10.52386l-61.022133 30.10474a18.109978 18.109978 0 0 1-8.077774 1.885355z m60.997754-54.492464c-0.930488 0-1.836596 0.215353-2.689882 0.633869l-61.026197 30.10474c-1.462776 0.719198-2.551731 1.958494-3.075893 3.49441a6.054267 6.054267 0 0 0 0.308809 4.660566c1.040196 2.100709 3.132778 3.405017 5.477283 3.405017h0.004063c0.930488 0 1.836596-0.21129 2.685819-0.629806l61.022134-30.10474c1.458713-0.719198 2.551731-1.962558 3.075892-3.506599s0.414453-3.193727-0.308808-4.656503a6.062393 6.062393 0 0 0-5.47322-3.400954z" fill="#6E6E96" p-id="4559"></path><path d="M476.60895 879.465554l8.768529-75.580817c0.62168 0.134088 1.267739 0.22348 1.905672 0.223479 0.593237 0 1.174284-0.065012 1.771584-0.182847l7.573928 75.540185h58.364758c-0.18691-3.640687-0.38601-7.374828-0.593237-11.259311-6.818161-122.389645-19.345211-139.101859-29.27177-139.10186 0 0-49.246788 13.640385-66.958566 0-9.158602-7.041641-23.152492 15.35102-35.411366 137.167745-0.446959 4.587428-0.881729 8.943249-1.279929 13.205615l55.130397-0.012189z" fill="#A1D9B6" p-id="4560"></path><path d="M421.47449 885.572643a6.094899 6.094899 0 0 1-6.07052-6.663757l1.283992-13.225932c14.473355-143.831501 30.637028-143.831501 38.40193-143.831501 2.377011 0 4.725579 0.837033 6.789718 2.42577 4.079519 3.140905 11.515297 4.802781 21.514995 4.80278 18.743848 0 39.889086-5.786091 40.104439-5.842976 0.528225-0.146278 1.076766-0.22348 1.625306-0.22348 16.846302 0 28.637901 24.23332 35.358544 144.859508l0.544477 10.276a6.094899 6.094899 0 0 1-5.956748 7.411398h-58.446023a6.094899 6.094899 0 0 1-6.066456-5.489473l-3.65694-36.471878-4.24205 36.565333a6.094899 6.094899 0 0 1-6.054267 5.391955l-55.130397 0.016253z m33.595085-151.177887c-3.100272 2.880856-15.034085 21.01115-26.2487 132.482798l-0.63387 6.501227 42.993421-0.01219 8.142786-70.1848a6.094899 6.094899 0 0 1 7.342322-5.253803 3.006817 3.006817 0 0 0 0.613554 0.085329 2.82397 2.82397 0 0 0 0.576983-0.065013c1.682192-0.341314 3.43346 0.052822 4.819034 1.076766 1.381511 1.023943 2.267303 2.584237 2.442023 4.294873l7.025388 70.050711h46.426881l-0.255986-4.831224c-6.688136-120.037014-19.113605-132.291825-22.664899-133.262945-4.819034 1.259613-24.147992 5.989255-42.24578 5.989254-12.482354-0.004063-22.010714-2.311999-28.333157-6.870983z" fill="#6E6E96" p-id="4561"></path><path d="M494.349171 757.58788s-5.615434-0.60949-5.615434-15.046275c0-5.375701 6.834414-3.600054 10.48729 6.554048 2.592364 7.179792 1.958494 8.492227 1.958495 8.492227h-6.830351z" fill="#EDC0AF" p-id="4562"></path><path d="M502.459451 759.619513h-8.11028c-0.979247-0.093455-7.647067-1.275866-7.647067-17.077908 0-3.453776 2.145405-4.997818 4.270493-4.997818 3.738205 0 7.821788 4.363948 10.162229 10.869238 2.876793 7.976192 2.125088 9.544613 1.877229 10.060647l-0.552604 1.145841z m-11.486854-18.012459c-0.069076 0.028443-0.207227 0.316935-0.207227 0.934551 0 11.94194 3.884483 13.034958 3.921052 13.047148l4.347695-0.02438c-0.219416-1.109272-0.698882-2.929615-1.726888-5.777964-2.20229-6.119279-5.270056-8.179355-6.334632-8.179355z" fill="#6E6E96" p-id="4563"></path><path d="M501.187648 757.58788s-9.044831-2.584237-9.044831-22.920885c0-8.488163 8.114343-7.638941 8.114343 3.957621 0 8.715706 7.50079 18.963264 7.50079 18.963264h-6.570302z" fill="#EDC0AF" p-id="4564"></path><path d="M511.764331 759.619513l-11.13335-0.081265c-0.430706-0.121898-10.515733-3.250613-10.515733-24.871253 0-5.314752 2.693946-7.695826 5.359448-7.695827 3.283119 0 6.818161 3.64475 6.818161 11.649385 0 7.955875 7.037577 17.667082 7.106653 17.7646l2.364821 3.23436z m-10.186609-4.063266h2.433896c-2.340441-3.892609-5.782028-10.682327-5.782028-16.931631 0-5.404144-1.942241-7.586118-2.754894-7.586118-0.438833 0-1.296182 1.101145-1.296182 3.63256 0 16.504988 6.176165 20.300079 7.399208 20.885189z" fill="#6E6E96" p-id="4565"></path><path d="M511.585547 748.790908s-4.997818-18.601633-10.401962-17.646765c-3.197791 0.589174-0.146278 24.253637 6.570302 26.017094 0.01219 0.01219 7.866484 3.226233 3.83166-8.370329z" fill="#EDC0AF" p-id="4566"></path><path d="M509.870848 759.61545c-0.499782 0-1.759394-0.130025-2.702072-0.503845-6.980692-1.942241-9.495853-18.313141-9.272373-24.241447 0.052822-1.43027 0.195037-5.217234 2.921488-5.721079 0.264112-0.044696 0.520098-0.069076 0.772021-0.069076 6.139595 0 10.406025 13.416905 11.958192 19.186744 1.552168 4.449277 1.645623 7.50079 0.24786 9.467411-0.861412 1.20679-2.259176 1.881292-3.925116 1.881292z m-1.011753-4.225797c0.442896 0.125961 1.365257 0.357567 1.621243-0.01219 0.085329-0.117835 0.792337-1.308372-0.812653-5.920179-2.129152-7.8868-5.521979-15.021896-7.557675-16.15961-0.560731 2.661439 0.1991 11.238995 2.746768 17.309514 1.609053 3.847913 3.02307 4.485846 3.417207 4.591491l0.58511 0.190974z" fill="#6E6E96" p-id="4567"></path><path d="M451.705191 729.283167c2.324188-1.856913 4.502099-1.698445 6.452467-0.195037 17.703651 13.644448 66.958566 0 66.958566 0 3.079956 0 6.399644 1.613117 9.727459 7.460157-0.016253 0-71.891371 15.98489-83.138492-7.26512z" opacity=".05" p-id="4568"></path><path d="M488.266461 743.939368c-21.051783 0-33.968906-4.636187-38.38974-13.774472l-0.707008-1.458713 1.267739-1.011753c2.901172-2.316062 6.143659-2.393264 8.963565-0.215353 4.855603 3.742268 12.929313 5.639814 23.985462 5.639813 19.324895 0 40.973978-5.928306 41.18933-5.989254l0.540415-0.077202c4.485846 0 8.240304 2.779274 11.490917 8.488163l1.369321 2.405454-2.710199 0.589173c-2.551731 0.556667-25.379161 5.404144-46.999802 5.404144z m-33.769806-13.904497c4.522415 6.448404 16.118978 9.841231 33.769806 9.841231 17.630513 0 36.122438-3.299372 43.269723-4.717452-2.482656-3.376574-4.62806-3.977938-6.163975-4.034824-2.758958 0.747641-23.091543 6.05833-41.98573 6.058331-11.978509 0-20.885189-2.181974-26.468117-6.484974-0.857349-0.662312-1.600927-0.873602-2.421707-0.662312z" fill="#6E6E96" opacity=".05" p-id="4569"></path><path d="M419.87714 511.987171a21.149301 18.548811 84.03 1 0 4.399381 42.069195 21.149301 18.548811 84.03 1 0-4.399381-42.069195Z" fill="#F9D5B3" p-id="4570"></path><path d="M422.595951 560.255351c-12.778973 0-23.526312-10.596999-24.997214-24.651837-1.564358-14.94063 8.163102-28.243764 21.673462-29.657781 13.72165-1.470902 25.785488 9.617751 27.345783 24.529939 1.564358 14.94063-8.163102 28.243764-21.673463 29.661844a25.460427 25.460427 0 0 1-2.348568 0.117835z m-0.975184-42.24578c-0.357567 0-0.719198 0.020316-1.080829 0.060949-6.830351 0.715135-11.681891 8.012761-10.820478 16.265255 0.853286 8.126533 7.118843 14.420532 13.95732 13.672891 6.830351-0.715135 11.681891-8.012761 10.820478-16.265255-0.804527-7.703953-6.460593-13.73384-12.876491-13.73384z" fill="#6E6E96" p-id="4571"></path><path d="M560.066414 507.773011a21.137111 18.552874 84.019 1 0 4.404918 42.044103 21.137111 18.552874 84.019 1 0-4.404918-42.044103Z" fill="#F9D5B3" p-id="4572"></path><path d="M562.790829 555.997048c-12.783036 0-23.526312-10.592935-24.997214-24.639647-0.743578-7.086336 1.011753-14.042648 4.936868-19.589007 4.095772-5.786091 10.044394-9.361766 16.740657-10.064711 13.754157-1.454649 25.789551 9.613688 27.349846 24.517749 0.743578 7.086336-1.011753 14.042648-4.936868 19.584944-4.095772 5.790155-10.044394 9.365829-16.740658 10.068774-0.792337 0.077202-1.576547 0.121898-2.352631 0.121898z m-0.971121-42.225464c-0.357567 0-0.719198 0.016253-1.084892 0.056886-3.157158 0.333188-6.021761 2.100709-8.06152 4.985628-2.21448 3.128715-3.193727 7.131032-2.758958 11.2715 0.845159 8.122469 7.009134 14.412406 13.95732 13.660702 3.157158-0.329125 6.021761-2.100709 8.06152-4.985628 2.21448-3.128715 3.193727-7.131032 2.758958-11.271501-0.800463-7.691763-6.45653-13.717587-12.872428-13.717587z" fill="#6E6E96" p-id="4573"></path><path d="M591.85131 638.558556l-8.033078-28.190942c-29.369289 8.71977-48.165959 4.684946-54.187719 2.856477-0.715135-0.345378-1.438396-0.739514-2.116962-0.739515-0.154404-0.016253-0.300682 0-0.451023-0.008126-8.890427-2.494846-20.247256-3.982001-33.733237-3.982001-13.624132 0-26.204005 1.515598-36.484068 4.067329-0.438833-0.008127-1.539978 0.528225-2.023507 0.528225 0.109708-0.097518 0.052822-0.040633-0.008126 0-5.06283 1.373384-9.443031 3.019007-13.079655 4.855603-9.040768 0.857349-21.925385-1.267739-38.170323-12.583936l-13.717588 28.771989s30.681724 11.588436 36.817257 53.013436l0.012189-0.004063c0.918298 6.013634 2.137278 12.51486 3.799154 19.597133a313.456617 313.456617 0 0 0 9.182982 37.272342c0.365694 1.909735 0.902045 3.84385 1.81628 5.733269v0.004063c3.933242 8.07371 15.013769 15.066592 51.457205 13.091844 47.292357-2.567984 48.673867-2.653313 51.331244-20.738911 3.604117-24.180498 5.623561-43.655733 6.533732-59.339941 8.154976-38.580714 41.055243-44.204274 41.055243-44.204275z" fill="#FFFFFF" p-id="4574"></path><path d="M481.245137 769.269771c-0.004063 0-0.004063 0 0 0-25.614831 0-39.568087-5.196918-45.24447-16.854429a28.455054 28.455054 0 0 1-2.255113-6.911616 321.119938 321.119938 0 0 1-9.260184-37.678669 250.236257 250.236257 0 0 1-3.766648-19.377717c-0.028443-0.134088-0.056886-0.268176-0.077202-0.41039-5.546359-37.451126-32.668661-48.100947-32.936837-48.202528a6.090836 6.090836 0 0 1-3.348131-8.325633l13.717587-28.771989c0.767957-1.613117 2.210417-2.807717 3.941368-3.270929 1.735015-0.446959 3.575674-0.130025 5.042514 0.893919 11.104907 7.732396 21.555628 11.657511 31.059607 11.657511 0.682629 0 1.344941-0.02438 1.986938-0.060949 3.697572-1.771584 7.931496-3.315625 12.612378-4.615871a5.973001 5.973001 0 0 1 1.328688-0.345378 10.767656 10.767656 0 0 1 1.710636-0.446959c11.10897-2.718325 24.095169-4.152658 37.58115-4.152658 13.189362 0 24.834684 1.344941 34.631219 4.002317 1.645623 0.093455 2.986501 0.690755 3.880419 1.117399 2.970248 0.861412 8.886363 2.145405 17.618323 2.145404 10.150039 0 21.124922-1.730951 32.619902-5.144095a6.078646 6.078646 0 0 1 7.594245 4.168911l8.033077 28.190942a6.086773 6.086773 0 0 1-4.835287 7.679573c-1.145841 0.207227-28.72323 5.570738-36.020856 39.019547-1.003627 16.935694-3.20998 36.922901-6.562175 59.41308-3.380638 23.018404-9.49179 23.347528-57.027943 25.931766a218.445261 218.445261 0 0 1-12.023205 0.349441z m-48.604792-83.414795l0.069076 0.369758c0.967057 6.350885 2.181974 12.612379 3.705699 19.125794a311.498123 311.498123 0 0 0 9.06921 36.853826c0.069076 0.215353 0.121898 0.434769 0.166594 0.658249 0.325061 1.702509 0.743578 3.043386 1.316498 4.21767 3.226233 6.635314 14.761847 9.999698 34.277715 9.999699h0.004063c3.510662 0 7.334196-0.109708 11.360893-0.329125 22.449546-1.21898 34.814066-1.889419 40.494512-4.132342 3.071829-1.214917 3.791027-2.25105 5.135969-11.409652 3.331878-22.356091 5.509789-42.136072 6.484973-58.807653a6.338695 6.338695 0 0 1 0.117835-0.910172c6.688136-31.665034 28.442864-43.237217 39.478695-47.142016l-4.701199-16.513114c-10.495417 2.661439-20.61295 4.010444-30.149436 4.010444-10.767656 0-18.158737-1.759394-21.604387-2.799591a6.005508 6.005508 0 0 1-0.881729-0.345377l-0.316935-0.150341a5.940495 5.940495 0 0 1-1.247422-0.215353c-8.752276-2.458276-19.844993-3.758521-32.083551-3.758522-12.661138 0-24.769672 1.344941-35.013166 3.888546a4.997818 4.997818 0 0 1-0.414453 0.085329c-0.605427 0.203163-1.21898 0.402263-1.889419 0.516035-4.400517 1.21898-8.276874 2.661439-11.523423 4.307062a6.08271 6.08271 0 0 1-2.173848 0.625743c-1.328688 0.125961-2.730515 0.1991-4.201417 0.1991-10.206925 0-20.954264-3.348131-32.026666-9.963129l-8.167165 17.130731c10.020015 5.851104 29.661844 21.303705 34.712484 54.488401z" fill="#6E6E96" p-id="4575"></path><path d="M496.81151 504.580476c0 25.431984-20.617013 46.048997-46.048997 46.048997-25.444174 0-46.053061-20.617013-46.05306-46.048997s20.608887-46.048997 46.05306-46.048998c8.650694 0 16.740657 2.385137 23.644147 6.533733" fill="#E6BE46" p-id="4576"></path><path d="M450.762513 556.724372c-28.755736 0-52.14796-23.392224-52.14796-52.143896s23.392224-52.143897 52.14796-52.143897c9.463347 0 18.723531 2.559858 26.785052 7.407334a6.103026 6.103026 0 0 1-6.28181 10.450721 39.787504 39.787504 0 0 0-20.503242-5.664193c-22.03103 0-39.958161 17.923068-39.958161 39.954098s17.927131 39.954098 39.958161 39.954098 39.954098-17.923068 39.954098-39.954098a6.094899 6.094899 0 1 1 12.189799 0c0 28.747609-23.392224 52.139834-52.143897 52.139833z" fill="#6E6E96" p-id="4577"></path><path d="M494.881459 474.21975a55.366067 55.366067 0 0 1 22.770544-15.20068c29.003595-10.271937 60.839287 4.908426 71.107161 33.903895 10.263811 29.003595-4.904362 60.84335-33.903894 71.103097-29.007658 10.271937-60.839287-4.900299-71.103098-33.899831" fill="#E6BE46" p-id="4578"></path><path d="M536.204878 573.351258a61.558485 61.558485 0 0 1-26.549383-6.04614 61.363448 61.363448 0 0 1-31.648781-35.139127 6.094899 6.094899 0 0 1 11.49498-4.071393 49.230535 49.230535 0 0 0 25.399478 28.207195 49.254914 49.254914 0 0 0 37.922465 1.97881 49.246788 49.246788 0 0 0 28.207195-25.399477 49.307737 49.307737 0 0 0 1.982874-37.922465 49.271167 49.271167 0 0 0-25.407605-28.207195 49.279294 49.279294 0 0 0-37.918401-1.982874 49.604355 49.604355 0 0 0-20.275699 13.530677c-2.25105 2.507035-6.103026 2.706135-8.605998 0.455086s-2.710199-6.103026-0.455086-8.605998a61.842913 61.842913 0 0 1 25.269453-16.870682 61.416271 61.416271 0 0 1 47.235471 2.466403 61.391891 61.391891 0 0 1 31.652845 35.14319c5.505726 15.566373 4.632124 32.339537-2.470466 47.239534s-19.58088 26.138992-35.14319 31.644719a61.883546 61.883546 0 0 1-20.690152 3.579737z" fill="#6E6E96" p-id="4579"></path><path d="M479.883943 532.007523c0 23.375971-18.947011 42.327045-42.327045 42.327046-23.375971 0-42.322982-18.951074-42.322982-42.327046 0-23.380034 18.947011-42.327045 42.322982-42.327045" fill="#DEB436" p-id="4580"></path><path d="M437.556898 580.429468c-26.69566 0-48.417882-21.722222-48.417882-48.421945s21.722222-48.421945 48.417882-48.421944a6.094899 6.094899 0 1 1 0 12.189799c-19.979081 0-36.228083 16.253065-36.228083 36.232145s16.253065 36.232146 36.228083 36.232146c19.979081 0 36.232146-16.253065 36.232145-36.232146a6.094899 6.094899 0 1 1 12.189799 0c0 26.699723-21.718159 48.421945-48.421944 48.421945z" fill="#6E6E96" p-id="4581"></path><path d="M541.515567 501.862151c26.927266 0 48.755133 21.83193 48.755132 48.759195s-21.827867 48.759196-48.755132 48.759196c-26.931329 0-48.759196-21.83193-48.759196-48.759196" fill="#DEB436" p-id="4582"></path><path d="M541.515567 605.475442c-30.246955 0-54.854095-24.607141-54.854096-54.854096a6.094899 6.094899 0 1 1 12.189799 0c0 23.526312 19.137984 42.664296 42.664297 42.664297 23.522249 0 42.660233-19.137984 42.660233-42.664297s-19.137984-42.664296-42.660233-42.664296a6.094899 6.094899 0 1 1 0-12.189799c30.242891 0 54.850032 24.607141 54.850032 54.854095s-24.603078 54.854095-54.850032 54.854096z" fill="#6E6E96" p-id="4583"></path><path d="M468.514924 566.277112a33.265961 33.265961 0 1 1-33.261898-33.261899" fill="#D1AA33" p-id="4584"></path><path d="M435.257089 605.642036c-21.701905 0-39.360861-17.658955-39.360861-39.364924 0-21.701905 17.654892-39.356798 39.360861-39.356798a6.094899 6.094899 0 1 1 0 12.189799 27.199505 27.199505 0 0 0-27.171062 27.166999c0 14.985326 12.189799 27.175125 27.171062 27.175125 14.981263 0 27.166999-12.189799 27.166999-27.175125a6.094899 6.094899 0 1 1 12.189799 0c-0.004063 21.705969-17.654892 39.364924-39.356798 39.364924z" fill="#6E6E96" p-id="4585"></path><path d="M489.753617 512.060949c30.332283 0 54.923171 24.607141 54.923171 54.939424 0 30.332283-24.590888 54.927234-54.923171 54.927234-30.348536 0-54.939424-24.594951-54.939424-54.927234" fill="#D1AA33" p-id="4586"></path><path d="M489.753617 628.022507c-33.651972 0-61.034323-27.374225-61.034324-61.022134a6.094899 6.094899 0 1 1 12.189799 0c0 26.927266 21.913195 48.832335 48.844525 48.832335 26.923203 0 48.828271-21.905069 48.828271-48.832335 0-26.935392-21.905069-48.844525-48.828271-48.844525a6.094899 6.094899 0 1 1 0-12.189798c33.643845 0 61.01807 27.378289 61.01807 61.034323 0 33.643845-27.374225 61.022134-61.01807 61.022134z" fill="#6E6E96" p-id="4587"></path><path d="M340.76583 573.810407m-21.149301 0a21.149301 21.149301 0 1 0 42.298603 0 21.149301 21.149301 0 1 0-42.298603 0Z" fill="#F9D5B3" p-id="4588"></path><path d="M340.76583 601.054608c-15.021896 0-27.244201-12.222305-27.2442-27.244201s12.222305-27.244201 27.2442-27.2442 27.244201 12.222305 27.244201 27.2442-12.222305 27.244201-27.244201 27.244201z m0-42.298602c-8.301253 0-15.054402 6.753149-15.054401 15.054401s6.753149 15.054402 15.054401 15.054402 15.054402-6.753149 15.054402-15.054402-6.753149-15.054402-15.054402-15.054401z" fill="#6E6E96" p-id="4589"></path><path d="M323.492885 580.665138c-95.937781-152.21402-108.322617-175.919116-108.322617-175.919116s9.743713-13.640385 26.959772-18.800733c17.216059-5.156285 16.679708-3.413144 16.679709-3.413144 4.343632 4.936869 24.318649 60.40858 36.394676 85.145746 7.281373 14.912187 47.463014 87.498377 47.463014 87.498377" fill="#F9D5B3" p-id="4590"></path><path d="M323.496949 586.760037c-2.023507 0-4.002317-1.00769-5.164412-2.844286-94.97885-150.690295-108.058505-175.370575-108.570476-176.345759l-1.735015-3.315625 2.177911-3.04745c0.446959-0.625743 11.173982-15.403843 30.169752-21.096479 16.533431-4.949058 19.853119-4.859667 22.713659-1.974747l2.572048 2.592364-0.251923 0.885792c2.738642 5.030324 6.956312 15.346957 14.839049 35.013166 6.858794 17.106351 14.627759 36.496258 20.430103 48.381312 7.126969 14.603379 46.914473 86.498814 47.316736 87.222075a6.094899 6.094899 0 0 1-10.666074 5.903926c-1.64156-2.966184-40.340108-72.894998-47.605228-87.778743-5.997381-12.283254-13.859801-31.896641-20.791734-49.193965-4.82716-12.047585-10.657948-26.581888-13.53474-32.437055-2.019443 0.414453-5.546359 1.267739-11.527487 3.059639-10.442594 3.132778-17.793043 9.816851-21.336211 13.648512 6.188355 10.832668 29.633401 50.644551 106.1122 171.981811a6.094899 6.094899 0 0 1-5.148158 9.345512z" fill="#6E6E96" p-id="4591"></path><path d="M94.950408 504.019745l43.781694 22.209814-6.176165 12.071964-48.840461-6.07052-25.143492-11.267437C-9.052957 467.543803 10.320696 429.389732 10.320696 429.389732s1.613117-13.73384 19.402097-15.623259c17.78898-1.881292 22.599887 16.870682 22.599887 16.870682s-11.125223 17.996207 10.92206 38.536018c11.982572 11.186172 31.705667 34.846572 31.705668 34.846572z" fill="#F9D5B3" p-id="4592"></path><path d="M136.04222 544.875888l-53.980493-6.708453-27.264517-12.425468C-10.73515 473.980017 1.564358 434.550081 4.424897 427.646591c1.255549-6.65563 7.667384-18.138421 24.6559-19.942511 18.524431-1.946305 27.114176 13.494107 29.149873 21.417477l0.646059 2.515162-1.365257 2.206353c-0.296618 0.507908-7.968065 14.233622 9.88999 30.872698 10.877364 10.154103 27.520503 29.791869 31.421238 34.432119l48.125327 24.40804-10.905807 21.319959z m-50.664868-18.581317l43.696366 5.432587 1.44246-2.82397-39.44619-20.011587-0.804527-0.962994c-0.195037-0.235669-19.61745-23.497869-31.181505-34.289904-18.231876-16.988517-17.195743-34.468688-13.36002-43.448507-1.548104-3.762585-5.920179-11.34464-15.36321-10.357266-12.267001 1.300245-13.863865 9.447094-14.006079 10.373519l-0.146278 0.962994-0.459149 0.98331c-0.130025 0.276302-15.529804 34.655598 46.008365 83.561072l23.619767 10.580746z" fill="#6E6E96" p-id="4593"></path><path d="M75.670209 300.502924s46.223718 8.47191 46.223718-20.430103v-14.444911h39.303975s-3.071829 35.939591 30.49075 35.93959c0 0 32.046982 61.404081-11.734713 72.805606-43.769505 11.409652-104.28373-54.97193-104.28373-73.870182z" fill="#F9D5B3" p-id="4594"></path><path d="M167.861658 308.735102s18.536621-1.088955 18.536621 13.607879l4.233924-13.607879c0.008127 0-5.818597-4.347695-22.770545 0z" opacity=".06" p-id="4595"></path><path d="M147.195886 566.529034c56.991373 0 78.140675-8.703516 83.597641-20.052219-1.414017-8.955439-3.591927-15.513551-6.590618-18.605697a41.506266 41.506266 0 0 0-2.287619-3.677256c-28.369725-12.275128-116.550731-21.287452-145.940336-0.048759a33.233455 33.233455 0 0 0-0.463213 5.351322c-4.225797 2.795527-6.996945 8.890427-8.601934 17.329831-0.008127 1.166157 0.999564 19.702778 80.286079 19.702778z" fill="#825B7E" p-id="4596"></path><path d="M265.010293 388.732689l-8.805098-31.754426s-26.780988-59.949431-64.528733-59.949431c0 0-11.616878 8.427214-7.122905 34.350853-0.877666 7.561739-2.657376 15.127541-8.053394 20.990834-27.987778 30.397295-47.491457-55.256359-82.378662-52.936234-1.771584 0-3.461903 0.081265-5.083146 0.215354h-0.004063c-9.256121-0.646059-33.78606 8.520669-47.150143 32.400485-25.395415 45.374495-33.180633 82.86219-33.180633 82.86219s-9.463347 23.969208 7.732396 28.373789c25.988651 6.663757 35.435746-9.447094 35.435746-9.447094l16.488735-34.94409c2.722388 5.928306 13.587563 11.393399 16.529367 16.106787 43.68824 69.932877-95.990604 144.493814 62.094836 144.493814 171.465776 0 8.963566-75.62145 59.392764-140.849064a94.154007 94.154007 0 0 0 8.71977-13.72165c2.539541 4.831224 4.506162 7.594245 8.065583 11.690017-0.004063-0.036569 11.385272 11.255248 30.120993-1.609053 9.861547-6.769402 14.749657-16.082408 11.726587-26.273081z" fill="#FFFFFF" p-id="4597"></path><path d="M146.984596 565.586356c-45.845834 0-70.383899-6.200544-79.562818-20.105041-9.146413-13.847612-1.479029-31.795059 6.635314-50.794893 10.166292-23.806677 21.693779-50.794892 5.664193-76.454419-0.739514-1.182411-3.530978-3.364385-5.773901-5.115652-1.353068-1.060513-2.722388-2.129152-4.03076-3.23436l-12.531114 26.561572c-0.077202 0.166594-0.162531 0.325061-0.251922 0.479465-0.337251 0.576984-8.480037 14.075155-28.755736 14.075155a54.447769 54.447769 0 0 1-13.453475-1.804091c-5.696699-1.458713-10.015951-4.790591-12.49048-9.638067-5.111589-10.015951-0.731388-23.298769 0.406326-26.374662 1.052386-4.798718 9.430841-40.701739 33.725111-84.10555 13.892308-24.822494 40.023173-36.053362 52.395819-35.533264 1.653749-0.125961 3.372511-0.1991 5.164411-0.1991 0.1991-0.02438 0.7964-0.044696 1.393701-0.044696 18.524431 0 32.213575 18.816986 44.293666 35.419493 8.215925 11.29588 17.528931 24.099233 24.509623 24.099232 2.320125 0 4.908426-1.535915 7.699889-4.571174 4.274556-4.644313 5.664193-10.983009 6.383392-16.720341-4.579301-28.154372 8.211861-38.349108 9.699016-39.429937 1.040196-0.755768 2.291682-1.162094 3.579738-1.162094 41.2259 0 68.933313 60.961185 70.091344 63.557612 0.121898 0.276302 0.227543 0.564794 0.308808 0.857349l8.805098 31.754427c3.624434 12.222305-1.523725 24.261763-14.152356 32.924647-6.984755 4.794654-13.96951 7.224488-20.755165 7.224487-9.337386 0-15.200679-4.595554-16.834112-6.062393a5.993318 5.993318 0 0 1-0.576984-0.581047 84.775989 84.775989 0 0 1-3.279056-3.977938 90.732737 90.732737 0 0 1-4.079519 5.737332c-18.471609 23.892006-4.701199 49.214282 8.622251 73.699525 9.861547 18.126231 19.174554 35.248835 10.987072 49.019245-8.553176 14.36771-33.623529 20.499179-83.837374 20.499178zM68.356329 392.795956h0.032507a6.094899 6.094899 0 0 1 5.505725 3.551295c0.897982 1.954431 4.745895 4.961248 7.557676 7.159475 3.461903 2.706135 6.728769 5.26193 8.605998 8.264684 19.398033 31.055545 5.985191 62.464593-4.794654 87.697477-7.086336 16.590316-13.205616 30.91333-7.671447 39.295848 6.411834 9.707143 29.759363 14.631822 69.392462 14.631822 42.936535 0 67.616815-4.892173 73.350084-14.538367 4.644313-7.809598-3.05964-21.974144-11.218679-36.967597-13.766346-25.306023-30.893014-56.796337-7.557675-86.974215a88.181006 88.181006 0 0 0 8.142786-12.823669 6.094899 6.094899 0 0 1 10.792035-0.004063c2.165721 4.120152 3.766648 6.46872 6.992882 10.206925 0.80859 0.662312 3.762585 2.771148 8.492226 2.771148 4.278619 0 8.943249-1.710635 13.859802-5.083147 5.733269-3.929179 12.002889-10.503543 9.333322-19.511805l-8.703516-31.388732c-2.271366-4.859667-25.679843-53.375066-56.357504-55.857722-2.169784 2.81178-6.399644 10.682327-3.547232 27.114176 0.097518 0.576984 0.113771 1.162094 0.04876 1.743141-0.861412 7.435777-2.734578 16.927568-9.625878 24.416168-5.196918 5.643877-10.804225 8.500353-16.667519 8.504416-13.189362 0-23.477553-14.14423-34.37117-29.117366-10.645758-14.631822-22.725849-31.254645-35.423555-30.368853-1.999127 0.01219-3.522852 0.085329-4.985628 0.207227a5.826724 5.826724 0 0 1-0.922362 0.008126l-0.540414-0.016253c-8.268747 0-29.426175 8.849794-40.876459 29.312403-24.651837 44.045807-32.457371 80.757418-32.530511 81.123113a6.273683 6.273683 0 0 1-0.300681 0.999563c-1.084892 2.791464-3.624434 11.909434-1.072703 16.874745 0.548541 1.072702 1.62937 2.584237 4.65244 3.356258 3.685383 0.942678 7.196045 1.426206 10.426342 1.426207 12.088217 0 17.297325-6.6922 18.158737-7.939623l16.314014-34.574333a6.086773 6.086773 0 0 1 5.509789-3.498472z" fill="#6E6E96" p-id="4598"></path><path d="M165.740633 542.051918c-103.568595 23.887943-91.423492-32.055108-91.423492-32.055108-0.004063 0 0 0 0 0-9.162666 29.255518-9.670574 49.490584 72.663392 49.490584 119.496599 0 73.053465-36.735991 56.995437-81.086543 16.870682 42.761815 12.604252 51.920417-38.235337 63.651067z" opacity=".05" p-id="4599"></path><path d="M43.911719 606.324665c36.80913 190.59157 36.662852 190.120231 73.045339 366.941392h41.327482l-1.036133-366.941392H43.911719z" fill="#F9D5B3" p-id="4600"></path><path d="M158.28454 979.360956H116.957058c-2.893046 0-5.387891-2.031633-5.968938-4.86373-35.561707-172.859476-36.219956-176.264493-70.615506-354.373709l-2.442023-12.640822a6.094899 6.094899 0 0 1 5.985191-7.248867H157.248407a6.094899 6.094899 0 0 1 6.094899 6.078647l1.036133 366.941392a6.086773 6.086773 0 0 1-6.094899 6.107089z m-36.358107-12.189799h30.246954l-0.999563-354.751593h-99.875087l1.040197 5.387891c34.054235 176.353885 35.021292 181.355766 69.587499 349.363702z" fill="#6E6E96" p-id="4601"></path><path d="M255.327529 606.324665s-16.586253 193.399287-52.273921 366.941392H153.896212l1.03207-366.941392h100.399247z" fill="#F9D5B3" p-id="4602"></path><path d="M208.022983 979.360956H147.780996l1.068639-379.131191h113.117272l-0.568858 6.614998c-0.166594 1.942241-17.025086 195.743792-52.379566 367.644337l-0.9955 4.871856z m-48.015618-12.189799h38.068742c30.893014-152.063679 47.337053-319.722174 50.579539-354.751593H161.002865l-0.9955 354.751593z" fill="#6E6E96" p-id="4603"></path><path d="M115.908735 968.191037c0 19.544311-46.435008 20.064409-43.936099 33.806376 2.511099 13.73384 19.174554 8.890427 48.178149 8.890427 26.143056 0 43.700429 12.486417 44.647171-6.419961 0.495718-9.975319-11.169919-41.099939-23.595388-45.626418" fill="#F9D5B3" p-id="4604"></path><path d="M155.033927 1021.029752c-3.884483 0-8.268747-0.772021-13.169046-1.637496-6.387455-1.129588-13.628195-2.409517-21.714096-2.409517-6.537796 0-12.506734 0.251923-17.768663 0.475402-18.723531 0.80859-33.517884 1.43027-36.406867-14.36771-2.068203-11.389336 10.970819-16.293698 22.473926-20.617013 9.520233-3.579738 21.364654-8.037141 21.364655-14.286444a6.094899 6.094899 0 1 1 12.189799 0c0 14.688708-16.228686 20.791734-29.267708 25.692033-5.160348 1.942241-13.798852 5.188791-14.818732 7.326069 0.881729 4.246113 4.449277 4.904362 23.944829 4.075456 5.383828-0.231606 11.486854-0.487592 18.284698-0.487592 9.154539 0 17.293261 1.438396 23.83512 2.596427 5.172538 0.910172 12.254811 2.157594 13.717587 0.995501 0.288492-0.231606 0.869539-1.40589 1.011754-4.221734 0.414453-8.30938-10.662011-36.337791-19.593071-39.592467a6.094899 6.094899 0 1 1 4.172975-11.454348c16.167737 5.88361 28.154372 40.457943 27.597705 51.652241-0.304745 6.094899-2.133215 10.397899-5.586991 13.144667-2.905235 2.320125-6.326506 3.116525-10.267874 3.116525z" fill="#6E6E96" p-id="4605"></path><path d="M204.366043 966.797337c-2.129152 20.40166 42.851207 22.319522 40.108502 36.016792-2.742705 13.689144-21.827867 8.008698-48.174086 8.008698-30.003159 0-43.700429 11.690017-44.313982-7.232614-0.333188-10.239431 12.120723-41.408747 24.952518-45.472013" fill="#F9D5B3" p-id="4606"></path><path d="M160.860651 1020.493401c-3.791027 0-6.984755-0.767957-9.731523-3.03526-4.41677-3.648813-5.103463-9.552739-5.237551-13.668828-0.373821-11.450285 12.522987-46.199338 29.202696-51.481584a6.094899 6.094899 0 1 1 3.681319 11.620942c-9.174855 2.909299-20.978644 30.974279-20.702342 39.466505 0.125961 3.811344 0.841096 4.680883 0.845159 4.693073 1.251486 0.698882 7.305753-0.247859 11.726587-0.950804 6.757212-1.072702 15.16411-2.405454 25.647337-2.405454 6.728769 0 12.990262 0.361631 18.520368 0.678566 17.549247 1.015817 22.794924 0.63387 23.680716-3.791028-0.78421-1.897545-8.715706-5.375701-13.453475-7.460157-11.970383-5.253803-28.361599-12.449848-26.740355-27.995905a6.139595 6.139595 0 0 1 6.692199-5.428524 6.094899 6.094899 0 0 1 5.428524 6.696263c-0.646059 6.192418 8.065584 10.53605 19.519931 15.56231 10.649821 4.672756 22.713659 9.975319 20.503242 21.015214-3.100272 15.481045-19.235503 14.550557-36.333727 13.567246-5.363512-0.308808-11.442158-0.658249-17.817423-0.658249-9.524296 0-17.407033 1.251486-23.737602 2.255113-4.44115 0.702945-8.305316 1.320562-11.69408 1.320561z" fill="#6E6E96" p-id="4607"></path><path d="M43.911719 606.324665h211.41581l-1.243359 12.848048H47.125763z" fill="#8F0000" opacity=".1" p-id="4608"></path><path d="M216.759005 481.67178c-4.550858-3.014944-8.679137-3.352195-11.783472-1.235233-30.990532 21.141175-117.05864 0.085329-117.371511 0.01219l-0.01219-0.020316-0.036569 0.008126c-2.856476 0.020316-6.684073 1.609053-10.877364 4.814971-20.291952 12.319824-60.961185 54.740324-51.249978 195.122112 0 0 98.253843 69.197426 258.444054-5.083146 0.004063 0-4.892173-177.064957-67.11297-193.618704z" fill="#FF9999" p-id="4609"></path><path d="M140.251764 715.768743h-0.01219c-74.272445-0.004063-116.554795-29.174252-118.318252-30.413548a6.098963 6.098963 0 0 1-2.572048-4.563049c-9.658384-139.638211 29.48306-185.593753 53.895165-200.583142 4.916552-3.701636 9.711207-5.721079 13.90856-5.85923 0.780147-0.056886 1.564358 0.040633 2.291683 0.272239 5.830787 1.381511 39.925655 9.138286 71.285944 9.138286 18.686962 0 32.794623-2.888982 40.807384-8.358139 4.936869-3.368448 11.474664-3.177474 17.728031 0.641996 64.975692 18.918568 70.497671 191.696779 70.700834 199.079734a6.08271 6.08271 0 0 1-3.530979 5.692636c-50.010682 23.193124-99.196521 34.952217-146.184132 34.952217z m-108.944297-38.877332c9.638068 5.842977 48.30411 26.68347 108.93617 26.687533h0.01219c44.06206 0 90.269525-10.812352 137.395288-32.1445-1.966621-50.701437-16.318078-171.5958-62.456467-183.870928a6.135532 6.135532 0 0 1-1.800027-0.80859c-2.064139-1.369321-3.376574-1.572484-3.969811-1.572484a1.674066 1.674066 0 0 0-1.015817 0.292555c-10.186609 6.948185-26.228384 10.475101-47.674304 10.475101-32.160753 0-66.869174-7.764902-73.683271-9.365829-1.316498 0.22348-3.681319 1.227106-6.66782 3.510662a6.294 6.294 0 0 1-0.540415 0.365694c-17.593943 10.68639-57.336751 50.185402-48.535716 186.430786z" fill="#6E6E96" p-id="4610"></path><path d="M168.942487 42.24578S79.859436 21.165554 42.566778 168.723071C3.461903 323.468506 151.507012 401.231297 151.507012 401.231297 300.177863 313.948273 296.50467 251.150492 300.1738 199.782679c0 0.004063 5.079083-147.793186-131.231313-157.536899z" fill="#B89772" p-id="4611"></path><path d="M151.669542 408.203862l-2.99869-1.576548c-1.519662-0.800463-151.832073-81.821994-112.012063-239.399525C66.796035 47.983112 131.056592 35.106621 157.289039 35.106621c6.554049 0 10.999262 0.776084 12.522987 1.088955 139.833247 10.31257 136.525749 162.343743 136.45261 163.875595-0.195037 2.734578-0.361631 5.355385-0.528225 8.008698-3.218107 50.750196-7.224488 113.913671-151.141317 198.409294l-2.925552 1.714699zM157.289039 47.29642c-23.375971 0-80.773671 11.978509-108.810208 122.91787C13.583499 308.292206 130.560874 382.272096 151.409493 394.214036 286.805654 313.899514 290.556048 254.835874 293.566929 207.307848c0.170657-2.685819 0.337251-5.335069 0.524161-7.959939 0-0.130025 0.9955-36.195576-14.213305-72.73653-20.01565-48.096884-57.487092-74.434976-111.37413-78.291016l-0.967058-0.150341c-0.01219 0.004063-3.916989-0.873602-10.247558-0.873602z" fill="#6E6E96" p-id="4612"></path><path d="M897.148889 303.891689l-59.83566 6.65563-5.721079-51.436889 59.831596-6.65563z" fill="#EDC0AF" p-id="4613"></path><path d="M835.549771 312.798368l-6.172102-55.475775 63.870484-7.110716 6.172101 55.475775-63.870483 7.110716z m-1.690319-51.887911l5.27412 47.402065 55.796773-6.208671-5.27412-47.402065-55.796773 6.208671z" fill="#6E6E96" p-id="4614"></path><path d="M222.301301 358.932694a6.094899 6.094899 0 0 1-4.810908-9.833104c0.329125-0.426643 32.701167-43.326609 16.318078-107.123954a6.094899 6.094899 0 1 1 11.807852-3.031196c17.935258 69.819105-17.00477 115.717762-18.500052 117.635623a6.086773 6.086773 0 0 1-4.81497 2.352631z" fill="#6E6E96" p-id="4615"></path><path d="M915.360448 985.195807c-0.763894-42.205147 29.251454-80.172308 47.548343-46.353743 33.330974 61.607244 74.573127 18.329394 75.166364 52.034189 0.260049 15.541994-6.387455 24.383661-32.307031 25.001278-5.509789 0.130025-12.783036-0.483529-20.763291-1.674066l0.01219 0.008126-0.02438-0.004063a233.731269 233.731269 0 0 1-12.360456-2.194164c-6.903489-0.658249-14.11985-0.125961-14.018269 4.993755l-33.570706 0.78421s-7.447967 1.507472-7.602371-6.988818l-0.386011-21.23463c-1.068639-1.434333-1.670002-2.905235-1.694382-4.372074z" fill="#9292A8" p-id="4616"></path><path d="M923.77141 1023.991873c-6.066457 0-12.262938-4.04295-12.429532-13.075591l-0.353504-19.507741a12.888681 12.888681 0 0 1-1.726889-6.115216c-0.3982-21.945701 7.317943-44.825954 19.194871-56.918235 5.558548-5.664193 11.759093-8.654757 17.914941-8.654757 5.989255 0 14.644012 2.81178 21.896942 16.216496 17.423286 32.201386 35.915211 32.985596 50.774576 33.611339 11.035831 0.467276 24.769672 1.052386 25.127239 21.214313 0.353504 20.938011-11.446221 30.559826-38.255652 31.205886l-1.65375 0.016253c-5.469156 0-12.441721-0.605427-20.157864-1.759394l0.065012-0.402264-0.154404 0.394137a238.70877 238.70877 0 0 1-12.275127-2.169784 38.804193 38.804193 0 0 0-3.47003-0.170657 16.334331 16.334331 0 0 0-3.535042 0.308808l0.089392 4.770275-39.234899 0.918298a13.416905 13.416905 0 0 1-1.81628 0.117834z m-0.121898-12.201988l0.121898 0.012189 1.125524-0.101581 29.438365-0.686692c0.308808-0.438833 0.662312-0.861412 1.052386-1.259613 2.681756-2.734578 6.8913-4.063266 12.876491-4.063266 1.609053 0 3.287182 0.093455 4.944995 0.251922l0.641996 0.093456c4.116089 0.841096 8.163102 1.564358 12.035395 2.137278l-0.008127 0.052822 0.02438-0.056886c7.131032 1.064576 13.477854 1.621243 18.357837 1.621244l1.365258-0.016253c24.700596-0.589174 26.529066-8.512543 26.354345-18.804797-0.146278-8.394708-1.466839-8.731959-13.453475-9.239868-16.033649-0.678565-40.266969-1.706572-60.981501-39.99473-2.42577-4.485846-6.334632-9.829041-11.173982-9.829041-3.555358 0-6.976628 2.722388-9.219551 5.005944-9.581182 9.751839-16.037712 29.556199-15.700462 48.165959 0.004063 0 0.077202 0.292555 0.495719 0.857349l1.162094 1.572484 0.42258 23.180935a5.282246 5.282246 0 0 0 0.117835 1.101145z" fill="#6E6E96" p-id="4617"></path><path d="M917.436777 1010.814701l-0.38601-21.23463c-1.072702-1.446523-1.665939-2.929615-1.694382-4.384264-0.215353-12.161356 29.710603 12.051648 55.37013 18.426912 17.151047 5.810471 39.503075 6.631251 63.423524 1.495282-4.010444 6.834414-11.677827 10.361329-28.385978 10.751403-5.509789 0.130025-12.783036-0.483529-20.763291-1.674066l0.01219 0.008127-0.02438-0.004063a233.731269 233.731269 0 0 1-12.360456-2.194164c-6.903489-0.658249-14.11985-0.130025-14.018269 4.993754l-33.570706 0.784211c0 0.02438-7.447967 1.527788-7.602372-6.968502z" fill="#6E6E96" opacity=".66" p-id="4618"></path><path d="M1048.253637 615.072877c0 16.874745-9.979382 29.324593-25.326339 29.324593-15.342894 0-19.954701-12.445785-19.954701-29.324593 0-16.886935 12.445785-30.576079 27.804931-30.576079 15.342894 0 17.476108 13.685081 17.476109 30.576079z" fill="#F9D5B3" p-id="4619"></path><path d="M1022.927298 650.492369c-11.885054 0-26.0496-6.147722-26.049601-35.419492 0-20.222877 15.204743-36.670979 33.899831-36.670979 23.575071 0 23.575071 24.769672 23.575071 36.670979-0.004063 20.852683-12.92525 35.419493-31.425301 35.419492z m7.846167-59.900672c-11.970383 0-21.710032 10.983009-21.710032 24.48118 0 23.229694 9.361766 23.229694 13.859801 23.229693 11.503107 0 19.23144-9.337386 19.23144-23.229693 0.004063-20.694215-3.827597-24.48118-11.381209-24.48118z" fill="#6E6E96" p-id="4620"></path><path d="M825.765426 985.195807c0.759831-42.205147-29.251454-80.172308-47.548343-46.353743-33.330974 61.607244-74.57719 18.329394-75.166364 52.034189-0.264112 15.541994 6.387455 24.383661 32.307031 25.001278 5.505726 0.130025 12.778973-0.483529 20.759228-1.674066l-0.01219 0.008126 0.024379-0.004063a233.731269 233.731269 0 0 0 12.360457-2.194164c6.903489-0.658249 14.123914-0.125961 14.018268 4.993755l33.578833 0.78421s7.447967 1.507472 7.594245-6.988818l0.390074-21.23463c1.068639-1.434333 1.670002-2.905235 1.694382-4.372074z" fill="#9292A8" p-id="4621"></path><path d="M817.358528 1023.991873c-0.751704 0-1.377447-0.056886-1.812217-0.113771l-39.251153-0.918298 0.097519-4.770275a16.334331 16.334331 0 0 0-3.535042-0.308808 38.804193 38.804193 0 0 0-3.47003 0.170657 233.962875 233.962875 0 0 1-12.356392 2.181974l-0.016254-0.032506 0.008127 0.028443c-7.716143 1.149904-14.684645 1.759394-20.157864 1.759394l-1.649686-0.016253c-26.817558-0.641996-38.61322-10.263811-38.255653-31.201822 0.353504-20.165991 14.087344-20.747038 25.123176-21.218377 14.859365-0.625743 33.355353-1.414017 50.778639-33.611339 7.25293-13.404716 15.907688-16.216496 21.892879-16.216496 6.163975 0 12.356393 2.990564 17.914941 8.654758 11.876927 12.092281 19.589007 34.964407 19.198934 56.930424a12.839922 12.839922 0 0 1-1.726888 6.103026l-0.357568 19.507742c-0.162531 9.028578-6.359012 13.071528-12.425468 13.071527z m-30.572016-12.978072l30.51513 0.80859 0.060949-0.020317 0.113771-0.004063c0.052822-0.21129 0.105645-0.564794 0.113772-1.101145l0.42258-23.189061 1.162094-1.568421c0.442896-0.593237 0.499782-0.889855 0.499782-0.893918 0.329125-18.569127-6.127406-38.37755-15.704525-48.133453-2.242923-2.283556-5.664193-5.001881-9.223614-5.001881-4.835287 0-8.744149 5.343195-11.16992 9.829041-20.714532 38.288159-44.947852 39.316165-60.985564 39.994731-11.978509 0.507908-13.299071 0.845159-13.449411 9.243931-0.178784 10.292254 1.649686 18.21156 26.358408 18.800733l1.357131 0.016253c4.879983 0 11.226805-0.560731 18.357838-1.621243l0.004063 0.004063c3.957621-0.589174 7.964002-1.300245 12.047584-2.137278l0.641997-0.093455c1.657813-0.158467 3.335942-0.251923 4.944995-0.251923 5.989255 0 10.198798 1.328688 12.880554 4.06733 0.390074 0.394137 0.739514 0.80859 1.052386 1.251486z" fill="#6E6E96" p-id="4622"></path><path d="M823.689097 1010.814701l0.390073-21.23463c1.076766-1.446523 1.670002-2.929615 1.694382-4.384264 0.215353-12.161356-29.714667 12.051648-55.37013 18.426912-17.15511 5.810471-39.507138 6.631251-63.419461 1.495282 4.006381 6.834414 11.677827 10.361329 28.381915 10.751403 5.505726 0.130025 12.778973-0.483529 20.759228-1.674066l-0.01219 0.008127 0.02438-0.004063a233.731269 233.731269 0 0 0 12.360456-2.194164c6.903489-0.658249 14.123914-0.130025 14.018269 4.993754l33.578833 0.784211c-0.008127 0.02438 7.439841 1.527788 7.594245-6.968502z" fill="#6E6E96" opacity=".66" p-id="4623"></path><path d="M868.405343 611.180268l-39.243027 338.055632s-1.62937 17.707715-42.172641 17.707714c-40.210084 0-37.333291-30.567953-37.333291-30.567952s-8.337823-26.667217 10.869238-217.774822c21.080226-209.806757 45.216028-248.395597 60.99369-236.246431 30.50294 23.497869 115.327688 0 115.327689 0 17.098225 0 38.678232 28.784179 50.417008 239.578309 10.694517 191.985271 1.190537 218.124263 1.190537 218.124263s1.515598 28.32503-38.637599 28.32503c-40.01911 0-41.656606-23.440983-41.656607-23.440984l-39.754997-333.760759" fill="#9FB3C9" p-id="4624"></path><path d="M949.82101 974.47691c-45.179458 0-47.653987-27.918703-47.735253-29.10924l-33.599149-282.006936-33.270025 286.578111c-0.207227 2.234796-3.42127 23.103732-48.226908 23.103732-15.533867 0-27.260454-4.225797-34.850635-12.563619-8.276874-9.097653-8.699453-20.145674-8.605998-23.607578-1.40589-7.261057-6.25743-47.849024 10.930186-218.88003 21.949765-218.473704 45.760505-243.739094 61.753522-243.739094 3.161221 0 6.196481 1.101145 9.020451 3.274992 7.903053 6.090836 21.275262 9.178919 39.738745 9.178919 32.912457 0 69.871928-10.121596 70.241685-10.223178 0.532288-0.146278 1.080829-0.219416 1.625306-0.219416 22.250446 0 44.492766 29.71873 56.503782 245.335957 9.564929 171.80709 2.929615 212.06187 1.198663 219.237598-0.073139 3.250613-0.979247 12.94963-8.780718 21.177744-7.833977 8.268747-19.930321 12.462038-35.943654 12.462038z m-81.415667-369.391542a6.094899 6.094899 0 0 1 6.050203 5.371638l39.754998 333.764823c0.097518 0.922361 2.307935 18.065282 35.606403 18.065282 12.429532 0 21.498742-2.864603 26.963835-8.516606 5.765775-5.960812 5.595118-13.140603 5.586991-13.449412a6.338695 6.338695 0 0 1 0.357568-2.348568c0.312872-1.023943 8.752276-30.803622-1.548105-215.702556-10.588872-190.152738-29.430238-232.479783-43.635417-233.788154-6.200544 1.653749-40.547335 10.410088-72.56181 10.410088-21.218377 0-37.089495-3.941368-47.174522-11.710334-0.361631-0.276302-1.048323-0.743578-1.584674-0.743577-1.072702 0-26.500623 2.645186-49.628735 232.772338-18.561001 184.699834-11.194299 215.089003-11.113033 215.344988 0.243796 0.767957 0.325061 1.584674 0.251922 2.389201 0 0.044696-0.60949 8.788845 5.530106 15.436349 5.192854 5.619497 13.851675 8.467847 25.732665 8.467847 33.367543 0 36.114311-12.31576 36.138691-12.441722l39.22271-337.933734a6.094899 6.094899 0 0 1 6.050204-5.387891z" fill="#6E6E96" p-id="4625"></path><path d="M810.394089 482.695723c4.014507-3.193727 7.760839-2.921488 11.12116-0.333188 30.50294 23.501932 115.327688 0 115.327688 0 5.302563 0 11.019578 2.775211 16.748784 12.843985-0.016253 0.004063-123.815852 27.528629-143.197632-12.510797z" opacity=".05" p-id="4626"></path><path d="M873.378781 506.465831c-35.655162 0-57.462712-7.69989-64.813162-22.884316l-0.707008-1.462776 1.267739-1.011753c4.485846-3.567548 9.30488-3.685383 13.628195-0.353504 8.634441 6.651567 22.835557 10.024078 42.221401 10.024078 33.505694 0 70.952757-10.267874 71.326577-10.373519l0.544478-0.073139c7.147285 0 13.205616 4.538668 18.516304 13.871991l1.320562 2.324189-2.592364 0.650122c-0.369757 0.093455-41.607847 9.288627-80.712722 9.288627z m-60.343569-23.124048c7.382955 12.648948 27.670844 19.060782 60.343569 19.060782 32.453308 0 67.092654-6.570302 76.99077-8.593808-5.294436-8.159039-10.011888-9.357702-13.266565-9.414588-3.535042 0.950804-39.624973 10.442594-72.131103 10.442594-20.300079 0-35.338227-3.65694-44.699993-10.869237-2.409517-1.856913-4.729642-2.072266-7.236678-0.625743z" fill="#6E6E96" opacity=".05" p-id="4627"></path><path d="M1004.662916 134.095915c-1.503409-14.359583-10.150039-25.972398-21.401224-30.718293-17.910878-61.566611-77.770917-103.454824-143.811185-96.547271C780.919155 12.953693 735.065195 55.573294 722.042426 109.708191c-14.53024 4.595554-24.265827 20.543875-22.400787 38.340981 1.61718 15.566373 11.645321 27.898387 24.286143 31.750363 18.130294 61.25374 77.81155 102.845334 143.652717 95.958098 59.116462-6.184291 105.29142-49.596229 117.757522-104.515337 12.799289-5.725142 21.051783-20.641393 19.324895-37.146381z" fill="#EDC0AF" p-id="4628"></path><path d="M853.367194 278.54097h-0.01219c-59.888482-0.004063-113.629243-39.889086-131.064719-97.132382-13.209679-4.534605-23.0631-17.707715-24.664026-33.144063-1.893482-18.053092 7.610498-34.712484 22.713659-40.116628 13.92075-55.869912 61.562548-97.335545 118.903362-103.332926a138.549255 138.549255 0 0 1 14.436785-0.755768c60.20948 0 114.051823 40.185704 131.267882 97.843453 11.937876 5.444777 20.231003 17.606133 21.738475 31.986033 1.730951 16.504988-6.289936 32.286714-19.58088 38.783877a137.163681 137.163681 0 0 1-119.305626 105.112636 139.833247 139.833247 0 0 1-14.432722 0.755768z m0.308808-270.418501c-4.65244 0-9.365829 0.247859-14.014205 0.731388-55.999937 5.85923-102.475577 46.581285-115.64056 101.333799l-0.268176 1.117398-1.097082 0.345378c-13.900434 4.396454-22.729912 19.61745-20.990833 36.191513 1.479029 14.241748 10.666074 26.305586 22.855873 30.019412l1.048322 0.320998 0.308809 1.048323c16.598443 56.077139 69.018642 95.242963 127.476854 95.247026h0.01219a135.916259 135.916259 0 0 0 14.002016-0.731388 133.096352 133.096352 0 0 0 115.99-102.942853l0.22348-0.987373 0.930488-0.414454c12.267001-5.497599 19.719031-19.926258 18.130294-35.086304-1.369321-13.059338-9.284564-24.464927-20.170054-29.056418l-0.893918-0.37382-0.268176-0.930488c-16.411533-56.426579-68.896744-95.832136-127.635322-95.832137z" fill="#6E6E96" p-id="4629"></path><path d="M853.367194 282.604236h-0.01219c-60.997754-0.004063-115.794964-40.181641-134.351901-98.095375-13.681018-5.623561-23.733539-19.601197-25.419794-35.82582-1.999127-19.089225 7.683637-36.813193 23.335338-43.554151 14.9772-56.491592 63.565738-98.253843 121.89799-104.356869a143.364226 143.364226 0 0 1 14.859365-0.776084c61.400017 0 116.363821 40.575778 134.63633 99.025863 12.336077 6.379328 20.82424 19.308642 22.412977 34.440246 1.82847 17.463919-6.346822 34.237082-20.109105 41.949161a141.210695 141.210695 0 0 1-122.397772 106.412882 143.335783 143.335783 0 0 1-14.851238 0.780147z m0.308808-270.4185c-4.506162 0-9.077337 0.239733-13.591626 0.711071-54.293365 5.680446-99.346862 45.159142-112.117707 98.241654l-0.800464 3.348131-3.287182 1.036133c-12.067901 3.815407-19.714968 17.228249-18.174991 31.892577 1.312435 12.640822 9.349576 23.310959 19.999397 26.557509l3.132779 0.954868 0.930488 3.144968c16.090535 54.36244 66.909807 92.333664 123.580182 92.337727h0.012189c4.498036 0 9.065147-0.239733 13.579436-0.711072a129.041212 129.041212 0 0 0 112.450896-99.801947l0.674502-2.966185 2.779274-1.243359c10.682327-4.786528 17.159174-17.516741 15.749221-30.958026-1.214917-11.608752-8.167165-21.710032-17.703652-25.736729l-2.673629-1.125525-0.80859-2.787401C961.498837 50.384502 910.614553 12.185736 853.676002 12.185736z" fill="#6E6E96" p-id="4630"></path><path d="M658.846445 585.874245m-26.545319 0a26.545319 26.545319 0 1 0 53.090638 0 26.545319 26.545319 0 1 0-53.090638 0Z" fill="#F9D5B3" p-id="4631"></path><path d="M658.846445 618.514463c-18.00027 0-32.640218-14.644012-32.640218-32.640218s14.644012-32.640218 32.640218-32.640218 32.640218 14.644012 32.640218 32.640218-14.639949 32.640218-32.640218 32.640218z m0-53.090637c-11.275564 0-20.450419 9.174855-20.450419 20.450419s9.174855 20.450419 20.450419 20.45042 20.450419-9.174855 20.450419-20.45042-9.170792-20.450419-20.450419-20.450419z" fill="#6E6E96" p-id="4632"></path><path d="M983.477045 104.117136c5.794218 55.39451-75.694588 144.806685-119.663193 151.442-34.732801 5.241614-146.956153-57.40989-145.481188-113.084766 2.145405-81.013404 52.712754-128.147293 120.447404-135.229566 67.71027-7.0904 138.898696 41.473759 144.696977 96.872332z" fill="#B89772" p-id="4633"></path><path d="M859.352385 261.95878c-27.223884 0-83.825184-26.854127-118.822097-62.793718-18.979517-19.487425-28.759799-39.145508-28.28846-56.853222 2.096645-79.152428 50.339807-133.23044 125.900307-141.129429a134.904505 134.904505 0 0 1 13.973573-0.723262c67.462411 0 131.674209 48.145643 137.419667 103.024118 6.306189 60.294809-79.993524 151.336354-124.819478 158.101693a36.325601 36.325601 0 0 1-5.363512 0.37382z m-7.232614-249.309832c-4.26643 0-8.545049 0.22348-12.705834 0.658249-69.002389 7.216361-113.064449 56.771957-114.990437 129.329704-0.377884 14.34333 8.211861 30.953963 24.838747 48.027808 32.420802 33.290341 85.795868 59.108335 110.090138 59.108335 1.300245 0 2.494846-0.081265 3.551295-0.239732 39.02361-5.887673 120.008571-92.199576 114.510972-144.778243-5.046577-48.206592-64.764402-92.106121-125.294881-92.106121z" fill="#6E6E96" p-id="4634"></path><path d="M1040.045839 587.682399c-12.275128-173.359258-46.565032-250.679153-61.436587-277.114764-4.087646-11.70627-13.997952-20.783607-31.392796-26.854127 0 0 0.004063 0 0 0-1.852849-0.138151-4.205481-2.181974-6.216797-2.181974-0.255986-0.02438-0.520098 0-0.776084-0.016253-15.322577-4.319252-34.887205-6.870983-58.088456-6.870983-23.44911 0-45.134762 2.604554-62.84654 7.005071-0.763894-0.01219-2.645186 0.918298-3.470029 0.918298-0.390074 0.264112 0.381947-0.296618 0 0-17.862119 4.82716-31.189632 11.559993-37.491759 19.312705l-0.065012 0.044696c-2.511099 0.694819-4.729642 3.807281-4.729642 3.80728s0.455086-1.722825 0 0c-8.492227 7.545486-26.358409 26.943519-37.390177 63.996445-13.201552 44.338362-39.624973 85.856817-77.287388 189.62045l22.047283 43.895466s53.094701-77.770917 92.979723-159.349116c3.530978 19.597133 8.626314 41.03899 15.814233 64.195545 0.62168 3.279056 1.552168 6.631251 3.132778 9.881863l0.004063 0.008127c6.765338 13.908561 25.86269 25.952082 88.632029 22.543002 81.440047-4.424897 83.841437-4.587428 88.404485-35.740491l33.115621 105.868404 37.061052-22.969644z" fill="#FFFFFF" p-id="4635"></path><path d="M1002.984787 616.73069a6.074583 6.074583 0 0 1-5.814535-4.274557l-26.772861-85.580515c-8.033078 15.342894-27.309213 16.391216-88.603586 19.723095-54.626552 2.962121-84.264017-5.07502-94.434373-25.943956l-0.016253-0.032506c-1.580611-3.250613-2.746768-6.870983-3.567547-11.060211a562.295111 562.295111 0 0 1-12.405153-47.048561c-38.418183 75.060719-84.934456 143.421112-85.430174 144.1525-1.21898 1.779711-3.254676 2.750831-5.444777 2.645186a6.107089 6.107089 0 0 1-5.03845-3.348131l-22.047283-43.895466a6.094899 6.094899 0 0 1-0.280366-4.814971c20.259446-55.825216 37.162634-93.426683 50.733944-123.637068 11.413715-25.395415 20.42604-45.459824 26.439674-65.64613 10.852984-36.451562 28.060917-56.58911 38.068742-65.804599 0.666376-1.300245 1.556231-2.100709 2.446086-2.584237a15.602943 15.602943 0 0 1 3.815407-2.771148c9.122033-10.145976 26.065853-16.444039 39.096749-20.007523 0.540414-0.207227 1.105208-0.349441 1.665939-0.406327l0.215353-0.077202c0.7964-0.272239 1.674066-0.576984 2.653313-0.711071 18.816986-4.62806 40.884586-7.074147 63.870483-7.074147 22.583634 0 42.4205 2.316062 58.982374 6.887236 2.442023 0.032506 4.469593 1.03207 5.952686 1.767521 0.341314 0.170657 0.666376 0.349441 0.98331 0.471339 0.402263 0.056886 0.792337 0.150341 1.174284 0.284429 18.244066 6.367138 29.999095 16.484671 34.952217 30.076297 18.1628 32.489878 50.083821 111.682938 61.948558 279.219536a6.094899 6.094899 0 0 1-2.868666 5.61137l-37.061052 22.953392a6.029887 6.029887 0 0 1-3.214043 0.926425z m-33.115621-118.05414c2.641123 0 5.010007 1.714698 5.814534 4.274556l30.771116 98.363551 27.244201-16.874745c-12.417342-169.56823-46.325299-245.860119-60.404517-270.885776a6.216797 6.216797 0 0 1-0.438833-0.979247c-3.559421-10.190672-12.429532-17.691462-27.10605-22.920886-1.60499-0.300682-2.962121-0.971121-4.087646-1.523725-0.365694-0.182847-0.731388-0.390074-1.093018-0.520098a15.38759 15.38759 0 0 0-0.507909-0.008126l-0.215353-0.004063a5.895799 5.895799 0 0 1-1.279929-0.215354c-15.411969-4.347695-34.927837-6.64344-56.434706-6.64344-22.189497 0-43.411937 2.360758-61.375638 6.822224a6.704389 6.704389 0 0 1-0.702945 0.134088l-0.475402 0.162531c-0.731388 0.251923-1.527788 0.528225-2.409517 0.678565-0.158467 0.040633-0.316935 0.077202-0.475402 0.105645-16.415596 4.514289-28.349409 10.568556-33.635719 17.077908a6.107089 6.107089 0 0 1-1.308371 1.198664 6.013634 6.013634 0 0 1-1.860976 0.873602c-0.121898 0.085329-0.589174 0.528225-1.003627 1.003627a6.159912 6.159912 0 0 1-1.836597 1.966621c-7.427651 6.749085-24.529939 25.322276-35.061925 60.697072-6.241177 20.962391-15.403843 41.351861-27.004468 67.161729-13.290944 29.580579-29.787805 66.28-49.49871 120.333633l16.167737 32.185132c14.814669-22.4658 55.18322-85.344846 86.758862-149.930464a6.103026 6.103026 0 0 1 11.478728 1.596864c3.730078 20.706405 8.992008 42.05887 15.635448 63.472283 0.069076 0.219416 0.121898 0.442896 0.166594 0.666376 0.625743 3.299372 1.458713 5.952685 2.616744 8.337822l0.01219 0.02438c2.368884 4.871856 9.581182 19.698715 62.984691 19.698715 6.143659 0 12.815542-0.195037 19.840929-0.576984 78.85581-4.282683 78.85581-4.282683 82.703723-30.535446a6.103026 6.103026 0 0 1 6.021761-5.217234z" fill="#6E6E96" p-id="4636"></path><path d="M913.24755 233.840977a6.086773 6.086773 0 0 1-5.005944-9.564929c0.381947-0.548541 37.711175-55.386383 13.526613-98.176641a6.094899 6.094899 0 0 1 10.609189-6.001444c27.975589 49.490584-12.392962 108.631425-14.127977 111.126271-1.178347 1.702509-3.075893 2.616744-5.001881 2.616743zM969.840723 510.841969a6.094899 6.094899 0 0 1-5.928305-4.705262L935.363908 384.539399a6.094899 6.094899 0 1 1 11.864738-2.783338l28.548509 121.601372a6.094899 6.094899 0 0 1-5.936432 7.484536zM773.865325 449.966113a6.094899 6.094899 0 0 1-5.542295-8.618188l21.149301-46.50002a6.094899 6.094899 0 1 1 11.092717 5.046577l-21.149301 46.50002a6.094899 6.094899 0 0 1-5.550422 3.571611z" fill="#6E6E96" p-id="4637"></path><path d="M71.769473 96.084059s-68.384772 135.550565 79.737539 239.163856c0 0 85.141683-18.284698 74.983516-117.834724 0 0 32.506131-6.094899 32.506131 56.885729 0 0 52.822462-107.75376 0-192.025903 0 0 142.588142 189.896752-107.489647 318.95828 0 0-191.794297-81.102796-79.737539-305.147238z" fill="#6E6E96" opacity=".15" p-id="4638"></path><path d="M8.691327 414.900125s23.900133 21.754728 30.433864 0c6.541859-21.750665 16.700025-42.066996 40.063806-31.908831s39.616847 53.058132 39.616847 78.217877c0 25.155682 56.885729 13.205616 61.964812-26.411231s37.077305-55.362004 50.790829-41.64848 27.386415-9.593372 26.008967-31.209949l18.455356 60.550795s-19.853119 21.279326-37.743681 21.279326c-17.898688 0-9.012325-48.064377-31.92102-25.147555-22.912759 22.924949-7.907116 55.305118-1.401827 61.818533 6.505289 6.513416-57.157967 21.275262-117.371511 0.01219 0 0 28.166562-70.030395-12.466101-77.141111 0 0-5.103463-5.814534-13.95732 10.759529-8.845731 16.58219-47.812455 65.239804-52.473021 0.828907z" fill="#6E6E96" opacity=".15" p-id="4639"></path><path d="M204.975533 480.44061s39.803757 14.631822 39.803757 98.607348v75.848992s-16.3709 11.795662-49.807519 18.447229c-35.525137-126.802352 7.139159 2.051949-84.934456 2.05195-25.033784-3.067766-53.626989-9.382082-85.852754-20.499179v25.480743s126.794226 64.845667 259.699604-5.083146c-0.004063-0.004063 7.248867-175.618434-78.908632-194.853937z" fill="#6E6E96" opacity=".15" p-id="4640"></path><path d="M99.212774 886.909457s-29.153936-145.33491 12.831795-145.33491 41.985731 177.430651 41.985731 177.430651-5.412271-177.430651 46.05306-177.430651 14.33114 172.400327 14.331141 172.400327l32.083551-222.317553s-91.809503 31.165253-185.597816 2.62487l38.312538 192.627266z" fill="#6E6E96" opacity=".15" p-id="4641"></path><path d="M395.652432 621.996683s50.933043 27.203568 50.933043 70.818669c0 0-3.762585 48.909537 48.909537 48.909536s-3.051513-103.345116 141.600768-140.65809l6.749086 6.749085-71.806043 40.047553s-23.367845 8.71977-23.367844 98.619537c0 0 8.341886 29.94221-42.132009 29.94221s-77.758728 5.440714-68.856111-39.088622c8.902617-44.529336-36.134627-93.499821-47.816518-103.211028 0 0-24.330839-40.848016-40.843953-40.848017 0 0.008127 19.641829 0.325061 46.630044 28.719167z" fill="#6E6E96" opacity=".15" p-id="4642"></path><path d="M454.712008 879.469617s4.063266-90.488941 35.216329-90.488941 31.153063 90.484878 31.153063 90.484878l-21.669399 0.260049-9.4796-70.428596-13.319387 70.168547-21.901006 0.004063z" fill="#6E6E96" opacity=".15" p-id="4643"></path><path d="M632.301126 585.874245s28.861381 19.479299 58.084392-33.916084 71.781663-184.204116 111.061259-184.204116c0 0 28.442864-4.063266 12.189799 35.21633s-16.249002 111.061259 25.736729 111.061258h78.555128s56.207163 2.031633 1.353067-140.861254c0 0-3.721952-48.421945 33.863262-10.836731C974.814161 384.003047 1024.491655 597.30015 1024.491655 597.30015s10.531986 48.369122 23.774172 17.768664c0 0-11.287754 44.419627-40.246653 22.209813v-29.783742l-25.06629-62.314252s-92.654662 43.578531-197.263454 0l7.139159-27.248264-23.875753-64.853794-88.042855 150.125501c-0.016253 0.004063-48.608855 22.002587-48.608855-17.329831z" fill="#6E6E96" opacity=".15" p-id="4644"></path><path d="M757.356274 751.407652s-14.006079 181.140413 29.869071 181.140413 24.213004-349.440904 81.179998-349.440904 29.430238 349.440904 64.536859 349.440904c35.098495 0 54.321808-79.233693 54.321807-243.79598 0 0 20.019713 263.584087-8.719769 271.609038-28.731356 8.033078-73.289135 19.357401-73.289135-39.783441 0-59.136778-30.681724-286.679692-30.681724-286.679692l-45.423254 315.33791s-48.763259 28.349409-77.116732 0l5.322879-197.828248z" fill="#6E6E96" opacity=".15" p-id="4645"></path><path d="M743.66713 59.774711s-54.256795 90.97247 63.874546 143.417048 113.771457-36.569397 99.550025-79.233693c0 0-24.379598-36.569397 0-36.569397s40.632663 22.347965 40.632664 40.632663 30.559826-37.711175 10.202861-75.743347c0 0 84.060854 101.236281-94.109311 203.268961-0.004063 0.01219-228.721262-56.792273-120.150785-195.772235z" fill="#6E6E96" opacity=".15" p-id="4646"></path></svg>