<?xml version="1.0" standalone="no"?><!DOCTYPE svg PUBLIC "-//W3C//DTD SVG 1.1//EN" "http://www.w3.org/Graphics/SVG/1.1/DTD/svg11.dtd"><svg t="1711552730216" class="icon" viewBox="0 0 1354 1024" version="1.1" xmlns="http://www.w3.org/2000/svg" p-id="6321" xmlns:xlink="http://www.w3.org/1999/xlink" width="264.453125" height="200"><path d="M1257.658667 500.112h78.309333v90.490667h-78.309333z" fill="#FF8F8F" p-id="6322"></path><path d="M1335.957333 571.936H1257.653333a18.666667 18.666667 0 0 1 18.666667 18.666667V500.112a18.666667 18.666667 0 0 1-18.666667 18.666667h78.304a18.666667 18.666667 0 0 1-18.666666-18.666667v90.490667c0-10.298667 8.368-18.666667 18.666666-18.666667z m0-90.490667H1257.653333a18.666667 18.666667 0 0 0-18.666666 18.666667v90.490667a18.666667 18.666667 0 0 0 18.666666 18.666666h78.304a18.666667 18.666667 0 0 0 18.666667-18.666666V500.112a18.666667 18.666667 0 0 0-18.666667-18.666667z" fill="#6E6E96" p-id="6323"></path><path d="M1163.877333 785.888h55.493334c28.714667 0 52.208-23.482667 52.208-52.197333V415.365333c0-28.709333-23.493333-52.202667-52.208-52.202666h-311.861334l-675.482666-3.338667-139.408 76.501333c-26.32 11.482667-47.850667 44.368-47.850667 73.088v224.272c0 28.72 21.936 52.208 48.746667 52.208h48.736" fill="#A7BFCC" p-id="6324"></path><path d="M1163.877333 804.554667h55.493334c39.077333 0 70.874667-31.792 70.874666-70.864V415.365333c0-39.077333-31.797333-70.869333-70.874666-70.869333h-311.861334l-675.392-3.338667a18.666667 18.666667 0 0 0-9.072 2.304L83.642667 419.962667c0.490667-0.272 0.997333-0.517333 1.514666-0.746667C52.042667 433.664 26.101333 473.28 26.101333 509.413333v224.272c0 39.082667 30.24 70.874667 67.413334 70.874667h48.736a18.666667 18.666667 0 1 0 0-37.333333h-48.736c-16.586667 0-30.08-15.045333-30.08-33.541334V509.413333c0-21.301333 17.125333-47.456 36.650666-55.978666 0.517333-0.224 1.024-0.474667 1.514667-0.746667l139.408-76.501333a18.650667 18.650667 0 0 1-9.072 2.304l675.482667 3.338666h311.946666a33.573333 33.573333 0 0 1 33.541334 33.536v318.325334a33.568 33.568 0 0 1-33.541334 33.530666h-55.488a18.666667 18.666667 0 1 0 0 37.333334z" fill="#6E6E96" p-id="6325"></path><path d="M1302.901333 779.152c0 29.333333-24 53.333333-53.333333 53.333333H72c-29.333333 0-53.333333-24-53.333333-53.333333v-38.170667c0-29.333333 24-53.333333 53.333333-53.333333h1177.568c29.333333 0 53.333333 24 53.333333 53.333333v38.170667z" fill="#F0F0FF" p-id="6326"></path><path d="M1249.605333 778.970667H82.208c-26.064 0-47.824-13.445333-52.069333-30.96-0.490667 2.026667-0.805333 4.096-0.805334 6.213333v26.597333c0 20.437333 23.792 37.173333 52.874667 37.173334h1167.397333c29.082667 0 52.874667-16.736 52.874667-37.173334v-26.597333c0-2.117333-0.314667-4.186667-0.8-6.213333-4.250667 17.504-26.010667 30.96-52.074667 30.96z" fill="#6E6E96" opacity=".15" p-id="6327"></path><path d="M1284.234667 779.152c0 19.114667-15.552 34.666667-34.666667 34.666667H72a34.709333 34.709333 0 0 1-34.666667-34.666667v-38.170667c0-19.114667 15.552-34.666667 34.666667-34.666666h1177.568c19.114667 0 34.666667 15.552 34.666667 34.666666v38.170667z m37.333333-38.170667c0-39.696-32.298667-72-72-72H72c-39.701333 0-72 32.304-72 72v38.170667c0 39.701333 32.298667 72 72 72h1177.568c39.701333 0 72-32.298667 72-72v-38.170667z" fill="#6E6E96" p-id="6328"></path><path d="M336.293333 798.256m-207.077333 0a207.077333 207.077333 0 1 0 414.154667 0 207.077333 207.077333 0 1 0-414.154667 0Z" fill="#CACAD6" p-id="6329"></path><path d="M524.709333 798.256c0 103.888-84.522667 188.410667-188.416 188.410667s-188.410667-84.522667-188.410666-188.410667 84.522667-188.410667 188.410666-188.410667 188.416 84.506667 188.416 188.410667z m-188.416-225.744c-124.474667 0-225.744 101.264-225.744 225.744 0 124.474667 101.269333 225.744 225.744 225.744s225.749333-101.269333 225.749334-225.744c0-124.48-101.269333-225.744-225.749334-225.744z" fill="#6E6E96" p-id="6330"></path><path d="M344.261333 799.6m-111.952 0a111.952 111.952 0 1 0 223.904 0 111.952 111.952 0 1 0-223.904 0Z" fill="#F0F0FF" p-id="6331"></path><path d="M437.546667 799.6c0 51.445333-41.850667 93.285333-93.285334 93.285333-51.44 0-93.290667-41.856-93.290666-93.285333s41.850667-93.285333 93.290666-93.285333c51.434667 0 93.285333 41.84 93.285334 93.285333z m-93.285334-130.618667c-72.026667 0-130.624 58.592-130.624 130.618667s58.597333 130.618667 130.624 130.618667c72.021333 0 130.618667-58.592 130.618667-130.618667s-58.597333-130.618667-130.618667-130.618667z" fill="#6E6E96" p-id="6332"></path><path d="M340.730667 803.856m-49.322667 0a49.322667 49.322667 0 1 0 98.645333 0 49.322667 49.322667 0 1 0-98.645333 0Z" fill="#6E6E96" p-id="6333"></path><path d="M342.896 704.554667c-55.056 0-99.690667 44.624-99.690667 99.68 0 55.050667 44.634667 99.68 99.690667 99.68s99.685333-44.629333 99.685333-99.68c0.005333-55.056-44.624-99.68-99.685333-99.68z m-2.592 189.189333c-43.989333 0-79.653333-35.653333-79.653333-79.642667 0-44 35.664-79.653333 79.653333-79.653333 43.984 0 79.637333 35.653333 79.637333 79.653333 0 43.994667-35.653333 79.642667-79.637333 79.642667z" fill="#6E6E96" opacity=".15" p-id="6334"></path><path d="M317.626667 963.568h37.333333v41.765333h-37.333333zM421.509333 989.936l-20.874666-36.16 32.330666-18.666667 20.874667 36.16zM503.626667 924.608l-36.16-20.88 18.666666-32.330667 36.16 20.88zM500.448 789.637333h41.76v37.333334h-41.76zM526.741333 723.098667l-36.165333 20.885333-18.672-32.330667 36.170667-20.885333zM461.482667 640.922667l-20.885334 36.170666-32.325333-18.666666 20.885333-36.170667zM326.512 602.384h37.333333v41.749333h-37.333333zM260.042667 617.850667l20.874666 36.165333-32.336 18.666667-20.874666-36.165334z" fill="#6E6E96" p-id="6335"></path><path d="M812.650667 599.418667s150.016-178.666667 368.682666 0h71.578667l-3.344 69.562666h-436.917333v-69.562666z" fill="#6E6E96" opacity=".15" p-id="6336"></path><path d="M177.808 683.114667l36.16 20.88-18.661333 32.32-36.16-20.874667zM139.264 780.752h41.76v37.333333h-41.76zM154.704 884.570667l36.16-20.874667 18.666667 32.341333-36.16 20.874667zM219.978667 966.832l20.88-36.16 32.32 18.666667-20.874667 36.16z" fill="#6E6E96" p-id="6337"></path><path d="M997.552 798.256m-207.077333 0a207.077333 207.077333 0 1 0 414.154666 0 207.077333 207.077333 0 1 0-414.154666 0Z" fill="#CACAD6" p-id="6338"></path><path d="M1185.962667 798.256c0 103.888-84.528 188.410667-188.410667 188.410667s-188.410667-84.522667-188.410667-188.410667 84.528-188.410667 188.410667-188.410667 188.410667 84.506667 188.410667 188.410667z m-188.410667-225.744c-124.474667 0-225.744 101.264-225.744 225.744 0 124.474667 101.269333 225.744 225.744 225.744s225.744-101.269333 225.744-225.744c0-124.48-101.269333-225.744-225.744-225.744z" fill="#6E6E96" p-id="6339"></path><path d="M1005.514667 799.6m-111.952 0a111.952 111.952 0 1 0 223.904 0 111.952 111.952 0 1 0-223.904 0Z" fill="#F0F0FF" p-id="6340"></path><path d="M1098.8 799.6c0 51.445333-41.856 93.285333-93.285333 93.285333s-93.285333-41.856-93.285334-93.285333 41.856-93.285333 93.285334-93.285333 93.285333 41.84 93.285333 93.285333z m-93.285333-130.618667c-72.026667 0-130.618667 58.592-130.618667 130.618667s58.592 130.618667 130.618667 130.618667 130.618667-58.592 130.618666-130.618667-58.592-130.618667-130.618666-130.618667z" fill="#6E6E96" p-id="6341"></path><path d="M1001.994667 803.856m-49.322667 0a49.322667 49.322667 0 1 0 98.645333 0 49.322667 49.322667 0 1 0-98.645333 0Z" fill="#6E6E96" p-id="6342"></path><path d="M1004.154667 704.554667c-55.056 0-99.690667 44.624-99.690667 99.68 0 55.050667 44.634667 99.68 99.690667 99.68 55.050667 0 99.685333-44.629333 99.685333-99.68 0.005333-55.056-44.629333-99.68-99.685333-99.68z m-2.592 189.189333c-43.994667 0-79.658667-35.653333-79.658667-79.642667 0-44 35.664-79.653333 79.658667-79.653333 43.984 0 79.637333 35.653333 79.637333 79.653333 0 43.994667-35.653333 79.642667-79.637333 79.642667z" fill="#6E6E96" opacity=".15" p-id="6343"></path><path d="M978.885333 963.568h37.333334v41.765333h-37.333334zM1082.72 989.898667l-20.885333-36.165334 32.336-18.677333 20.885333 36.170667zM1164.922667 924.608l-36.16-20.88 18.661333-32.325333 36.16 20.88zM1161.706667 789.637333h41.749333v37.333334h-41.749333zM1187.978667 723.093333l-36.165334 20.874667-18.666666-32.330667 36.170666-20.874666zM1122.645333 640.976l-20.885333 36.170667-32.336-18.672 20.885333-36.170667zM987.765333 602.384h37.333334v41.749333h-37.333334zM921.248 617.770667l20.874667 36.170666-32.330667 18.656-20.874667-36.170666zM839.072 683.114667l36.16 20.88-18.666667 32.325333-36.16-20.88zM800.522667 780.752h41.76v37.333333h-41.76zM815.984 884.506667l36.165333-20.874667 18.661334 32.330667-36.170667 20.874666zM881.253333 966.789333l20.869334-36.16 32.336 18.661334-20.874667 36.16z" fill="#6E6E96" p-id="6344"></path><path d="M44.768 510.554667h87.008v114.842666H44.768z" fill="#FFBF00" p-id="6345"></path><path d="M131.776 606.741333H44.768a18.666667 18.666667 0 0 1 18.666667 18.666667V510.554667a18.666667 18.666667 0 0 1-18.666667 18.666666h87.008a18.666667 18.666667 0 0 1-18.666667-18.666666v114.842666a18.661333 18.661333 0 0 1 18.666667-18.656z m0-114.853333H44.768a18.666667 18.666667 0 0 0-18.666667 18.666667v114.842666a18.666667 18.666667 0 0 0 18.666667 18.666667h87.008a18.666667 18.666667 0 0 0 18.666667-18.666667V510.554667a18.666667 18.666667 0 0 0-18.666667-18.666667z" fill="#6E6E96" p-id="6346"></path><path d="M273.792 419.68c-28.714667-0.138667-45.429333-22.752-37.146667-50.24l90.629334-300.789333C335.557333 41.157333 365.829333 18.666667 394.538667 18.666667h302.789333c28.709333 0 52.202667 23.493333 52.202667 52.208v298.954666c0 28.714667-23.493333 52.090667-52.202667 51.946667l-423.536-2.096z" fill="#A7BFCC" p-id="6347"></path><path d="M249.770667 365.632L345.018667 74.453333C351.04 54.485333 374.117333 37.333333 394.538667 37.333333h302.789333a33.578667 33.578667 0 0 1 33.536 33.541334v616.768a18.666667 18.666667 0 0 1 18.666667-18.666667h-147.754667a18.666667 18.666667 0 0 1 17.653333 12.597333c-35.802667-104.149333-115.386667-169.28-230.138666-188.341333-84.821333-14.090667-158.250667 1.936-161.333334 2.624a18.688 18.688 0 0 1 22.741334 18.218667V359.824a18.666667 18.666667 0 1 0-37.333334 0V514.08c0 5.669333 2.570667 11.024 6.997334 14.565333s10.213333 4.885333 15.744 3.658667c11.082667-2.458667 272.714667-57.664 348.026666 161.418667a18.666667 18.666667 0 0 0 17.653334 12.592h147.754666c10.314667 0 18.666667-8.352 18.666667-18.666667V70.874667C768.197333 31.792 736.405333 0 697.328 0H394.538667c-37.056 0-74.448 27.786667-85.136 63.269333 0.128-0.421333-95.114667 290.752-95.114667 290.752a18.666667 18.666667 0 0 0 35.482667 11.610667z" fill="#6E6E96" p-id="6348"></path><path d="M351.370667 361.712c-19.146667-0.096-30.288-15.168-24.768-33.498667l60.426666-200.544c5.52-18.330667 25.701333-33.328 44.842667-33.328h201.882667c19.141333 0 34.8 15.664 34.8 34.810667v199.322667c0 19.146667-15.658667 34.730667-34.8 34.634666l-282.384-1.397333z" fill="#F0F0FF" p-id="6349"></path><path d="M351.461333 343.045333c-3.178667-0.016-5.632-0.869333-6.72-2.341333-1.088-1.472-1.184-4.058667-0.266666-7.104l60.426666-200.544c3.162667-10.490667 16.016-20.048 26.970667-20.048h201.882667a16.16 16.16 0 0 1 16.133333 16.144v199.322667c0 4.256-1.674667 8.272-4.725333 11.306666a15.856 15.856 0 0 1-11.312 4.666667l-282.389334-1.402667z m282.202667 38.730667a52.917333 52.917333 0 0 0 37.834667-15.530667 52.938667 52.938667 0 0 0 15.722666-37.770666V129.152c0-29.488-23.984-53.477333-53.456-53.477333H431.877333c-27.296 0-54.848 20.474667-62.714666 46.613333l-60.426667 200.544c-4.346667 14.426667-2.165333 29.029333 5.994667 40.064 8.154667 11.034667 21.477333 17.408 36.554666 17.482667l282.378667 1.397333z" fill="#6E6E96" p-id="6350"></path><path d="M351.370667 361.712c-19.146667-0.096-30.288-15.168-24.768-33.498667l60.426666-200.544c5.52-18.330667 25.701333-33.328 44.842667-33.328h201.882667c19.141333 0 34.8 15.664 34.8 34.810667v213.466667c0 19.146667-15.658667 15.584-34.8 15.488l-282.384 3.605333z" fill="#F0F0FF" p-id="6351"></path><path d="M351.461333 343.045333c-3.178667-0.016-5.632-0.869333-6.72-2.341333-1.088-1.472-1.184-4.058667-0.266666-7.104l60.426666-200.544c3.162667-10.490667 16.016-20.048 26.970667-20.048h201.882667a16.16 16.16 0 0 1 16.133333 16.144v213.466667c0 0.965333-0.085333 1.381333-0.085333 1.386666 0.357333-1.701333 2.613333-4.112 4.314666-4.608-1.850667 0.544-7.754667 0.357333-12.064 0.224-2.613333-0.08-5.312-0.165333-8.202666-0.181333l-282.389334 3.605333z m282.202667 33.733334c2.410667 0.010667 4.864 0.090667 7.232 0.16 12.432 0.384 26.517333 0.816 36.832-9.184 6.298667-6.106667 9.488-14.56 9.488-25.130667V129.152c0-29.488-23.989333-53.477333-53.461333-53.477333H431.877333c-27.296 0-54.848 20.474667-62.714666 46.613333l-60.426667 200.544c-4.346667 14.426667-2.165333 29.029333 5.994667 40.064 8.154667 11.034667 21.477333 17.408 36.554666 17.482667l282.378667-3.6z" fill="#6E6E96" p-id="6352"></path><path d="M398.464 154.421333h251.424V98.352H414.176z" fill="#6E6E96" opacity=".15" p-id="6353"></path><path d="M768.197333 420.746667H1202.666667s50.245333-5.376 50.245333 50.245333v-55.626667s4.496-33.536-33.541333-33.536-451.173333-0.688-451.173334-0.688v39.605334z" fill="#FFFFFF" opacity=".24" p-id="6354"></path><path d="M416 220.746667l13.333333-42.666667h74.666667v42.666667z" fill="#FFFFFF" p-id="6355"></path><path d="M768.197333 420.746667h44.453334v248.229333h-44.453334z" fill="#6E6E96" opacity=".15" p-id="6356"></path><path d="M634.389333 614.48C504.544 393.2 250.693333 452.746667 250.693333 452.746667l-6.997333 46.768c278.368-11.045333 375.733333 182.069333 375.733333 182.069333l41.898667-12.592h69.530667v-54.506667l-96.469334-0.005333z" fill="#6E6E96" opacity=".15" p-id="6357"></path></svg>