<?xml version="1.0" standalone="no"?><!DOCTYPE svg PUBLIC "-//W3C//DTD SVG 1.1//EN" "http://www.w3.org/Graphics/SVG/1.1/DTD/svg11.dtd"><svg t="1711552671525" class="icon" viewBox="0 0 1393 1024" version="1.1" xmlns="http://www.w3.org/2000/svg" p-id="3705" xmlns:xlink="http://www.w3.org/1999/xlink" width="272.0703125" height="200"><path d="M1338.435354 240.350685v610.276258h-124.64144l-58.736781-105.61559V346.364491" fill="#FF8FAA" p-id="3706"></path><path d="M163.70527 346.35896h991.351863v209.278818H163.70527z" fill="#BAEFFF" p-id="3707"></path><path d="M163.70527 365.716656h991.351863a19.352165 19.352165 0 0 1-19.357696-19.357696v209.278818a19.357696 19.357696 0 0 1 19.357696-19.357696H163.70527a19.357696 19.357696 0 0 1 19.357697 19.357696V346.35896a19.357696 19.357696 0 0 1-19.357697 19.357696z m0 209.278818h991.351863c10.690979 0 19.357696-8.655656 19.357696-19.357696V346.35896a19.357696 19.357696 0 0 0-19.357696-19.357696H163.70527a19.357696 19.357696 0 0 0-19.357696 19.357696v209.278818a19.357696 19.357696 0 0 0 19.357696 19.357696z" fill="#6E6E96" p-id="3708"></path><path d="M1134.997029 555.637778H163.69974l-107.484991 66.977628v144.082098s-15.480626 81.551208 81.551209 81.551208c14.103464 0 30.651529-0.099554 50.053471-0.099554l947.1776-5.52524" fill="#FF8FAA" p-id="3709"></path><path d="M1134.997029 536.280082H163.69974c-3.617124 0-7.167878 1.028723-10.237456 2.925777l-107.48499 66.977629a19.379819 19.379819 0 0 0-9.120241 16.431918v144.082098c0-1.211239 0.116146-2.422477 0.342908-3.595001-0.320785 1.692416-7.571625 41.779439 17.786957 72.403314 17.643157 21.310058 45.496117 32.117183 82.78457 32.117183l21.122012-0.044246 28.93146-0.055308 947.282685-5.525239a19.357696 19.357696 0 0 0-0.232293-38.715392l-947.172069 5.525239-28.93146 0.055308-21.005865 0.044246c-25.20372 0-43.023862-6.089378-52.962657-18.09115-13.655472-16.487226-9.612479-40.252946-9.568232-40.490769 0.226762-1.189116 0.342908-2.400354 0.342907-3.606062v-144.082098a19.379819 19.379819 0 0 1-9.12024 16.431919L173.942726 572.102881a19.357696 19.357696 0 0 1-10.237456 2.914716h971.29729c10.702041 0 19.357696-8.655656 19.357696-19.357696a19.379819 19.379819 0 0 0-19.363227-19.379819z" fill="#6E6E96" p-id="3710"></path><path d="M381.617621 544.863837V351.906323a19.357696 19.357696 0 1 0-38.715392 0v192.974106a19.357696 19.357696 0 1 0 38.715392-0.016592z" fill="#6E6E96" p-id="3711"></path><path d="M198.88097 779.014529c-19.401942 0-35.950007 0.099554-50.053472 0.099554a157.571646 157.571646 0 0 1-13.008371-0.5752l384.062221 0.492238s-30.419237-137.041427-185.280806-137.041426c-154.325084 0-198.88097 135.570242-199.190692 136.510472-50.849902-4.490985-64.875936-34.445637-68.139091-56.624026v28.245644s-15.480626 81.551208 81.551209 81.551208c14.103464 0 30.651529-0.099554 50.053471-0.099554l1120.196688 0.005531v-52.542318l-1120.191157-0.022123z m876.848325-137.041427c-154.861569 0-199.207285 136.549188-199.207285 136.549189l384.48809 0.492238s-30.419237-137.041427-185.280805-137.041427z" fill="#6E6E96" opacity=".15" p-id="3712"></path><path d="M595.780109 544.863837V351.906323a19.357696 19.357696 0 1 0-38.715393 0v192.974106a19.357696 19.357696 0 1 0 38.715393-0.016592zM183.057436 555.637778V346.364491a19.357696 19.357696 0 1 0-38.715392 0v209.273287a19.357696 19.357696 0 0 0 38.715392 0z" fill="#6E6E96" p-id="3713"></path><path d="M325.126333 842.856211m-126.068379 0a126.068378 126.068378 0 1 0 252.136757 0 126.068378 126.068378 0 1 0-252.136757 0Z" fill="#F0F0FF" p-id="3714"></path><path d="M325.126333 744.441684c54.267918 0 98.414527 44.135547 98.414527 98.414527 0 54.267918-44.146609 98.414527-98.414527 98.414527s-98.414527-44.146609-98.414527-98.414527c0-54.267918 44.152139-98.414527 98.414527-98.414527z m-153.72223 98.414527c0 84.753524 68.957644 153.72223 153.72223 153.72223s153.72223-68.968706 153.72223-153.72223c0-84.759055-68.957644-153.72223-153.72223-153.72223s-153.72223 68.963175-153.72223 153.72223z" fill="#6E6E96" p-id="3715"></path><path d="M325.126333 842.861742m-46.242771 0a46.242771 46.242771 0 1 0 92.485541 0 46.242771 46.242771 0 1 0-92.485541 0Z" fill="#6E6E96" p-id="3716"></path><path d="M1319.077658 240.350685v610.276258a19.357696 19.357696 0 0 1 19.357696-19.357696h-124.64144c7.029609 0 13.50061 3.80517 16.918626 9.960917l-58.73125-105.626651c1.598393 2.881531 2.433539 6.111501 2.433539 9.40784V346.364491a19.357696 19.357696 0 1 0-38.715392 0v398.646862c0 3.296339 0.835146 6.537371 2.43907 9.407841l58.736781 105.615589a19.352165 19.352165 0 0 0 16.918626 9.949856h124.64144c10.690979 0 19.357696-8.655656 19.357696-19.357696V240.350685a19.357696 19.357696 0 1 0-38.715392 0z" fill="#6E6E96" p-id="3717"></path><path d="M59.118404 343.311506c0-12.582502-1.548616-103.790436-1.238893-129.995226C57.879511 119.315308 86.678232 33.184622 190.806045 33.184622h1056.172491s91.456818 8.61694 91.456818 108.889806v204.295593l-1279.31695-3.058515z" fill="#FF8FAA" p-id="3718"></path><path d="M78.4761 343.305975l-0.392685-33.793007c-0.420339-31.359468-1.045316-78.747108-0.846208-95.975457 0-49.832241 8.279563-88.614002 24.606398-115.493546C120.438054 67.425621 149.540968 52.542318 190.806045 52.542318h1056.172491c-0.602854 0-1.211239-0.027654-1.814093-0.088492 7.477601 0.7909 73.913214 10.088125 73.913215 89.60954v204.295594a19.374288 19.374288 0 0 1 19.396411-19.357696l-1279.322481-3.047455c10.596956 0.022123 19.202835 8.766271 19.324512 19.352166z m1279.31695 3.052985V142.063366c0-93.259849-71.302691-124.608255-109.000421-128.153479a16.614434 16.614434 0 0 0-1.814093-0.099554H190.806045c-55.147311 0-96.21328 21.575535-122.053039 64.129282-20.060104 33.02976-30.231191 78.559061-30.231191 135.371134-0.210169 17.471703 0.403746 63.260951 0.846208 96.716581l0.392685 33.289706c0.121677 10.585894 8.727556 19.330042 19.31345 19.352166l1279.31695 3.047454a19.374288 19.374288 0 0 0 19.401942-19.357696z" fill="#6E6E96" p-id="3719"></path><path d="M143.794497 265.880721v-94.023095c0-30.419237 24.888466-55.307703 55.307703-55.307703h987.242501c30.419237 0 55.307703 24.888466 55.307703 55.307703v94.023095" fill="#BAEFFF" p-id="3720"></path><path d="M163.152193 265.880721v-94.023095c0-19.822281 16.127726-35.950007 35.950007-35.950007h987.242501c19.822281 0 35.950007 16.127726 35.950007 35.950007v94.023095a19.357696 19.357696 0 1 0 38.715392 0v-94.023095c0-41.171054-33.499876-74.665399-74.665399-74.665399h-987.242501c-41.171054 0-74.665399 33.494345-74.665399 74.665399v94.023095a19.357696 19.357696 0 1 0 38.715392 0z" fill="#6E6E96" p-id="3721"></path><path d="M1241.652404 265.880721v-94.023095c0-30.419237-24.888466-55.307703-55.307703-55.307703h-987.242501c-30.419237 0-55.307703 24.888466-55.307703 55.307703v94.023095h1097.857907z" fill="#BAEFFF" p-id="3722"></path><path d="M1261.0101 265.880721v-94.023095c0-41.171054-33.499876-74.665399-74.665399-74.665399h-987.242501c-41.171054 0-74.665399 33.494345-74.665399 74.665399v94.023095a19.357696 19.357696 0 0 0 19.357696 19.357696h1097.857907a19.357696 19.357696 0 0 0 19.357696-19.357696z m-1097.857907 0v-94.023095c0-19.822281 16.127726-35.950007 35.950007-35.950007h987.242501c19.822281 0 35.950007 16.127726 35.950007 35.950007v94.023095a19.357696 19.357696 0 0 1 19.357696-19.357696h-1097.857907a19.357696 19.357696 0 0 1 19.357696 19.357696z" fill="#6E6E96" p-id="3723"></path><path d="M320.51367 124.492109v141.394143a19.357696 19.357696 0 1 0 38.715392 0V124.492109a19.357696 19.357696 0 1 0-38.715392 0zM597.782248 265.886252V122.960086c0-10.702041-8.666717-19.357696-19.357697-19.357697s-19.357696 8.655656-19.357696 19.357697v142.926166a19.357696 19.357696 0 1 0 38.715393 0zM826.800385 265.886252V122.960086c0-10.702041-8.666717-19.357696-19.357697-19.357697a19.346635 19.346635 0 0 0-19.357696 19.357697v142.926166a19.357696 19.357696 0 1 0 38.715393 0zM1050.840828 262.932821V120.006654a19.357696 19.357696 0 1 0-38.715392 0V262.932821a19.357696 19.357696 0 1 0 38.715392 0zM792.614693 544.863837V351.906323a19.357696 19.357696 0 1 0-38.715392 0v192.974106a19.357696 19.357696 0 1 0 38.715392-0.016592zM984.471585 544.863837V351.906323a19.357696 19.357696 0 1 0-38.715393 0v192.974106a19.357696 19.357696 0 1 0 38.715393-0.016592z" fill="#6E6E96" p-id="3724"></path><path d="M1171.605198 127.611463H214.03528c-29.50666 0-53.648472 20.972681-53.648472 46.607802v39.882385c0-25.63512 24.141812-46.607801 53.648472-46.607802h957.569918c29.50666 0 53.648472 20.972681 53.648472 46.607802V174.219265c0-25.63512-24.141812-46.607801-53.648472-46.607802zM179.744504 365.434587h1139.333154v44.246162H179.744504z" fill="#6E6E96" opacity=".15" p-id="3725"></path><path d="M75.572446 677.923109l104.172058-66.369243h955.954933l-0.702408-36.558392H169.241572l-93.669126 58.521081z" fill="#FFFFFF" opacity=".21" p-id="3726"></path><path d="M1280.367796 409.680749h38.709862v369.339311h-38.709862z" fill="#6E6E96" opacity=".15" p-id="3727"></path><path d="M185.275275 409.680749v121.676947l121.676946-121.676947h-121.676946z m46.403163 126.599333h42.089162l69.134629-76.8224v-44.246162l-111.223791 121.068562zM378.852236 408.298057v121.676947l121.676946-121.676947h-121.676946z m35.175699 127.982025h44.246162l98.785089-98.774027v-27.808713h-20.585527L414.027935 536.280082zM594.552278 409.680749v121.676947l121.676947-121.676947h-121.676947z m36.558391 126.599333h44.246163l76.8224-76.8224v-44.246162l-121.068563 121.068562zM792.277316 409.680749v121.676947l121.676947-121.676947h-121.676947z m46.408694 126.599333h36.552861l69.134629-76.8224v-44.246162l-105.68749 121.068562zM983.088892 408.298057v121.676947l121.676947-121.676947h-121.676947z m41.480777 127.207717l41.480778 0.774308 69.134629-78.205093v-44.246162l-110.615407 121.676947z" fill="#FFFFFF" opacity=".32" p-id="3728"></path><path d="M196.336815 190.291683h31.342876v27.653852h-31.342876z" fill="#FFFFFF" opacity=".43" p-id="3729"></path><path d="M1072.184071 842.856211m-126.068379 0a126.068378 126.068378 0 1 0 252.136757 0 126.068378 126.068378 0 1 0-252.136757 0Z" fill="#F0F0FF" p-id="3730"></path><path d="M1072.184071 744.441684c54.267918 0 98.420058 44.135547 98.420058 98.414527 0 54.267918-44.146609 98.414527-98.420058 98.414527-54.273449 0-98.408996-44.146609-98.408996-98.414527 0-54.267918 44.146609-98.414527 98.408996-98.414527z m-153.716699 98.414527c0 84.753524 68.957644 153.72223 153.716699 153.72223 84.764586 0 153.727761-68.968706 153.727761-153.72223 0-84.759055-68.963175-153.72223-153.727761-153.72223-84.759055 0-153.716699 68.963175-153.716699 153.72223z" fill="#6E6E96" p-id="3731"></path><path d="M1072.184071 842.861742m-46.23724 0a46.23724 46.23724 0 1 0 92.47448 0 46.23724 46.23724 0 1 0-92.47448 0Z" fill="#6E6E96" p-id="3732"></path></svg>