<?xml version="1.0" standalone="no"?><!DOCTYPE svg PUBLIC "-//W3C//DTD SVG 1.1//EN" "http://www.w3.org/Graphics/SVG/1.1/DTD/svg11.dtd"><svg t="1711552697292" class="icon" viewBox="0 0 1024 1024" version="1.1" xmlns="http://www.w3.org/2000/svg" p-id="4642" xmlns:xlink="http://www.w3.org/1999/xlink" width="200" height="200"><path d="M377.929622 40.50665L118.687065 529.818875l259.242557 170.127928" fill="#F0F0FF" p-id="4643"></path><path d="M377.91747 714.124131a14.124669 14.124669 0 0 1-7.765124-2.325082l-259.242558-170.127928a14.173277 14.173277 0 0 1-4.747379-18.487235l259.242557-489.312226a14.177327 14.177327 0 0 1 25.053363 13.274029L137.259364 525.047192l248.447535 163.047366a14.177327 14.177327 0 0 1-7.789429 26.029573z" fill="#6E6E96" p-id="4644"></path><path d="M861.485853 982.671065H141.909527L53.876426 826.076409h903.298285z" fill="#F0F0FF" p-id="4645"></path><path d="M377.929622 40.50665c285.158712 285.158712 510.383785 500.901178 510.383785 500.901178-259.979778 155.217431-510.383785 284.656429-510.383785 284.656429V40.50665z" fill="#FFFC9F" p-id="4646"></path><path d="M377.929622 840.245635a14.177327 14.177327 0 0 1-14.177327-14.177327V40.50665c0-5.735742 3.455217-10.90439 8.753487-13.0958a14.169226 14.169226 0 0 1 15.449236 3.070404c281.776406 281.776406 507.912879 498.53559 510.165049 500.690543a14.177327 14.177327 0 0 1-2.539767 22.408279C638.20915 707.246102 386.950453 837.365612 384.439041 838.661825a14.165175 14.165175 0 0 1-6.509419 1.58381z m14.177328-765.535171v727.957152c63.627845-33.409885 264.629942-140.189464 472.971843-263.925126C814.13763 489.733495 624.100684 306.270777 392.10695 74.710464z" fill="#6E6E96" p-id="4647"></path><path d="M377.929622 221.968338c28.354655-32.850893 72.911969-79.073031 109.367954-73.357542 0 0 0 4.050665 1.843053 2.641034l81.519632 80.608232L377.929622 359.690947v-137.722609z" fill="#FF8C8C" p-id="4648"></path><path d="M377.929622 373.868274a14.165175 14.165175 0 0 1-14.177327-14.177327v-137.722609c0-3.402559 1.223301-6.687648 3.447116-9.26387 29.18099-33.8109 72.721588-78.757079 113.787229-78.757079 2.875972 0 5.739792 0.218736 8.510447 0.652157A14.157074 14.157074 0 0 1 499.720966 141.773274l80.912032 80.004683a14.189479 14.189479 0 0 1-2.1347 21.897895l-192.730639 127.830885a14.189479 14.189479 0 0 1-7.838037 2.361537z m14.177328-146.593565v106.001852l156.18959-103.591706-66.03394-65.30077a14.631002 14.631002 0 0 1-3.248634-2.021281c-21.0189 1.304314-50.228245 23.121196-86.907016 64.911905z" fill="#6E6E96" p-id="4649"></path><path d="M377.929622 521.717545l68.387377-43.961867 24.907539-16.016329C523.753561 432.157343 572.36154 395.701358 626.713363 361.809445l33.401783-21.468525 12.67048-8.141836-15.951519-15.680124c-9.575772-9.470455-21.56574-22.894358-35.192177-35.099012C568.310875 233.67476 580.46287 229.624095 568.310875 233.67476c-72.911969 16.20266-141.773274 56.709309-186.330588 125.570614-12.151995 20.253325-4.050665 52.658644-4.050665 81.244187V521.717545z" fill="#F0F0FF" p-id="4650"></path><path d="M377.929622 535.894873a14.169226 14.169226 0 0 1-14.177327-14.177328v-81.232035c0-7.671959-0.660258-16.044684-1.292162-24.141963-1.778242-22.655369-3.621294-46.084415 7.364109-64.393421l0.255192-0.409117c42.928947-66.341791 111.960379-113.037856 194.440019-131.549395 2.713946-0.899248 5.334726-1.689127 8.506396-1.689127 8.866906 0 13.513018 5.841059 17.612292 10.997555 4.767633 5.999035 14.695812 18.483184 40.462092 41.555772 9.506911 8.510447 18.09027 17.430011 25.665013 25.304504 3.588889 3.726612 6.94284 7.214234 10.041599 10.276537l15.919113 15.647718a14.153023 14.153023 0 0 1 4.168134 11.564649 14.153023 14.153023 0 0 1-6.436507 10.475019l-46.076313 29.610361c-21.86954 13.64264-42.949201 27.787562-63.332147 41.466658-31.267083 20.986495-60.800481 40.810449-92.496934 58.686033l-92.950609 59.75541a14.177327 14.177327 0 0 1-7.67196 2.25217z m16.101394-169.176022c-6.197517 10.572236-4.727126 29.290358-3.301292 47.400881 0.676461 8.644119 1.381277 17.579886 1.381276 26.365778v55.263222l71.44968-45.93454c0.234939-0.149875 0.469877-0.291648 0.708866-0.429371 30.870118-17.385454 60.06326-36.97852 90.977935-57.726026 20.573327-13.812768 41.85147-28.091361 63.968101-41.879825l30.971384-19.913069-3.29319-3.240532c-3.276988-3.240532-6.797016-6.898282-10.556033-10.803124-7.234488-7.513983-15.433033-16.032532-24.154115-23.842214-26.179448-23.437147-37.355232-37.023078-42.912745-43.990221-74.459323 17.073553-136.612726 59.168063-175.239867 118.729041z" fill="#6E6E96" p-id="4651"></path><path d="M377.929622 695.896138l64.964565-38.375999c12.97428-7.680061-15.234551 9.203111 0 0C537.837723 583.137778 677.678829 492.917317 791.097448 452.410668c-36.455985-44.557315-118.311822-120.211584-118.311822-120.211584-89.114629 4.050665-173.336055 99.958259-248.982223 159.733922a2884.770164 2884.770164 0 0 1-33.203301 21.646753c-8.064874 5.17675-12.67048 8.141837-12.67048 8.141837v174.174542z" fill="#8AC2FF" p-id="4652"></path><path d="M377.929622 710.073466a14.161125 14.161125 0 0 1-14.177327-14.177328v-174.178593c0-4.820291 2.450652-9.316529 6.505368-11.925157l12.678581-8.145888a2775.191576 2775.191576 0 0 0 32.538992-21.205231c16.915577-13.395549 34.122802-28.484276 52.330541-44.451997 61.258206-53.719919 130.686604-114.605464 204.331743-117.955364a14.157074 14.157074 0 0 1 10.268435 3.750916c3.370153 3.119012 82.998125 76.837064 119.660694 121.64552a14.165175 14.165175 0 0 1-6.205619 22.327265c-71.182335 25.421973-201.824382 92.40782-338.104953 198.150428-1.227351 1.502797-2.770655 2.7423-4.463833 3.884588l0.024304 0.040507-0.757474 0.441522a100.578011 100.578011 0 0 1-2.932682 1.798495c-1.442037 0.862792-2.61673 1.567607-3.625345 2.134701a1.664823 1.664823 0 0 1-0.133672 0.085064l-0.004051-0.004051c-0.449624 0.251141-0.866842 0.477978-1.259756 0.680512l-59.471863 35.131417a14.084162 14.084162 0 0 1-7.202083 1.972674z m14.177328-180.6151v141.595044l42.779072-25.268048c87.502464-68.460288 218.148561-154.638185 332.23149-199.511452-33.065578-36.905608-84.18902-85.197636-99.488382-99.504584-61.711881 5.824856-122.390842 59.034391-181.121433 110.542646-18.657363 16.360636-36.277755 31.813923-53.9103 45.74416a14.452773 14.452773 0 0 1-0.960008 0.696714 2821.936249 2821.936249 0 0 1-33.369378 21.752071l-6.161061 3.953449z" fill="#6E6E96" p-id="4653"></path><path d="M377.929622 40.50665L288.742081 641.418745 377.929622 695.896138z" fill="#6E6E96" opacity=".15" p-id="4654"></path><path d="M105.352276 888.715892l756.133577 79.777846H141.909527z" fill="#6E6E96" opacity=".15" p-id="4655"></path><path d="M105.352276 888.715892l839.455755-55.704745-866.700527 7.242589z" fill="#FFFFFF" p-id="4656"></path><path d="M861.485853 968.493738H141.909527c5.124091 0 9.847167 2.766604 12.358579 7.230437l-88.033101-156.594657A14.177327 14.177327 0 0 1 53.876426 840.245635h903.298285a14.177327 14.177327 0 0 1-12.099336-21.569791l-95.688858 156.594657a14.189479 14.189479 0 0 1 12.099336-6.776763zM957.174711 811.899081H53.876426a14.177327 14.177327 0 0 0-12.358579 21.116117l88.033102 156.594657a14.165175 14.165175 0 0 0 12.358578 7.230436h719.576326a14.161125 14.161125 0 0 0 12.095286-6.784863l95.688858-156.594657a14.169226 14.169226 0 1 0-12.095286-21.56169z" fill="#6E6E96" p-id="4657"></path><path d="M377.929622 40.50665s141.773274 149.056369 141.773274 343.488287 267.343887 140.651239 368.610511 157.412891L377.929622 40.50665z" fill="#6E6E96" opacity=".15" p-id="4658"></path><path d="M17.420441 1024v-93.165294s71.607655-86.036124 392.262344-10.013244C730.337474 996.844342 787.046783 837.669412 1009.833356 930.834706v93.165294" fill="#9FDEFF" opacity=".6" p-id="4659"></path></svg>