<?xml version="1.0" standalone="no"?><!DOCTYPE svg PUBLIC "-//W3C//DTD SVG 1.1//EN" "http://www.w3.org/Graphics/SVG/1.1/DTD/svg11.dtd"><svg t="1711552978936" class="icon" viewBox="0 0 1024 1024" version="1.1" xmlns="http://www.w3.org/2000/svg" p-id="4803" xmlns:xlink="http://www.w3.org/1999/xlink" width="200" height="200"><path d="M655.139608 99.295599c-43.909798 0-64.583874-26.183874-65.636492-27.561323a10.279473 10.279473 0 0 1 16.27035-12.565628c1.085512 1.365114 25.032573 30.361452 79.423322 15.119049a10.279473 10.279473 0 1 1 5.550915 19.798265c-13.227626 3.704722-25.090138 5.209637-35.608095 5.209637z" fill="#6E6E96" p-id="4804"></path><path d="M628.984517 643.58548c36.076839-3.540251 74.711211-18.864889 110.146611-37.684548 58.017347-30.826084 107.494507-71.035271 123.31256-84.415034 0 0 56.109476-18.06309 30.752072-55.81754 0 0 9.662705-36.076839-12.89046-49.275682-22.549052-13.194732-76.031095 20.645294-79.686476 66.121683-35.221587 23.404305-68.300932 36.525024-100.915644 39.715773-108.707485 20.534276-153.550659 33.5522-153.550658 33.5522" fill="#F9D5B3" p-id="4805"></path><path d="M649.469451 583.578028s137.103501-29.773466 184.261612-89.390299 47.885898-31.582653 47.885898-31.582654 32.528365-35.867138-7.343656-35.867137c-39.888468 0-70.504851 49.473049-70.50485 49.473048s-157.794025 65.916094-195.737617 65.916094l41.438613 41.450948z" fill="#FFE2C7" p-id="4806"></path><path d="M634.284613 651.184067a10.279473 10.279473 0 0 1-0.990941-20.509605c30.575265-2.997494 66.347832-15.291744 106.322647-36.529136 57.803534-30.706842 107.609637-71.438227 121.495149-83.185609 1.027947-0.867588 2.212143-1.529586 3.495021-1.940764 6.776229-2.212143 25.312175-10.57141 29.403405-22.438034 1.813299-5.267202 0.493415-11.105943-4.033665-17.853389a10.304144 10.304144 0 0 1-1.398009-8.392162c0.0699-0.259043 7.064054-28.84009-8.145454-37.746226-5.086283-2.981047-15.09849-1.389785-25.501317 4.025442-17.873948 9.321426-36.788179 29.646001-38.745391 54.045358a10.287697 10.287697 0 0 1-4.555862 7.738388c-36.710055 24.387022-71.109284 37.914809-105.142563 41.339929-106.446001 20.114873-151.708577 33.108127-152.152651 33.239704a10.279473 10.279473 0 1 1-5.731834-19.744812c1.850305-0.538644 46.553678-13.396209 154.508706-33.778349a11.142949 11.142949 0 0 1 0.904593-0.131577c29.555541-2.8947 59.777192-14.502281 92.26444-35.451847 4.761452-31.788243 29.00045-54.982846 49.144105-65.484356 17.285962-9.013042 33.823579-10.308256 45.390042-3.544362 23.729136 13.889624 20.731642 44.608802 18.605846 56.261612 7.717828 13.622358 6.541857 24.925667 4.004883 32.24054-7.302538 21.048249-32.65583 31.697783-40.509348 34.543142-16.077096 13.499004-65.940765 53.745198-123.653839 84.40681-42.363765 22.503823-80.702088 35.566977-113.962351 38.831738-0.341279 0.041118-0.678445 0.057565-1.015612 0.057565z" fill="#6E6E96" p-id="4807"></path><path d="M617.060328 883.179441c0.649663 41.722326 27.532541 75.142949 118.723803 73.749052 91.178927-1.430903 128.217925-35.817796 127.560039-77.544233-0.641439-41.726438-38.716608-74.982589-129.903759-73.584581-91.187151 1.40212-117.021523 35.636878-116.380083 77.379762z" fill="#F9D5B3" p-id="4808"></path><path d="M656.718535 866.238869c3.17019-18.527722 12.413492-34.349888 31.430517-44.370318 8.38805-3.486797 18.034308-6.578863 28.663283-9.189849 9.691487-1.665275 20.723418-2.483521 33.3425-2.294378 72.626534 1.122518 102.029939 33.819467 101.409058 73.564022a72.605975 72.605975 0 0 1-1.414455 13.281079c-17.16672 2.985159-36.163187 4.835464-56.179377 5.19319-66.763122 1.208866-122.872599-14.321362-137.251526-36.183746z" fill="#FFE2C7" p-id="4809"></path><path d="M735.656666 964.555863h-0.016448c-81.113267-0.004112-122.679345-28.231545-123.546932-83.905172-0.875811-56.960617 41.68532-86.503823 126.499197-87.823707 125.430132-1.862641 139.94886 58.136588 140.347703 83.699582 0.402955 25.591776-11.303309 47.219788-33.840025 62.55265-23.782589 16.171667-58.720463 24.732412-103.843238 25.435529-1.903758 0.028783-3.762287 0.041118-5.600257 0.041118z m8.614198-151.215163c-1.768069 0-3.552586 0.016447-5.365885 0.04523-107.264247 1.665275-106.503566 50.801156-106.256858 66.948153 0.246707 15.739929 0.990941 63.658721 102.987986 63.662833h0.016447c1.739287 0 3.490909-0.016447 5.279537-0.04523 40.455895-0.629104 72.478509-8.194796 92.601606-21.874718 16.7761-11.410215 25.135368-26.627947 24.843431-45.229682-0.62088-40.357212-42.211629-63.506585-114.106264-63.506586z" fill="#6E6E96" p-id="4810"></path><path d="M484.459235 517.419338c-50.755927 0-24.444587 21.841825-61.039511 58.23116-45.908127 17.162608-78.300803 58.675233-78.300803 107.177899 0 11.718599 1.903758 23.034243 5.411114 33.671442-4.004883 20.028526-14.136332 44.617025-14.136331 66.15869 0 144.463604 103.321041 179.282236 220.946996 179.282236 117.61362 0 193.0115-38.490459 193.0115-182.958176 0.016447-144.455381-148.283456-261.563251-265.892965-261.563251z" fill="#F9D5B3" p-id="4811"></path><path d="M680.015933 726.339351c10.18079 72.260585-55.410472 79.772824-132.395503 79.772824-36.977321 0-82.609958-15.863283-120.060134-40.2832-15.723482-10.246579-71.69727 34.909091-56.269837-50.307741 4.96293-27.396852-15.18895-26.985673-15.188949-49.748539 0-71.541022 62.421073-129.56248 139.401991-129.56248 77.005589 0.004112 166.375329 61.286219 184.512432 190.129136z" fill="#FFE2C7" p-id="4812"></path><path d="M562.653132 969.539351c-155.594218 0-231.230581-62.005782-231.230581-189.561709 0-15.567234 4.522968-31.553871 8.8938-47.014198 1.858529-6.574751 3.626598-12.824671 4.909476-18.61407a117.609509 117.609509 0 0 1-5.07806-34.201864c0-50.945069 32.429682-96.228204 82.823772-115.98124 11.957083-12.376486 15.624799-22.35991 18.873112-31.20848 6.513074-17.730035 12.989142-28.502923 47.918793-28.502923 60.895599 0 129.67761 29.646001 183.994346 79.304079 59.448249 54.349631 92.186315 122.732798 92.182204 192.538645 0.004112 171.280694-108.637584 193.24176-203.286862 193.24176zM489.767555 525.017925c-23.100032 0-24.160874 2.886476-28.622165 15.032701-3.708834 10.094443-8.786894 23.918278-25.168262 40.205076a10.238355 10.238355 0 0 1-3.651269 2.339608c-43.506842 16.262127-71.619146 54.551108-71.619145 97.5522 0 10.353485 1.648827 20.604176 4.897141 30.464247 0.555092 1.685834 0.66611 3.490909 0.316608 5.226084-1.455573 7.277867-3.577257 14.777771-5.822294 22.717636-3.988436 14.111661-8.116672 28.700289-8.116672 41.418053 0 115.298683 66.944041 169.002763 210.671635 169.002763 129.788628 0 182.727915-50.02814 182.727915-172.678702 0.004112-63.971217-30.35734-126.959717-85.496434-177.370254-50.62435-46.274076-114.221394-73.909412-170.117058-73.909412z" fill="#6E6E96" p-id="4813"></path><path d="M798.727401 948.881722c9.469451 8.692323 21.640347 13.272856 35.131128 14.461163 34.107292 2.997494 63.699839-16.792547 68.814905-75.126502 1.994218-22.701189-0.357726-44.082493-5.945647-61.927658 0 0-2.417732-50.455766-45.858786-50.455766-34.185416 0-53.408031 38.593254-53.408031 38.593254-9.485898 17.072149-16.15522 38.852297-18.260456 62.947382" fill="#F9D5B3" p-id="4814"></path><path d="M885.200796 873.364758a46.771603 71.939865 14.093 1 0-90.727721-22.777445 46.771603 71.939865 14.093 1 0 90.727721 22.777445Z" fill="#FFE2C7" p-id="4815"></path><path d="M845.679923 971.233408c-2.434179 0-4.901253-0.111018-7.417668-0.333055-16.533505-1.455573-30.394346-7.21619-41.183681-17.133826a10.279473 10.279473 0 1 1 13.910183-15.135496c7.37655 6.776229 17.158497 10.744105 29.074462 11.792612 15.246515 1.323996 27.787472-2.602763 37.244587-11.722711 11.373209-10.970254 18.248121-29.164921 20.439704-54.065918 1.805075-20.608288-0.098683-40.645037-5.522133-57.947446a10.160231 10.160231 0 0 1-0.456408-2.578092c-0.004112-0.082236-0.661998-11.163508-5.875747-21.7637-6.254031-12.725988-15.978413-18.910119-29.720013-18.910119-27.499647 0-44.041375 32.565371-44.205846 32.890202a19.892836 19.892836 0 0 1-0.213813 0.415291c-9.210408 16.566399-15.094378 36.915644-17.014584 58.843816a10.258914 10.258914 0 0 1-11.134726 9.341985 10.27125 10.27125 0 0 1-9.341985-11.134725c2.158689-24.707742 8.877353-47.824221 19.424093-66.865917 1.969547-3.856858 23.494764-44.049598 62.486861-44.049598 41.216576 0 54.563444 37.750337 56.0478 58.889046 5.925088 19.55567 8.001542 41.882686 6.003212 64.666109-2.635657 29.987279-11.599358 52.552779-26.644394 67.067395-12.100996 11.669258-27.857372 17.734147-45.899904 17.734147z" fill="#6E6E96" p-id="4816"></path><path d="M415.989721 878.015034c16.229232 39.415612 10.604305 80.348474-12.586187 91.425634-23.182268 11.07716-55.139094-11.899518-71.372439-51.311018-16.237456-39.407388-10.604305-80.340251 12.586187-91.417411 23.190491-11.085384 55.139094 11.878959 71.372439 51.302795zM462.206232 586.468615s-46.67292-1.262319-157.029232 6.389721c-32.363893 5.143848-67.67594 0.822358-107.679538-12.911018-15.045037-43.079216-75.336203-62.285384-93.814584-43.807003-18.474269 18.470157 0 50.936845 0 50.936845-14.987472 42.943527 43.881015 46.208288 43.881015 46.208288 18.688082 8.951365 76.717764 35.344941 140.656088 50.484549 39.041439 9.243302 80.274462 14.296691 116.084034 8.593639" fill="#FFE2C7" p-id="4817"></path><path d="M112.136717 544.614712s27.980726 8.499068 27.980726 27.980726c0 19.473434 80.406039 97.383617 274.157661 83.391199 0 0 29.954385 1.994218 29.954385 29.962608 0 27.964279-75.311532 47.721426-75.311532 47.721426s-1.796852-30.546482-38.136846-38.132733c-36.356441-7.598587-273.088596-40.579248-218.644394-150.923226z" fill="#F9D5B3" p-id="4818"></path><path d="M377.219659 702.359396c-25.546547 0-54.349631-3.762287-86.055637-11.266303-63.601156-15.057372-122.017347-41.389271-140.989142-50.389977-8.322261-0.768905-35.55053-4.654545-47.939352-23.169933-4.309155-6.43495-8.305814-17.068037-4.284484-32.199421-5.004048-10.73177-15.674141-39.695214 3.766399-59.143977 9.461227-9.465339 25.785031-12.417604 44.777385-8.067331 22.154321 5.057501 51.479602 21.364857 64.135689 50.932734 36.730614 12.043431 68.905365 15.624799 98.242981 10.974365 0.300161-0.049341 0.600321-0.086348 0.900482-0.102794 109.591519-7.602698 156.091744-6.467845 158.016062-6.414392a10.279473 10.279473 0 0 1-0.55098 20.550723c-0.468744-0.020559-47.52406-1.138966-155.594218 6.340379-33.798908 5.283649-70.500739 0.892258-112.177835-13.412656a10.263026 10.263026 0 0 1-6.369161-6.332156c-8.071442-23.120591-31.520977-38.001156-51.179441-42.495342-11.410215-2.606874-21.492323-1.603598-25.657565 2.561645-12.582075 12.586187 1.51725 38.3301 1.665274 38.589142 1.467909 2.578092 1.74751 5.670157 0.773017 8.474398-2.676775 7.668487-2.479409 13.65114 0.604433 18.285127 6.961259 10.443945 27.018567 13.836171 34.160745 14.263797 1.328108 0.082236 2.652104 0.419403 3.852747 0.990941 16.406039 7.861741 74.89213 34.678831 138.587857 49.760874 44.070157 10.427498 81.791712 13.276968 112.099711 8.445615a10.267138 10.267138 0 0 1 11.767941 8.531963 10.275361 10.275361 0 0 1-8.536075 11.76794c-10.591969 1.685834-21.940508 2.524639-34.016833 2.524639z" fill="#6E6E96" p-id="4819"></path><path d="M676.919756 206.457051c35.201028 24.522711 77.844394 49.144105 77.844394 105.911468 0 151.379634-137.753164 274.104208-318.063347 274.104208-180.322518 0-294.90575-102.502795-275.04992-252.578991C179.348024 200.20302 256.649663 48.013363 436.700803 38.276646c187.838869-10.164343 186.066688 130.45885 240.218953 168.180405z" fill="#F5CBA7" p-id="4820"></path><path d="M298.265082 154.84176s-111.610408 95.011115-22.639512 204.783553c41.557854 51.274012 0.287825 159.763572 207.591905 48.790492 146.141214-78.230903 196.185801-154.492258 166.535689-209.380534-29.646001-54.892387-144.072984-200.190684-351.488082-44.193511z" fill="#F9D5B3" p-id="4821"></path><path d="M527.057372 348.84009a9.962865 9.962865 0 0 1 13.429104-4.18169 11.994089 11.994089 0 0 0 16.192226-5.028718 11.977642 11.977642 0 0 0-5.045165-16.184003c-16.537616-8.700546-37.092451-2.310826-45.797109 14.235015a11.989978 11.989978 0 0 0 21.220944 11.159396z" fill="#6E6E96" p-id="4822"></path><path d="M250.358625 153.698683s28.630389-46.364536 143.707035-23.182268c0 0-24.629618-38.194411-79.670029-30.682172-55.048635 7.499904-64.037006 43.704208-64.037006 53.86444z" fill="#8B5C29" p-id="4823"></path><path d="M675.546418 287.5292c22.322904 28.44947 19.736588 120.870157-48.700032 174.549566-68.428397 53.683521-176.774044 48.3053-199.105172 19.851719-22.318792-28.44947 58.25583-39.966592 126.692451-93.658336 68.432509-53.675297 98.793961-129.196531 121.112753-100.742949z" fill="#BA7D7D" p-id="4824"></path><path d="M499.800321 513.328108c-37.869579 0-67.832188-9.362544-80.142884-25.04902-5.189078-6.615869-7.022936-13.461998-5.452233-20.353357 3.548474-15.550787 22.915002-25.077803 52.236171-39.493736 24.066303-11.83373 54.016576-26.562159 81.656023-48.243624 27.635336-21.677353 49.065981-47.256794 66.282043-67.81574 20.850883-24.88866 34.629489-41.331706 50.443431-41.331706 4.950594 0 12.240797 1.759846 18.815548 10.147896 13.778606 17.55734 18.367363 51.352136 11.693928 86.096756-7.898747 41.113781-29.962608 77.65114-62.133247 102.885191-34.966656 27.425634-83.588564 43.15734-133.39878 43.15734z m165.018439-221.732348c-6.217025 0-22.002184 18.840218-34.682942 33.975714-17.836942 21.290845-40.028269 47.787215-69.35355 70.784453-29.329393 23.009573-60.348731 38.264311-85.270286 50.521555-17.775265 8.737552-39.896691 19.617347-41.265917 25.616447-0.090459 0.398844 0.365949 1.537809 1.583039 3.087953 6.496627 8.27292 29.284163 17.183167 63.967105 17.183168 44.633473 0 89.756248-14.494057 120.705686-38.778285 38.140957-29.917379 50.603791-69.596145 54.633344-90.586829 6.332155-32.97655 0.46052-59.156312-7.67671-69.526245-1.225313-1.56248-2.22859-2.277931-2.639769-2.277931z" fill="#6E6E96" p-id="4825"></path><path d="M281.476646 134.537745s65.899647-8.840347 93.950273 10.312367c0 0-8.926695-28.247992-68.370832-31.780019M339.041696 90.681401s49.111211-7.76717 78.699647 21.80893c0 0-16.829553-25.118921-51.191777-31.007003" fill="#ED9B45" p-id="4826"></path><path d="M407.860713 360.336653l0.004112 0.016447c-3.112624-12.91513-4.202249-34.695278 3.342885-40.414777 2.158689-1.636492 11.385544-5.781176 39.066109 9.749053a11.985866 11.985866 0 0 0 11.730935-20.900225c-29.312946-16.447157-50.681915-19.037584-65.311661-7.923418-22.993126 17.470993-13.297527 60.336396-12.117443 65.167748a11.985866 11.985866 0 1 0 23.285063-5.694828zM519.890524 284.605718l0.004111 0.016447c-3.112624-12.91513-4.198137-34.695278 3.342885-40.414777 2.154578-1.636492 11.385544-5.781176 39.06611 9.749053a11.985866 11.985866 0 0 0 11.735047-20.904337c-29.317058-16.447157-50.681915-19.037584-65.307549-7.923418-22.997237 17.470993-13.301638 60.336396-12.121555 65.163637a11.989978 11.989978 0 0 0 14.485833 8.799229 11.97353 11.97353 0 0 0 8.795118-14.485834z" fill="#6E6E96" p-id="4827"></path><path d="M442.009123 594.071314c-101.643431 0-185.622615-31.952714-236.469001-89.970061-40.821844-46.578349-57.688403-106.828397-48.769932-174.245294 10.18079-76.919242 38.149181-147.699582 78.748988-199.302538C286.834308 65.340443 356.113845 29.933826 441.44992 25.316287a364.908962 364.908962 0 0 1 19.41998-0.534533c123.744298 0 162.617154 69.809958 191.004947 120.779698 11.981754 21.516993 22.331128 40.098169 36.233087 49.781433 2.635657 1.833858 5.30832 3.667716 8.001542 5.513909 33.079345 22.688853 74.246579 50.92451 74.246579 108.830839-0.004112 159.467523-144.229232 284.383681-328.346932 284.383681z m18.860777-548.730614c-5.916865 0-12.080437 0.172695-18.313909 0.509862-53.741086 2.907035-231.715773 32.170639-265.403662 286.706842-8.120784 61.368455 7.043495 116.005911 43.848121 157.999615 46.886733 53.49849 125.376678 82.95946 221.008673 82.95946 172.588243 0 307.783874-115.886669 307.783874-263.824735 0-47.075875-33.202698-69.851076-65.315772-91.873819a1590.398972 1590.398972 0 0 1-8.124896-5.600257c-17.799936-12.401156-29.769354-33.893479-42.441889-56.648121-28.77019-51.672856-61.38079-110.228847-173.04054-110.228847z" fill="#6E6E96" p-id="4828"></path><path d="M520.166013 35.061227c107.856344 26.759525 144.237456 108.678702 144.237456 108.678702-187.304337 96.972438-338.552393 39.090781-338.552393 39.090781 33.749566 181.687633-73.749052 264.996595-73.749052 264.996595l-30.460135-73.621587 30.460135 73.621587c11.661034 26.751301-4.36672 47.441825-22.59017 68.790234-49.411372-45.344812-95.011115-125.779634-84.900225-202.197237 0 0 16.056537-334.995695 375.554384-279.359075z" fill="#8B8BB7" p-id="4829"></path><path d="M234.824285 524.216126a10.275361 10.275361 0 0 1-6.948924-2.705557c-51.438484-47.211564-98.600707-130.635657-88.197879-210.720977 0.386508-6.796788 5.217861-76.508063 43.815226-146.95946C220.478252 96.330999 296.509348 15.863283 448.690781 15.863283c24.744748 0 51.105429 2.13813 78.36248 6.356826 0.300161 0.049341 0.600321 0.106907 0.900481 0.180919 111.45416 27.651783 149.586894 110.952522 151.157598 114.484549a10.283585 10.283585 0 0 1-4.670993 13.301638c-73.539351 38.075169-150.076197 57.380019-227.476518 57.380019-47.458272 0-83.387086-7.405332-102.942756-12.676646 22.141985 152.38291-52.482878 233.228911-74.517957 253.405461 8.943142 30.365564-11.58291 54.407196-26.862319 72.309926a10.27125 10.27125 0 0 1-7.816512 3.610151zM448.690781 36.422229c-113.917122 0-196.999936 46.05204-246.941729 136.877353-37.672213 68.510633-41.52496 138.238355-41.557854 138.93736-0.012335 0.279602-0.041118 0.567427-0.078124 0.847028-6.669322 50.389978 13.823836 126.203148 73.851847 185.819981 13.85673-17.216062 21.759589-31.907485 14.033537-49.645743a3.762287 3.762287 0 0 0-0.082236-0.189143L217.456087 375.447478a10.287697 10.287697 0 0 1 19.000579-7.861741l24.855766 60.06913c25.217604-25.624671 86.022743-104.139287 59.744298-245.63418a10.27125 10.27125 0 0 1 13.782717-11.476003c0.423514 0.16036 44.123611 16.463604 112.128494 16.459492 70.817347 0 140.964472-16.932348 208.673305-50.352971-12.516287-20.854995-51.43026-73.99576-132.185801-94.188757-26.06052-4.004883-51.212335-6.040218-74.764664-6.040219z" fill="#6E6E96" p-id="4830"></path><path d="M551.395053 961.936653c121.240218 0 215.420752-43.001092 215.420752-204.388821 0-8.04266-0.563315-34.670607-17.668359-23.877161-50.196723 20.13132-109.365371 43.934468-176.054481 57.819981-59.953999 12.475169-73.823065 18.688082-126.240154 15.369868-26.961002-1.710504-102.223193 32.980662-95.50453 57.852875 18.560617 123.444137 91.096691 97.223257 200.046772 97.223258z" fill="#E8E8E8" p-id="4831"></path><path d="M464.134661 974.54751h-0.016447c-67.421009-0.004112-109.159782-17.664247-122.860263-107.811114-1.295214-5.46868-1.077289-13.860842 6.566527-23.840154 18.585288-24.26778 74.596081-47.820109 99.677995-46.298748 41.668872 2.643881 57.741857-0.867588 95.525089-9.161066 8.194796-1.800964 17.364086-3.811629 27.96839-6.015548 65.410344-13.618246 122.802698-36.631931 173.439384-56.940058l0.094571-0.041118c4.033665-2.384838 7.99743-3.593704 11.784388-3.593703 9.481786 0 20.780983 6.36505 20.780983 36.693607 0 144.451269-73.827176 214.668294-225.700225 214.668294-17.010472 0-32.984774 0.641439-48.432766 1.26232-13.688146 0.555092-26.615612 1.077289-38.827626 1.077288z m-19.296627-157.469193c-20.279345 0-67.092066 20.550723-80.693864 38.313652-2.545198 3.326438-3.153742 5.608481-2.874141 6.636428l0.242595 1.151301c11.611693 77.211179 42.339094 90.800642 102.60559 90.804754h0.016447c11.800835 0 24.526823-0.513974 38.005268-1.05673 15.64947-0.624992 31.833473-1.278766 49.255124-1.278766 65.550145 0 113.559396-12.898683 146.757983-39.423836 39.284035-31.393511 58.379184-81.989078 58.379184-154.685512 0-8.597751-0.982718-13.104272-1.735175-15.287632l-0.168584 0.102794-2.549309 1.204755c-51.422037 20.624735-109.710761 43.996145-176.893286 57.984452-10.526181 2.191584-19.621458 4.189913-27.754578 5.970318-38.071057 8.351044-56.709798 12.401156-101.232252 9.596916a28.659171 28.659171 0 0 0-1.361002-0.032894z" fill="#6E6E96" p-id="4832"></path><path d="M634.909605 894.655445c-56.824928 3.379891 77.239961-26.796531 79.497334-27.306393 13.85673-21.998073 20.79743-50.80938 18.564728-88.370575-0.328943-5.596145-1.895535-20.102538-15.369868-11.763829-40.024157 16.438934-87.198715 31.866367-140.911018 44.769162-48.284741 11.574687-59.608609 11.714488-102.416448 11.928301-22.006296 0.127465-107.872792 27.495535-101.36794 44.469 20.230003 84.994796 104.51346 68.514745 193.188307 63.239319 29.933826-1.780405 57.655509-6.225249 81.610793-14.646193 1.258208-0.731898 43.66309-25.686348-12.795888-22.318792z" fill="#FFFFFF" p-id="4833"></path><path d="M518.981818 870.519242c12.787665 43.140893 2.524639 85.068808-68.958818 109.192676-71.487568 24.111532-111.273241-0.929264-124.085576-44.061934-12.791776-43.136781 6.258143-88.033408 77.733376-112.153164 71.487568-24.111532 102.511018 3.889753 115.311018 47.022422z" fill="#F9D5B3" p-id="4834"></path><path d="M503.431031 864.528365c-8.005654-17.433987-20.719306-30.439576-40.591584-34.925538-8.478509-1.052618-17.997302-1.344555-28.280886-0.908706-9.156955 1.114295-19.300739 3.47035-30.575265 7.281979-64.89637 21.878831-82.194668 62.651333-70.578863 101.820238a79.464439 79.464439 0 0 0 4.979377 12.75477c16.249791-1.961323 33.807131-5.571474 51.874333-10.937359 60.29939-17.910954 106.355541-49.337359 113.172888-75.085384z" fill="#FFE2C7" p-id="4835"></path><path d="M404.600064 996.710055c-41.405718 0-71.734276-22.166656-83.210279-60.809252-16.27035-54.859492 15.246515-101.520077 84.299903-124.82981 67.774623-22.849213 111.302024-3.971988 128.452297 53.84388 21.46354 72.408609-29.226598 106.236299-75.529457 121.865211-19.535111 6.582975-37.709219 9.929971-54.012464 9.929971z m51.43026-174.512561c-12.606746 0-27.331063 2.812464-43.765885 8.351044-58.157147 19.62557-84.094314 55.895663-71.162736 99.497077 6.245808 21.02769 22.331128 46.101381 63.498361 46.101381 14.062319 0 30.024285-2.981047 47.441825-8.856794 56.442531-19.045808 76.265467-49.723868 62.39229-96.5407-9.827176-33.120463-28.387793-48.552008-58.403855-48.552008z" fill="#6E6E96" p-id="4836"></path><path d="M439.171988 922.84176c-9.473562-51.376807-23.560553-75.303309-38.774172-89.505428 0 0-89.501317-48.827498-89.501317 50.200835 1.229425 20.7522 6.82557 43.946804 17.022807 66.878252 26.187986 58.926052 61.401349 68.29682 92.544041 52.178606 9.786058-5.057501 18.001413-12.039319 23.868937-21.048249" fill="#F9D5B3" p-id="4837"></path><path d="M398.975137 1017.190877c-6.599422 0-13.104272-1.10196-19.391199-3.30999-22.17488-7.783617-40.92875-28.6345-55.743527-61.968776-10.353485-23.272727-16.537616-47.635079-17.890395-70.451398a9.975201 9.975201 0 0 1-0.016447-0.604433c0-32.594154 9.243302-54.604562 27.470864-65.426791 31.179698-18.515387 75.360874 5.180854 77.227626 6.20469 0.760681 0.415291 1.459685 0.921041 2.092901 1.509027 20.320463 18.980019 33.231481 48.325859 41.866238 95.155027a10.279473 10.279473 0 0 1-8.244137 11.973531 10.308256 10.308256 0 0 1-11.973531-8.24825c-9.781947-53.050305-24.284227-72.852682-34.711725-82.934789-10.8469-5.563251-38.913974-16.019531-55.792868-5.957983-11.480116 6.837906-17.322968 22.791648-17.37231 47.421266 1.245872 20.29168 6.821458 42.067716 16.134661 63.009058 12.24902 27.565435 27.384517 45.172117 43.765885 50.924511 10.871571 3.819852 22.536717 2.57398 34.662384-3.696499 8.564857-4.432509 15.283521-10.332926 19.975072-17.532669a10.279473 10.279473 0 0 1 17.224285 11.221073c-6.656987 10.217796-15.99486 18.482493-27.754577 24.572052-10.472727 5.411115-21.126373 8.141343-31.5292 8.141343z" fill="#6E6E96" p-id="4838"></path></svg>