<?xml version="1.0" standalone="no"?><!DOCTYPE svg PUBLIC "-//W3C//DTD SVG 1.1//EN" "http://www.w3.org/Graphics/SVG/1.1/DTD/svg11.dtd"><svg t="1711552723492" class="icon" viewBox="0 0 1164 1024" version="1.1" xmlns="http://www.w3.org/2000/svg" p-id="5943" xmlns:xlink="http://www.w3.org/1999/xlink" width="227.34375" height="200"><path d="M154.515819 758.354623c0 12.729352-10.414924 23.144277-23.144277 23.144276H84.050755c-12.729352 0-23.144277-10.414924-23.144277-23.144276v-192.046578c0-12.729352 10.414924-23.144277 23.144277-23.144277h47.320787c12.729352 0 23.144277 10.414924 23.144277 23.144277v192.046578z" fill="#FFC900" p-id="5944"></path><path d="M131.371542 797.699893H84.050755c-21.695445 0-39.34527-17.649825-39.34527-39.34527v-192.046578c0-21.695445 17.649825-39.34527 39.34527-39.34527h47.320787c21.695445 0 39.34527 17.649825 39.345271 39.34527v192.046578c0 21.695445-17.649825 39.34527-39.345271 39.34527z m-47.320787-238.335131c-3.763259 0-6.943283 3.180024-6.943283 6.943283v192.046578c0 3.763259 3.180024 6.943283 6.943283 6.943283h47.320787c3.763259 0 6.943283-3.180024 6.943283-6.943283v-192.046578c0-3.763259-3.180024-6.943283-6.943283-6.943283H84.050755z" fill="#6E6E96" p-id="5945"></path><path d="M205.433227 189.954335h127.312037v222.805322H205.433227z" fill="#F0F0FF" p-id="5946"></path><path d="M285.290239 185.32548V51.426582a16.200994 16.200994 0 0 0-16.200993-16.200993H184.163637v32.401987h84.925609a16.200994 16.200994 0 0 1-16.200994-16.200994v133.898898h32.401987z" fill="#6E6E96" p-id="5947"></path><path d="M269.977986 206.155329h46.561655v190.403334H269.977986z" fill="#6E6E96" opacity=".15" p-id="5948"></path><path d="M221.634221 206.155329h48.348394v46.566284H221.634221z" fill="#FFFFFF" p-id="5949"></path><path d="M205.433227 206.155329h127.312037a16.200994 16.200994 0 0 1-16.200994-16.200994V412.755028a16.200994 16.200994 0 0 1 16.200994-16.200994H205.433227c8.952206 0 16.200994 7.248787 16.200994 16.200994V189.954335a16.200994 16.200994 0 0 1-16.200994 16.200994z m0 222.796063h127.312037a16.200994 16.200994 0 0 0 16.200993-16.200993V189.954335a16.200994 16.200994 0 0 0-16.200993-16.200993H205.433227a16.200994 16.200994 0 0 0-16.200993 16.200993V412.755028a16.200994 16.200994 0 0 0 16.200993 16.196364z" fill="#6E6E96" p-id="5950"></path><path d="M126.224255 810.818069V492.325051c0-43.765827 35.794938-79.565394 79.560765-79.565394h218.454198l579.99557 0.004628 108.139318 106.449786v302.042067h-132.829632" fill="#FFC900" p-id="5951"></path><path d="M1051.384308 540.057806v219.838226l-908.959059-4.628856v50.917409h953.757121v-217.546942z" fill="#E3AB3D" p-id="5952"></path><path d="M1011.187329 422.012738l-579.995571-0.004628H212.737561c-43.765827 0-79.560765 35.799567-79.560765 79.565393v55.546264c0-43.765827 35.794938-79.565394 79.560765-79.565394h218.454197l556.851294 0.004629 108.139318 106.449786v246.495802h23.144276v-302.042066L1011.187329 422.012738z" fill="#FFE78C" p-id="5953"></path><path d="M142.425249 810.818069V492.325051c0-34.943229 28.4258-63.3644 63.359771-63.364401h218.454198l579.99557 0.004629a16.182478 16.182478 0 0 1-11.36384-4.656628l108.139318 106.445156a16.182478 16.182478 0 0 1-4.837154-11.539736v302.042067c0-8.952206 7.248787-16.200994 16.200994-16.200994h-132.829632a16.200994 16.200994 0 1 0 0 32.401987h132.829632a16.200994 16.200994 0 0 0 16.200993-16.200993v-302.042067c0-4.341866-1.74045-8.498578-4.837154-11.544365l-108.139317-106.449786a16.159334 16.159334 0 0 0-11.36384-4.656628l-579.99557-0.004629H205.794278c-52.805981 0-95.761759 42.960406-95.761758 95.766388v318.502276a16.200994 16.200994 0 1 0 32.392729-0.009258z" fill="#6E6E96" p-id="5954"></path><path d="M801.398348 458.890829c-217.597859 0-274.143956 157.547719-288.757252 245.45431H344.571989l11.817468 48.60761h151.308022c-0.175897 5.744409-0.097206 8.989237-0.097206 8.989237l588.586726-2.018181c-0.004629 0.013887 6.984943-301.032976-294.788651-301.032976z" fill="#E3AB3D" p-id="5955"></path><path d="M142.425249 637.231366s156.881164-41.576378 235.567075 119.234684H139.601647l2.823602-119.234684z" fill="#E3AB3D" p-id="5956"></path><path d="M1137.119966 844.446703c0 12.729352-10.414924 23.144277-23.144277 23.144276h-1013.719312c-12.729352 0-23.144277-10.414924-23.144276-23.144276v-52.148684c0-12.729352 10.414924-23.144277 23.144276-23.144277h1013.719312c12.729352 0 23.144277 10.414924 23.144277 23.144277v52.148684z" fill="#AEAEBD" p-id="5957"></path><path d="M1120.918972 844.446703c0 3.758631-3.180024 6.943283-6.943283 6.943283h-1013.719312c-3.758631 0-6.943283-3.184652-6.943283-6.943283v-52.148684c0-3.763259 3.184652-6.943283 6.943283-6.943283h1013.719312c3.763259 0 6.943283 3.180024 6.943283 6.943283v52.148684z m32.401988-52.148684c0-21.700074-17.645196-39.34527-39.345271-39.34527h-1013.719312c-21.695445 0-39.34527 17.645196-39.34527 39.34527v52.148684c0 21.695445 17.649825 39.34527 39.34527 39.34527h1013.719312c21.700074 0 39.34527-17.649825 39.345271-39.34527v-52.148684z" fill="#6E6E96" p-id="5958"></path><path d="M190.819931 833.184698m-144.531378 0a144.531378 144.531378 0 1 0 289.062756 0 144.531378 144.531378 0 1 0-289.062756 0Z" fill="#B3B3C7" p-id="5959"></path><path d="M195.448787 700.225458c34.272045 0 66.498135 13.349619 90.744079 37.586305s37.586305 56.467406 37.586305 90.744079c0 70.756682-57.569073 128.330385-128.330384 128.330385-70.76594 0-128.339642-57.573702-128.339643-128.330385 0.004629-70.761311 57.578331-128.330385 128.339643-128.330384zM34.716415 828.555842c0 88.624064 72.103679 160.732372 160.741629 160.732372 88.624064 0 160.732372-72.103679 160.732372-160.732372 0-42.932633-16.719425-83.296251-47.075459-113.661542-30.356033-30.360662-70.719651-47.080087-113.652284-47.080087s-83.30088 16.719425-113.661542 47.080087c-30.356033 30.365291-47.084716 70.728909-47.084716 113.661542z" fill="#6E6E96" p-id="5960"></path><path d="M1004.244046 412.755028V16.196365h-430.29839l-81.782615 396.554034z" fill="#FFC900" p-id="5961"></path><path d="M1020.445039 412.755028V16.196365c0-8.952206-7.248787-16.200994-16.200993-16.200994h-430.29839a16.200994 16.200994 0 0 0-15.867716 12.928393l-81.777987 396.554034a16.210251 16.210251 0 0 0 15.863088 19.473594l512.076376 0.004629a16.210251 16.210251 0 0 0 16.205622-16.200993z m-512.414282 3.267972l81.777986-396.554035a16.200994 16.200994 0 0 1-15.867716 12.928393h430.29839a16.200994 16.200994 0 0 1-16.200994-16.200993V412.755028a16.205622 16.205622 0 0 1 16.200994-16.200994l-512.076376-0.004629a16.200994 16.200994 0 0 1 15.867716 19.473595z" fill="#6E6E96" p-id="5962"></path><path d="M919.563767 337.133419V97.442033h-281.193703l-47.140262 239.686757z" fill="#BFE4FF" p-id="5963"></path><path d="M935.76476 337.133419V97.442033a16.200994 16.200994 0 0 0-16.200993-16.200993h-281.193703a16.210251 16.210251 0 0 0-15.900118 13.076516l-47.140262 239.682128a16.191736 16.191736 0 0 0 15.895489 19.32547l328.333965 0.004629a16.21488 16.21488 0 0 0 16.205622-16.196364z m-328.63484 3.119848l47.144891-239.686757a16.210251 16.210251 0 0 1-15.904747 13.076517h281.193703a16.200994 16.200994 0 0 1-16.200994-16.200994v239.691386a16.196365 16.196365 0 0 1 16.200994-16.200994l-328.333965-0.004629a16.200994 16.200994 0 0 1 15.900118 19.325471z" fill="#6E6E96" p-id="5964"></path><path d="M190.86622 834.314138m-58.170825 0a58.170825 58.170825 0 1 0 116.341649 0 58.170825 58.170825 0 1 0-116.341649 0Z" fill="#F0F0FF" p-id="5965"></path><path d="M195.495075 787.715452c23.139648 0 41.960573 18.820926 41.960573 41.965202 0 23.139648-18.820926 41.965202-41.960573 41.965202-23.144277 0-41.969831-18.825555-41.969831-41.965202-0.004629-23.135019 18.825555-41.965202 41.969831-41.965202z m-74.376447 41.97446c0 41.007029 33.364789 74.367189 74.371818 74.367189 41.0024 0 74.362561-33.36016 74.362561-74.367189 0-41.0024-33.364789-74.367189-74.362561-74.367189-41.007029-0.009258-74.371818 33.355531-74.371818 74.367189z" fill="#6E6E96" p-id="5966"></path><path d="M642.605467 159.866776h260.757306v-46.223749H651.696539z" fill="#6E6E96" opacity=".15" p-id="5967"></path><path d="M732.868145 229.123709h-69.432829l9.25771-46.288553h60.175119z" fill="#FFFFFF" opacity=".73" p-id="5968"></path><path d="M988.043052 477.559002l63.341256 122.641521-1.064637-61.34159zM1016.769728 710.524661h55.546264v42.428088h-55.546264z" fill="#E3AB3D" p-id="5969"></path><path d="M804.083084 742.389701m-235.321746 0a235.321746 235.321746 0 1 0 470.643492 0 235.321746 235.321746 0 1 0-470.643492 0Z" fill="#B3B3C7" p-id="5970"></path><path d="M804.083084 523.268948c120.831639 0 219.120753 98.289114 219.120753 219.120753 0 120.82701-98.289114 219.120753-219.120753 219.120752-120.82701 0-219.120753-98.293742-219.120752-219.120752s98.293742-219.120753 219.120752-219.120753z m-251.522739 219.120753c0 138.689763 112.832977 251.52274 251.522739 251.52274s251.52274-112.832977 251.52274-251.52274-112.832977-251.52274-251.52274-251.52274-251.52274 112.832977-251.522739 251.52274z" fill="#6E6E96" p-id="5971"></path><path d="M800.995638 743.93111m-145.832087 0a145.832086 145.832086 0 1 0 291.664173 0 145.832086 145.832086 0 1 0-291.664173 0Z" fill="#F0F0FF" p-id="5972"></path><path d="M800.995638 614.300017c71.478784 0 129.631093 58.14768 129.631093 129.631093 0 71.474155-58.14768 129.631093-129.631093 129.631093-71.474155 0-129.631093-58.152309-129.631093-129.631093 0-71.478784 58.14768-129.631093 129.631093-129.631093z m-162.03308 129.631093c0 89.346165 72.686915 162.03308 162.03308 162.03308 89.350794 0 162.03308-72.686915 162.03308-162.03308s-72.682286-162.03308-162.03308-162.03308c-89.346165 0-162.03308 72.686915-162.03308 162.03308zM614.059316 745.444745c0-5.323184 0.277731-10.581563 0.712844-15.793654h-42.58084a15.978809 15.978809 0 0 0 0 31.94373h42.608613a188.051876 188.051876 0 0 1-0.740617-16.150076z m80.741123-153.798346a186.774312 186.774312 0 0 1 27.745359-15.85383l-21.538064-37.303945a15.983437 15.983437 0 0 0-27.680554 15.969551l21.473259 37.188224z m107.352413-91.952211a15.983437 15.983437 0 0 0-15.97418 15.97418v43.51124a188.287947 188.287947 0 0 1 14.784564-0.638782c5.790698 0 11.507334 0.296247 17.163795 0.819307v-43.691765a15.969551 15.969551 0 0 0-15.974179-15.97418z m122.965541 32.948192a15.97418 15.97418 0 0 0-21.825053 5.855502l-22.033351 38.146397a187.551959 187.551959 0 0 1 27.541689 16.200993l22.15833-38.377839a15.969551 15.969551 0 0 0-5.841615-21.825053z m84.171105 111.842402a15.983437 15.983437 0 0 0-15.97418-27.675926l-38.660199 22.315712a187.18628 187.18628 0 0 1 15.886231 27.722214l38.748148-22.362z m-414.273292 0l36.864203 21.292735a185.418057 185.418057 0 0 1 16.089901-27.615751l-36.970667-21.343652a15.978809 15.978809 0 0 0-15.983437 27.666668z m414.273292 202.285606l-38.873127-22.445319a186.29754 186.29754 0 0 1-15.93252 27.685183l38.840725 22.426804a15.97418 15.97418 0 0 0 15.964922-27.666668z m-414.273292 0a15.983437 15.983437 0 0 0 15.974179 27.675926l37.151193-21.454744a186.723394 186.723394 0 0 1-16.131561-27.57872l-36.993811 21.357538z m313.646606 51.384923a186.380859 186.380859 0 0 1-27.564833 16.168591l22.195361 38.447273a15.983437 15.983437 0 0 0 27.675926-15.97418l-22.306454-38.641684z m123.446942-168.50422h-44.9647c0.44437 5.212091 0.712844 10.470471 0.712844 15.793654 0 5.448163-0.286989 10.826893-0.740617 16.150076h44.992473a15.969551 15.969551 0 1 0 0-31.94373z m-245.931082 202.063421v43.876919a15.978809 15.978809 0 0 0 31.948359 0v-44.062073a189.500707 189.500707 0 0 1-17.163795 0.823936 190.357046 190.357046 0 0 1-14.784564-0.638782z m-112.842235 5.073225a15.983437 15.983437 0 0 0 27.680555 15.97418l21.700074-37.590934a187.126105 187.126105 0 0 1-27.759246-15.816799l-21.621383 37.433553z" fill="#6E6E96" p-id="5973"></path><path d="M804.999598 747.166679m-54.38905 0a54.38905 54.38905 0 1 0 108.7781 0 54.38905 54.38905 0 1 0-108.7781 0Z" fill="#6E6E96" p-id="5974"></path><path d="M803.601683 607.356734c-73.02945 0-132.237138 59.207688-132.237138 132.232509 0 73.02945 59.207688 132.23251 132.237138 132.23251 73.024821 0 132.227881-59.203059 132.227881-132.23251 0.004629-73.024821-59.193802-132.23251-132.227881-132.232509z m-3.443868 250.976535c-58.346721 0-105.648994-47.297644-105.648994-105.639736 0-58.346721 47.302272-105.648994 105.648994-105.648994 58.342092 0 105.639736 47.302272 105.639736 105.648994 0 58.342092-47.293015 105.639736-105.639736 105.639736z" fill="#6E6E96" opacity=".15" p-id="5975"></path></svg>