<?xml version="1.0" standalone="no"?><!DOCTYPE svg PUBLIC "-//W3C//DTD SVG 1.1//EN" "http://www.w3.org/Graphics/SVG/1.1/DTD/svg11.dtd"><svg t="1711552826912" class="icon" viewBox="0 0 1093 1024" version="1.1" xmlns="http://www.w3.org/2000/svg" p-id="2693" xmlns:xlink="http://www.w3.org/1999/xlink" width="213.4765625" height="200"><path d="M129.00592 215.91372h227.210355v555.846846H129.00592z" fill="#FF9696" p-id="2694"></path><path d="M129.00592 238.893043h227.210355a22.979323 22.979323 0 0 1-22.979323-22.979323v555.846846a22.979323 22.979323 0 0 1 22.979323-22.979323H129.00592a22.979323 22.979323 0 0 1 22.979323 22.979323V215.91372a22.979323 22.979323 0 0 1-22.979323 22.979323z m0 555.846846h227.210355a22.979323 22.979323 0 0 0 22.979323-22.979323V215.91372a22.979323 22.979323 0 0 0-22.979323-22.979323H129.00592a22.979323 22.979323 0 0 0-22.979323 22.979323v555.846846a22.979323 22.979323 0 0 0 22.979323 22.979323z" fill="#6E6E96" p-id="2695"></path><path d="M356.216275 114.478392h227.210355v657.28677H356.216275z" fill="#FFDF80" p-id="2696"></path><path d="M356.216275 137.457715h227.210355a22.979323 22.979323 0 0 1-22.979323-22.979323v657.28677a22.979323 22.979323 0 0 1 22.979323-22.979323H356.216275a22.979323 22.979323 0 0 1 22.979323 22.979323V114.478392a22.979323 22.979323 0 0 1-22.979323 22.979323z m0 657.28677h227.210355c12.70297 0 22.979323-10.285545 22.979323-22.979323V114.478392c0-12.698374-10.276353-22.979323-22.979323-22.979323H356.216275a22.979323 22.979323 0 0 0-22.979323 22.979323v657.28677a22.979323 22.979323 0 0 0 22.979323 22.979323z" fill="#6E6E96" p-id="2697"></path><path d="M1047.820366 631.839468l-208.891238 89.440121-258.728795-604.287259 208.891239-89.435526z" fill="#96D3FF" p-id="2698"></path><path d="M589.27257 138.133307l208.877451-89.43093a22.974727 22.974727 0 0 1-30.16266-12.082528l258.715007 604.259685a22.965536 22.965536 0 0 1 12.082528-30.16266l-208.872855 89.435526a22.979323 22.979323 0 0 1 30.16266 12.082528l-258.715007-604.26428a22.988515 22.988515 0 0 1-12.087124 30.162659z m258.719603 604.259684l208.872855-89.435525a22.979323 22.979323 0 0 0 12.082528-30.167256L810.232549 18.52593a22.979323 22.979323 0 0 0-30.16266-12.082528l-208.872855 89.43093a22.970131 22.970131 0 0 0-12.087124 30.167255l258.719603 604.259684a22.947152 22.947152 0 0 0 30.16266 12.09172z" fill="#6E6E96" p-id="2699"></path><path d="M27.575188 775.823311h1038.665404v220.601501H27.575188z" fill="#F0F0FF" p-id="2700"></path><path d="M27.575188 798.802634h1038.665404a22.979323 22.979323 0 0 1-22.979323-22.979323v220.601501a22.979323 22.979323 0 0 1 22.979323-22.979323H27.575188a22.979323 22.979323 0 0 1 22.979323 22.979323v-220.601501a22.979323 22.979323 0 0 1-22.979323 22.979323z m0 220.601501h1038.665404a22.979323 22.979323 0 0 0 22.979323-22.979323v-220.601501a22.979323 22.979323 0 0 0-22.979323-22.979324H27.575188a22.979323 22.979323 0 0 0-22.979323 22.979324v220.601501a22.979323 22.979323 0 0 0 22.979323 22.979323z" fill="#6E6E96" p-id="2701"></path><path d="M48.256579 797.221656H1066.240592v45.958646H48.256579z" fill="#666666" opacity=".15" p-id="2702"></path><path d="M859.840312 708.677728L593.652429 107.543232l42.029182-18.613252 266.178691 601.129901z" fill="#666666" opacity=".15" p-id="2703"></path><path d="M517.03477 114.478392h45.958646v647.50677h-45.958646z" fill="#666666" opacity=".15" p-id="2704"></path><path d="M287.241539 215.91372h45.958646v550.667307h-45.958646z" fill="#666666" opacity=".15" p-id="2705"></path><path d="M50.554511 927.928046h992.706758v45.517443H50.554511z" fill="#FFFFFF" p-id="2706"></path></svg>