<?xml version="1.0" standalone="no"?><!DOCTYPE svg PUBLIC "-//W3C//DTD SVG 1.1//EN" "http://www.w3.org/Graphics/SVG/1.1/DTD/svg11.dtd"><svg t="1711552879242" class="icon" viewBox="0 0 1024 1024" version="1.1" xmlns="http://www.w3.org/2000/svg" p-id="2339" xmlns:xlink="http://www.w3.org/1999/xlink" width="200" height="200"><path d="M507.854251 524.441393m-480.218688 0a480.218688 480.218688 0 1 0 960.437376 0 480.218688 480.218688 0 1 0-960.437376 0Z" fill="#E8E8F7" p-id="2340"></path><path d="M507.854251 1021.243077c-273.938656 0-496.801684-222.863028-496.801684-496.801684S233.915595 27.639709 507.854251 27.639709s496.801684 222.863028 496.801684 496.801684S781.792907 1021.243077 507.854251 1021.243077z m0-960.437377c-255.651757 0-463.635692 207.983935-463.635692 463.635693 0 255.647611 207.983935 463.635692 463.635692 463.635692 255.647611 0 463.635692-207.988081 463.635692-463.635692 0-255.651757-207.988081-463.635692-463.635692-463.635693z" fill="#6E6E96" p-id="2341"></path><path d="M507.522591 525.00936m-406.99647 0a406.99647 406.99647 0 1 0 813.99294 0 406.99647 406.99647 0 1 0-813.99294 0Z" fill="#FFEA9F" p-id="2342"></path><path d="M507.522591 525.013506V118.012891c-112.387109 0-214.136227 45.557636-287.785457 119.206866l287.785457 287.793749z" fill="#DAFF73" p-id="2343"></path><path d="M507.522591 525.013506L219.737134 237.223903c-79.474008 79.465717-119.211012 183.62766-119.211013 287.785457l406.99647 0.004146z" fill="#BFFFCE" p-id="2344"></path><path d="M507.522591 525.013506H100.526121c0 112.382964 45.557636 214.136227 119.206867 287.789603l287.789603-287.789603z" fill="#8DE6F0" p-id="2345"></path><path d="M138.177814 537.272486c0-209.439093 169.780858-379.219951 379.207514-379.219952 98.473976 0 188.187984 37.548049 255.589571 99.095838-69.350089-75.945976-169.146559-123.593069-280.095093-123.593068-209.426656 0-379.207514 169.776713-379.207515 379.21166 0 110.948534 47.655385 210.761587 123.605507 280.10753-61.551935-67.41817-99.099984-157.123887-99.099984-255.602008z" fill="#FFFFFF" opacity=".62" p-id="2346"></path><path d="M507.522591 525.013506l-287.785457 287.789603c79.474008 79.474008 183.631806 119.206866 287.785457 119.206867v-406.99647z" fill="#82CBFF" p-id="2347"></path><path d="M507.522591 525.013506v406.99647c112.387109 0 214.140372-45.545198 287.785458-119.206867l-287.785458-287.789603z" fill="#E0A1FF" p-id="2348"></path><path d="M233.865846 481.856259a16.582996 16.582996 0 0 1-16.582996-16.582996c0-128.012437 104.149506-232.161943 232.161944-232.161943a16.582996 16.582996 0 0 1 0 33.165992c-109.725538 0-198.995951 89.270413-198.995952 198.995951a16.582996 16.582996 0 0 1-16.582996 16.582996z" fill="#FFFFFF" p-id="2349"></path><path d="M507.522591 525.013506l287.789603 287.789603c79.478154-79.474008 119.211012-183.635951 119.211012-287.789603H507.522591z" fill="#ECC2FF" p-id="2350"></path><path d="M507.522591 525.013506h407.000615c0-112.395401-45.549344-214.140372-119.211012-287.785457l-287.789603 287.785457z" fill="#FF9EAF" p-id="2351"></path><path d="M783.372437 824.713846L207.809814 249.155368l23.452502-23.456647 575.566769 575.566769z" fill="#6E6E96" p-id="2352"></path><path d="M231.540081 824.523142l-23.448356-23.448357L783.658494 225.50387l23.448356 23.448357z" fill="#6E6E96" p-id="2353"></path><path d="M100.526121 508.43051h813.997085v33.165992H100.526121z" fill="#6E6E96" p-id="2354"></path><path d="M490.939595 118.012891h33.165992v813.997085h-33.165992z" fill="#6E6E96" p-id="2355"></path><path d="M507.522591 948.592972c-233.563206 0-423.579466-190.016259-423.579465-423.579466S273.959385 101.43404 507.522591 101.43404s423.579466 190.016259 423.579466 423.579466-190.016259 423.579466-423.579466 423.579466z m0-813.99294c-215.276308 0-390.413474 175.137166-390.413474 390.413474 0 215.280453 175.137166 390.413474 390.413474 390.413474 215.280453 0 390.413474-175.13302 390.413474-390.413474 0-215.276308-175.13302-390.413474-390.413474-390.413474z" fill="#6E6E96" p-id="2356"></path><path d="M582.009263 128.257036c166.713004 41.65234 290.210721 192.400065 290.210721 372.018786 0 211.777296-171.675466 383.456907-383.452761 383.456907-179.614575 0-330.366445-123.506008-372.018786-290.219012 34.430445 185.14915 196.794559 325.354235 391.922527 325.354234 220.18902 0 398.684243-178.50766 398.684242-398.688388-0.012437-195.127968-140.196794-357.492081-325.345943-391.922527z" fill="#6E6E96" opacity=".15" p-id="2357"></path></svg>