<?xml version="1.0" standalone="no"?><!DOCTYPE svg PUBLIC "-//W3C//DTD SVG 1.1//EN" "http://www.w3.org/Graphics/SVG/1.1/DTD/svg11.dtd"><svg t="1711553024562" class="icon" viewBox="0 0 1235 1024" version="1.1" xmlns="http://www.w3.org/2000/svg" p-id="2551" xmlns:xlink="http://www.w3.org/1999/xlink" width="241.2109375" height="200"><path d="M506.531869 628.283325a396.051886 396.051886 0 0 1-97.951469-12.346941c-131.402742-33.590943-235.667353-131.151333-278.881648-261.045625a27.361604 27.361604 0 0 1 7.276874-28.618646c74.402892-69.50043 170.859879-107.784328 271.590807-107.784327a396.261393 396.261393 0 0 1 97.923535 12.360908c131.45861 33.521108 235.723222 131.151333 278.923549 261.031658a27.375571 27.375571 0 0 1-7.290841 28.618645c-74.416859 69.50043-170.873846 107.770361-271.590807 107.770361z" fill="#60B71C" p-id="2552"></path><path d="M572.736057 589.049662c-2.91913-139.098629 71.232354-266.478838 174.184055-289.985514 66.315924-5.726523 67.824374 22.542945 144.545809 23.744118 71.232354-7.262907 68.215454-30.937189 129.782555-23.744118 163.415399 28.814185 188.304822 176.209289 186.572898 289.887745-10.782623 180.762572-161.501903 282.918148-334.931733 268.3644-138.833254-11.676519-279.244793-91.554525-300.153584-268.266631z m0 0" fill="#D10980" p-id="2553"></path><path d="M905.377181 886.004774c-11.467012 0-23.171466-0.488849-34.750215-1.396713-141.780318-11.927927-301.592198-94.976471-324.945236-292.276123-0.111737-0.865962-0.167606-1.745891-0.19554-2.639788-3.226407-154.727846 80.757935-291.088918 195.372188-317.207447a27.780618 27.780618 0 0 1 3.715256-0.586619q9.511614-0.838028 19.06513-0.865962c28.227566 0 45.602673 6.215372 62.405129 12.20727s32.58531 11.634618 64.248789 12.319007c27.152097-2.905163 41.203028-8.282507 54.793044-13.492246 14.805156-5.670654 30.113128-11.536848 55.086353-11.536848a205.526291 205.526291 0 0 1 24.246935 1.550351c0.516784 0 1.033567 0.139671 1.536384 0.223474 82.042911 14.469945 140.928323 57.558535 175.03605 128.1065 24.107263 49.84868 35.239064 111.737025 34.065825 189.100948v1.21514c-10.377576 173.876778-145.928555 295.320958-329.624224 295.320957zM599.930055 587.150133c25.140831 206.043074 216.951401 238.041765 275.236227 242.944227 10.042365 0.851995 20.126632 1.271009 30.196932 1.284976 155.719512 0 266.241397-97.769897 275.152424-243.363241 2.220773-156.06869-51.189525-241.71512-163.289695-261.827784a152.241697 152.241697 0 0 0-17.109732-1.089436c-14.93086 0-22.738485 2.988965-35.658078 7.947296-15.545414 5.949997-34.91782 13.366542-70.310523 16.97006a24.51231 24.51231 0 0 1-3.198473 0.139672c-41.719812-0.684389-64.751606-8.897061-83.258051-15.51748-14.693419-5.237673-25.308436-9.022765-44.122157-9.022765-3.882862 0-8.086967 0.167606-12.486613 0.502817-87.168847 21.271936-153.289231 135.257669-151.152261 261.031658z m0 0" fill="#AD156C" p-id="2554"></path><path d="M715.284567 598.505408a27.291768 27.291768 0 0 1-26.733084-22.179799c-12.01173-62.852077 0.614554-123.58115 35.546341-170.817978 30.629912-41.440469 76.623665-69.137284 123.036432-74.095614a27.312719 27.312719 0 0 1 5.782391 54.318161c-31.523808 3.366078-63.312992 22.920057-85.045843 52.292928-18.157267 24.638014-37.473805 66.846675-25.797286 128.036663a27.291768 27.291768 0 0 1-26.788951 32.445639z m0 0" fill="#AD156C" p-id="2555"></path><path d="M830.164196 340.267176c0 13.590016 10.60105 26.146464 27.808552 32.934488a78.215918 78.215918 0 0 0 55.58917 0c17.207502-6.788024 27.808552-19.344472 27.808552-32.934488s-10.60105-26.160431-27.808552-32.948455a78.411457 78.411457 0 0 0-55.58917 0c-17.207502 6.788024-27.808552 19.35844-27.808552 32.948455z m0 0" fill="#D10980" p-id="2556"></path><path d="M885.767333 405.619368c-46.454668 0-82.839037-28.716415-82.839037-65.352192s36.314533-65.338225 82.839037-65.338226 82.894906 28.688481 82.894905 65.338226-36.384369 65.352193-82.853004 65.352192z m0-76.092914c-17.808088 0-27.668881 8.282507-28.367238 10.908327 0.698356 2.276642 10.573116 10.559149 28.367238 10.559149s27.682848-8.282507 28.367237-10.908327c-0.684389-2.276642-10.559149-10.559149-28.367237-10.559149z m0 0" fill="#AD156C" p-id="2557"></path><path d="M885.795267 346.356844a27.2359 27.2359 0 0 1-24.330737-14.986729c-15.475578-30.629912-29.121462-100.297947 30.015358-144.755316a27.291768 27.291768 0 0 1 32.697047 43.689177c-37.711246 28.381204-15.084498 74.444793-14.092832 76.386224a27.361604 27.361604 0 0 1-11.997763 36.705613 27.082261 27.082261 0 0 1-12.291073 2.961031z m0 0" fill="#167203" p-id="2558"></path><path d="M640.630267 310.782568a378.509173 378.509173 0 0 1-103.356749-39.331432c-93.775298-52.642106-152.548974-139.224333-157.060356-231.616887-0.349178-7.221005 4.32981-13.603983 11.955862-16.355507C454.518284 1.061502 526.407093-2.974998 594.608579 12.123467a378.257764 378.257764 0 0 1 103.356749 39.3454c93.831167 52.642106 152.535006 139.224333 157.046389 231.616886 0.349178 7.221005-4.315843 13.603983-11.955862 16.355507-62.363227 22.347405-134.252036 26.439774-202.439555 11.341308z" fill="#60B71C" p-id="2559"></path><path d="M1101.587397 650.281552a211.769597 211.769597 0 0 0 13.506213-87.49009" fill="#FF2C2C" p-id="2560"></path><path d="M1101.57343 677.601255a27.305736 27.305736 0 0 1-25.476042-36.998923 183.961045 183.961045 0 0 0 11.788256-76.204651 27.281991 27.281991 0 0 1 54.4718-3.170538 238.656319 238.656319 0 0 1-15.238137 98.747596 27.249867 27.249867 0 0 1-25.490009 17.65445z m0 0" fill="#FFFFFF" p-id="2561"></path><path d="M27.277801 727.044888c-2.793426-139.084662 71.232354-266.464871 174.239924-289.971547 66.301957-5.712555 67.810407 22.542945 144.545809 23.744118 71.232354-7.262907 68.201487-30.923222 129.768588-23.744118 163.415399 28.828152 188.304822 176.223256 186.572897 289.887745-10.79659 180.748605-161.501903 282.987983-334.931732 268.350433-138.833254-11.676519-279.244793-91.512624-300.195486-268.266631z m0 0" fill="#D10980" p-id="2562"></path><path d="M359.974794 1024q-17.403042 0-34.764182-1.396713C183.430294 1010.605524 23.618414 927.543013 0.279343 730.257328a23.939658 23.939658 0 0 1-0.181573-2.639787C-3.156571 572.959531 80.841738 436.612426 195.455991 410.451995a28.143763 28.143763 0 0 1 3.715256-0.58662q9.511614-0.838028 19.051163-0.865962c28.227566 0 45.602673 6.201405 62.405129 12.20727s32.58531 11.620651 64.248789 12.319008c27.166064-2.91913 41.216995-8.296474 54.793044-13.492246 14.805156-5.670654 30.113128-11.536848 55.10032-11.536848a204.89777 204.89777 0 0 1 24.219001 1.550351c0.516784 0 1.033567 0.139671 1.550351 0.223474 82.042911 14.469945 140.928323 57.572502 175.03605 128.120467 24.093296 49.834713 35.239064 111.737025 34.051858 189.073013v1.21514c-10.363609 173.876778-145.914588 295.320958-329.624224 295.320958z m-305.433159-298.896542c25.140831 206.043074 216.937434 238.055732 275.222261 242.958194q15.070531 1.271009 30.196931 1.284976c155.719512 0 266.255364-97.769897 275.152424-243.377208 2.234741-156.054723-51.175558-241.631317-163.289695-261.813817a151.83665 151.83665 0 0 0-17.095765-1.089436c-14.93086 0-22.724517 2.988965-35.644111 7.933328-15.559381 5.963964-34.91782 13.380509-70.32449 16.984028a22.347405 22.347405 0 0 1-3.198473 0.139671c-41.719812-0.670422-64.751606-8.897061-83.272018-15.503512-14.693419-5.25164-25.308436-9.036732-44.122157-9.036732-3.882862 0-8.073 0.167606-12.472646 0.502817-87.182814 21.29987-153.275264 135.29957-151.152261 261.059592z m0 0" fill="#AD156C" p-id="2563"></path><path d="M169.88218 736.500634a27.263834 27.263834 0 0 1-26.677215-22.179799c-11.997763-62.852077 0.614554-123.567183 35.546341-170.80401 30.629912-41.440469 76.623665-69.137284 123.036432-74.109582a27.312719 27.312719 0 0 1 5.782391 54.318161c-31.523808 3.380045-63.312992 22.934024-85.045843 52.306895-18.157267 24.638014-37.473805 66.846675-25.797286 128.036664a27.277801 27.277801 0 0 1-26.788952 32.431671z m0 0" fill="#AD156C" p-id="2564"></path><path d="M284.761809 478.262402c0 13.590016 10.60105 26.160431 27.794585 32.948455a78.341622 78.341622 0 0 0 55.617104 0c17.207502-6.788024 27.794585-19.35844 27.794585-32.948455s-10.587083-26.146464-27.794585-32.934488a78.341622 78.341622 0 0 0-55.617104 0c-17.193535 6.788024-27.794585 19.344472-27.794585 32.934488z m0 0" fill="#D10980" p-id="2565"></path><path d="M340.364946 543.614595c-46.454668 0-82.853004-28.702448-82.853004-65.352193s36.398336-65.352193 82.853004-65.352193 82.853004 28.716415 82.853004 65.352193-36.398336 65.352193-82.853004 65.352193z m0-76.078947c-17.808088 0-27.668881 8.282507-28.381205 10.908327 0.712324 2.276642 10.587083 10.545182 28.381205 10.545181s27.668881-8.282507 28.381204-10.908327c-0.712324-2.262675-10.573116-10.545182-28.381204-10.545181z m0 0" fill="#AD156C" p-id="2566"></path><path d="M556.18501 788.276778a211.769597 211.769597 0 0 0 13.506213-87.504058" fill="#FF2C2C" p-id="2567"></path><path d="M556.18501 815.596481a27.305736 27.305736 0 0 1-25.490009-36.984955 184.282289 184.282289 0 0 0 11.788256-76.26052 27.249867 27.249867 0 1 1 54.401964-3.142604 238.907727 238.907727 0 0 1-15.224169 98.747596 27.249867 27.249867 0 0 1-25.476042 17.640483z m0 0M523.390193 611.411035a34.135661 34.135661 0 1 0 17.067831-29.624279 34.233431 34.233431 0 0 0-17.067831 29.624279z m0 0M1063.233663 474.658883a34.135661 34.135661 0 1 0 34.135661-34.205497 34.163595 34.163595 0 0 0-34.135661 34.205497z m0 0" fill="#FFFFFF" p-id="2568"></path></svg>