<?xml version="1.0" standalone="no"?><!DOCTYPE svg PUBLIC "-//W3C//DTD SVG 1.1//EN" "http://www.w3.org/Graphics/SVG/1.1/DTD/svg11.dtd"><svg t="1711553021143" class="icon" viewBox="0 0 1052 1024" version="1.1" xmlns="http://www.w3.org/2000/svg" p-id="2378" xmlns:xlink="http://www.w3.org/1999/xlink" width="205.46875" height="200"><path d="M63.99357 729.323495c-93.689498-163.716099-39.720682-394.595428 135.746691-541.85287 163.074704-136.800412 378.927062-157.714473 525.004795-63.246139a120.078325 120.078325 0 0 1 10.067613-9.792728c36.055567-30.191384 85.96985-30.053942 111.442398 0.389418s16.99697 79.567353-18.932609 109.884725l-1.958546 1.569127c103.081355 164.242959 50.819108 402.567052-128.84024 553.352168C529.54333 919.829293 306.887603 938.383936 160.809869 835.680546c-1.053721 1.053721-2.221976 1.958546-3.264243 2.874825-36.067021 30.17993-85.981304 30.053942-111.453852-0.389419-25.197665-30.053942-17.180226-78.662527 17.901796-108.808097z m0 0" fill="#FFFFFF" p-id="2379"></path><path d="M64.772406 782.891439C-28.894185 619.17534 25.051724 388.296011 200.530551 241.038569 363.593802 104.238157 579.446159 83.335549 725.535347 177.803884a116.585013 116.585013 0 0 1 10.056158-9.804182c36.055567-30.17993 85.981304-30.053942 111.453852 0.400872s16.985517 79.567353-18.944062 109.873271l-1.969999 1.569127c103.104262 164.242959 50.830562 402.589959-128.874601 553.363622-166.934528 140.144829-389.578802 158.745287-535.667989 56.05335-1.042267 1.042267-2.210522 1.958546-3.264243 2.863371-36.055567 30.191384-85.96985 30.053942-111.453852-0.389418-25.197665-30.053942-17.111505-78.651074 17.901795-108.808098z m0 0" fill="#FCD741" p-id="2380"></path><path d="M378.620773 973.832469c-79.567353 0-154.15244-20.925515-215.966893-60.543116-19.058597 13.400576-41.530333 20.742259-63.64701 20.74226-27.110396 0-50.910736-10.594473-67.014334-29.847779-15.908889-18.955516-22.311387-43.832483-18.027784-70.049508a108.097981 108.097981 0 0 1 26.766792-54.873641C-1.279835 697.792054-11.198552 599.166104 12.865217 501.101374c25.472548-104.009087 87.699326-201.650038 175.238304-274.883613 96.678858-81.147933 214.581021-125.827974 331.967778-125.827975 73.783343 0 143.890118 18.325574 203.024455 53.098352l0.160349-0.137442c20.925515-17.512377 46.466784-27.144757 71.939333-27.144757 27.236385 0.137442 50.887829 10.766275 66.888346 29.927954s22.437375 44.267715 17.878888 70.74817a110.113794 110.113794 0 0 1-28.839872 56.648931c97.663857 172.867433 37.429985 414.913908-141.072562 564.656757A549.160193 549.160193 0 0 1 571.531802 933.458938a505.969105 505.969105 0 0 1-147.749942 38.243183c-15.542378 1.374418-30.741151 2.130348-45.161087 2.130348zM172.950562 873.351055c57.462129 40.362077 128.611171 61.688464 205.761838 61.688464 13.583832 0 27.41964-0.675756 41.129461-2.03872 93.758219-9.162787 187.91731-49.879922 265.136699-114.660827 83.221014-69.76317 141.46198-162.490576 163.979529-261.139433 22.196852-96.804846 8.303776-191.639693-39.113647-267.015071l-9.162788-14.706273 13.629646-10.869356c0.962093-0.824651 1.328604-1.145348 1.695116-1.408779 13.744181-11.533658 22.906968-26.915687 25.724525-43.122367 2.622848-15.061331-0.675756-29.000221-9.277322-39.262543s-21.761619-15.954703-37.006207-15.954703c-16.676273 0-33.306731 6.391044-47.131086 17.970517a71.641542 71.641542 0 0 0-8.08616 7.845636l-11.132786 12.346856-13.858715-9.002439c-55.572304-35.883765-123.411289-54.850734-196.140912-54.850734a423.985067 423.985067 0 0 0-47.291435 2.680115c-92.956475 10.640287-182.373824 50.028818-258.5624 113.927805-81.182294 68.159683-138.862039 158.504764-162.410401 254.507865-23.090224 94.021649-12.083426 187.344636 30.993127 262.811642l7.948718 13.824355-12.083426 10.525752c-26.950048 23.284933-33.982487 59.947535-15.691273 81.709154 8.658834 10.308136 21.853247 16.034877 37.155102 16.034878 16.401389 0 33.089115-6.402498 46.959284-18.039238l2.817557-2.451045 11.190054-10.308136z" fill="#FBAC1D" p-id="2381"></path><path d="M583.55796 233.078397a271.344487 271.344487 0 0 1-31.565802-7.639473c-74.126948-22.723712-132.35646-75.157761-172.947607-155.89337a17.661272 17.661272 0 0 1 7.227149-23.525456C465.232018 2.095988 542.772104-8.532846 616.899052 14.190867s132.345007 75.157761 172.947607 155.904822a17.684179 17.684179 0 0 1-7.238602 23.525456c-67.758811 37.727776-134.601343 50.910736-199.050097 39.457252z" fill="#60B71C" p-id="2382"></path><path d="M699.215241 185.603707a127.992683 127.992683 0 0 1-16.034878-3.81401c-19.00133-5.646568-47.131086-18.325574-88.478163-40.087194a19.470923 19.470923 0 0 1-9.506392-11.453484 19.161679 19.161679 0 0 1 1.408779-14.763541 19.402202 19.402202 0 0 1 20.616271-10.079066 19.127318 19.127318 0 0 1 5.646567 1.958546c38.048474 19.951969 65.468114 32.493534 81.491538 37.235276a103.436413 103.436413 0 0 0 11.613833 2.714476c16.378482 2.920638 36.250277 2.943545 59.04271 0.080174a19.470923 19.470923 0 0 1 4.936451 38.598241c-26.652257 3.355871-50.418236 3.229882-70.736716-0.389418z" fill="#167203" p-id="2383"></path><path d="M417.562618 696.658159c0 170.084236 137.877039 307.972729 307.972729 307.972728s307.961275-137.888493 307.961275-307.972728-137.877039-307.972729-307.961275-307.972729-307.972729 137.888493-307.972729 307.972729z m0 0" fill="#FCD741" p-id="2384"></path><path d="M725.535347 1023.998729a327.248942 327.248942 0 1 1 231.486363-95.842754 325.278943 325.278943 0 0 1-231.486363 95.842754z m0-615.808016c-159.065984 0-288.467446 129.424368-288.467446 288.467446s129.424368 288.455992 288.467446 288.455992 288.455992-129.424368 288.455992-288.455992-129.401461-288.467446-288.455992-288.467446z" fill="#FBAC1D" p-id="2385"></path><path d="M489.685206 698.101298c0 130.249019 105.589668 235.838687 235.850141 235.838687s235.838687-105.589668 235.838687-235.838687-105.589668-235.850141-235.838687-235.850141-235.850141 105.646936-235.850141 235.850141z m0 0" fill="#FFE22A" p-id="2386"></path><path d="M725.535347 948.703525c-138.243551 0-250.613681-112.370131-250.613682-250.602227S587.303249 447.487616 725.535347 447.487616s250.602228 112.393038 250.602227 250.613682-112.370131 250.602228-250.602227 250.602227z m0-471.814816c-121.910883 0-221.212588 99.164264-221.212589 221.212589s99.164264 221.201135 221.212589 221.201134 221.201135-99.164264 221.201134-221.201134-99.164264-221.212588-221.201134-221.212589z m0 0" fill="#FFFFFF" p-id="2387"></path><path d="M492.823461 684.254036h455.883019v29.401093H492.823461z" fill="#FFFFFF" p-id="2388"></path><path d="M554.443204 851.016761l322.346851-322.346851 20.788073 20.77662-322.358304 322.358305z m0 0" fill="#FFFFFF" p-id="2389"></path><path d="M554.443204 549.44653l20.77662-20.77662 322.358304 322.346851-20.788073 20.788074z m0 0" fill="#FFFFFF" p-id="2390"></path><path d="M710.118957 465.389412h29.401093v455.871566H710.118957zM116.416165 605.259357c-12.266681-3.859824-20.272667-14.43139-18.611911-24.567723 18.325574-111.488212 77.482819-213.401312 162.295867-279.602449 9.36895-7.112614 24.945688-5.829823 34.944579 2.851917s10.709007 21.578364 1.580581 28.908594c-78.009679 60.875267-132.482448 155.125986-149.490872 258.585306-0.939186 5.726742-4.821917 10.445577-10.6861 13.079879a28.530628 28.530628 0 0 1-20.032144 0.744476z m0 0" fill="#FFFFFF" p-id="2391"></path><path d="M322.289763 300.187305a28.461908 27.957954 19.45 1 0 18.61911-52.724923 28.461908 27.957954 19.45 1 0-18.61911 52.724923Z" fill="#FFFFFF" p-id="2392"></path></svg>