<?xml version="1.0" standalone="no"?><!DOCTYPE svg PUBLIC "-//W3C//DTD SVG 1.1//EN" "http://www.w3.org/Graphics/SVG/1.1/DTD/svg11.dtd"><svg t="1711553031582" class="icon" viewBox="0 0 1024 1024" version="1.1" xmlns="http://www.w3.org/2000/svg" p-id="2727" xmlns:xlink="http://www.w3.org/1999/xlink" width="200" height="200"><path d="M458.75024 999.850526c-82.669507 0-60.647269-40.967333-72.737683-78.811596-111.374196-107.194793-216.628553-261.603061-201.42655-396.331393 18.566193-164.190826 74.126991-302.306311 327.371246-252.693125 253.232773-49.613186 391.715679 5.258699 415.437235 214.952199 22.837451 201.759523-86.309261 436.242393-390.383781 511.437199q-68.61569 1.446716-78.180093 1.446716z m0 0" fill="#FFD2D1" p-id="2728"></path><path d="M458.75024 999.850526c-82.669507 0-123.556467-40.967333-135.6354-78.811596-179.576539-104.485071-245.103605-270.673743-226.606303-434.014909q35.593815-314.523027 415.402789-240.074544 379.889346-74.517375 415.402788 240.017134c22.837451 201.759523-86.309261 436.242393-390.383781 511.437199q-68.581245 1.446716-78.145647 1.446716z m0 0" fill="#FF9EBB" p-id="2729"></path><path d="M339.315767 550.426939a22.871897 22.871897 0 1 1-45.72083-1.389306c6.360959-203.447359 93.738035-316.784956 259.341132-331.424349a22.862711 22.862711 0 0 1 4.018656 45.548602c-140.377415 12.377462-211.955429 105.265838-217.638958 287.265053z m0 0" fill="#F275A2" p-id="2730"></path><path d="M904.694819 489.538552c-22.079647-195.145963-147.232095-267.470299-388.351489-220.245344l-4.397558 0.861141-4.397559-0.861141c-241.119394-47.236437-366.271842 25.099381-388.340007 220.245344C100.240147 656.840965 173.689707 807.689851 334.596716 901.26714l7.612484 4.46645 2.686759 8.393251c11.63114 36.466438 50.589145 62.886234 113.900209 62.886234 6.016503 0 32.642973 2.973806 75.194805-1.400789 262.429756-65.940413 395.699889-265.656163 370.703846-486.073734zM511.957253 223.560896c262.647911-50.152834 412.934185 37.890191 438.171349 260.845257 27.556502 243.587997-120.915635 465.303021-407.606595 536.203605l-22.056684 2.904915c-31.265148 1.148188-55.836363 0-61.669155-0.780768-77.583036-10.40258-133.557181-34.755638-154.339376-86.114069C132.596073 833.386289 53.118528 666.979462 73.751459 484.406153c25.260127-222.97803 175.569365-310.998091 438.205794-260.845257z m0 0" fill="#F275A2" p-id="2731"></path><path d="M537.699619 242.195981c0.711876-40.060265 12.274125-91.051276 45.628975-130.824494C643.631406 39.540871 746.830507 26.86488 769.622031 45.982203s28.222451 122.856072-32.149253 194.721134l-1.446716 1.768209q-81.900221-19.634008-198.326443-0.275565z m0 0" fill="#5DA500" p-id="2732"></path><path d="M552.591612 252.219658a11.481876 11.481876 0 0 1-7.486183-20.081801L695.67875 101.875975a11.481876 11.481876 0 0 1 14.926438 17.303187L560.066313 249.429563a11.401503 11.401503 0 0 1-7.474701 2.790095z m0 0" fill="#167203" p-id="2733"></path><path d="M519.604183 238.556226c0.975959-54.492983 18.681012-104.990273 49.854305-142.191551 43.82632-52.196608 118.447032-80.373131 166.406827-80.373132 19.737345 0 35.433069 4.40904 45.387856 12.756365 18.187291 15.236449 26.350905 51.886597 21.310362 95.66699-5.316109 46.214551-24.433432 92.796521-51.140276 124.589835l-8.864008 10.333688-10.71259-2.560458c-25.937558-6.200213-55.181896-9.346247-86.952246-9.346247s-66.721181 3.12307-104.209506 9.277356l-21.459626 3.536418z m125.152447-27.36131a431.167404 431.167404 0 0 1 81.349091 7.268027l2.973806 0.574094 1.791172-2.44564c19.932537-27.338347 32.665937-62.128431 35.880863-97.974847 2.411194-27.154637-1.664872-56.192301-8.726226-62.139912-3.054179-2.57194-9.759595-3.880874-19.932537-3.880874a173.732264 173.732264 0 0 0-42.804433 6.073912c-39.107269 10.563326-73.954763 32.241108-98.11263 60.945798-20.38033 24.272686-33.917461 55.985627-39.130233 91.717224l-0.907068 6.234659 6.234659-0.815213a634.121043 634.121043 0 0 1 81.383536-5.557228z" fill="#167203" p-id="2734"></path><path d="M483.941476 248.752132q-70.69391-12.228198-120.490806 0.18371l-0.907068-1.148188c-36.638666-45.47971-33.29744-111.201968-19.519189-123.303865s76.538185-4.076066 113.165369 41.334753c20.231065 25.260127 27.280937 57.501235 27.717249 82.864699z m0 0" fill="#52AF50" p-id="2735"></path><path d="M469.830251 249.84291a11.481876 11.481876 0 0 1-7.566557-2.858987l-82.81877-73.036213a11.481876 11.481876 0 1 1 15.12163-17.153922l82.818771 73.047694a11.481876 11.481876 0 0 1-7.555074 20.01291z m0 0" fill="#167203" p-id="2736"></path><path d="M495.675953 257.903187l-13.583059-2.353785c-45.341928-7.819157-84.299933-7.819157-115.783237 0l-7.049871 1.768209-4.592751-5.591673-0.998923-1.228561c-23.641182-29.347675-29.669167-62.943644-31.161811-80.373131-1.814136-21.275916 0.654467-47.867941 13.054893-58.718314 9.185501-8.037313 24.686033-8.50807 36.087536-7.509147 27.556502 2.411194 66.59488 16.889839 93.519879 50.359508 25.535692 31.758869 29.921769 69.913142 30.254743 89.822715zM363.427707 126.424226c-8.163614 0-12.136343 1.664872-12.859701 2.238966-2.732686 2.548976-7.279509 17.38356-5.270181 39.956928 1.228561 13.847142 5.844275 39.704327 22.722632 63.058462 29.600276-6.165767 64.298505-6.48726 103.566521-0.930032-1.940437-16.855394-7.715821-41.598836-24.261204-62.139912-21.815564-27.154637-53.666288-39.371352-76.124837-41.759583a70.223153 70.223153 0 0 0-7.77323-0.424829z m0 0" fill="#167203" p-id="2737"></path><path d="M496.341902 259.14323a22.780042 22.780042 0 0 1-12.940074-10.414062c-62.00213-108.03297-114.88765-177.613138-157.083544-206.811549A22.871897 22.871897 0 1 1 352.336214 4.302994c48.522408 33.561523 104.35877 106.046606 170.735495 221.600205a22.871897 22.871897 0 0 1-26.729807 33.194103z m0 0" fill="#167203" p-id="2738"></path><path d="M716.437981 759.465972a20.437739 20.437739 0 0 1-5.557227-3.938283 19.197697 19.197697 0 0 1 0.470756-27.763176c4.59275-4.294222 111.374196-107.079975 67.329721-260.879703a19.622526 19.622526 0 0 1 14.180117-24.203794c10.815927-2.927878 22.022238 3.191962 25.019007 13.628987 50.681 176.820889-73.001767 294.739755-78.294912 299.676961a20.897014 20.897014 0 0 1-23.147462 3.444563z m0 0M796.386283 405.2501a24.215276 24.215276 0 0 0-11.481876-33.010393c-12.630064-6.039467-27.91244-1.056333-34.193026 11.13742a23.928229 23.928229 0 0 0 1.561535 24.594178 25.94904 25.94904 0 0 0 44.090404-2.721205z m0 0" fill="#FFFFFF" p-id="2739"></path></svg>