<?xml version="1.0" standalone="no"?><!DOCTYPE svg PUBLIC "-//W3C//DTD SVG 1.1//EN" "http://www.w3.org/Graphics/SVG/1.1/DTD/svg11.dtd"><svg t="1711553001450" class="icon" viewBox="0 0 1024 1024" version="1.1" xmlns="http://www.w3.org/2000/svg" p-id="1549" xmlns:xlink="http://www.w3.org/1999/xlink" width="200" height="200"><path d="M519.84 877.81a19.72 19.72 0 0 1-18.69-13.41c-38.09-112.76-39.79-267.4-4.64-424.23 33.26-148.43 96.61-283 173.79-369.3a19.72 19.72 0 0 1 33.39 6.84c38.1 112.78 39.8 267.4 4.64 424.24-33.26 148.43-96.61 283-173.78 369.29a19.77 19.77 0 0 1-14.71 6.57z" fill="#60B71C" p-id="1550"></path><path d="M348 696.25a19.72 19.72 0 0 1-18.81-25.68c35.89-113.48 125.89-239.23 246.92-345 114.57-100.09 245.21-171.25 358.46-195.24a19.71 19.71 0 0 1 22.89 25.24c-35.89 113.49-125.88 239.24-246.92 345C596 600.66 465.37 671.82 352.13 695.82a19.46 19.46 0 0 1-4.09 0.43z" fill="#60B71C" p-id="1551"></path><path d="M84 563.7c0 186.47 151.2 337.63 337.67 337.63S759.3 750.17 759.3 563.7 608.14 226.07 421.67 226.07 84 377.23 84 563.7z m0 0" fill="#603900" p-id="1552"></path><path d="M421.67 921.06c-197 0-357.36-160.31-357.36-357.36s160.31-357.36 357.36-357.36S779 366.65 779 563.7 618.71 921.06 421.67 921.06z m0-675.27c-175.3 0-317.91 142.61-317.91 317.91s142.61 317.91 317.91 317.91S739.57 739 739.57 563.7 597 245.79 421.67 245.79z m0 0" fill="#724400" p-id="1553"></path><path d="M292.07 631.91a306.94 306.94 0 0 0 613.88 0C906 462.39 768.53 325 599 325S292.07 462.39 292.07 631.91z m0 0" fill="#FFFFFF" p-id="1554"></path><path d="M599 958.57c-180.12 0-326.67-146.54-326.67-326.66S418.89 305.24 599 305.24s326.67 146.54 326.67 326.67S779.14 958.57 599 958.57z m0-613.87c-158.37 0-287.21 128.84-287.21 287.21S440.64 919.12 599 919.12s287.22-128.84 287.22-287.21S757.38 344.7 599 344.7z m0 0" fill="#7A4C01" p-id="1555"></path><path d="M394.38 631.91c0 113 91.62 204.62 204.63 204.62s204.62-91.61 204.62-204.62S712 427.28 599 427.28 394.38 518.9 394.38 631.91z m0 0" fill="#EAEAEA" p-id="1556"></path><path d="M178.91 637.5a17.13 17.13 0 0 1-14.68-13.22c-1.38-6-32.25-149.29 88.42-255a17.17 17.17 0 0 1 22.63 25.83c-104.95 92-78.73 216.37-77.56 221.63a17.19 17.19 0 0 1-18.81 20.79z m0 0M292.33 341.89a21.53 21.53 0 1 0 23.94-18.81 21.55 21.55 0 0 0-23.94 18.81z m0 0" fill="#FFFFFF" p-id="1557"></path></svg>