<?xml version="1.0" standalone="no"?><!DOCTYPE svg PUBLIC "-//W3C//DTD SVG 1.1//EN" "http://www.w3.org/Graphics/SVG/1.1/DTD/svg11.dtd"><svg t="1711553007880" class="icon" viewBox="0 0 1103 1024" version="1.1" xmlns="http://www.w3.org/2000/svg" p-id="1881" xmlns:xlink="http://www.w3.org/1999/xlink" width="215.4296875" height="200"><path d="M338.311199 561.004157a31.493565 31.493565 0 0 1-7.248231-5.472415c-38.355224-27.386234-199.036434-127.82256-301.296898 56.608687-116.865651 209.993343 142.427746 368.862495 235.56752 370.686633 308.605531 5.472415 370.686633-376.171128 122.350145-401.733224l-49.312134-20.089681" fill="#DE0025" p-id="1882"></path><path d="M751.569111 612.140429a31.9647 31.9647 0 0 0-9.132771 1.824138c-43.827639 12.744807-220.950253 80.394966-142.427747 277.55894 89.515657 222.774391 370.674552 113.217374 432.767735 40.167283 195.388157-244.688211-60.256963-529.543704-233.731301-346.936595l-47.475916 27.386234" fill="#DE0025" p-id="1883"></path><path d="M717.635308 466.040245c13.022656-67.553516 3.261704-321.338258-13.022656-363.377999-14.001167-36.144514-44.576623-76.565484-55.400648-88.041851-11.271-13.288424-16.985022-15.994431-25.574177-14.061568-10.304569 2.319434-19.014527 9.555585-19.014527 21.333961a22.324553 22.324553 0 0 0 6.511328 15.958189l-0.289929 0.338251c11.464286 10.872347 27.047983 37.086784 27.047983 37.086784-3.249624 153.420897-224.574369 292.164126-292.92519 341.46418S297.781506 615.837027 297.781506 615.837027c11.391804 25.562096 50.44769 9.132772 50.44769 9.132772-16.28436-63.965642 3.249624-162.553669 56.959018-191.788203s224.574369-195.376077 242.46542-235.567519c8.081778-18.120578 13.48171-45.845063 17.009183-70.875623 34.743189 125.63601 7.538161 311.335698 2.524801 383.12943-8.14218 93.127693 107.406709 166.165704 107.406708 166.165705 26.033231 5.484495 37.449195-40.167282 39.055887-40.167283-53.697314-23.725877-109.037561-102.248384-96.014905-169.826061z" fill="#338200" p-id="1884"></path><path d="M127.955445 651.087592m-41.894778 0a41.894777 41.894777 0 1 0 83.789555 0 41.894777 41.894777 0 1 0-83.789555 0Z" fill="#FFFFFF" p-id="1885"></path><path d="M119.607898 758.917114m-23.278903 0a23.278903 23.278903 0 1 0 46.557806 0 23.278903 23.278903 0 1 0-46.557806 0Z" fill="#FFFFFF" p-id="1886"></path><path d="M696.204704 831.363187m-46.545726 0a46.545726 46.545726 0 1 0 93.091452 0 46.545726 46.545726 0 1 0-93.091452 0Z" fill="#FFFFFF" p-id="1887"></path><path d="M768.360847 905.06562m-18.615874 0a18.615874 18.615874 0 1 0 37.231748 0 18.615874 18.615874 0 1 0-37.231748 0Z" fill="#FFFFFF" p-id="1888"></path></svg>