<?xml version="1.0" standalone="no"?><!DOCTYPE svg PUBLIC "-//W3C//DTD SVG 1.1//EN" "http://www.w3.org/Graphics/SVG/1.1/DTD/svg11.dtd"><svg t="1711552745512" class="icon" viewBox="0 0 1024 1024" version="1.1" xmlns="http://www.w3.org/2000/svg" p-id="1729" xmlns:xlink="http://www.w3.org/1999/xlink" width="200" height="200"><path d="M508.9792 510.9248m-489.6768 0a489.6768 489.6768 0 1 0 979.3536 0 489.6768 489.6768 0 1 0-979.3536 0Z" fill="#FFEDDE" p-id="1730"></path><path d="M749.6192 560.5888H281.9072a16.0768 16.0768 0 0 0-15.6672 16.2304v71.68a16.0768 16.0768 0 0 0 15.9232 16.2304h467.712a16.128 16.128 0 0 0 15.9744-16.2304v-71.68a16.128 16.128 0 0 0-16.2304-16.2304z" fill="#8D9E46" p-id="1731"></path><path d="M764.2112 560.5888h-39.5776a51.2 51.2 0 0 0-1.3312 16.2304v71.68a51.2 51.2 0 0 0 1.3312 16.2304h39.5776a48.7424 48.7424 0 0 0 1.3824-16.2304v-71.68a48.7424 48.7424 0 0 0-1.3824-16.2304z" fill="#7E8C2D" p-id="1732"></path><path d="M732.8256 607.9488v-43.2128c0-0.768-32.5632-1.4336-72.7552-1.4336H338.7392c-40.192 0-72.8064 0.6656-72.8064 1.4336v43.2128c0 0.768 32.6144 1.4336 72.8064 1.4336h321.3312c40.192-0.1024 72.7552-0.6656 72.7552-1.4336z" fill="#7E8C2D" p-id="1733"></path><path d="M677.632 593.0496l-30.464 39.2192h-62.464l37.632-39.2192h55.296z" fill="#7E8C2D" p-id="1734"></path><path d="M303.2064 560.5888h-35.84a53.1968 53.1968 0 0 0-1.2288 16.2304v71.68a53.1968 53.1968 0 0 0 1.2288 16.2304h35.84a55.1936 55.1936 0 0 0 1.2288-16.2304v-71.68a55.1936 55.1936 0 0 0-1.2288-16.2304z" fill="#AFBC64" p-id="1735"></path><path d="M266.24 576.8192v31.1296a376.3712 376.3712 0 0 0 38.4512 1.28v-32.4096a124.8256 124.8256 0 0 0-0.5632-13.3632c-20.48 0-34.8672 0.6656-37.4784 1.1264-0.4096 2.9696-0.4096 7.3216-0.4096 12.2368z" fill="#8D9E46" p-id="1736"></path><path d="M744.6016 478.6176H286.72a57.2416 57.2416 0 0 0 0 114.432h457.6768a57.2416 57.2416 0 0 0 0-114.432z" fill="#E8495C" p-id="1737"></path><path d="M272.9472 535.8592A56.32 56.32 0 0 1 328.192 478.6176H286.72a57.2416 57.2416 0 0 0 0 114.432h41.472a56.32 56.32 0 0 1-55.2448-57.1904z" fill="#F46079" p-id="1738"></path><path d="M755.6096 493.1072l-77.9776 92.8768h-45.312l103.2192-107.3664 20.0704 14.4896z" fill="#DB405A" p-id="1739"></path><path d="M744.6016 478.6176h-5.9392a57.856 57.856 0 0 1 21.0432 44.8512 56.32 56.32 0 0 1-55.2448 57.1904H252.7232a53.76 53.76 0 0 0 33.9968 12.3904h457.6768a57.2416 57.2416 0 0 0 0-114.432z" fill="#D62D4A" p-id="1740"></path><path d="M748.6976 632.2688h-465.92a56.7808 56.7808 0 0 0-56.32 57.1904 87.04 87.04 0 0 0 85.9648 87.552h406.3744a87.04 87.04 0 0 0 85.9648-87.552 56.7296 56.7296 0 0 0-56.064-57.1904z" fill="#FF933B" p-id="1741"></path><path d="M238.0288 709.4272a56.7808 56.7808 0 0 1 56.32-57.2416h476.16a55.0912 55.0912 0 0 1 25.6 6.4512 56.0128 56.0128 0 0 0-47.3088-26.368h-465.92a56.7808 56.7808 0 0 0-56.32 57.1904A87.9104 87.9104 0 0 0 266.24 763.136c-17.92-15.616-28.2112-33.4848-28.2112-53.7088z" fill="#FFB476" p-id="1742"></path><path d="M718.9504 777.0112a87.04 87.04 0 0 0 85.9648-87.552 57.4976 57.4976 0 0 0-19.5584-43.264 55.4496 55.4496 0 0 1 1.536 12.8c0 48.2816-25.6 94.2592-73.8304 94.2592h-425.984c-18.7904 0-36.1984-12.7488-50.4832-22.9376a87.3984 87.3984 0 0 0 77.1584 46.6944z" fill="#F97C3A" p-id="1743"></path><path d="M777.5232 429.2096a15.36 15.36 0 0 0-13.7728-9.3696h-239.8208a14.9504 14.9504 0 0 0-9.0624 3.1232l-118.2208 91.8016a15.9744 15.9744 0 0 0-0.8192 24.4224l161.792 144.7424a14.7968 14.7968 0 0 0 9.8816 3.7888h1.1264a14.8992 14.8992 0 0 0 10.24-5.4272l196.352-236.3392a16.128 16.128 0 0 0 2.304-16.7424z" fill="#FFD38D" p-id="1744"></path><path d="M777.5232 429.2096a15.36 15.36 0 0 0-13.7728-9.3696h-4.1984c0 0.3584 0.3584 0.6656 0.512 0.9728a16.128 16.128 0 0 1-2.304 16.9472l-196.2496 236.3392a14.8992 14.8992 0 0 1-9.0624 5.12l5.12 4.6592a14.7968 14.7968 0 0 0 9.8816 3.7888h1.1264a14.8992 14.8992 0 0 0 10.24-5.4272l196.4032-236.288a16.128 16.128 0 0 0 2.304-16.7424z" fill="#FFC46E" p-id="1745"></path><path d="M775.2192 445.952a15.9232 15.9232 0 0 0 3.4304-7.6288 15.6672 15.6672 0 0 0-1.1264-3.9424 15.36 15.36 0 0 0-13.7728-9.1136h-239.8208a14.6432 14.6432 0 0 0-9.0624 3.1232l-118.2208 91.5968a15.36 15.36 0 0 0-5.8368 9.9328 15.36 15.36 0 0 0 5.12 9.2672l30.208 27.0336 118.272-91.2896h206.848z" fill="#FFAE64" p-id="1746"></path><path d="M543.5392 431.1552a15.8208 15.8208 0 0 0-14.8992-11.3152H263.7824a15.7184 15.7184 0 0 0-14.592 10.24 16.64 16.64 0 0 0 3.9424 17.8688l118.1696 113.664a15.36 15.36 0 0 0 20.0192 1.0752l146.7392-113.664a16.6912 16.6912 0 0 0 5.4784-17.8688z" fill="#FFD38D" p-id="1747"></path><path d="M543.5392 431.1552a15.8208 15.8208 0 0 0-14.8992-11.3152h-5.12a16.3328 16.3328 0 0 1 3.1232 5.5296 16.5888 16.5888 0 0 1-5.5296 18.1248l-146.688 113.664a16.1792 16.1792 0 0 1-5.12 2.6112l1.9968 1.8944a15.36 15.36 0 0 0 20.0192 1.0752l146.7392-113.664a16.6912 16.6912 0 0 0 5.4784-17.92z" fill="#FFCA7D" p-id="1748"></path><path d="M528.64 419.84H263.7824a15.7184 15.7184 0 0 0-14.592 10.24 16.64 16.64 0 0 0 3.9424 17.8688l27.8016 26.7264h224l33.1264-25.6a16.6912 16.6912 0 0 0 5.4784-18.1248 15.8208 15.8208 0 0 0-14.8992-11.1104z" fill="#FFC46E" p-id="1749"></path><path d="M625.2032 236.7488H406.3744c-93.5424 0-169.6768 78.8992-169.6768 175.8208a39.3216 39.3216 0 0 0 38.6048 39.936h480.9728a39.3216 39.3216 0 0 0 38.5536-39.936c0-96.9216-76.0832-175.8208-169.6256-175.8208z" fill="#FF933B" p-id="1750"></path><path d="M652.3392 239.0528a176.64 176.64 0 0 1 94.6688 157.5936 39.3728 39.3728 0 0 1-38.6048 39.9872H244.5824a38.0928 38.0928 0 0 0 30.72 15.872h480.9728a39.3216 39.3216 0 0 0 38.5536-39.936c0-87.3472-61.7984-160-142.4896-173.5168z" fill="#F97C3A" p-id="1751"></path><path d="M625.2032 236.7488H406.3744c-93.5424 0-169.6768 78.8992-169.6768 175.8208a40.6528 40.6528 0 0 0 7.8848 24.064h34.048a37.1712 37.1712 0 0 1-0.3072-4.7616C278.3232 334.9504 354.4064 256 447.9488 256h218.8288a163.84 163.84 0 0 1 47.7696 7.1168 164.2496 164.2496 0 0 0-89.344-26.368z" fill="#FFC897" p-id="1752"></path><path d="M447.744 342.6816a9.1136 9.1136 0 1 1-17.1008-5.12c1.6896-5.7344 8.192-13.7728 12.9024-12.3904s5.888 11.776 4.1984 17.5104zM522.24 321.6896a9.1136 9.1136 0 1 1-16.2816 7.2704c-2.4576-5.4784-2.7136-15.8208 1.792-17.8176s11.9808 5.0176 14.4896 10.5472zM375.9104 360.9088a9.1136 9.1136 0 1 1-17.1008-5.12c1.6896-5.7856 8.192-13.7728 12.9024-12.3904s5.888 11.776 4.1984 17.5104zM545.9968 366.1824a9.0624 9.0624 0 1 1-13.2608 11.8784c-4.0448-4.4544-7.424-14.2336-3.7376-17.5104s13.0048 1.1776 16.9984 5.632zM685.312 363.008a9.1136 9.1136 0 1 1-13.312 11.9296c-3.9936-4.5056-7.3728-14.2336-3.6864-17.5616s12.9536 1.024 16.9984 5.632zM622.0288 323.6352a9.1136 9.1136 0 1 1-17.408 3.7376c-1.28-5.888 0.6656-16.0256 5.4784-17.0496s10.7008 7.424 11.9296 13.312z" fill="#FDE6CB" p-id="1753"></path></svg>