<?xml version="1.0" standalone="no"?><!DOCTYPE svg PUBLIC "-//W3C//DTD SVG 1.1//EN" "http://www.w3.org/Graphics/SVG/1.1/DTD/svg11.dtd"><svg t="1711552936499" class="icon" viewBox="0 0 1024 1024" version="1.1" xmlns="http://www.w3.org/2000/svg" p-id="3348" xmlns:xlink="http://www.w3.org/1999/xlink" width="200" height="200"><path d="M598.80586 125.620364s36.894524-101.596212-64.807449-101.596212c0 0-67.052849 4.649442-80.907617 48.56491 0 0-20.639781-21.701465-52.876728-5.483332-13.850701 6.968062-27.876315 18.138113-32.64779 47.084247 0 0-75.440557 32.981346-41.604983 99.395557 0 0-51.74996 57.286173 24.980074 113.010328 0.004068 0.012203 30.687133-212.678425 247.864493-200.975498zM366.020529 451.423015s-121.206852 0-60.605459 60.597324c0 0-50.598786 32.106779 0 57.538373-12.199193 20.590968-17.85337 81.591 50.728954 50.720819 0 0 47.808307-34.62065 70.071122-23.092637 22.25468 11.511742-3.96606-115.963517-60.194617-145.763879z" fill="#CF6629" p-id="3349"></path><path d="M366.602218 457.703626s40.543299 106.493787 40.5433 137.978199c0 0 12.577494-2.823021 17.710998 2.298281 8.855499 8.863635-58.254298-140.27648-58.254298-140.27648z" fill="#8F0000" p-id="3350"></path><path d="M330.264976 308.449614c-7.484666-33.542696 15.522547-59.067849 15.522547-59.067849-33.831506-66.418279 41.609051-99.395557 41.609051-99.395557-11.02768-28.950202-5.552484-49.374392 15.839832-63.888137 29.865446-20.257413 69.680618 22.287222 69.680618 22.287222 0-62.920011 68.460292-61.016303 68.460292-61.016303 52.461817 0 52.046906 17.938793 62.920011 26.306162-3.819621-25.008549-20.265548-49.646932-70.355865-49.646932 0 0-67.044714 4.649442-80.899482 48.564909 0 0-20.643849-21.697397-52.880795-5.483331-13.850701 6.968062-27.876315 18.138113-32.643722 47.084247 0 0-75.440557 32.981346-41.604983 99.395557-0.004068 0.008136-41.03143 45.510026 4.352496 94.860012zM425.698541 596.955032c0.166778 0.085423 0.349827 0.142371 0.516605 0.239998 2.526075 1.301681 4.397242 0.740331 5.70299-1.187784-2.074554 0.296946-4.145041 0.610163-6.219595 0.947786z m-27.4492-27.392252c-124.847491 0-43.431404-57.538374-43.431405-57.538373-34.974545-34.974545-9.404646-49.760829 18.48794-56.017034a66.003369 66.003369 0 0 0-7.289414-4.584358s-121.206852 0-60.601392 60.593256c0 0-50.594718 32.110846 0 57.542441-12.199193 20.590968-17.849302 81.591 50.728954 50.720819 0 0 8.237201-5.959259 19.4642-12.11377-1.155242 0.317285-1.81015 0.508469-1.81015 0.508469-68.586392 30.878317 0.516605-39.11145 24.451267-39.11145z" fill="#E38E5D" opacity=".52" p-id="3351"></path><path d="M356.624019 318.793911c-23.060095-16.751009-35.771824-34.998951-37.785363-54.235358-2.652175-25.407188 14.12324-44.305971 14.294086-44.493088l4.45419-4.930117-3.014205-5.922649c-8.14771-15.998475-9.799218-31.045095-4.905711-44.720882 9.725999-27.172594 41.454476-41.308037 41.775829-41.446341l4.808085-2.098961 0.85016-5.174182c4.140973-25.122446 15.64458-34.087774 27.461404-40.030762 25.541424-12.854101 41.385324 3.339626 41.539899 3.506403l11.27988 11.853434 4.921982-15.599835C474.043792 38.277561 534.063495 33.693202 534.66959 33.652525l-0.667111 0.020339c25.569899 0 43.354117 6.858232 52.864525 20.383513 17.938793 25.51295 3.018273 67.858264 2.867766 68.277242l9.59583-6.357898C425.458544 106.611752 366.390695 236.938507 349.070201 293.407061c-11.222932 36.57724-8.334827 38.31417-3.095561 41.462612l6.46366 3.89284 5.336893-5.336893 7.993136-7.989067-9.14431-6.642642zM607.885086 128.915245c0.768805-2.115232 18.508279-52.099787-5.170115-85.886548-13.325961-19.016748-36.443004-28.657324-68.71656-28.657324h-0.333556l-0.333556 0.024407c-3.002002 0.207455-73.789049 5.678584-89.441764 55.292973l16.197795-3.750468c-8.843296-9.298885-33.648457-22.816029-64.205422-7.452125-14.676455 7.38704-32.245082 20.216735-37.834175 54.141799l5.658245-7.273143c-1.614898 0.703721-39.713478 17.702863-52.217752 52.628595-6.756539 18.890647-4.77961 39.066705 5.877904 59.991229l1.439984-10.848699c-0.931516 1.025074-22.7062 25.569899-19.167254 59.442083 2.599294 24.919058 17.959132 47.747291 45.640194 67.854196l-1.155242-14.635777 11.15378-1.806083 5.227064 9.998539c1.212191-8.326691 32.106779-203.798519 237.784599-192.713891l7.155179 0.386436 2.440652-6.736199z" fill="#6E6E96" p-id="3352"></path><path d="M330.264976 308.449614s-3.53081-150.555693 142.656116-200.068389L340.222837 318.171545l-9.957861-9.721931z" fill="#8F0000" p-id="3353"></path><path d="M366.020529 441.770235c-12.125973 0-73.219563 1.460324-85.199097 30.398323-5.621635 13.565958 0.357962 29.275622 17.772015 46.681539l1.651508-14.973401c-2.875902 1.822354-28.051228 18.467601-26.936664 40.90533 0.663044 13.240538 10.006674 24.479741 27.770554 33.408459l-3.970128-13.549687c-9.34363 15.774748-14.355102 46.49849 0.536944 63.155941 8.550418 9.567356 26.330569 17.552356 62.456287 1.285411l0.898974-0.406776 0.797279-0.585756c17.357104-12.540884 48.426606-28.3197 59.966823-22.340103 7.439921 3.848095 15.306956 1.431849 19.134712-5.886039 11.621572-22.197731-15.823561-128.069152-70.364-156.974608l-2.1193-1.1227-2.395907 0.004067z m64.632536 146.845903c-26.216671-13.578161-71.385007 17.483205-80.171354 23.849238l1.700321-0.984396c-19.875044 8.94499-34.13252 10.169384-40.140592 3.445387-7.773477-8.692789-4.393174-30.194934 1.679982-40.441605l5.271809-8.900245-9.241936-4.641307c-7.618902-3.831824-16.779483-9.909048-17.157784-17.0927-0.500334-9.575492 13.179521-20.582833 18.012012-23.674325l-0.874567 0.492198 11.979534-5.991801-9.473798-9.465663c-10.873105-10.881241-15.827629-20.228938-13.582229-25.647186 5.222996-12.614104 43.284965-18.479804 67.366066-18.479804l-4.519274-1.1227c44.0375 23.336702 68.537579 117.04554 62.281374 131.00607 0.178981-0.39864 1.106429-1.68405 2.985732-2.338958 1.903709-0.675247 3.445387-0.239997 3.884704-0.012203z" fill="#6E6E96" p-id="3354"></path><path d="M573.296978 114.198112s-128.707789-53.979089-202.675819 82.400483c-73.96803 136.379572-0.736263 266.633108 20.070296 317.484095 20.802491 50.850987 64.722026 101.706041 9.246003 187.226491-55.476022 85.528586-11.556488 294.716878 153.720406 294.716878 165.268758 0 130.591159-174.514761 65.8732-193.006769-64.722026-18.492007-105.167699 31.203737-78.58493 57.786507 26.574634 26.582769 46.221883-36.984015 73.96803 16.185591 27.733943 53.157403-90.153621 110.947977-129.444052-2.306416-39.298567-113.266597 118.684844-245.403502 118.684844-245.403503s105.52973-89.767185 26.936664-200.715161c-78.588998-110.956113-104.020593-117.891633-23.121111-117.891633 80.899482 0 143.302889 4.620968 143.302889-23.112975 0-27.738011-48.544571-32.363047-60.096991-32.363047s-64.717958-3.868434-64.717958-43.923603c0-27.729876 6.931452-80.895414-53.161471-97.076938z" fill="#FFBF00" p-id="3355"></path><path d="M466.249976 714.065656c50.289637-81.822862 10.474465-130.477262-8.38364-179.131662-18.858105-48.6544-105.480917-193.503035-38.428067-323.980296 59.909874-116.565545 179.827248-89.759049 196.260971-38.517559 6.150443-15.77068-16.429656-51.245559-42.40633-58.233959 0 0-128.707789-53.979089-202.675819 82.396415-73.96803 136.379572-0.740331 266.62904 20.066228 317.484095 20.802491 50.850987 64.726094 101.706041 9.246004 187.230559-55.471955 85.528586-11.55242 294.71281 153.716338 294.71281 10.014809 0 19.260813-0.650841 27.843772-1.858963-206.410017-20.200464-162.714209-202.8548-115.239457-280.10144z" fill="#FFFF8A" opacity=".34" p-id="3356"></path><path d="M577.031176 105.2938c-1.370833-0.573553-137.656847-55.703817-214.895351 86.696031-68.62707 126.527473-14.261544 249.007532 11.861569 307.867925 3.04268 6.858232 5.670448 12.784949 7.757206 17.881844 3.56742 8.721264 7.830426 17.519814 11.95106 26.021419 20.37131 42.052436 41.438205 85.524518-1.867099 152.292624-34.470143 53.1452-32.208472 145.235072 5.263673 214.203833 33.428798 61.52884 89.026854 95.417294 156.55563 95.417294 103.979915 0 124.208854-64.343725 128.081355-92.012584 7.252805-51.78657-21.127912-108.95071-59.568183-119.933645-45.501891-12.992405-80.17949 4.812152-93.147488 26.851241-9.583627 16.295421-7.639241 34.323704 5.08876 47.051705 16.698128 16.706264 33.502018 7.582293 43.541234 2.131503 6.837894-3.713859 11.247338-5.886039 14.790352-4.808085 2.359297 0.72406 7.293482 3.815553 13.903581 16.494741 6.126037 11.727333 2.029809 21.790956-2.469126 28.177328-10.336162 14.611371-31.427464 22.856707-51.294372 20.04589-25.651254-3.636572-46.242222-24.288556-57.989894-58.16074-36.691137-105.749388 114.230654-233.558204 115.760129-234.827343 1.183716-1.008803 111.362888-96.897957 28.616646-213.707567-15.786951-22.287222-29.483078-40.453809-40.48635-55.057044-15.709664-20.835034-30.548829-40.518893-30.467474-45.985953a2.664379 2.664379 0 0 1-0.817619 1.635237c4.185718-3.250135 29.828837-3.250135 40.779229-3.250135l30.443068 0.154574c59.665809 0.455588 99.074205 0.756602 115.170305-15.217466 4.804017-4.763339 7.346363-10.885308 7.346363-17.706931 0-34.470143-50.350653-42.015826-69.753837-42.015826-2.241332 0-55.065179-0.390504-55.06518-34.266755 0-2.343026 0.056949-4.938253 0.109829-7.688055 0.589824-28.653256 1.675914-81.98964-60.42241-98.712174l1.224394 0.427114z m39.774493 105.98125c0 42.288366 46.742556 53.576382 74.36667 53.576382 12.939524 0 50.448279 5.593161 50.448279 22.710268 0 1.716592-0.459656 2.835224-1.635236 3.998601-10.384975 10.307687-54.613659 9.970064-101.433502 9.612102l-30.593574-0.154575c-32.521689 0-51.237423 0.614231-57.505832 13.191725-6.62637 13.305622 4.85283 28.531223 32.603044 65.336257 10.930054 14.493406 24.520418 32.542028 40.148728 54.59332 72.64601 102.560269-21.274351 184.35059-25.321766 187.787841-6.593828 5.507738-162.559634 137.709728-121.548543 255.914577 19.216068 55.386532 54.312645 68.220294 73.524645 70.937554 27.168526 3.852163 55.203483-7.403311 69.766041-28.010551 10.600566-15.001875 11.995805-32.590841 3.827756-48.247624-7.736867-14.831029-15.80729-23.10484-25.382782-26.02142-11.544284-3.518607-21.5835 1.928115-29.64172 6.305018-11.475133 6.231798-14.761878 7.090094-20.672324 1.183717-8.757873-8.766009-5.076556-18.557092-2.107096-23.621445 9.315156-15.8439 35.58064-28.24648 71.218229-18.064893 29.434264 8.403979 51.664537 56.370928 45.73782 98.695903-3.941653 28.152922-23.34077 75.37954-108.966981 75.379541-60.117329 0-109.691041-30.300696-139.584962-85.333334-33.782693-62.17968-36.434868-147.602504-6.028411-194.483363 49.232021-75.900213 24.691264-126.535609 3.046748-171.219881-4.173515-8.61957-8.119236-16.759145-11.454794-24.919058-2.196587-5.361299-4.877236-11.401913-7.976865-18.39845-26.782089-60.336988-76.632409-172.65173-12.536816-290.832173 69.009438-127.231195 185.522103-80.167286 190.45222-78.092732l0.602027 0.252201 0.618299 0.170845c47.503226 12.784949 46.705946 51.440811 46.128325 79.671021-0.040678 2.847427-0.097626 5.54028-0.097627 8.082626z" fill="#6E6E96" p-id="3357"></path><path d="M560.495757 316.638002c-40.051101 28.832237-63.790511 103.202975-63.79051 177.175072 0 74.382941 27.172594 139.312423 67.59386 174.303238 22.10824-23.983475 39.839578-38.834843 39.839578-38.834843s105.52973-89.767185 26.936664-200.715161C597.467569 381.115963 560.495757 339.567928 560.495757 316.638002z" fill="#F0F0FF" p-id="3358"></path><path d="M554.865987 308.803508c-40.55957 29.190199-67.805383 103.540598-67.805384 185.005498 0 74.142943 27.176661 143.725935 70.933486 181.600788a9.640576 9.640576 0 0 0 13.411383-0.76067c21.367909-23.173992 38.773827-37.82604 38.944673-37.972479 1.179649-1.000667 111.354753-96.889821 28.612578-213.699431-8.570757-12.105634-17.247275-23.66619-25.639051-34.85658C591.125941 358.511456 570.156672 330.545651 570.156672 316.633934a9.648711 9.648711 0 1 0-15.290685-7.830426z m68.330123 125.335622c72.650078 102.560269-21.270283 184.35059-25.317698 187.787841-0.683383 0.573553-18.402517 15.477802-40.677535 39.640258a9.656847 9.656847 0 0 1 13.415451-0.764738c-39.63619-34.311501-64.26237-98.297264-64.26237-167.00162 0-74.370738 24.585502-144.002542 59.775638-169.332444a9.652779 9.652779 0 0 1-15.290685-7.834493c0 20.346903 20.757746 48.032034 47.027298 83.071662 8.322624 11.084628 16.917787 22.547558 25.329901 34.433534z" fill="#6E6E96" p-id="3359"></path><path d="M530.121842 181.987225a20.753678 16.177456 90 1 0 32.354911 0 20.753678 16.177456 90 1 0-32.354911 0Z" fill="#6E6E96" p-id="3360"></path><path d="M542.561032 974.719166c-63.310516 0-108.796136-30.719675-137.725998-73.402612 27.648521 52.429275 76.795119 92.704103 149.31096 92.704103 135.911781 0 136.595163-118.00553 96.560333-170.215146 26.676328 57.367528 12.858169 150.913656-108.145295 150.913655zM740.16843 265.754473c0 0.166778 0.024407 0.321353 0.024407 0.492198 0 27.738011-62.407474 23.117043-143.306957 23.117043-28.514952 0-67.028442 1.75727-82.998442 20.367242 0 0-140.028347 137.624305 23.015349 361.570407-43.370388 48.324912-104.1711 123.863095-78.967299 196.509105 18.992341 54.739759 61.191216 74.378873 91.589538 69.054184-24.39025-4.303683-49.21575-22.828233-63.558649-64.189151-25.87498-74.56599 33.754219-157.295961 77.527315-205.13681l2.583023-0.366097-0.113897-2.294213-1.143039 1.228461c22.10824-23.983475 39.843646-38.826707 39.843646-38.826707s105.52973-89.771252 26.936664-200.723298c-39.782629-56.163473-65.905743-85.654686-71.535513-101.104013-0.105762-0.309149-0.219659-0.606095-0.305082-0.911177a18.040487 18.040487 0 0 1-0.484063-1.708457c-0.069152-0.301014-0.105762-0.589824-0.166777-0.874567a13.029015 13.029015 0 0 1-0.174914-1.472526c-0.016271-0.280675 0-0.553214 0.008136-0.821687 0.016271-0.423046 0.040678-0.858296 0.109829-1.256936 0.048813-0.264404 0.130168-0.512537 0.207455-0.764737 0.101694-0.36203 0.223726-0.728128 0.390505-1.065752a6.10163 6.10163 0 0 1 0.423046-0.695585 7.443989 7.443989 0 0 1 0.638637-0.890838c0.207455-0.227794 0.451521-0.423046 0.695586-0.638638 0.272539-0.248133 0.549147-0.504401 0.874567-0.728128 0.301014-0.207455 0.658976-0.390504 0.9966-0.577621 0.345759-0.195252 0.679315-0.402708 1.082022-0.585756 0.410843-0.187117 0.890838-0.353895 1.35863-0.520673 0.406775-0.154575 0.776941-0.313217 1.224394-0.447452a36.569104 36.569104 0 0 1 1.895573-0.488131c0.418979-0.097626 0.781009-0.219659 1.220326-0.305081 1.073887-0.231862 2.233197-0.423046 3.473861-0.602028l0.166778-0.028474c1.326088-0.187117 2.73353-0.349827 4.242667-0.496266 0.394572-0.040678 0.842025-0.065084 1.240665-0.093558 1.151174-0.093558 2.302348-0.191184 3.559284-0.268472 0.577621-0.040678 1.216258-0.061016 1.810151-0.085423 1.15931-0.061016 2.306416-0.122033 3.543013-0.166778 0.72406-0.028474 1.517272-0.044745 2.269807-0.069152 1.212191-0.032542 2.399975-0.07322 3.673181-0.093558l2.627769-0.03661c3.665046-0.056949 7.566022-0.085423 11.816824-0.085423 80.90355 0 143.306956 4.629104 143.306956-23.117043-0.016271-8.668383-4.755204-15.079162-11.621572-19.801824zM590.312391 426.544634c78.588998 110.943909-8.843296 200.723297-8.843296 200.723297s-17.877777-1.55795-28.649188-12.333428c-33.693202-36.711476-25.809896-102.543998-25.216004-129.147107 0.667112-30.056631-1.065751-68.818254 23.780087-120.551943 10.157181 17.039819 5.629771 14.28595 38.928401 61.309181z" fill="#6E6E96" opacity=".15" p-id="3361"></path><path d="M416.912194 364.779865m-14.798488 0a14.798487 14.798487 0 1 0 29.596975 0 14.798487 14.798487 0 1 0-29.596975 0Z" fill="#FFBF00" p-id="3362"></path><path d="M414.821368 347.886484m-16.89338 0a16.89338 16.89338 0 1 0 33.786761 0 16.89338 16.89338 0 1 0-33.786761 0Z" fill="#FFBF00" p-id="3363"></path><path d="M414.097308 389.475196m-11.983602 0a11.983602 11.983602 0 1 0 23.967204 0 11.983602 11.983602 0 1 0-23.967204 0Z" fill="#FFBF00" p-id="3364"></path><path d="M387.949789 374.432644m-5.145709 0a5.145708 5.145708 0 1 0 10.291417 0 5.145708 5.145708 0 1 0-10.291417 0Z" fill="#FFBF00" p-id="3365"></path><path d="M405.969937 414.32917m-9.010074 0a9.010074 9.010074 0 1 0 18.020148 0 9.010074 9.010074 0 1 0-18.020148 0Z" fill="#FFBF00" p-id="3366"></path><path d="M374.436711 349.818667m-1.928115 0a1.928115 1.928115 0 1 0 3.856231 0 1.928115 1.928115 0 1 0-3.856231 0Z" fill="#FFBF00" p-id="3367"></path><path d="M413.812566 329.504306m-9.132107 0a9.132107 9.132107 0 1 0 18.264213 0 9.132107 9.132107 0 1 0-18.264213 0Z" fill="#FFBF00" p-id="3368"></path><path d="M410.0743 324.480631m-23.409921 0a23.409922 23.409922 0 1 0 46.819843 0 23.409922 23.409922 0 1 0-46.819843 0Z" fill="#FFBF00" p-id="3369"></path><path d="M422.057902 306.859122m-17.373375 0a17.373375 17.373375 0 1 0 34.74675 0 17.373375 17.373375 0 1 0-34.74675 0Z" fill="#FFBF00" p-id="3370"></path><path d="M569.623796 423.066705s57.40007 98.175231 19.094035 118.823148c-38.301967 20.656052-45.867989-193.100327-19.094035-118.823148z" fill="#FFFFFF" p-id="3371"></path><path d="M563.583182 814.677472s-27.819366 30.642387 6.931452 24.203133c34.754886-6.435186 67.443353 16.913719 55.947882 68.419614 0 0-9.608034-70.994502-54.662472-47.832713-45.046302 23.173992-46.811708-29.674262-8.216862-44.790034z" fill="#6E6E96" opacity=".15" p-id="3372"></path></svg>