<?xml version="1.0" standalone="no"?><!DOCTYPE svg PUBLIC "-//W3C//DTD SVG 1.1//EN" "http://www.w3.org/Graphics/SVG/1.1/DTD/svg11.dtd"><svg t="1711552658925" class="icon" viewBox="0 0 1171 1024" version="1.1" xmlns="http://www.w3.org/2000/svg" p-id="3167" xmlns:xlink="http://www.w3.org/1999/xlink" width="228.7109375" height="200"><path d="M188.835502 93.082024c0-25.597557 20.943455-46.541012 46.541012-46.541012h108.864081c25.597557 0 46.541012 20.943455 46.541012 46.541012v123.380223c0 25.597557-20.943455 46.541012-46.541012 46.541012H235.376514c-25.597557 0-46.541012-20.943455-46.541012-46.541012V93.082024z" fill="#96C7FF" p-id="3168"></path><path d="M292.673154 62.830366h84.136841v125.037083H292.673154z" fill="#89B5E8" p-id="3169"></path><path d="M205.124856 93.082024c0-16.680299 13.571359-30.251658 30.251658-30.251658h108.864081c16.680299 0 30.251658 13.571359 30.251658 30.251658v123.380223c0 16.680299-13.571359 30.251658-30.251658 30.251658H235.376514a30.288891 30.288891 0 0 1-30.251658-30.251658V93.082024z m-32.578708 123.380223c0 34.645129 28.185237 62.830366 62.830366 62.830366h108.864081c34.645129 0 62.830366-28.185237 62.830366-62.830366V93.082024c0-34.640475-28.185237-62.830366-62.830366-62.830366H235.376514c-34.645129 0-62.830366 28.189891-62.830366 62.830366v123.380223z" fill="#6E6E96" p-id="3170"></path><path d="M779.892392 93.082024c0-25.597557 20.943455-46.541012 46.541012-46.541012h108.878044c25.597557 0 46.541012 20.943455 46.541012 46.541012v123.380223c0 25.597557-20.943455 46.541012-46.541012 46.541012h-108.878044c-25.597557 0-46.541012-20.943455-46.541012-46.541012V93.082024z" fill="#FF91AD" p-id="3171"></path><path d="M881.416956 62.830366h84.136841v125.037083h-84.136841z" fill="#E6839C" p-id="3172"></path><path d="M796.181746 93.082024c0-16.680299 13.571359-30.251658 30.251658-30.251658h108.878044c16.680299 0 30.251658 13.571359 30.251657 30.251658v123.380223c0 16.680299-13.571359 30.251658-30.251657 30.251658h-108.878044a30.288891 30.288891 0 0 1-30.251658-30.251658V93.082024z m-32.578708 123.380223c0 34.645129 28.189891 62.830366 62.830366 62.830366h108.878044c34.645129 0 62.830366-28.185237 62.830366-62.830366V93.082024c0-34.640475-28.185237-62.830366-62.830366-62.830366h-108.878044c-34.640475 0-62.830366 28.189891-62.830366 62.830366v123.380223z" fill="#6E6E96" p-id="3173"></path><path d="M46.541012 250.697815c0-25.597557 20.943455-46.541012 46.541012-46.541012h985.599011c25.597557 0 46.541012 20.943455 46.541012 46.541012V930.913322c0 25.597557-20.943455 46.541012-46.541012 46.541012H93.082024c-25.597557 0-46.541012-20.943455-46.541012-46.541012V250.697815z" fill="#F0F0FF" p-id="3174"></path><path d="M1091.088869 216.569291H105.494512c-25.597557 0-46.541012 20.943455-46.541012 46.541012v680.215507c0 25.597557 20.943455 46.541012 46.541012 46.541012h985.594357c25.597557 0 46.541012-20.943455 46.541012-46.541012V263.110303c0-25.597557-20.943455-46.541012-46.541012-46.541012z m-22.721322 655.60462c0 21.287859-18.635021 38.703506-41.407539 38.703505H150.001682c-22.777171 0-41.402884-17.415647-41.402885-38.703505V306.407407c0-21.292513 18.635021-38.70816 41.402885-38.70816h876.949018c22.786479 0 41.412192 17.415647 41.412193 38.70816l0.004654 565.766504z" fill="#FAFAFF" p-id="3175"></path><path d="M1075.576749 204.156803H89.977738c-25.597557 0-46.541012 20.943455-46.541012 46.541012V930.913322c0 25.597557 20.943455 46.541012 46.541012 46.541012h985.599011c25.597557 0 46.541012-20.943455 46.541012-46.541012V250.697815c0-25.597557-20.943455-46.541012-46.541012-46.541012z m-10.010971 664.843011c0 22.763209-19.486722 41.388922-43.301758 41.388922H105.354889c-23.815036 0-43.297103-18.625713-43.297104-41.388922V264.157476c0-22.763209 19.486722-41.384268 43.297104-41.384268H1022.273328c23.815036 0 43.301758 18.621059 43.301758 41.384268l-0.009308 604.842338z" fill="#D6D6EB" p-id="3176"></path><path d="M62.830366 250.697815c0-16.680299 13.571359-30.251658 30.251658-30.251658h985.599011c16.680299 0 30.251658 13.571359 30.251658 30.251658V930.913322c0 16.680299-13.571359 30.251658-30.251658 30.251658H93.082024a30.288891 30.288891 0 0 1-30.251658-30.251658V250.697815z m-32.578708 680.215507c0 34.640475 28.185237 62.830366 62.830366 62.830366h985.599011c34.645129 0 62.830366-28.189891 62.830366-62.830366V250.697815c0-34.645129-28.185237-62.830366-62.830366-62.830366H93.082024c-34.645129 0-62.830366 28.185237-62.830366 62.830366V930.913322z" fill="#6E6E96" p-id="3177"></path><path d="M963.645616 334.830003h-46.415352V288.414651h-38.452184v46.415352h-46.410697v38.456838h46.410697v46.406043h38.452184v-46.406043h46.415352zM231.285559 330.487726h119.163607v34.905759H231.285559z" fill="#6E6E96" p-id="3178"></path><path d="M567.13481 397.972194l-140.451466 240.775271h130.421878L446.747174 849.42001l283.411493-278.389717-102.832366-2.508561 95.311338-170.549538z" fill="#FFD57A" p-id="3179"></path><path d="M553.065462 389.767013L412.613996 630.53763a16.298662 16.298662 0 0 0 14.069348 24.499189h130.417224a16.298662 16.298662 0 0 1-14.432368-23.852268l-110.34874 210.672544a16.294008 16.294008 0 1 0 25.848878 19.18886l283.416147-278.385064a16.298662 16.298662 0 0 0-11.020912-27.90599l-102.832366-2.508561a16.275392 16.275392 0 0 1 13.75287 8.214489 16.331241 16.331241 0 0 1 0.074465 16.014762l95.311339-170.549538a16.289354 16.289354 0 0 0-14.227588-24.23856h-155.502829a16.2847 16.2847 0 0 0-14.074002 8.07952z m155.349244 0.26063l-95.311339 170.549538a16.270738 16.270738 0 0 0 0.07912 16.014762 16.321933 16.321933 0 0 0 13.752869 8.214489l102.832366 2.508561a16.289354 16.289354 0 0 1-11.020911-27.905991l-283.406839 278.389717a16.298662 16.298662 0 0 1 25.848878 19.184205l110.353394-210.677199a16.294008 16.294008 0 0 0-14.427714-23.847614H426.683344a16.289354 16.289354 0 0 1 14.069348 24.499189l140.451466-240.765964a16.289354 16.289354 0 0 1-14.069348 8.074866h155.502829a16.2847 16.2847 0 0 1-14.222933-24.238559z" fill="#6E6E96" p-id="3180"></path></svg>