<?xml version="1.0" standalone="no"?><!DOCTYPE svg PUBLIC "-//W3C//DTD SVG 1.1//EN" "http://www.w3.org/Graphics/SVG/1.1/DTD/svg11.dtd"><svg t="1711552761625" class="icon" viewBox="0 0 1024 1024" version="1.1" xmlns="http://www.w3.org/2000/svg" p-id="1545" xmlns:xlink="http://www.w3.org/1999/xlink" width="200" height="200"><path d="M308.169206 333.644957c0-127.624567 88.66214-231.085075 198.03456-231.085075 109.368288 0 198.030428 103.456377 198.030428 231.085075" fill="#DDA0E8" p-id="1546"></path><path d="M350.581281 291.150256c0-84.225108 54.496169-152.503343 121.716787-152.503342s121.712656 68.269972 121.712656 152.503342" fill="#F6C2FF" p-id="1547"></path><path d="M328.825779 333.644957c0-116.027967 79.573248-210.428503 177.377987-210.428503s177.373856 94.396404 177.373856 210.428503a20.656572 20.656572 0 1 0 41.313144 0c0-138.812166-98.102194-251.741648-218.687-251.741648S287.512634 194.832791 287.512634 333.644957a20.656572 20.656572 0 0 0 41.313145 0z" fill="#6E6E96" p-id="1548"></path><path d="M805.071318 559.12797c0-165.058407-133.821539-298.871683-298.871684-298.871683-165.06667 0-298.879946 133.817407-298.879945 298.871683 0 93.417283 42.878913 176.803734 110.008642 231.613883 21.024259 110.070612 100.485962 191.957396 195.36573 191.957396 98.684709 0 180.678907-88.579514 197.600771-205.318067 58.296979-54.554008 94.776485-132.119437 94.776486-218.253212z" fill="#DDA0E8" p-id="1549"></path><path d="M825.72789 559.12797c0-85.348826-33.236425-165.587216-93.590798-225.937457-60.350242-60.350242-140.588632-93.586667-225.937458-93.586667-176.1923 0-319.536518 143.340087-319.536518 319.528255 0 96.342254 42.862388 186.59495 117.601998 247.614465a20.602865 20.602865 0 0 1-7.225669-12.125408c23.474129 122.898343 112.152794 208.734664 215.654616 208.734664 107.612479 0 199.315267-93.789101 218.038384-223.012487a20.677229 20.677229 0 0 1-6.325043 12.129539c64.390667-60.263484 101.320488-145.310724 101.320488-233.344904zM689.853088 774.414899c-15.752702 108.71554-90.26509 187.623647-177.159027 187.623646-83.38232 0-155.374606-72.041862-175.076845-175.175996a20.697886 20.697886 0 0 0-7.225669-12.129539c-65.084728-53.136967-102.415286-131.726962-102.415286-215.60504 0-153.4081 124.811142-278.215111 278.223373-278.215111 74.314085 0 144.178744 28.939858 196.729065 81.490178 52.554451 52.55032 81.490178 122.414979 81.490178 196.724933 0 77.771995-31.331889 149.925402-88.228352 203.165652a20.623522 20.623522 0 0 0-6.337437 12.121277z" fill="#6E6E96" p-id="1550"></path><path d="M207.32382 538.471398H84.408952a20.660704 20.660704 0 0 0-19.417178 13.604418l-41.313145 113.714431a20.656572 20.656572 0 1 0 38.830225 14.104308l41.313144-113.714431A20.64831 20.64831 0 0 1 84.408952 579.784542h122.914868a20.656572 20.656572 0 1 0 0-41.313144zM805.071318 579.784542H918.934476a20.656572 20.656572 0 0 1-17.810097-10.191953l61.969717 105.447671a20.644178 20.644178 0 0 0 28.274717 7.341346 20.652441 20.652441 0 0 0 7.341345-28.274716l-61.969717-105.451802a20.668966 20.668966 0 0 0-17.814228-10.191953h-113.867289c-11.410691 0-20.656572 9.245882-20.656573 20.656572s9.262407 20.664835 20.668967 20.664835zM754.987392 715.010728l105.187398 105.187398a20.64831 20.64831 0 0 1-6.052376-14.467864l0.772556 117.188867a20.664835 20.664835 0 0 0 20.792906 20.520239 20.668966 20.668966 0 0 0 20.520239-20.792906l-0.772556-117.188866a20.693754 20.693754 0 0 0-6.052376-14.467864l-105.191529-105.187398a20.644178 20.644178 0 0 0-29.204262 0 20.64831 20.64831 0 0 0 0 29.208394zM768.30675 406.149526l95.623405-95.623405a20.64831 20.64831 0 0 1-29.204262 0l97.263537 97.263537a20.656572 20.656572 0 1 0 29.204262-29.212525l-97.263537-97.263536a20.64831 20.64831 0 0 0-29.204262 0l-95.623405 95.623404a20.656572 20.656572 0 1 0 29.204262 29.212525zM228.199352 685.802334L134.009513 779.992173a20.623522 20.623522 0 0 0-6.044113 14.211722l-2.239172 117.862271a20.656572 20.656572 0 1 0 41.304882 0.784949l2.239172-117.86227a20.644178 20.644178 0 0 1-6.044113 14.211721l94.189839-94.189838a20.656572 20.656572 0 0 0-29.216656-29.208394zM273.309175 376.937001L180.920589 284.548416a20.656572 20.656572 0 0 0-29.212524 0L47.846819 388.401399a20.656572 20.656572 0 0 0 0 29.212525 20.656572 20.656572 0 0 0 29.212524 0L180.916458 313.760941a20.656572 20.656572 0 0 1-29.212525 0L244.092519 406.149526a20.660704 20.660704 0 0 0 29.216656-29.212525zM416.897141 117.407826L326.198263 26.704817a20.656572 20.656572 0 0 0-29.212525 29.212524L387.684616 146.620351a20.656572 20.656572 0 1 0 29.212525-29.212525zM626.548956 147.801907l80.027693-80.023562a20.656572 20.656572 0 1 0-29.208393-29.212524l-80.023562 80.023561a20.656572 20.656572 0 1 0 29.204262 29.212525z" fill="#6E6E96" p-id="1551"></path><path d="M724.622231 526.854141c0-128.64087-104.708165-232.927641-233.857187-232.927641-129.161416 0-233.86545 104.290903-233.86545 232.927641 0 72.806155 33.550405 137.791732 86.075937 180.505392 16.450894 85.786745 78.631308 149.60316 152.871029 149.60316 77.210136 0 141.377713-69.042528 154.618576-160.018204 45.613843-42.511226 74.157095-102.964751 74.157095-170.090348z" fill="#F6C2FF" p-id="1552"></path><path d="M559.510116 633.875843s103.671205 77.325813 72.702873 125.046626c0 0 53.90126-32.769586 30.968333-74.785054C638.005092 638.007157 559.510116 633.875843 559.510116 633.875843z" fill="#DDA0E8" p-id="1553"></path><path d="M336.419135 486.160694a80.015299 59.90406 90 1 0 119.80812 0 80.015299 59.90406 90 1 0-119.80812 0Z" fill="#F9D4FF" p-id="1554"></path></svg>