<?xml version="1.0" standalone="no"?><!DOCTYPE svg PUBLIC "-//W3C//DTD SVG 1.1//EN" "http://www.w3.org/Graphics/SVG/1.1/DTD/svg11.dtd"><svg t="1711552692272" class="icon" viewBox="0 0 1376 1024" version="1.1" xmlns="http://www.w3.org/2000/svg" p-id="4458" xmlns:xlink="http://www.w3.org/1999/xlink" width="268.75" height="200"><path d="M389.682367 331.048744c0-79.878006 56.657147-122.792642 126.549038-122.792642 69.90827 0 126.565417 42.914636 126.565417 122.792642" fill="#F0F0FF" p-id="4459"></path><path d="M516.231405 233.437057s-40.818043-9.090696-40.818043 74.025017H391.380389s4.597217-74.025017 124.851016-74.025017z" fill="#FCFCFC" p-id="4460"></path><path d="M408.791938 331.048744c0-69.214865 48.194338-103.683071 107.439467-103.683071 59.256049 0 107.455846 34.468206 107.455846 103.683071a19.109571 19.109571 0 1 0 38.219142 0c0-90.289992-65.343812-141.902213-145.674988-141.902212-80.314796 0-145.658608 51.612221-145.658608 141.902212a19.109571 19.109571 0 1 0 38.219141 0z" fill="#6E6E96" p-id="4461"></path><path d="M493.523775 84.628099h38.219142v122.950979h-38.219142z" fill="#6E6E96" p-id="4462"></path><path d="M40.94908 103.73767h956.78345a19.109571 19.109571 0 1 0 0-38.219142H40.94908a19.109571 19.109571 0 1 0 0 38.219142z" fill="#6E6E96" p-id="4463"></path><path d="M635.475127 327.963914h518.742948l109.759915-100.248809 58.125854 31.296017-48.636587 115.563765C1250.999861 441.469304 1169.380155 463.45623 1174.419621 462.997601c0 0-141.186969 37.181765-374.143556 133.494001" fill="#F0F0FF" p-id="4464"></path><path d="M635.475127 347.073484h518.742948c4.766473 0 9.36915-1.78538 12.879851-5.001247l109.765374-100.248809a19.120491 19.120491 0 0 1-21.954166 2.713559l58.125854 31.296018a19.098651 19.098651 0 0 1-8.550168-24.236396l-48.631128 115.563764a21.621114 21.621114 0 0 0-0.507768 1.33221c-10.646761 31.716428-40.96 58.535345-85.326964 75.526484-16.92016 6.475415-15.336796 19.459003-14.446835 23.286377 2.162111 9.292711 11.056252 15.58795 20.567358 14.725289a19.109571 19.109571 0 0 1-6.595532-37.509357c-1.425028 0.376732-145.107161 38.617713-376.578662 134.312983-9.756801 4.02393-14.392237 15.200299-10.357387 24.957099s15.205758 14.392237 24.957099 10.351928c119.811549-49.532007 214.665998-83.017435 273.135825-102.378161a2425.845353 2425.845353 0 0 1 73.418971-23.1335l18.907556-5.448958 4.733713-1.30491 1.162954-0.316673c1.239392-0.333053 2.877355-0.90634 4.02393-1.479627a19.109571 19.109571 0 0 0-10.275489-36.122549c9.407369-0.851741 17.81012 5.279701 20.065049 14.452296 2.440565 9.953356-3.488862 18.945774-10.630381 21.894108 0.223855-0.092818 0.977318-0.376732 1.566985-0.606046 55.2212-21.140645 93.544079-56.318635 107.892636-99.047636a16.314114 16.314114 0 0 1-0.507768 1.33221l48.636587-115.563764a19.109571 19.109571 0 0 0-8.544708-24.236396l-58.125854-31.296017a19.109571 19.109571 0 0 0-21.948707 2.713559l-109.754455 100.243349a19.12595 19.12595 0 0 1 12.88531-5.001248h-518.742948c-10.559403 0-19.109571 8.555628-19.109571 19.109571s8.566548 19.120491 19.120491 19.12049z" fill="#6E6E96" p-id="4465"></path><path d="M450.041312 326.571645c-166.657297 0-278.508344 94.81623-301.772882 263.783055-19.884873 144.326398 49.177115 263.777595 301.772882 263.777595 243.679787 0 278.491965-98.861999 298.840927-227.245555 66.692402-29.974727 110.245844-79.206441 110.245844-134.891731 0-108.307587-117.10345-165.428824-261.549965-165.428824H450.041312z" fill="#F0F0FF" p-id="4466"></path><path d="M333.795063 346.696753c89.416412-33.534567 153.903023 53.534098 158.702255 125.184068 13.147385 195.938619-155.764841 250.324457-335.323828 221.310669-44.705476-298.054705 176.621573-346.494737 176.621573-346.494737z" fill="#B5E0FF" p-id="4467"></path><path d="M340.505252 364.588771c27.266628-10.23181 52.857073-7.834924 76.050632 7.11422 30.821008 19.857574 54.211122 61.576497 56.881002 101.455441 4.44434 66.255612-12.994508 117.785934-51.841535 153.16594-53.463119 48.702106-148.727059 66.201013-261.36433 47.997782a19.093191 19.093191 0 0 1 15.844564 16.0302c-41.38587-275.865764 153.542671-323.126462 161.863525-324.9992 0.857201-0.196556 1.752621-0.45863 2.566142-0.764383z m-186.372914 347.466596c126.030349 20.365343 230.15567-0.043679 293.206334-57.45975 47.888584-43.61896 69.498779-105.52305 64.235458-183.981487-3.488862-51.972573-33.348931-104.62763-74.308931-131.026137-33.430829-21.544676-71.529853-25.268312-110.174866-10.772339a19.218768 19.218768 0 0 1 2.620741-0.775302c-2.391426 0.524148-238.252669 55.870925-191.43422 367.995734a19.13687 19.13687 0 0 0 15.855484 16.019281zM740.146436 609.895601c0.01638 0 0.00546 0 0.021839-0.01092-0.469549 0.245694-47.380816 23.952482-91.169032 23.952482a19.109571 19.109571 0 0 0 0 38.219142c53.184665 0 106.374791-27.004553 108.62426-28.156588a19.12595 19.12595 0 0 0 8.266254-25.737861 19.13141 19.13141 0 0 0-25.743321-8.266255zM282.870786 821.400331l-28.233025 128.20884 37.607635 6.824847 28.233026-128.208841zM586.532786 844.697627l34.380848 112.293298 37.110786-9.139835-34.386307-112.276918z" fill="#6E6E96" p-id="4468"></path><path d="M201.906265 966.671288h527.56611a19.109571 19.109571 0 1 0 0-38.219142H201.906265a19.109571 19.109571 0 1 0 0 38.219142z" fill="#6E6E96" p-id="4469"></path><path d="M300.697286 421.912023s-73.708344 49.138896-54.598774 114.657425 134.203786-141.760256 54.598774-114.657425z" fill="#FFFFFF" opacity=".46" p-id="4470"></path><path d="M261.080416 404.500475s-137.468792 148.088254-20.873111 221.725619c84.497062 53.353922 281.762431-48.52739 211.138917-218.302276 0 0 190.593399 270.602442-229.817158 292.441951 0 0-86.893948 16.849182-76.208968-76.203508S209.604692 404.500475 261.080416 404.500475z" fill="#6E6E96" opacity=".15" p-id="4471"></path><path d="M509.892487 530.978534s2.375047 159.82153-158.691335 206.230488c0 0-43.679019 47.773927 47.773927 47.773927s259.344175 38.219142 286.643561-98.277793c0 0-73.708344 16.379632-73.708344-49.138896s36.95791-27.304847 120.117302-54.598774 133.816134-154.06136 31.842005-202.99824c0 0 96.465113 44.661797 96.465113 134.749773s-112.615431 119.271021-112.61543 119.271021-12.159147 166.477121-154.918561 202.861744-419.078347 29.488798-438.668387-124.801877c0 0.00546 294.691421 20.813053 355.760149-181.071373z" fill="#6E6E96" opacity=".15" p-id="4472"></path><path d="M783.912813 347.073484H1154.218075l-315.722868 40.261136z" fill="#F7F7FF" p-id="4473"></path><path d="M810.988344 364.059163s102.738512 38.666852 102.738513 102.738512l274.200501-72.185038 95.935505-134.4877 29.183045 15.708068s-14.097403 95.788089-58.535345 133.057211c-44.443402 37.269123-446.044681 182.278006-446.044682 182.278006s138.811922-132.085353 2.522463-227.109059zM516.231405 233.437057s41.080117-3.139429 41.080117 74.025017h64.519371s17.111256-74.025017-105.599488-74.025017z" fill="#6E6E96" opacity=".15" p-id="4474"></path><path d="M507.790435 445.362197s-20.228846-58.32787 58.333329-58.32787h78.556716s192.471597 7.430893 163.992876 126.4453c0 0 59.791117-148.896316-155.80306-170.735825l-204.745401 2.937414c-0.01092 0 55.876385 41.238454 59.66554 99.680981z" fill="#F7F7FF" p-id="4475"></path><path d="M450.041312 307.462074c-86.83935 0-161.939963 25.311991-217.172082 73.200576-55.728968 48.314455-91.523924 119.920746-103.530195 207.087689-11.089011 80.489512 4.706414 145.887923 46.965865 194.355254 52.720576 60.484521 144.817787 91.141733 273.752791 91.141733 258.115702 0 296.596918-110.224004 317.710264-243.357654a19.15325 19.15325 0 0 1-11.034412 14.441376c76.099771-34.211592 121.52595-91.141733 121.52595-152.319659 0-112.102202-110.174865-184.538395-280.659536-184.538395l-147.558645-0.01092z m147.536806 38.219142c111.840128 0 242.440395 38.322879 242.440394 146.319253 0 45.693714-36.996129 89.607507-98.971197 117.469262a19.109571 19.109571 0 0 0-11.039872 14.441375c-19.60096 123.628003-51.159051 211.127998-279.966131 211.127998-117.387363 0-199.798752-26.26201-244.930099-78.038027-34.681141-39.775207-47.435415-94.969107-37.913388-164.025636 21.642954-157.15165 124.741818-247.283306 282.848947-247.283306l147.531346-0.010919z" fill="#6E6E96" p-id="4476"></path><path d="M663.779131 419.182085h73.708344v38.219141h-73.708344zM663.779131 492.890429h73.708344v38.219142h-73.708344z" fill="#6E6E96" p-id="4477"></path><path d="M375.800936 569.909563a24.574908 34.124234 31.226 1 0 35.381037-58.36125 24.574908 34.124234 31.226 1 0-35.381037 58.36125Z" fill="#FFFFFF" opacity=".25" p-id="4478"></path><path d="M420.814588 862.327571h38.219142v71.584452h-38.219142z" fill="#6E6E96" p-id="4479"></path></svg>