<?xml version="1.0" standalone="no"?><!DOCTYPE svg PUBLIC "-//W3C//DTD SVG 1.1//EN" "http://www.w3.org/Graphics/SVG/1.1/DTD/svg11.dtd"><svg t="1711552819631" class="icon" viewBox="0 0 1024 1024" version="1.1" xmlns="http://www.w3.org/2000/svg" p-id="2520" xmlns:xlink="http://www.w3.org/1999/xlink" width="200" height="200"><path d="M244.617017 454.003427l374.684522-374.680263c71.065924-71.061665 186.616186-71.785611 256.792082-1.613973 70.175896 70.175896 69.45195 185.726158-1.613974 256.792082l-374.684521 374.688779-255.178109-255.186625z" fill="#FF8585" p-id="2521"></path><path d="M432.165816 662.018598L95.743957 998.448973v-302.817999l185.006471-185.027763" fill="#F0F0FF" p-id="2522"></path><path d="M751.553655 197.850121m-55.360558 0a55.360559 55.360559 0 1 0 110.721117 0 55.360559 55.360559 0 1 0-110.721117 0Z" fill="#F0F0FF" p-id="2523"></path><path d="M751.553655 163.782084c18.784263 0 34.068036 15.283773 34.068037 34.068037s-15.283773 34.068036-34.068037 34.068036-34.068036-15.283773-34.068036-34.068036 15.283773-34.068036 34.068036-34.068037z m-76.653081 34.068037c0 42.265657 34.387424 76.653082 76.653081 76.653081s76.653082-34.387424 76.653082-76.653081-34.387424-76.653082-76.653082-76.653082-76.653082 34.387424-76.653081 76.653082z" fill="#6E6E96" p-id="2524"></path><path d="M839.747284 76.482741c62.272112 62.27637 61.607785 149.924911-1.613973 213.150928L463.444531 664.326707l30.111886 30.107627 374.684521-374.684521c79.663844-79.668103 80.345205-194.643467 1.613973-273.374699l-30.107627 30.107627z" fill="#6E6E96" opacity=".15" p-id="2525"></path><path d="M418.453431 379.649938l99.01023-99.010231 30.111886 30.116144-99.010231 99.005972z" fill="#FFFFFF" p-id="2526"></path><path d="M547.273193 250.834434l45.778924-45.778924 30.107627 30.111886-45.778924 45.778924z" fill="#FFFFFF" opacity=".59" p-id="2527"></path><path d="M474.23984 653.514364l-199.510937-199.510937 30.018198-30.018199 199.510938 199.510938z" fill="#6E6E96" opacity=".15" p-id="2528"></path><path d="M348.022024 635.475339L91.485453 892.020428v80.877518l296.97533-296.983848z" fill="#FFFFFF" opacity=".71" p-id="2529"></path><path d="M417.107743 646.964784l-336.421858 336.430375A21.292523 21.292523 0 1 1 117.03648 998.448973v-302.817999a21.292523 21.292523 0 0 1-6.234451 15.053813l185.006471-185.027763a21.292523 21.292523 0 0 0 0-30.111886 21.292523 21.292523 0 0 0-30.111885 0l-185.01073 185.032022A21.292523 21.292523 0 0 0 74.451435 695.630974v302.817999a21.292523 21.292523 0 0 0 36.346336 15.053813l336.421858-336.430375a21.292523 21.292523 0 1 0-30.111886-30.107627z" fill="#6E6E96" p-id="2530"></path><path d="M259.675089 469.05724l374.680263-374.680263c62.940697-62.940697 164.633785-63.664643 226.680197-1.613973s61.322465 163.739499-1.613974 226.675938L484.737054 694.136239a21.292523 21.292523 0 0 1 30.111886 0l-255.173851-255.182367a21.288264 21.288264 0 0 1 0 30.103368z m255.173851 255.186626l374.684521-374.684521c79.544606-79.544606 80.268552-208.249389 1.613973-286.903968-78.658837-78.65032-207.355103-77.926374-286.899709 1.613973l-374.68878 374.680263a21.292523 21.292523 0 0 0 0 30.111886l255.178109 255.182367a21.292523 21.292523 0 0 0 30.111886 0z" fill="#6E6E96" p-id="2531"></path><path d="M146.816202 836.689678V718.53747l142.136106-142.136106 99.363686 99.363686 23.971122-23.97538-121.303501-121.30776L117.03648 704.446078v162.023322z" fill="#6E6E96" opacity=".15" p-id="2532"></path></svg>