<?xml version="1.0" standalone="no"?><!DOCTYPE svg PUBLIC "-//W3C//DTD SVG 1.1//EN" "http://www.w3.org/Graphics/SVG/1.1/DTD/svg11.dtd"><svg t="1711552859526" class="icon" viewBox="0 0 1033 1024" version="1.1" xmlns="http://www.w3.org/2000/svg" p-id="2713" xmlns:xlink="http://www.w3.org/1999/xlink" width="201.7578125" height="200"><path d="M290.563732 637.880077l-138.885091 138.88932c-49.84198-12.307184-106.108226-3.19733-108.853024 41.518772 0 61.658569 35.669687 35.673916 79.671042 79.675271 44.001355 43.992896 32.417376 79.662583 79.666812 79.662583 43.789891-10.763499 53.377653-62.737033 41.983992-109.314015l138.419871-138.419871" fill="#F0F0FF" p-id="2714"></path><path d="M275.609024 622.929597l-138.885091 138.889321a21.154823 21.154823 0 0 1 20.021377-5.574182c-43.240086-10.670455-83.887627-6.145133-108.743063 12.116867-15.961276 11.719315-25.049983 28.547592-26.284931 48.636638a22.178307 22.178307 0 0 0-0.038063 1.298386c0 47.786554 20.089046 59.649664 46.357059 70.197471 12.374852 4.965166 25.176861 10.103733 39.505638 24.42828 15.216924 15.221153 22.829615 29.287714 29.5457 41.692172 11.203344 20.702291 23.899621 44.157838 65.071592 44.157837 1.700168 0 3.396106-0.207234 5.045523-0.613244 50.247991-12.349477 73.881167-67.812161 57.480047-134.87574a21.154823 21.154823 0 0 1-5.58687 19.974855l138.419871-138.419871a21.137906 21.137906 0 0 0 0-29.900959 21.146364 21.146364 0 0 0-29.905188 0l-138.419871 138.419871a21.150594 21.150594 0 0 0-5.586869 19.979085c8.585424 35.090277 3.958599 76.266477-26.492165 83.75229a21.146364 21.146364 0 0 1 5.045522-0.613244c-15.969734 0-17.555712-2.930886-27.875137-21.996448-7.287037-13.466005-17.263892-31.901405-36.836967-51.470251-20.448534-20.452763-39.645204-28.158499-53.661014-33.774973-17.940575-7.202452-19.818373-7.955262-19.818372-30.94136 0 0.439844-0.012688 0.862772-0.038064 1.298387 0.46522-7.566169 3.273457-12.861219 9.114083-17.153931 14.197669-10.429387 43.760286-12.493272 73.563972-5.134337 7.189764 1.776295 14.785538-0.342571 20.021378-5.574182l138.885091-138.893549a21.133676 21.133676 0 0 0 0-29.89673 21.129447 21.129447 0 0 0-29.905188-0.008459z" fill="#6E6E96" p-id="2715"></path><path d="M896.330941 592.571877c125.880077-125.880077 125.880077-329.980555 0-455.869091-125.888536-125.884306-329.980555-125.884306-455.87332 0-55.982885 55.987114-87.004601 127.440679-93.196257 200.607099a252.343794 252.343794 0 0 0-40.71521 33.026392c-98.347511 98.343281-58.457009 217.904825 39.886273 316.252335 98.347511 98.355969 217.913283 138.246471 316.260794 39.894731a252.855536 252.855536 0 0 0 33.030621-40.719439c73.157962-6.183197 144.619985-37.204913 200.607099-93.192027z" fill="#DB7B8C" p-id="2716"></path><path d="M864.395701 181.956006c-0.325654-0.325654 0.321425 0.329883 0 0 63.066917 63.066917 68.40003 234.580848-27.27458 330.255458-75.885843 75.881613-234.85575 160.775807-284.591999 90.654463-9.393215 14.404903-8.826492-15.555266 0 0 105.664153 186.155674-166.959004 101.7267-265.306515 3.370731-3.425711-3.42994-6.762607-6.881027-10.044523-10.35749 16.769067 31.338912 40.4826 61.94193 69.254343 90.713674 98.347511 98.355969 217.913283 138.246471 316.260794 39.89473a252.855536 252.855536 0 0 0 33.030621-40.719439c73.162191-6.183197 144.619985-37.204913 200.615557-93.192027 125.871618-125.884306 93.936379-284.727336-31.943698-410.6201z" fill="#BD6B78" p-id="2717"></path><path d="M330.877161 438.004642c11.939237-12.645526 86.742386-23.637406 100.347957-33.026391 5.849084-73.17065 6.343909-156.301237 59.20982-212.288351 118.893318-125.884306 287.831622-136.457488 406.716482-10.573182 69.626519 73.724684 89.10232 196.525851 77.184229 292.483822 37.061118-112.016521 11.118758-240.315742-77.99625-329.439208-125.892765-125.884306-329.976326-125.884306-455.87332 0-55.991343 55.987114-87.01306 127.440679-93.204715 200.607099a252.115413 252.115413 0 0 0-40.71521 33.026391c-73.957294 73.953065-69.723792 159.913036-21.264783 239.816688-17.779863-61.865803-7.232057-124.666276 45.59579-180.606868z" fill="#EBABB6" opacity=".59" p-id="2718"></path><path d="M911.28142 607.522356c133.924154-133.924154 133.924154-351.837437 0.004229-485.770049-133.928383-133.924154-351.845896-133.924154-485.782737 0a343.755297 343.755297 0 0 0-99.316014 213.772825 21.154823 21.154823 0 0 1 9.524322-15.931671 274.496725 274.496725 0 0 0-44.119774 35.788107C195.705372 451.263413 210.617788 580.666474 331.477718 701.539092c67.283502 67.287731 138.144968 102.855916 204.920957 102.855915 51.9397 0 99.468268-21.184428 141.240796-62.969643a274.1753 274.1753 0 0 0 35.792336-44.128233 21.129447 21.129447 0 0 1-15.9359 9.524323 343.569209 343.569209 0 0 0 213.785513-99.299098z m-233.274002 66.695633a232.440836 232.440836 0 0 1-30.260447 37.319104c-33.567739 33.563509-71.022179 50.577874-111.339837 50.577874-55.318889 0-115.839783-31.288161-175.015769-90.472605-60.918446-60.922675-147.106797-179.13931-39.886273-286.355606a231.946011 231.946011 0 0 1 37.310646-30.264676 21.142135 21.142135 0 0 0 9.524322-15.931671 301.420276 301.420276 0 0 1 87.076499-187.441373c117.446907-117.434219 308.529683-117.434219 425.968131 0 117.438448 117.442678 117.438448 308.529683 0 425.963903a301.310315 301.310315 0 0 1-187.432914 87.072269 21.146364 21.146364 0 0 0-15.944358 9.532781z" fill="#6E6E96" p-id="2719"></path><path d="M175.375257 973.39675c-41.171971 0-53.868248-23.464006-65.071592-44.162067-6.716085-12.412916-14.328776-26.479477-29.5457-41.687942a21.150594 21.150594 0 0 1 29.905188-29.909418c19.573075 19.573075 29.554159 38.008475 36.836967 51.47448 9.697723 17.9152 11.681252 21.586209 25.134568 21.962614 28.369962-8.961829 32.548484-48.919999 24.182982-83.105211a21.159052 21.159052 0 0 1 5.58687-19.979085l138.419871-138.419871a21.146364 21.146364 0 1 1 29.905188 29.900959L240.413015 849.787793c10.974963 61.65011-12.742799 111.38213-59.992235 122.995713-1.649416 0.40601-3.345355 0.613245-5.045523 0.613244z" fill="#6E6E96" opacity=".15" p-id="2720"></path><path d="M687.798184 599.757412c18.816035-4.153146-21.772297 34.891501-48.636637 34.891501-26.86857 0-78.068147 3.649862-78.068148-15.618705s36.540917-51.609817 63.3968-51.609817c26.864341 0 22.601234 41.328454 63.307985 32.337021z" fill="#BD6B78" p-id="2721"></path><path d="M797.391332 589.192688c0 26.280701-29.266568 47.587778-65.363412 47.587778-36.105302 0-73.830416 7.232057-73.830416-19.048645 0-26.284931 37.725114-76.126911 73.830416-76.126911 36.096844 0 65.363412 21.302847 65.363412 47.587778z" fill="#BD6B78" p-id="2722"></path><path d="M759.700052 549.987329a50.497518 46.450104 0 1 0 100.995036 0 50.497518 46.450104 0 1 0-100.995036 0Z" fill="#BD6B78" p-id="2723"></path><path d="M689.912821 465.477999m-38.063456 0a38.063456 38.063456 0 1 0 76.126911 0 38.063456 38.063456 0 1 0-76.126911 0Z" fill="#BD6B78" p-id="2724"></path><path d="M753.351913 376.663269m-16.917091 0a16.917091 16.917091 0 1 0 33.834183 0 16.917091 16.917091 0 1 0-33.834183 0Z" fill="#BD6B78" p-id="2725"></path><path d="M693.423117 664.740189l0.042293-0.008459c-4.918644 0.520201-120.796491 11.672793-136.131834-75.217617a21.146364 21.146364 0 0 0-24.500178-17.149702 21.146364 21.146364 0 0 0-17.149701 24.500178c17.775634 100.715904 127.034668 115.941286 182.319723 109.918801a21.154823 21.154823 0 0 0 18.735678-23.32021 21.137906 21.137906 0 0 0-23.315981-18.722991z" fill="#6E6E96" p-id="2726"></path></svg>