<?xml version="1.0" standalone="no"?><!DOCTYPE svg PUBLIC "-//W3C//DTD SVG 1.1//EN" "http://www.w3.org/Graphics/SVG/1.1/DTD/svg11.dtd"><svg t="1711552668638" class="icon" viewBox="0 0 1607 1024" version="1.1" xmlns="http://www.w3.org/2000/svg" p-id="3528" xmlns:xlink="http://www.w3.org/1999/xlink" width="313.8671875" height="200"><path d="M814.478149 733.11087a22.182428 22.182428 0 0 1-18.36487-9.734141L462.470024 231.577451a22.214136 22.214136 0 0 1-3.830242-12.46097V31.707302a22.195111 22.195111 0 0 1 22.195111-22.195111h112.763849a22.195111 22.195111 0 1 1 0 44.390222H503.030004v158.396998l310.420828 457.568075 273.374016-449.749054a22.201453 22.201453 0 0 1 37.940958 23.05755l-291.320349 479.274893a22.220477 22.220477 0 0 1-18.415601 10.659995h-0.551707z" fill="#6E6E96" p-id="3529"></path><path d="M1187.622361 277.375478c0 17.439016-14.268286 31.707302-31.707302 31.707302h-168.0487c-17.439016 0-31.707302-14.268286-31.707302-31.707302v-22.195112c0-17.439016 14.268286-31.707302 31.707302-31.707302h168.0487c17.439016 0 31.707302 14.268286 31.707302 31.707302v22.195112z" fill="#F0F0FF" p-id="3530"></path><path d="M1155.915059 331.277891h-168.0487c-29.722425 0-53.902413-24.179988-53.902414-53.902413v-22.195112c0-29.722425 24.179988-53.902413 53.902414-53.902413h168.0487c29.722425 0 53.902413 24.179988 53.902413 53.902413v22.195112c0 29.722425-24.18633 53.902413-53.902413 53.902413z m-168.0487-85.609715c-5.155607 0-9.512191 4.356583-9.512191 9.51219v22.195112c0 5.155607 4.356583 9.512191 9.512191 9.51219h168.0487c5.155607 0 9.512191-4.356583 9.512191-9.51219v-22.195112c0-5.155607-4.356583-9.512191-9.512191-9.51219h-168.0487z" fill="#6E6E96" p-id="3531"></path><path d="M295.061811 699.158691m-261.908656 0a261.908656 261.908656 0 1 0 523.817311 0 261.908656 261.908656 0 1 0-523.817311 0Z" fill="#CACAD6" p-id="3532"></path><path d="M295.061811 460.497829c131.597986 0 238.667203 107.056534 238.667203 238.654521 0 131.604328-107.062876 238.667203-238.667203 238.667203-131.610669 0-238.667203-107.062876-238.667204-238.667203 0-131.597986 107.062876-238.65452 238.667204-238.654521zM9.905361 699.15235c0 157.230169 127.919939 285.150108 285.15645 285.150108s285.143767-127.926281 285.143766-285.150108-127.919939-285.143767-285.143766-285.143767c-157.23651 0-285.15645 127.913598-285.15645 285.143767z" fill="#6E6E96" p-id="3533"></path><path d="M292.195471 700.496739m-177.376989 0a177.376989 177.376989 0 1 0 354.753977 0 177.376989 177.376989 0 1 0-354.753977 0Z" fill="#F0F0FF" p-id="3534"></path><path d="M292.195471 900.06884c-110.049704 0-199.578442-89.528738-199.578442-199.572101s89.528738-199.5721 199.578442-199.5721c110.043362 0 199.5721 89.528738 199.5721 199.5721s-89.528738 199.5721-199.5721 199.572101z m0-354.753978c-85.571667 0-155.188219 69.616552-155.188219 155.181877s69.616552 155.181877 155.188219 155.181878c85.565325 0 155.181877-69.616552 155.181877-155.181878S377.767137 545.314862 292.195471 545.314862z" fill="#E67575" p-id="3535"></path><path d="M298.219858 608.196783c76.668256 0 140.640909 54.403389 155.353097 126.721403 2.092682-10.266824 3.196096-20.907795 3.196096-31.796082 0-87.575568-70.979966-158.542851-158.549193-158.542851-87.562885 0-158.53651 70.960942-158.53651 158.542851 0 10.881946 1.090731 21.529258 3.202438 31.796082 14.724871-72.29899 78.665816-126.721403 155.334072-126.721403z" fill="#6E6E96" opacity=".15" p-id="3536"></path><path d="M299.145711 717.466487a22.201453 22.201453 0 0 1-20.730234-30.115595l181.689182-476.142212a22.195111 22.195111 0 1 1 41.473151 15.828285l-181.689182 476.148554a22.220477 22.220477 0 0 1-20.742917 14.280968z" fill="#6E6E96" p-id="3537"></path><path d="M1309.670108 730.948432m-261.902314 0a261.902314 261.902314 0 1 0 523.804628 0 261.902314 261.902314 0 1 0-523.804628 0Z" fill="#CACAD6" p-id="3538"></path><path d="M1548.33097 730.942091c0 131.604328-107.062876 238.667203-238.673545 238.667203-131.597986 0-238.660862-107.062876-238.660862-238.667203 0-131.597986 107.062876-238.65452 238.660862-238.654521 131.61701 0 238.673545 107.056534 238.673545 238.654521z m-238.660862-285.143767c-157.223828 0-285.137425 127.919939-285.137425 285.143767s127.907256 285.150108 285.137425 285.150108c157.23651 0 285.162791-127.919939 285.162791-285.150108s-127.926281-285.143767-285.162791-285.143767z" fill="#6E6E96" p-id="3539"></path><path d="M1312.530106 732.28648m-177.370647 0a177.370647 177.370647 0 1 0 354.741295 0 177.370647 177.370647 0 1 0-354.741295 0Z" fill="#F0F0FF" p-id="3540"></path><path d="M1312.530106 931.852239c-110.043362 0-199.565759-89.522396-199.565758-199.565759s89.522396-199.565759 199.565758-199.565758 199.565759 89.522396 199.565759 199.565758-89.528738 199.565759-199.565759 199.565759z m0-354.741294c-85.558984 0-155.175536 69.616552-155.175535 155.175535s69.616552 155.175536 155.175535 155.175536 155.175536-69.616552 155.175536-155.175536-69.616552-155.175536-155.175536-155.175535z" fill="#E67575" p-id="3541"></path><path d="M1461.852474 766.72061c2.105365-10.266824 3.196096-20.920478 3.196096-31.802424 0-87.575568-70.973625-158.542851-158.536509-158.542851-87.569227 0-158.549193 70.973625-158.549193 158.542851 0 10.888287 1.109756 21.535599 3.196096 31.802424 14.712188-72.318014 78.684841-126.727745 155.353097-126.727744 76.668256 0 140.60286 54.403389 155.340413 126.727744z" fill="#6E6E96" opacity=".15" p-id="3542"></path><path d="M1291.000848 733.11087h-476.529041a22.195111 22.195111 0 1 1 0-44.390222h422.93736l-258.477926-258.490609a22.195111 22.195111 0 0 1 31.383887-31.390229l296.374493 296.380834a22.195111 22.195111 0 0 1-15.688773 37.890226z" fill="#6E6E96" p-id="3543"></path><path d="M809.246444 852.330326h-66.30631a22.207794 22.207794 0 0 1-19.265357-33.222911l69.762406-121.84482a22.182428 22.182428 0 0 1 30.293156-8.231216 22.182428 22.182428 0 0 1 8.231216 30.286815l-50.738025 88.621909h28.022914a22.195111 22.195111 0 1 1 0 44.390223z" fill="#6E6E96" p-id="3544"></path></svg>