<?xml version="1.0" standalone="no"?><!DOCTYPE svg PUBLIC "-//W3C//DTD SVG 1.1//EN" "http://www.w3.org/Graphics/SVG/1.1/DTD/svg11.dtd"><svg t="1711553004472" class="icon" viewBox="0 0 1024 1024" version="1.1" xmlns="http://www.w3.org/2000/svg" p-id="1716" xmlns:xlink="http://www.w3.org/1999/xlink" width="200" height="200"><path d="M814.734715 762.777384C662.900074 914.623504 244.103679 1087.314173 92.269038 935.468054s20.77568-570.791732 172.644756-722.683765 348.641169-102.5584 500.452854 49.356589 201.12236 348.755952 49.356589 500.625028" fill="#F94367" p-id="1717"></path><path d="M473.187121 151.628032c-63.589652 0-127.684347 23.932206-186.602341 82.884634-74.689145 74.689145-152.052728 214.724118-192.502174 348.514909C48.226891 734.667085 55.538553 855.234901 114.008894 913.739676c136.040533 136.040533 538.813254-32.449088 679.100749-172.667713 150.30803-150.365422 73.093665-334.809846-49.356589-457.214186-74.402188-74.448101-171.772407-132.241223-270.462629-132.241223m-208.342196 872.349011c-78.05228 0-146.990808-19.363852-194.430525-66.815047-76.078016-76.181321-88.566381-215.30951-35.22683-391.902793 43.146841-142.560194 126.651303-292.902659 207.84863-374.191813C393.413099 40.828229 606.909042 60.237995 787.117982 240.446935s199.52688 393.704883 49.356589 544.070305c-112.487109 112.487109-371.896157 239.48276-571.457472 239.48276" fill="#E22351" p-id="1718"></path><path d="M435.067765 603.929516a34.779178 34.779178 0 0 1 49.172936 49.195893c-13.567323 13.567323-63.67 41.6891-77.237322 28.087343s14.508541-63.692956 28.087342-77.260279M424.898012 416.225261a34.779178 34.779178 0 1 1 49.172936 49.184415c-13.567323 13.567323-63.67 41.677622-77.214366 28.087342s14.508541-63.692956 28.087343-77.260279M257.510306 600.199076a34.779178 34.779178 0 1 1 49.172936 49.184415c-13.567323 13.555845-63.681478 41.677622-77.271757 28.075864s14.542976-63.704434 28.098821-77.260279M668.891735 675.990136a34.779178 34.779178 0 0 0-49.172937-49.195893c-13.567323 13.578801-41.666144 63.692956-28.075864 77.260279s63.692956-14.508541 77.248801-28.064386M835.120134 675.990136a34.779178 34.779178 0 1 0-49.149979-49.195893c-13.567323 13.578801-41.677622 63.692956-28.075865 77.260279s63.692956-14.508541 77.248801-28.064386M224.028174 897.750437a34.779178 34.779178 0 0 0-49.172937-49.184414c-13.567323 13.567323-41.677622 63.681478-28.075864 77.260278s63.692956-14.52002 77.248801-28.075864M460.136321 852.216114a34.779178 34.779178 0 1 0-49.172937-49.184414c-13.567323 13.567323-41.677622 63.681478-28.075864 77.260279s63.67-14.508541 77.237322-28.087343M768.901957 405.068376a30.842129 30.842129 0 0 1 21.728378 8.998969c72.106533 72.129489 133.733399 99.574048 170.773797 110.042237-18.606286-67.721831-59.503385-128.820697-59.962516-129.60122a30.658476 30.658476 0 0 1 16.953414-46.601802c38.601444-11.156885 63.405999-26.30821 78.224454-38.153791-76.537147-58.125992-183.652423-64.978523-184.800251-65.139219a30.578129 30.578129 0 0 1-28.316908-36.558311c19.363852-98.368829-35.353092-156.850648-72.313142-184.226337-15.220195 55.520423-31.335695 131.437744-31.542303 132.424876a30.669955 30.669955 0 0 1-50.802852 16.172891c-52.421289-48.128413-101.904138-65.127741-134.422096-70.901314 49.195893 129.394611 150.950814 173.321975 155.656907 175.296239a30.750303 30.750303 0 0 1 6.072009 53.385463c-51.457113 36.650137-67.297135 87.739945-72.083576 118.318074h3.443482c76.766713 0 167.927185-40.242837 168.96023-40.736403a30.56665 30.56665 0 0 1 12.5228-2.66296" fill="#454849" p-id="1719"></path><path d="M957.581866 535.782989c-14.921759 0-96.417522-4.591311-198.138008-99.2297-34.308568 13.177061-115.609201 40.036228-180.81729 28.557952a25.493252 25.493252 0 0 1-21.142985-23.691163c-0.172174-3.581222-3.236874-78.05228 54.131552-137.968883-41.471013-26.928037-108.630408-85.478725-136.59149-193.615568a24.999686 24.999686 0 0 1 3.592701-20.488723 25.653948 25.653948 0 0 1 17.917589-10.85845c3.340178-0.539479 72.714881-8.528359 152.661077 46.808412 7.79375-33.378828 19.122809-79.418195 28.443169-105.714926a25.8376 25.8376 0 0 1 34.939874-14.680716c46.992064 21.131507 126.995651 87.946554 118.949379 196.542528 42.136753 6.600009 123.506255 25.940905 179.692418 81.759763a25.102991 25.102991 0 0 1 3.546787 31.335695c-2.513743 3.99444-23.438641 34.687351-78.993498 57.60947 17.378111 30.888042 42.630319 83.274896 48.323544 135.569923a25.148904 25.148904 0 0 1-6.003139 19.145765 25.814644 25.814644 0 0 1-18.204546 8.895664h-2.295656" fill="#60B71C" p-id="1720"></path><path d="M765.228909 292.983007a30.681433 30.681433 0 0 1-24.104381-49.677981c12.212886-15.484195 121.669731-151.455858 209.98359-160.087522a30.727346 30.727346 0 0 1 5.980182 61.156257c-47.175716 4.591311-127.948348 86.500291-167.743532 136.99323a30.727346 30.727346 0 0 1-24.104381 11.707842" fill="#167203" p-id="1721"></path><path d="M232.981229 497.112675a22.956553 22.956553 0 0 1-21.648029-30.773259c1.33148-3.650092 32.437609-90.150383 87.521858-137.934448a23.025423 23.025423 0 1 1 30.176389 34.744743c-46.039367 39.887011-74.023405 117.801551-74.287406 118.570596a22.956553 22.956553 0 0 1-21.70542 15.323499m150.04403-226.76483a30.03865 30.03865 0 1 1-21.923508-7.047662 30.107519 30.107519 0 0 1 21.923508 7.047662" fill="#FEFEFE" p-id="1722"></path></svg>