<?xml version="1.0" standalone="no"?><!DOCTYPE svg PUBLIC "-//W3C//DTD SVG 1.1//EN" "http://www.w3.org/Graphics/SVG/1.1/DTD/svg11.dtd"><svg t="1711552850673" class="icon" viewBox="0 0 1024 1024" version="1.1" xmlns="http://www.w3.org/2000/svg" p-id="2371" xmlns:xlink="http://www.w3.org/1999/xlink" width="200" height="200"><path d="M719.230367 473.363444c0 201.739507-92.774042 509.289715-207.226232 509.289715S304.773767 675.102951 304.773767 473.363444s92.774042-221.280024 207.226233-221.280024c114.452191 0.004135 207.230367 19.540517 207.230367 221.280024z" fill="#FF99A8" p-id="2372"></path><path d="M367.426636 118.165137l129.957256 129.961391a20.665151 20.665151 0 0 0 29.236351 0l129.961391-129.961391a20.673421 20.673421 0 0 0-29.223947-29.236351L497.379757 218.886042a20.665151 20.665151 0 0 1 29.236351 0l-129.953121-129.961391a20.677555 20.677555 0 0 0-29.236351 29.240486z" fill="#8CC29E" p-id="2373"></path><path d="M532.673421 233.506285V57.885577a20.673421 20.673421 0 1 0-41.346842 0v175.620708a20.673421 20.673421 0 0 0 41.346842 0z" fill="#8CC29E" p-id="2374"></path><path d="M719.230367 494.036865H577.662918a20.673421 20.673421 0 1 1 0-41.346841h141.567449a20.673421 20.673421 0 1 1 0 41.346841zM700.793811 669.843633H577.662918c-11.419997 0-20.673421-9.253423-20.67342-20.67342s9.253423-20.673421 20.67342-20.673421h123.130893c11.419997 0 20.673421 9.253423 20.67342 20.673421s-9.253423 20.673421-20.67342 20.67342z" fill="#6E6E96" p-id="2375"></path><path d="M512 252.08342c-16.269982 0-32.101687 0.39693-47.292517 1.653874 90.24775 8.037826 157.804354 51.282487 157.804354 249.677034 0 36.868978-83.400713-84.231785-87.775209-43.095812 70.28963 173.656732 67.60622 261.493962 56.951139 310.808339-17.125862 79.278433-40.56952 154.107946-68.276039 210.47196 109.139122-19.461958 195.8021-313.260206 195.802101-508.24364 0.016539-201.731237-92.761638-221.26762-207.213829-221.271755z" fill="#6E6E96" opacity=".15" p-id="2376"></path><path d="M391.602134 528.036372c53.672334 103.131426 21.702957-67.519391 48.503979-175.690997 15.76555-63.645192 82.123096-75.420773 117.14387-78.182741-14.562357-1.062614-29.71184-1.409927-45.245848-1.409928C397.547809 272.756841 304.773767 291.164455 304.773767 481.235883c0 162.782513 68.052766 398.649703 159.48717 463.030869C419.796544 821.665099 332.381053 414.245731 391.602134 528.036372z" fill="#FFBFC9" p-id="2377"></path><path d="M698.556947 473.363444c0 204.340223-94.006178 488.616294-186.552812 488.616294S325.447188 677.703668 325.447188 473.363444c0-186.213768 77.318593-200.606603 186.552812-200.606603 109.234219 0.004135 186.556947 14.39697 186.556947 200.606603z m-186.556947-241.953444C396.68366 231.41 284.100347 250.094637 284.100347 473.363444c0 186.838105 86.526534 529.963135 227.903788 529.963135 141.373119 0 227.899653-343.120895 227.899653-529.963135 0-223.264672-112.583313-241.94931-227.903788-241.953444z" fill="#6E6E96" p-id="2378"></path></svg>