<?xml version="1.0" standalone="no"?><!DOCTYPE svg PUBLIC "-//W3C//DTD SVG 1.1//EN" "http://www.w3.org/Graphics/SVG/1.1/DTD/svg11.dtd"><svg t="1711553018908" class="icon" viewBox="0 0 1024 1024" version="1.1" xmlns="http://www.w3.org/2000/svg" p-id="2205" xmlns:xlink="http://www.w3.org/1999/xlink" width="200" height="200"><path d="M550.87556 77.056913c84.898032-86.115738 237.543782-74.33699 258.825192-52.896253C837.833183 52.463797 845.87915 196.972538 760.981118 283.088276s-243.325043 68.464686-258.813812 52.896254c-16.319541-16.410585-36.178397-172.811878 48.708254-258.916236z m0 0" fill="#5ABD57" p-id="2206"></path><path d="M550.87556 77.056913c84.898032-86.115738 237.543782-74.33699 258.825192-52.896253C837.833183 52.463797 845.87915 196.972538 760.981118 283.088276s-243.325043 68.464686-258.813812 52.896254c-16.319541-16.410585-36.178397-172.811878 48.708254-258.916236z m0 0" fill="#60B71C" p-id="2207"></path><path d="M526.1914 332.5704a13.224063 13.224063 0 0 1-11.198346-7.226575 14.794563 14.794563 0 0 1 0.27313-14.054835c4.108336-7.055869 26.049812-52.441036 64.86847-98.873204 38.602429-46.170418 82.656086-90.89552 162.671912-133.731471a12.905411 12.905411 0 0 1 6.247858-1.445315 13.258205 13.258205 0 0 1 11.380433 7.62489 14.544194 14.544194 0 0 1-5.610554 18.811857c-144.622545 77.455228-215.852677 220.450372-216.717589 221.98673a13.292346 13.292346 0 0 1-11.847031 6.907923z" fill="#167203" p-id="2208"></path><path d="M305.274431 190.314985c129.816602 0 235.085609 105.416953 235.085609 235.39288s-105.269007 235.415641-235.085609 235.415642S70.188822 555.717934 70.188822 425.742006s105.132442-235.427022 235.085609-235.427021z m0 0" fill="#44336B" p-id="2209"></path><path d="M305.78655 199.13482c124.581602 0 225.617088 101.365519 225.617089 226.345437s-101.035486 226.345436-225.617089 226.345436S80.169462 550.448794 80.169462 425.480257s100.933062-226.345436 225.617088-226.345437z m0 0" fill="#4D3C75" p-id="2210"></path><path d="M720.205026 294.400427c127.392569 0 230.556196 105.143822 230.556196 234.789717s-103.163627 234.789718-230.556196 234.789718S489.66021 658.83604 489.66021 529.190144s103.197768-234.789718 230.544816-234.789717z m0 0" fill="#44336B" p-id="2211"></path><path d="M720.59196 293.751742c127.529135 0 230.943131 105.269007 230.943132 235.051468s-103.413997 235.085609-230.943132 235.085609-230.931751-105.177964-230.93175-234.960425 103.413997-235.176652 230.93175-235.176652z m0 0" fill="#4D3C75" p-id="2212"></path><path d="M306.549039 203.880461c-45.271363-78.320141-5.633314-186.320453 13.463053-197.518799 23.842008-14.009313 132.035786 7.727314 177.250247 86.081597s9.047444 184.283355-13.474433 197.507418c-20.871715 12.211205-131.921982-7.727314-177.181965-86.036075z m0 0" fill="#63CC68" p-id="2213"></path><path d="M306.549039 203.880461c-45.271363-78.320141-5.633314-186.320453 13.463053-197.518799 23.842008-14.009313 132.035786 7.727314 177.250247 86.081597s9.047444 184.283355-13.474433 197.507418c-20.871715 12.211205-131.921982-7.727314-177.181965-86.036075z m0 0" fill="#52AF50" p-id="2214"></path><path d="M462.950333 294.605275a10.037542 10.037542 0 0 1-1.752587-0.159327c-4.131097-0.79663-7.385901-4.19938-8.535325-8.910879l-0.136565-0.78525c-2.6175-16.763378-19.494682-104.233388-95.36803-179.503573-4.46113-4.643217-4.825304-12.768846-0.876294-18.527345a11.619422 11.619422 0 0 1 9.331956-5.348804 9.411618 9.411618 0 0 1 1.786728 0.170707 9.957879 9.957879 0 0 1 5.018771 2.651641c46.045233 45.658298 67.633915 83.429956 85.888129 126.10658 14.327965 33.481235 15.261161 51.348515 15.7619 60.953601a34.266484 34.266484 0 0 0 0.500739 5.348803 16.091933 16.091933 0 0 1-2.515076 12.985075 11.573901 11.573901 0 0 1-9.104346 5.018771z" fill="#167203" p-id="2215"></path><path d="M173.102079 325.059314a28.724213 28.724213 0 1 0 57.448427 0 28.724213 28.724213 0 1 0-57.448427 0Z" fill="#FFFFFF" p-id="2216"></path><path d="M584.75511 436.883451a29.919159 29.828115 0 1 0 59.838317 0 29.919159 29.828115 0 1 0-59.838317 0Z" fill="#FFFFFF" p-id="2217"></path><path d="M469.949299 506.235811c140.867002 0 255.09241 115.420354 255.092411 257.744051S610.793541 1021.723913 469.949299 1021.723913 214.834128 906.292179 214.834128 763.979862s114.225408-257.744051 255.115171-257.744051z m0 0" fill="#4D3C75" p-id="2218"></path><path d="M332.05259 630.760511a28.724213 28.724213 0 1 0 57.448427 0 28.724213 28.724213 0 1 0-57.448427 0Z" fill="#FFFFFF" p-id="2219"></path></svg>