<?xml version="1.0" standalone="no"?><!DOCTYPE svg PUBLIC "-//W3C//DTD SVG 1.1//EN" "http://www.w3.org/Graphics/SVG/1.1/DTD/svg11.dtd"><svg t="1711552742019" class="icon" viewBox="0 0 1024 1024" version="1.1" xmlns="http://www.w3.org/2000/svg" p-id="1541" xmlns:xlink="http://www.w3.org/1999/xlink" width="200" height="200"><path d="M513.1264 510.9248m-489.6768 0a489.6768 489.6768 0 1 0 979.3536 0 489.6768 489.6768 0 1 0-979.3536 0Z" fill="#FFEDDE" p-id="1542"></path><path d="M558.0288 259.18464l60.27264 16.7936-97.66912 350.52544-60.27264-16.7936z" fill="#FDD981" p-id="1543"></path><path d="M558.05952 259.18464l16.128 4.49536L476.5184 614.1952l-16.128-4.49024z" fill="#FFE6AE" p-id="1544"></path><path d="M600.18688 270.90944l18.0992 5.0432-97.66912 350.52544-18.0992-5.0432z" fill="#FFC248" p-id="1545"></path><path d="M709.888 328.0896l60.2624 16.7936-97.66912 350.52032-60.26752-16.7936z" fill="#FDD981" p-id="1546"></path><path d="M626.2784 680.4992l97.1776-348.5696-13.568-3.7888-97.7408 350.5152 60.2624 16.7936 0.5632-1.9456-46.6944-13.0048z" fill="#FFE6AE" p-id="1547"></path><path d="M658.10944 684.76928l95.95392-344.35584 15.97952 4.4544-95.9488 344.35584z" fill="#FFC248" p-id="1548"></path><path d="M658.176 235.3408l61.26592 11.8784-79.42144 409.63584-61.26592-11.8784z" fill="#FDD981" p-id="1549"></path><path d="M590.7968 648.3456l80.7424-407.2448-13.8752-2.7648-81.3056 410.0096 61.3376 12.1856 0.5632-2.7648-47.4624-9.4208z" fill="#FFE6AE" p-id="1550"></path><path d="M621.59872 649.58976l79.7952-402.6368 17.53088 3.47136-79.80032 402.6368z" fill="#FFCA55" p-id="1551"></path><path d="M459.4688 260.9152h62.5664v363.8784H459.4688z" fill="#FDD981" p-id="1552"></path><path d="M459.4688 260.9152h19.5072v363.8784h-19.5072z" fill="#FFE6AE" p-id="1553"></path><path d="M504.832 260.9152h17.2032v363.8784H504.832z" fill="#FFCA55" p-id="1554"></path><path d="M340.1216 228.9664l61.00992-13.8752 80.68096 354.82624-61.00992 13.8752z" fill="#FDD981" p-id="1555"></path><path d="M340.07552 228.93568l17.72544-4.02944 80.67584 354.82112-17.72032 4.02944z" fill="#FFE6AE" p-id="1556"></path><path d="M382.09536 219.40736l19.0208-4.3264 80.68096 354.82624-19.02592 4.32128z" fill="#FFC248" p-id="1557"></path><path d="M263.22944 316.85632l60.032-17.63328 102.5536 349.1328-60.02688 17.62816z" fill="#FDD981" p-id="1558"></path><path d="M263.23968 316.8768l18.31936-5.38624 102.5536 349.1328-18.31936 5.376z" fill="#FFE6AE" p-id="1559"></path><path d="M307.02592 304.00512l16.20992-4.7616 102.5536 349.1328-16.20992 4.7616z" fill="#FFCA55" p-id="1560"></path><path d="M341.6576 270.0288h67.2768v376.6784H341.6576z" fill="#FDD981" p-id="1561"></path><path d="M341.6576 270.0288h17.408v376.6784h-17.408z" fill="#FFE6AE" p-id="1562"></path><path d="M389.3248 270.0288h19.6096v376.6784h-19.6096z" fill="#FFCA55" p-id="1563"></path><path d="M563.1488 297.1648h67.2768v376.6784h-67.2768z" fill="#FDD981" p-id="1564"></path><path d="M610.56 297.1648h19.9168v376.6784h-19.9168z" fill="#FFCA55" p-id="1565"></path><path d="M563.1488 297.1648h16.3328v376.6784h-16.3328z" fill="#FFE6AE" p-id="1566"></path><path d="M765.1328 437.6576h-88.1664a10.7008 10.7008 0 0 0-10.24 7.68c-11.6224 39.5264-74.2912 69.7344-149.9648 69.7344-76.8 0-139.9808-30.72-150.4256-71.2192A8.0384 8.0384 0 0 0 358.4 437.6576H267.264a3.9424 3.9424 0 0 0-3.9424 3.6352c-11.264 147.968 32.768 277.6064 46.6432 331.2128a34.9184 34.9184 0 0 0 33.792 26.2144h341.1456a34.8672 34.8672 0 0 0 33.1264-23.808c50.0736-151.6032 51.2-307.2 51.2-333.3632a3.9424 3.9424 0 0 0-4.096-3.8912z" fill="#FF5252" p-id="1567"></path><path d="M322.8672 443.8528c10.24 40.2432 73.728 71.2192 150.3744 71.2192 7.3728 0 14.6432-0.3072 21.7088-0.8704-66.56-5.12-119.2448-33.9968-128.6656-70.3488A8.0384 8.0384 0 0 0 358.4 437.6576h-43.264a8.1408 8.1408 0 0 1 7.7312 6.1952zM769.0752 441.5488a3.9424 3.9424 0 0 0-3.9424-3.8912H721.92a3.9424 3.9424 0 0 1 3.9424 3.8912c0 26.3168-0.9728 181.76-51.2 333.3632a34.8672 34.8672 0 0 1-33.1264 23.808h43.4688a34.8672 34.8672 0 0 0 33.1264-23.808c49.8688-151.6032 51.0976-307.0464 50.944-333.3632z" fill="#F13E3E" p-id="1568"></path><path d="M560.6912 515.072c75.6736 0 138.24-30.208 149.9648-69.7344a10.8032 10.8032 0 0 1 10.24-7.68h-44.032a10.7008 10.7008 0 0 0-10.24 7.68c-10.24 35.84-62.4128 63.6416-128 68.864 7.2704 0.5632 14.592 0.8704 22.0672 0.8704zM353.9456 772.5056c-13.8752-53.6064-57.856-183.2448-46.6432-331.2128a3.9936 3.9936 0 0 1 3.9424-3.6352H267.264a3.9424 3.9424 0 0 0-3.9424 3.6352c-11.264 147.968 32.768 277.6064 46.592 331.2128a35.0208 35.0208 0 0 0 33.8432 26.2144h43.9808a34.9184 34.9184 0 0 1-33.792-26.2144z" fill="#FF8A8A" p-id="1569"></path><path d="M601.0368 719.5648H432.384a17.2544 17.2544 0 1 1 0-34.4576h168.6528a17.2544 17.2544 0 0 1 0 34.4576z" fill="#FFD4E6" p-id="1570"></path></svg>