<?xml version="1.0" standalone="no"?><!DOCTYPE svg PUBLIC "-//W3C//DTD SVG 1.1//EN" "http://www.w3.org/Graphics/SVG/1.1/DTD/svg11.dtd"><svg t="1711552856777" class="icon" viewBox="0 0 1024 1024" version="1.1" xmlns="http://www.w3.org/2000/svg" p-id="2537" xmlns:xlink="http://www.w3.org/1999/xlink" width="200" height="200"><path d="M645.213279 619.287838c-35.790251 80.891854-15.061506 172.098332 0 255.825879 0 70.904745-58.011466 107.428794-128.91621 107.428793h-8.602429c-70.908891 0-128.920356-36.528194-128.920357-107.428793 0 0 0.016583-7.105814 0.348243-18.904616 0.377263-12.876696 1.268599-25.803142 2.445992-38.758607 1.173247-12.955466 2.632551-25.952389 4.141603-38.965895 8.121522-53.44285 12.267271-103.191838 6.019628-157.385069" fill="#FFE9BA" p-id="2538"></path><path d="M626.258915 610.896842c-35.765377 80.842105-19.310899 170.460761-4.792486 249.528486l3.353911 18.349085-0.327514-3.668988c0 63.923304-55.884696 86.700049-108.191611 86.700049h-8.598284c-52.302769 0-108.191611-22.776745-108.191611-86.700049 0-0.020729 0.020729-6.981441 0.339951-18.320065 0.33166-11.313749 1.106915-23.576874 2.367223-37.456842 1.090332-12.051692 2.425263-24.095093 4.087708-38.464259l-0.095352 0.733798c6.998024-46.059271 13.200065-101.438186 6.119126-162.869895a20.728745 20.728745 0 0 0-41.188016 4.738591c6.525409 56.589474 0.667466 108.548146-5.92013 151.900243l-0.053895 0.368972-0.041457 0.364826c-1.699757 14.680097-3.063709 27.0137-4.195498 39.484113-1.339077 14.733992-2.164081 27.822121-2.520616 40.010623a834.974575 834.974575 0 0 0-0.356534 19.509895c0 76.654899 60.138235 128.157538 149.649101 128.157539h8.598284c89.506721 0 149.649101-51.50264 149.649101-128.157539v-1.873878l-0.327514-1.79511-3.366349-18.498332c-14.091401-76.758543-28.672-156.120615 1.927774-225.275854a20.728745 20.728745 0 1 0-37.925312-16.765409z" fill="#6E6E96" p-id="2539"></path><path d="M980.392939 383.083789c0 188.673036-209.704421 238.492502-468.390866 238.492502S43.607061 571.756826 43.607061 383.083789C43.607061 194.410753 253.311482 41.45749 512.002073 41.45749s468.390866 152.953263 468.390866 341.626299z" fill="#D66F8E" p-id="2540"></path><path d="M238.361911 333.732794m-78.769231 0a78.769231 78.769231 0 1 0 157.538462 0 78.769231 78.769231 0 1 0-157.538462 0Z" fill="#FFFFFF" opacity=".41" p-id="2541"></path><path d="M747.667174 334.296615m-58.604308 0a58.604308 58.604308 0 1 0 117.208616 0 58.604308 58.604308 0 1 0-117.208616 0Z" fill="#FFFFFF" opacity=".41" p-id="2542"></path><path d="M474.611563 196.923077m-39.384616 0a39.384615 39.384615 0 1 0 78.769231 0 39.384615 39.384615 0 1 0-78.769231 0Z" fill="#FFFFFF" opacity=".41" p-id="2543"></path><path d="M645.213279 619.287838l-102.370979 0.737943c-12.250688 67.198445 3.312453 138.633846 15.310251 205.338948 0 70.904745-58.011466 107.428794-128.916211 107.428793h-8.598283c-9.083336 0-17.951093-0.605279-26.516211-1.807546C415.936777 965.117927 458.73749 982.54251 507.702931 982.54251h8.598284c70.908891 0 128.920356-36.528194 128.920356-107.428793-15.069798-83.727547-35.798543-174.934024-0.008292-255.825879z" fill="#6E6E96" opacity=".15" p-id="2544"></path><path d="M512.002073 41.45749C253.311482 41.45749 43.607061 194.410753 43.607061 383.083789s209.708567 238.492502 468.395012 238.492502 468.390866-49.823611 468.390866-238.492502c0-188.673036-209.700275-341.6263-468.390866-341.626299z m-29.944745 476.479223c-211.113976 0-382.25464-40.226202-382.25464-192.557604 0-152.327255 171.136518-275.820826 382.25464-275.820826s382.25464 123.493571 382.25464 275.820826c0 152.331401-171.136518 192.557603-382.25464 192.557604z" fill="#BD627D" p-id="2545"></path><path d="M959.664194 383.083789c0 148.567061-142.248939 217.763757-447.662121 217.763758C206.584745 600.851692 64.335806 531.65085 64.335806 383.083789 64.335806 206.139077 265.155887 62.186235 512.002073 62.186235c120.749085 0 234.048259 34.119514 318.99051 96.077733 82.97302 60.519644 128.671611 140.362623 128.671611 224.819821zM512.002073 20.728745C242.296227 20.728745 22.878316 183.279417 22.878316 383.083789c0 96.467433 50.404016 166.808356 149.806639 209.074268 79.366219 33.746397 190.356211 50.151126 339.317118 50.151125s259.950899-16.404729 339.312972-50.151125c99.406769-42.261765 149.80664-112.606834 149.806639-209.074268 0-98.046964-51.743093-189.784097-145.706494-258.317473C763.433457 57.679806 641.473814 20.728745 512.002073 20.728745z" fill="#6E6E96" p-id="2546"></path><path d="M516.83187 505.781377m-55.275271 0a55.275271 55.275271 0 1 0 110.550543 0 55.275271 55.275271 0 1 0-110.550543 0Z" fill="#BD627D" p-id="2547"></path><path d="M594.063028 504.902478m-36.814251 0a36.814251 36.814251 0 1 0 73.628502 0 36.814251 36.814251 0 1 0-73.628502 0Z" fill="#BD627D" p-id="2548"></path><path d="M659.901668 498.874559m-29.020243 0a29.020243 29.020243 0 1 0 58.040486 0 29.020243 29.020243 0 1 0-58.040486 0Z" fill="#BD627D" p-id="2549"></path><path d="M440.832 529.275336m-42.838024 0a42.838024 42.838024 0 1 0 85.676048 0 42.838024 42.838024 0 1 0-85.676048 0Z" fill="#BD627D" p-id="2550"></path><path d="M527.892729 375.882623m-41.45749 0a41.45749 41.45749 0 1 0 82.91498 0 41.45749 41.45749 0 1 0-82.91498 0Z" fill="#BD627D" p-id="2551"></path><path d="M585.933215 287.437215m-16.582996 0a16.582996 16.582996 0 1 0 33.165992 0 16.582996 16.582996 0 1 0-33.165992 0Z" fill="#BD627D" p-id="2552"></path></svg>