<?xml version="1.0" standalone="no"?><!DOCTYPE svg PUBLIC "-//W3C//DTD SVG 1.1//EN" "http://www.w3.org/Graphics/SVG/1.1/DTD/svg11.dtd"><svg t="1711552720768" class="icon" viewBox="0 0 1238 1024" version="1.1" xmlns="http://www.w3.org/2000/svg" p-id="5745" xmlns:xlink="http://www.w3.org/1999/xlink" width="241.796875" height="200"><path d="M674.370758 91.355087c0 27.073279-22.150864 49.224143-49.224143 49.224143s-49.224143-22.150864-49.224143-49.224143V66.452593c0-27.073279 22.150864-49.224143 49.224143-49.224143s49.224143 22.150864 49.224143 49.224143v24.902494z" fill="#FFFF00" p-id="5746"></path><path d="M625.146615 157.80768c-36.642452 0-66.452593-29.810141-66.452593-66.452593V66.452593C558.694022 29.810141 588.504163 0 625.146615 0s66.452593 29.810141 66.452593 66.452593v24.907416c0 36.63753-29.810141 66.447671-66.452593 66.447671zM625.146615 34.4569a32.035072 32.035072 0 0 0-31.995693 31.995693v24.907416c0 17.641933 14.35376 31.995693 31.995693 31.995693s31.995693-14.35376 31.995693-31.995693V66.452593c0-17.641933-14.358682-31.995693-31.995693-31.995693z" fill="#6E6E96" p-id="5747"></path><path d="M546.387986 98.448286h162.483974v71.675274H546.387986z" fill="#F0F0FF" p-id="5748"></path><path d="M708.87196 187.347088H546.387986a17.22845 17.22845 0 0 1-17.22845-17.22845V98.448286a17.22845 17.22845 0 0 1 17.22845-17.22845h162.483974a17.22845 17.22845 0 0 1 17.22845 17.22845v71.670352a17.22845 17.22845 0 0 1-17.22845 17.22845z m-145.255524-34.4569h128.027074V115.676736H563.616436v37.213452z" fill="#6E6E96" p-id="5749"></path><path d="M415.176111 541.755994c-54.146557 0-89.056319-43.292634-77.582172-96.208587l46.866307-191.521295c11.474148-52.915954 65.167843-96.21351 119.3144-96.21351h434.811621c54.146557 0 105.078778 43.79472 113.15646 97.330898l32.31565 189.256985c8.102294 53.536178-29.598477 97.33582-83.745035 97.33582l-585.137231 0.019689z" fill="#7BA5D6" p-id="5750"></path><path d="M415.176111 524.527544c-20.875959 0-38.626185-7.757725-49.987117-21.845674-11.360932-14.078105-15.180726-33.083546-10.760398-53.486954-0.103371 0.452862 46.767858-191.068433 46.767858-191.068433 9.815294-45.236987 56.74067-83.080508 102.578192-83.080508h434.811621c45.330513 0 89.351664 37.858288 96.119984 82.686715 0.059069 0.315035 32.369796 189.586786 32.369796 189.586786 3.106043 20.526468-2.072336 40.038918-14.609725 54.614187-12.537389 14.585114-31.060434 22.613571-52.15298 22.613571H415.176111v-0.01969z m585.156921 34.4569c31.27702 0 59.083739-12.286346 78.266387-34.584882 19.177726-22.303459 27.176649-51.626281 22.490511-82.55381l-32.374719-189.596632c-9.283673-61.426808-67.683196-111.669891-130.138789-111.66989h-434.811621c-61.943661 0-123.0259 49.253677-136.149057 109.789528 0.103371-0.443017-46.772781 191.078278-46.772781 191.078278-6.778164 31.227796-0.516854 60.506316 17.509028 82.863922 18.030804 22.352683 45.310824 34.668564 76.809353 34.668564H1000.333032z" fill="#6E6E96" p-id="5751"></path><path d="M163.064818 862.229777s-52.659988-0.113216-74.919145-0.280578c-22.249313-0.157517-40.304728-20.285269-40.127522-44.744746l0.767897-162.951602 0.359336-50.149557c0-47.580057 39.029823-77.606784 88.721595-88.87419l178.846079-37.311901h782.04857c23.046744 8.185975 97.321053 9.692234 97.321053 102.652028l1.333974 243.610283a43.784875 43.784875 0 0 1-44.075297 44.173746l-44.912108-0.310112" fill="#7BA5D6" p-id="5752"></path><path d="M475.628281 416.766051c-39.595901 0-40.51147-32.468245-32.118753-72.147827l9.662699-52.861807c11.168958-52.817505 44.882573-72.162593 87.259638-72.162593h368.373796c52.404023 0 72.044456 32.857115 77.961197 73.009249l8.870191 51.163574c5.916742 40.152133 2.727018 73.004326-36.873806 73.004326h-483.134962z" fill="#AADBF7" p-id="5753"></path><path d="M475.628281 399.537601c-7.708501 0-12.867191-1.535793-15.343166-4.597535-3.549061-4.385871-6.418828-16.047071 0.078759-46.762936 0.093526-0.467629 9.751303-53.329436 9.751303-53.329436 8.343492-39.448228 30.715865-58.030342 70.311766-58.030342h368.378718c36.184667 0 54.963678 17.976657 60.905032 58.29123l8.934182 51.591824c3.60813 24.621916 2.505509 40.79697-3.396466 47.634203-1.117388 1.28475-4.489242 5.202992-16.504855 5.202992H475.628281z m483.125118 34.4569c18.434442 0 32.758667-5.764147 42.578883-17.130002 17.016786-19.714269 14.998596-50.764859 11.341243-75.603361l-8.934182-51.581979c-10.612725-72.083835-57.493799-87.294095-94.92876-87.294095H540.431865c-55.43623 0-92.413406 30.479589-104.113985 85.827215-0.093526 0.477474-9.751303 53.329436-9.751302 53.329437-5.148845 24.316727-9.106466 55.308247 6.960293 75.135731 9.332897 11.513527 23.499606 17.341666 42.106332 17.341666l483.120196-0.024612z" fill="#6E6E96" p-id="5754"></path><path d="M111.561597 710.693253l0.354414-49.056781c0-46.521737 38.158556-75.869171 86.757552-86.87569l158.37868-33.054012 781.251139-3.440767c7.920165 2.810699 22.081951 4.833811 37.100237 10.238621-16.913416-54.328687-71.133809-56.474859-90.05557-63.193954H320.621455l-174.888458 36.484934c-48.598996 11.021286-86.757552 40.36872-86.757551 86.89538l-0.359337 49.056781-0.748207 159.328705c-0.16244 23.913089 17.489338 43.592901 39.24641 43.760264l13.74338 0.088603 0.703905-150.232084z" fill="#C9E2FF" opacity=".44" p-id="5755"></path><path d="M330.082335 477.927048h763.515681v391.701117H330.082335z" fill="#F0F0FF" p-id="5756"></path><path d="M1093.598016 852.399715H330.082335l17.22845 17.22845V477.927048l-17.22845 17.22845h763.515681l-17.22845-17.22845v391.701117l17.22845-17.22845z m0-391.701117H312.853885v426.158017h797.972581V460.698598h-17.22845z" fill="#6E6E96" p-id="5757"></path><path d="M163.10912 845.001327l-74.835465-0.280578c-12.581691-0.103371-23.125502-12.635837-23.027054-27.393235l0.767897-162.961448 0.359336-50.139712c0-49.740996 52.66491-67.048205 75.303094-72.182283-0.290422 0.078759 178.555656-37.233142 178.555656-37.233142a17.257985 17.257985 0 0 1-3.519526 0.364259l782.04857-0.01969c-1.959121 0-3.913319-0.324879-5.769069-0.97956 4.277578 1.521026 9.199992 2.672871 14.880458 4.006845 29.947969 7.068587 70.966447 16.726364 70.966447 82.39137l1.333974 243.713654a26.40383 26.40383 0 0 1-7.742957 19.044821 26.40383 26.40383 0 0 1-18.990675 7.802027l-44.887496-0.30519a17.198916 17.198916 0 0 0-17.346588 17.110312 17.22845 17.22845 0 0 0 17.110312 17.346588l44.912108 0.30519a60.535851 60.535851 0 0 0 43.612591-17.932355 60.639222 60.639222 0 0 0 17.814217-43.612591l-1.333974-243.556137c0-92.846578-68.337878-108.967485-97.522872-115.834253-4.508931-1.073086-8.756975-2.067414-11.252639-2.968215a17.179226 17.179226 0 0 0-5.773992-0.994328H316.727825c-1.181379 0-2.357836 0.12306-3.519526 0.364259l-178.846079 37.3119c-64.247351 14.565424-102.440364 54.067799-102.440363 105.728536l-0.359337 50.041264-0.767896 162.971292c-0.231353 33.969581 25.443959 61.840291 57.237833 62.051955l74.992982 0.280578a17.22845 17.22845 0 1 0 0.083681-34.442133z" fill="#6E6E96" p-id="5758"></path><path d="M421.530948 882.401831h375.74265c9.519949 0 17.22845-7.708501 17.22845-17.22845 0-9.524872-7.708501-17.22845-17.22845-17.228451H421.530948a17.22845 17.22845 0 1 0 0 34.456901z" fill="#6E6E96" p-id="5759"></path><path d="M1221.580787 845.877516c0 13.536639-11.075432 24.612071-24.612071 24.612072H41.840521c-13.536639 0-24.612071-11.075432-24.612071-24.612072V797.431115c0-13.536639 11.075432-24.612071 24.612071-24.612071h1155.128195c13.536639 0 24.612071 11.075432 24.612071 24.612071v48.446401z" fill="#F0F0FF" p-id="5760"></path><path d="M1204.352337 845.877516c0 4.001923-3.386621 7.383621-7.383621 7.383622H41.840521a7.48207 7.48207 0 0 1-7.383621-7.383622V797.431115c0-3.997 3.381699-7.383621 7.383621-7.383621h1155.128195c3.997 0 7.383621 3.386621 7.383621 7.383621v48.446401z m34.4569-48.446401c0-23.071356-18.769166-41.840521-41.840521-41.840521H41.840521c-23.071356 0-41.840521 18.769166-41.840521 41.840521v48.446401c0 23.076278 18.769166 41.840521 41.840521 41.840522h1155.128195c23.071356 0 41.840521-18.764243 41.840521-41.840522V797.431115z" fill="#6E6E96" p-id="5761"></path><path d="M17.22845 824.504394h1197.18038v34.4569H17.22845z" fill="#6E6E96" opacity=".15" p-id="5762"></path><path d="M293.159305 863.74588m-130.719633 0a130.719634 130.719634 0 1 0 261.439267 0 130.719634 130.719634 0 1 0-261.439267 0Z" fill="#F0F0FF" p-id="5763"></path><path d="M293.159305 762.560732c55.790644 0 101.190071 45.409272 101.190071 101.199916 0 27.01421-10.529044 52.423712-29.637856 71.537446a100.481243 100.481243 0 0 1-71.552215 29.637857c-55.790644 0-101.185148-45.389582-101.185148-101.180226s45.389582-101.194993 101.185148-101.194993zM132.905186 863.750803c0 88.352414 71.886938 160.249197 160.254119 160.249197 88.367181 0 160.259042-71.886938 160.259043-160.249197 0-88.372104-71.886938-160.268887-160.259043-160.268887C204.787202 703.491761 132.905186 775.383621 132.905186 863.750803z" fill="#6E6E96" p-id="5764"></path><path d="M287.779107 814.113177c50.730402 0 93.304363 34.835926 105.137846 81.894207a108.293114 108.293114 0 0 0 3.278328-26.556425c0-59.886092-48.535005-108.416175-108.416174-108.416175s-108.430942 48.530082-108.430942 108.416175c0 9.155691 1.146923 18.045571 3.288172 26.556425 11.833484-47.053358 54.412368-81.894207 105.14277-81.894207z" fill="#6E6E96" opacity=".15" p-id="5765"></path><path d="M290.471667 865.567174m-35.525064 0a35.525064 35.525064 0 1 0 71.050128 0 35.525064 35.525064 0 1 0-71.050128 0Z" fill="#6E6E96" p-id="5766"></path><path d="M952.152441 863.74588m-130.719634 0a130.719634 130.719634 0 1 0 261.439268 0 130.719634 130.719634 0 1 0-261.439268 0Z" fill="#F0F0FF" p-id="5767"></path><path d="M952.152441 762.560732c55.790644 0 101.194993 45.409272 101.194993 101.199916 0 27.01421-10.533967 52.423712-29.637856 71.537446a100.500933 100.500933 0 0 1-71.552215 29.637857c-55.790644 0-101.190071-45.389582-101.19007-101.180226s45.389582-101.194993 101.185148-101.194993z m-160.25412 101.190071c0 88.352414 71.886938 160.249197 160.25412 160.249197s160.263964-71.886938 160.263964-160.249197c0-88.372104-71.891861-160.268887-160.263964-160.268887-88.372104 0.009845-160.25412 71.901706-160.25412 160.268887z" fill="#6E6E96" p-id="5768"></path><path d="M946.772242 814.113177c50.730402 0 93.304363 34.835926 105.137847 81.894207a108.293114 108.293114 0 0 0 3.268483-26.556425c0-59.886092-48.530082-108.416175-108.40633-108.416175-59.886092 0-108.430942 48.530082-108.430942 108.416175 0 9.155691 1.146923 18.045571 3.288173 26.556425 11.828562-47.053358 54.412368-81.894207 105.142769-81.894207z" fill="#6E6E96" opacity=".15" p-id="5769"></path><path d="M949.464803 865.567174m-35.525064 0a35.525064 35.525064 0 1 0 71.050128 0 35.525064 35.525064 0 1 0-71.050128 0Z" fill="#6E6E96" p-id="5770"></path><path d="M48.4021 685.85475h77.92674V772.819044H48.4021z" fill="#FFFF00" p-id="5771"></path><path d="M126.32884 790.047494H48.4021a17.22845 17.22845 0 0 1-17.22845-17.22845v-86.964294a17.22845 17.22845 0 0 1 17.22845-17.22845h77.92674a17.22845 17.22845 0 0 1 17.22845 17.22845V772.819044a17.22845 17.22845 0 0 1-17.22845 17.22845z m-60.69829-34.4569h43.46984v-52.507394h-43.46984V755.590594z" fill="#6E6E96" p-id="5772"></path><path d="M1097.245525 682.576422h96.247966V772.819044h-96.247966z" fill="#FF7575" p-id="5773"></path><path d="M1193.488569 790.047494h-96.247967a17.22845 17.22845 0 0 1-17.22845-17.22845v-90.242622a17.22845 17.22845 0 0 1 17.22845-17.22845h96.247967a17.22845 17.22845 0 0 1 17.22845 17.22845V772.819044a17.22845 17.22845 0 0 1-17.22845 17.22845z m-79.014594-34.4569h61.791066v-55.785722h-61.791066V755.590594z" fill="#6E6E96" p-id="5774"></path><path d="M347.704578 495.165343h728.664988v65.984964H347.704578z" fill="#FFFFFF" opacity=".68" p-id="5775"></path><path d="M336.924491 705.544407h739.449997V772.819044H336.924491z" fill="#6E6E96" opacity=".15" p-id="5776"></path><path d="M813.591401 603.995001h-62.376834l-30.735555-66.752861-28.99302 66.752861h-62.362066l51.818255 46.556194-14.92476 63.248101 54.461591-37.769685 58.857308 36.012383-17.577941-67.633972z" fill="#FFAA00" p-id="5777"></path><path d="M708.827658 219.588901h34.4569v197.17715h-34.4569z" fill="#6E6E96" p-id="5778"></path><path d="M473.905436 281.030477h492.969946L945.103544 226.431057h-443.288019z" fill="#6E6E96" opacity=".15" p-id="5779"></path><path d="M743.284558 281.030477h41.840521v118.507124H743.284558z" fill="#6E6E96" opacity=".15" p-id="5780"></path><path d="M561.155229 320.227662h-68.9138l4.922414-36.918108h63.991386z" fill="#FFFFFF" opacity=".6" p-id="5781"></path><path d="M786.764243 283.309554h63.991386v36.918108h-63.991386z" fill="#FFFFFF" opacity=".6" p-id="5782"></path></svg>