<?xml version="1.0" standalone="no"?><!DOCTYPE svg PUBLIC "-//W3C//DTD SVG 1.1//EN" "http://www.w3.org/Graphics/SVG/1.1/DTD/svg11.dtd"><svg t="1711555906139" class="icon" viewBox="0 0 1024 1024" version="1.1" xmlns="http://www.w3.org/2000/svg" p-id="3550" xmlns:xlink="http://www.w3.org/1999/xlink" width="200" height="200"><path d="M958.336 574.464a34.304 34.304 0 0 1-10.624 25.152 34.304 34.304 0 0 1-25.088 10.56H797.632c0 63.616-12.416 117.568-37.376 161.792l116.032 116.608c7.04 7.04 10.624 15.424 10.624 25.088a34.304 34.304 0 0 1-10.624 25.152 33.152 33.152 0 0 1-25.088 10.56 33.152 33.152 0 0 1-25.088-10.56L715.648 828.864a107.904 107.904 0 0 1-8.384 7.296c-3.712 2.944-11.52 8.256-23.424 15.872a257.856 257.856 0 0 1-81.984 36.544 210.688 210.688 0 0 1-54.144 7.232v-499.84h-71.424v499.84a218.24 218.24 0 0 1-56.64-7.488 228.032 228.032 0 0 1-48.512-18.432 457.344 457.344 0 0 1-36.8-21.76 198.976 198.976 0 0 1-24.32-18.112l-8.32-7.808-102.144 115.456a35.712 35.712 0 0 1-26.752 11.712 36.224 36.224 0 0 1-24-8.96 35.84 35.84 0 0 1-11.456-24.768 35.52 35.52 0 0 1 8.704-25.984l112.64-126.592c-21.568-42.432-32.32-93.44-32.32-152.896H101.376a34.304 34.304 0 0 1-25.088-10.624 34.304 34.304 0 0 1-10.624-25.088c0-9.6 3.584-18.048 10.624-25.088a34.304 34.304 0 0 1 25.088-10.624h124.992V374.784l-96.512-96.512a34.304 34.304 0 0 1-10.624-25.152c0-9.6 3.52-18.048 10.624-25.088a34.304 34.304 0 0 1 25.088-10.624c9.664 0 18.048 3.584 25.088 10.624l96.512 96.512h470.912l96.512-96.512a34.304 34.304 0 0 1 25.088-10.624c9.664 0 18.048 3.584 25.088 10.624 7.04 7.04 10.624 15.424 10.624 25.088a34.304 34.304 0 0 1-10.624 25.152l-96.512 96.512v163.968h124.992c9.6 0 18.048 3.584 25.088 10.624 7.04 7.04 10.624 15.424 10.624 25.088z m-267.84-321.28H333.504c0-49.536 17.344-91.648 52.16-126.4A172.096 172.096 0 0 1 512 74.624c49.472 0 91.584 17.344 126.336 52.16 34.816 34.752 52.16 76.864 52.16 126.336z" fill="#44912E" p-id="3551"></path></svg>