<?xml version="1.0" standalone="no"?><!DOCTYPE svg PUBLIC "-//W3C//DTD SVG 1.1//EN" "http://www.w3.org/Graphics/SVG/1.1/DTD/svg11.dtd"><svg t="1711552712772" class="icon" viewBox="0 0 1141 1024" version="1.1" xmlns="http://www.w3.org/2000/svg" p-id="5183" xmlns:xlink="http://www.w3.org/1999/xlink" width="222.8515625" height="200"><path d="M65.209372 634.584006h1016.002754v43.1952H65.209372z" fill="#FFFFFF" opacity=".54" p-id="5184"></path><path d="M703.849222 869.172947H368.573715a15.930405 15.930405 0 0 0 0 31.851654h335.275507a15.925827 15.925827 0 1 0 0-31.851654z" fill="#6E6E96" p-id="5185"></path><path d="M414.872598 617.142959l-0.004578-308.010711 0.004578-42.403258H178.965278c-46.166129 0-69.141618 36.845927-74.026026 59.647463l-45.575606 253.558941-0.251774-0.027467c-4.884409 22.810691-8.880743 60.553848-8.880743 83.86351v178.928656c0 23.323394 19.075286 42.389525 42.389525 42.389525h78.750216l747.694456-0.009155h174.218201v-225.552556l0.009155-42.384948H414.872598z" fill="#8CD5FF" p-id="5186"></path><path d="M414.86802 601.121001l16.021959 16.021958V309.132248l0.004577-42.39868v-16.021959H178.965278c-54.438038 0-83.465249 43.245555-89.695502 72.318544l-0.05951 0.260929-0.045777 0.265507-45.575606 253.554362 17.477668-13.096807-14.351097-1.538108c-0.256351-0.027466-3.273057 14.090168-3.273058 14.090169-5.094983 23.781164-9.242381 62.911365-9.242381 87.223543v178.928656c0 32.204137 26.202769 58.411484 58.411484 58.411484h78.750215l747.694457-0.009156h190.240159v-241.574515l0.009156-42.380369 0.004577-16.026537h-16.026536c0.004578-0.018311-678.410929-0.018311-678.415507-0.01831z m662.398126 16.017381l-0.009155 42.384947v225.557134l16.021958-16.021959H919.065326l-747.694456 0.009156H92.620654a26.395032 26.395032 0 0 1-26.367566-26.367567v-178.928656c0-22.050793 3.909358-58.928764 8.52826-80.517209l-17.372381 12.579526 14.836333 1.588463c0.251774 0.032044 2.88853-14.653226 2.888531-14.653226l45.575606-253.55894-0.10071 0.521858c2.801554-13.069341 18.741114-46.990116 58.361129-46.990116H414.877175l-16.021958-16.021958-0.004578 42.403258v324.037247H1093.292682l-16.026536-16.021958z" fill="#6E6E96" p-id="5187"></path><path d="M803.743845 689.150219c-118.269521 0-161.483033 107.241836-161.483032 107.241836h285.900408l-747.689879 0.004578H101.716549l-0.086976-0.004578h319.253548s-47.763748-107.241836-166.033269-107.241836c-112.611481 0-157.147948 97.166313-161.14886 106.459049-19.519323-3.767449-34.383123-21.025387-34.383123-41.60216v79.610824c0 23.318816 19.075286 42.384947 42.389525 42.384947h78.754793l747.689879-0.004578h174.2182v-79.606246h-132.606885c0.009155-0.009155-47.754592-107.241836-166.019536-107.241836z m298.630999-81.103154v42.384947l0.009155-42.384947h-0.009155z" fill="#6E6E96" opacity=".12" p-id="5188"></path><path d="M1109.273442 871.095582a22.810691 22.810691 0 0 1-22.746604 22.746603H52.437582a22.815269 22.815269 0 0 1-22.746604-22.746603v-42.444457c0-12.510861 10.235743-22.751181 22.746604-22.751182h1034.084678a22.810691 22.810691 0 0 1 22.746604 22.751182v42.444457z" fill="#F0F0FF" p-id="5189"></path><path d="M1084.237987 850.354012H50.148731a22.815269 22.815269 0 0 1-22.746604-22.746604v34.332769c0 12.506283 10.235743 22.746604 22.746604 22.746604h1034.084678a22.810691 22.810691 0 0 0 22.746604-22.746604v-34.332769c0.004578 12.506283-10.231165 22.746604-22.742026 22.746604z" fill="#6E6E96" opacity=".15" p-id="5190"></path><path d="M1086.526838 909.864144H52.437582c-21.377871 0-38.768562-17.390692-38.768562-38.768562v-42.444457c0-21.377871 17.390692-38.77314 38.768562-38.77314h1034.084678c21.377871 0 38.768562 17.395269 38.768563 38.77314v42.444457c0.004578 21.377871-17.386114 38.768562-38.763985 38.768562zM52.437582 821.921902a6.820777 6.820777 0 0 0-6.724645 6.729223v42.444457c0 3.643851 3.076216 6.724645 6.724645 6.724645h1034.084678a6.820777 6.820777 0 0 0 6.724645-6.724645v-42.444457a6.820777 6.820777 0 0 0-6.724645-6.729223H52.437582z" fill="#6E6E96" p-id="5191"></path><path d="M257.482031 866.760498m-112.597748 0a112.597748 112.597748 0 1 0 225.195496 0 112.597748 112.597748 0 1 0-225.195496 0Z" fill="#BABADB" p-id="5192"></path><path d="M257.482031 770.184709c53.252413 0 96.575789 43.323376 96.575789 96.575789 0 53.261568-43.323376 96.584945-96.575789 96.584944-53.256991 0-96.584945-43.323376-96.584944-96.584944 0.009155-53.252413 43.332532-96.575789 96.584944-96.575789zM128.862325 866.760498c0 70.922344 57.697362 128.628862 128.628862 128.628862 70.922344 0 128.619706-57.697362 128.619706-128.628862 0-70.913189-57.697362-128.619706-128.619706-128.619707-70.9315 0-128.628862 57.697362-128.628862 128.619707z" fill="#6E6E96" p-id="5193"></path><path d="M814.945483 866.760498m-112.597747 0a112.597748 112.597748 0 1 0 225.195495 0 112.597748 112.597748 0 1 0-225.195495 0Z" fill="#BABADB" p-id="5194"></path><path d="M814.945483 770.184709c53.256991 0 96.584945 43.323376 96.584945 96.575789 0 53.261568-43.327954 96.584945-96.584945 96.584944s-96.584945-43.323376-96.584944-96.584944c0-53.252413 43.327954-96.575789 96.584944-96.575789z m-128.628862 96.575789c0 70.922344 57.697362 128.628862 128.628862 128.628862 70.922344 0 128.628862-57.697362 128.628862-128.628862 0-70.913189-57.697362-128.619706-128.628862-128.619707-70.926922 0-128.628862 57.697362-128.628862 128.619707z" fill="#6E6E96" p-id="5195"></path><path d="M259.029295 867.685194m-37.528005 0a37.528005 37.528005 0 1 0 75.05601 0 37.528005 37.528005 0 1 0-75.05601 0Z" fill="#F0F0FF" p-id="5196"></path><path d="M280.535341 867.685194a21.35956 21.35956 0 0 1-6.298919 15.207127 21.364137 21.364137 0 0 1-15.207127 6.298919 21.528935 21.528935 0 0 1-21.506047-21.506046 21.524357 21.524357 0 0 1 21.506047-21.501469 21.515202 21.515202 0 0 1 21.506046 21.501469z m-21.506046-53.554542c-29.526181 0-53.549964 24.023783-53.549964 53.545386 0 29.526181 24.023783 53.549964 53.549964 53.549964a53.192903 53.192903 0 0 0 37.862177-15.683209 53.202058 53.202058 0 0 0 15.692364-37.866755c-0.004578-29.521603-24.02836-53.545386-53.554541-53.545386z" fill="#6E6E96" p-id="5197"></path><path d="M816.112797 867.685194m-37.528004 0a37.528005 37.528005 0 1 0 75.056009 0 37.528005 37.528005 0 1 0-75.056009 0Z" fill="#F0F0FF" p-id="5198"></path><path d="M837.618844 867.685194a21.519779 21.519779 0 0 1-21.506047 21.506046 21.519779 21.519779 0 0 1-21.501468-21.506046c0-5.745017 2.229341-11.146706 6.298919-15.20255a21.345827 21.345827 0 0 1 15.202549-6.298919 21.519779 21.519779 0 0 1 21.506047 21.501469z m-21.506047-53.554542a53.192903 53.192903 0 0 0-37.862177 15.687787 53.17917 53.17917 0 0 0-15.687786 37.862177c0 29.526181 24.023783 53.549964 53.545386 53.549963 29.526181 0 53.549964-24.023783 53.549963-53.549963 0.004578-29.526181-24.019205-53.549964-53.545386-53.549964z" fill="#6E6E96" p-id="5199"></path><path d="M1092.592294 643.510526c0 12.588682-10.299831 22.888512-22.888512 22.888512H421.835283c-12.588682 0-22.888512-10.299831-22.888512-22.888512V134.337257c0-12.588682 10.299831-22.888512 22.888512-22.888513h647.868499c12.588682 0 22.888512 10.299831 22.888512 22.888513v509.173269z" fill="#FFE896" p-id="5200"></path><path d="M1076.570335 643.510526c0 3.721672-3.144882 6.866554-6.866553 6.866553H421.835283a6.958108 6.958108 0 0 1-6.866554-6.866553V134.337257c0-3.721672 3.149459-6.866554 6.866554-6.866554h647.868499c3.721672 0 6.866554 3.144882 6.866553 6.866554v509.173269z m32.043918-509.173269c0-21.460269-17.45478-38.910471-38.910471-38.910471H421.835283c-21.455692 0-38.910471 17.450202-38.910471 38.910471v509.173269c0 21.460269 17.45478 38.910471 38.910471 38.910471h647.868499c21.455692 0 38.910471-17.450202 38.910471-38.910471V134.337257z" fill="#6E6E96" p-id="5201"></path><path d="M329.992838 332.689105H202.51298c-15.179661 0-30.212836 12.144645-33.39434 26.994712l-25.28265 141.524249c-1.432821 6.692601-2.755777 15.367347-3.76745 28.802904h189.933454l-0.004578-4.550236V332.689105z" fill="#F0F0FF" p-id="5202"></path><path d="M329.992838 316.667146H202.51298c-22.742026 0-44.293849 17.427313-49.059238 39.661215a10.231165 10.231165 0 0 0-0.100709 0.540169l-25.287229 141.524249 0.105288-0.540169c-1.831081 8.541993-3.131148 18.384053-4.083311 30.954425-0.329595 4.449527 1.203936 8.834966 4.234375 12.103445a16.008226 16.008226 0 0 0 11.741807 5.127027h189.933453a16.017381 16.017381 0 0 0 16.021959-16.04027l-0.004578-4.550236V360.306384l0.004578-27.608123a16.035692 16.035692 0 0 0-16.026537-16.031115z m-16.026536 43.630083v165.158927l0.004578 4.568547a16.008226 16.008226 0 0 1 16.021958-16.040269H140.059385a16.021959 16.021959 0 0 1 15.976182 17.230472c0.83772-11.091773 1.936368-19.551367 3.456165-26.646806 0.036622-0.17853 0.073243-0.357061 0.100709-0.540169l25.287229-141.52425-0.10071 0.540169c1.606774-7.507432 10.052635-14.337364 17.724864-14.337364h127.489014a16.044847 16.044847 0 0 1-11.334391-4.687567 16.044847 16.044847 0 0 1-4.687567-11.334392l-0.004578 27.612702z" fill="#6E6E96" p-id="5203"></path><path d="M401.176112 599.683602h691.416182v66.715436H401.176112z" fill="#6E6E96" opacity=".15" p-id="5204"></path><path d="M950.57823 214.44705h32.043917v341.038835h-32.043917zM839.568945 214.44705h32.043917v341.038835h-32.043917zM728.55966 214.44705h32.043917v341.038835h-32.043917zM617.550375 214.44705h32.043917v341.038835h-32.043917zM506.54109 214.44705h32.043917v341.038835h-32.043917z" fill="#966E6E" opacity=".58" p-id="5205"></path><path d="M203.451409 403.17199c3.181503-14.850067 18.214678-26.994712 33.394339-26.994711h95.440519v-13.591199l0.004578-27.608124h-127.489014c-15.179661 0-30.212836 12.144645-33.394339 26.994712l-25.282651 141.52425c-1.432821 6.692601-2.760355 15.36277-3.762872 28.798326h38.022397l23.067043-129.123254z" fill="#6E6E96" opacity=".15" p-id="5206"></path><path d="M51.297734 676.795h61.556365v57.221281H51.297734z" fill="#FFF23F" p-id="5207"></path><path d="M112.858677 750.03824H51.297734a16.021959 16.021959 0 0 1-16.021959-16.021959v-57.221281a16.021959 16.021959 0 0 1 16.021959-16.021958h61.556365a16.021959 16.021959 0 0 1 16.021959 16.021958v57.221281a16.017381 16.017381 0 0 1-16.017381 16.021959z m-45.538984-32.043917h29.512447v-25.177364h-29.512447v25.177364z" fill="#6E6E96" p-id="5208"></path></svg>