<?xml version="1.0" standalone="no"?><!DOCTYPE svg PUBLIC "-//W3C//DTD SVG 1.1//EN" "http://www.w3.org/Graphics/SVG/1.1/DTD/svg11.dtd"><svg t="1711552718424" class="icon" viewBox="0 0 1247 1024" version="1.1" xmlns="http://www.w3.org/2000/svg" p-id="5554" xmlns:xlink="http://www.w3.org/1999/xlink" width="243.5546875" height="200"><path d="M1197.309263 872.502806v-367.508819l-106.670737-56.599163-1.547985-287.604706C1076.075438 117.7471 1053.882635 82.529175 1010.834608 82.529175h-296.091074c-43.043018 0-78.260943 35.212916-78.260943 78.260943l-65.751816 453.0488v258.673907L1197.309263 872.502806z" fill="#FFC54D" p-id="5555"></path><path d="M1143.856168 532.877767v191.549444l40.92894 64.594584-5.009662-239.627172zM817.306348 811.33984h141.292512v50.322057h-157.884513z" fill="#EBA821" p-id="5556"></path><path d="M1214.843081 872.502806v-367.508819a17.543837 17.543837 0 0 0-9.312962-15.489875L1098.859382 432.904949a17.508769 17.508769 0 0 1 9.312962 15.394691l-1.547985-287.604706a17.749233 17.749233 0 0 0-0.74644-4.974594c-18.195093-60.20612-50.171767-90.719973-95.043311-90.719973h-296.091074c-52.821878 0-95.79476 42.972882-95.794761 95.79476 0-0.841623 0.060116-1.683246 0.180348-2.51986l-65.751816 453.0488a17.709156 17.709156 0 0 0-0.180348 2.51986v258.673908a17.533818 17.533818 0 0 0 17.533818 17.533817H1197.309263a17.548847 17.548847 0 0 0 17.533818-17.548846z m-17.533818-17.528808H570.730775a17.533818 17.533818 0 0 1 17.533817 17.533817v-258.673907c0 0.841623-0.060116 1.683246-0.180347 2.51986l65.751816-453.0488c0.115222-0.836614 0.175338-1.673227 0.175338-2.51986 0-33.489592 27.242543-60.727125 60.727125-60.727125h296.091074c17.844417 0 43.649187 6.81815 61.473565 65.801913a17.634011 17.634011 0 0 1-0.74644-4.979604l1.552995 287.604706a17.553856 17.553856 0 0 0 9.307953 15.394692l106.670737 56.599163a17.523798 17.523798 0 0 1-9.307953-15.489875v367.503808a17.518789 17.518789 0 0 1 17.528808-17.518788z" fill="#6E6E96" p-id="5557"></path><path d="M1074.622636 851.211741m-122.686627 0a122.686627 122.686627 0 1 0 245.373254 0 122.686627 122.686627 0 1 0-245.373254 0Z" fill="#B9B9C4" p-id="5558"></path><path d="M1074.622636 746.058932c57.98183 0 105.152809 47.170979 105.15281 105.14279 0 57.98183-47.170979 105.152809-105.15281 105.152809s-105.152809-47.170979-105.152809-105.152809c0-57.971811 47.170979-105.14279 105.152809-105.14279z m-140.220444 105.152809c0 77.324136 62.911338 140.220445 140.220444 140.220445 77.319126 0 140.220445-62.906328 140.220445-140.220445 0-77.314117-62.906328-140.210425-140.220445-140.210425-77.314117-0.00501-140.220445 62.891299-140.220444 140.210425z" fill="#6E6E96" p-id="5559"></path><path d="M25.048311 814.070106h440.850273v-796.536288H374.201727V722.21294H25.048311z" fill="#F0F0FF" p-id="5560"></path><path d="M25.048311 831.603924h440.850273a17.533818 17.533818 0 0 0 17.533817-17.533818v-796.536288a17.533818 17.533818 0 0 0-17.533817-17.533818H374.201727a17.533818 17.533818 0 0 0-17.533818 17.533818V722.21294a17.533818 17.533818 0 0 1 17.533818-17.533818H25.048311a17.533818 17.533818 0 0 0-17.533818 17.533818v91.862176a17.533818 17.533818 0 0 0 17.533818 17.528808z m0-91.857166h349.153416a17.533818 17.533818 0 0 0 17.533818-17.533818V17.533818a17.533818 17.533818 0 0 1-17.533818 17.533817H465.898584a17.533818 17.533818 0 0 1-17.533818-17.533817v796.536288a17.533818 17.533818 0 0 1 17.533818-17.533818H25.048311a17.533818 17.533818 0 0 1 17.533818 17.533818V722.21294a17.533818 17.533818 0 0 1-17.533818 17.533818z" fill="#6E6E96" p-id="5561"></path><path d="M829.099092 700.786615s22.54348 60.221149 22.54348 110.543206l-34.125818-2.199242L796.536288 701.352707l32.562804-0.566092z" fill="#EBA821" p-id="5562"></path><path d="M797.633404 700.786615h75.716035L1107.135344 515.995206l72.640102 33.399417v-33.855297l-97.357775-51.659636-224.738456 195.952936-83.851725 3.817363z" fill="#FFFFFF" opacity=".42" p-id="5563"></path><path d="M1090.638526 448.389814l-1.547985-287.604706c0-43.038008-21.857156-78.260943-78.255933-78.260943h-296.091074c-43.043018 0-78.260943 35.212916-78.260943 78.260943l-65.751816 453.0488 79.653629 32.883423c1.728333-0.200386 3.41659-0.380734 5.174981-0.60116h191.198767l246.61064-196.278564-2.730266-1.447793z" fill="#FFC54D" p-id="5564"></path><path d="M1108.172344 448.29964l-1.547985-287.604706c0-27.062195-7.739928-50.191805-22.368142-66.778797-11.642455-13.19545-33.825239-28.92078-73.421609-28.92078h-296.091074c-52.821878 0-95.79476 42.972882-95.794761 95.794761 0-0.841623 0.060116-1.683246 0.180348-2.51986l-65.751816 453.0488a17.533818 17.533818 0 0 0 10.660561 18.726117l79.653629 32.878413c2.745295 1.137193 5.761112 1.552995 8.706793 1.207329l1.653188-0.185358 3.677092-0.435841a17.634011 17.634011 0 0 1-2.184212 0.135261h191.198767c3.972662 0 7.825092-1.352609 10.926073-3.817362l246.61565-196.283575a17.543837 17.543837 0 0 0-2.700208-29.216349l-2.730266-1.447793a17.613972 17.613972 0 0 1 9.317972 15.41974z m-25.724615-12.178488l-246.610641 196.278564a17.513779 17.513779 0 0 1 10.921064-3.817362h-191.198767c-0.686324 0-1.497889 0.055106-2.184213 0.135261l-3.2663 0.375724-1.758391 0.200387a17.869465 17.869465 0 0 1 8.716812 1.207328l-79.653629-32.878413a17.523798 17.523798 0 0 1 10.660561 18.721108l65.751816-453.0488c0.115222-0.836614 0.175338-1.673227 0.175339-2.51986 0-33.489592 27.242543-60.727125 60.727125-60.727125h296.091074c21.281045 0 37.141635 5.741073 47.120882 17.057899 11.236672 12.734561 13.601233 30.779364 13.601233 43.669226l1.547986 287.69989a17.543837 17.543837 0 0 0 9.312962 15.394692l2.730266 1.447792a17.573895 17.573895 0 0 1-9.247837-13.881774 17.588924 17.588924 0 0 1 6.562658-15.314537z" fill="#6E6E96" p-id="5565"></path><path d="M617.055121 790.048776m-183.849593 0a183.849593 183.849593 0 1 0 367.699186 0 183.849593 183.849593 0 1 0-367.699186 0Z" fill="#B9B9C4" p-id="5566"></path><path d="M617.055121 623.727991c44.425684 0 86.196248 17.298364 117.60683 48.713955 31.415592 31.415592 48.718965 73.176136 48.718964 117.60683 0 91.711886-74.618918 166.315775-166.320784 166.315775s-166.315775-74.613909-166.315775-166.315775c-0.00501-91.701866 74.603889-166.320785 166.310765-166.320785z m-201.38341 166.320785c0 111.044172 90.339238 201.38341 201.38341 201.38341 111.049182 0 201.38842-90.339238 201.38842-201.38341 0-53.783733-20.950407-104.366292-58.978753-142.399648-38.043375-38.038365-88.610905-58.978753-142.404657-58.978753-111.049182-0.010019-201.38842 90.334229-201.38842 201.378401z" fill="#6E6E96" p-id="5567"></path><path d="M616.544135 790.559761m-110.698505 0a110.698505 110.698505 0 1 0 221.397011 0 110.698505 110.698505 0 1 0-221.397011 0Z" fill="#F0F0FF" p-id="5568"></path><path d="M616.544135 697.395074c51.369076 0 93.164688 41.795612 93.164688 93.164687s-41.795612 93.164688-93.164688 93.164688c-51.369076 0-93.164688-41.795612-93.164687-93.164688s41.795612-93.164688 93.164687-93.164687z m-128.227313 93.164687c0 70.706372 57.520941 128.232323 128.232323 128.232323 70.716391 0 128.232323-57.515932 128.232323-128.232323s-57.515932-128.232323-128.232323-128.232323c-70.711382 0-128.232323 57.525951-128.232323 128.232323z" fill="#6E6E96" p-id="5569"></path><path d="M1075.414163 850.415205m-46.750168 0a46.750168 46.750168 0 1 0 93.500336 0 46.750168 46.750168 0 1 0-93.500336 0Z" fill="#F0F0FF" p-id="5570"></path><path d="M1075.414163 821.198855c7.810063 0 15.134189 3.030846 20.659847 8.556503a28.990915 28.990915 0 0 1 8.556503 20.659847 29.005944 29.005944 0 0 1-8.556503 20.659847c-5.525657 5.520648-12.849784 8.556503-20.659847 8.556503s-15.134189-3.035855-20.659847-8.556503a29.005944 29.005944 0 0 1-8.556503-20.659847 29.251418 29.251418 0 0 1 29.21635-29.21635z m-64.283985 29.21635c0 17.173122 6.687899 33.309244 18.82631 45.452665 12.143421 12.143421 28.284553 18.83132 45.457675 18.83132s33.314254-6.687899 45.457675-18.83132a63.873193 63.873193 0 0 0 18.82631-45.452665c0-17.178132-6.687899-33.309244-18.82631-45.452665a63.863174 63.863174 0 0 0-45.457675-18.83132c-35.44336 0-64.283985 28.840625-64.283985 64.283985z" fill="#6E6E96" p-id="5571"></path><path d="M849.939287 541.57955l156.622079-129.584931 1.668217-1.923711 0.711372-185.843438c0-31.019828-18.756175-56.413806-67.134483-56.413806h-169.031012c-36.92622 0-67.129473 25.383958-67.129473 56.413806l-40.558225 316.806027 184.851525 0.546053z" fill="#A8EBFF" p-id="5572"></path><path d="M861.125863 555.0856l156.622079-129.579923c0.74143-0.616188 1.427754-1.292493 2.06398-2.018893l1.663208-1.923711a17.443644 17.443644 0 0 0 4.288271-11.427039l0.711372-185.843438c0-35.814075-22.2429-74.00774-84.668301-74.00774h-169.031012c-46.680032 0-84.663291 33.173983-84.663291 73.947624 0-0.74143 0.050097-1.48787 0.135261-2.22429l-40.553215 316.811037a17.528808 17.528808 0 0 0 17.34345 19.753098l184.856535 0.536033a17.528808 17.528808 0 0 0 11.231663-4.022758z m-178.659583-11.817793l40.553216-316.811037c0.095184-0.731411 0.140271-1.48286 0.14027-2.219281 0-21.075649 22.708799-38.874979 49.595656-38.874978h169.031012c33.37437 0 49.600665 12.714523 49.600665 38.874978l-0.711372 185.773303a17.583914 17.583914 0 0 1 4.288271-11.427039l-1.673227 1.92371c0.636227-0.726401 1.32756-1.397696 2.063981-2.013884l-156.622079 129.579922a17.573895 17.573895 0 0 1 11.226653-4.027768l-184.861545-0.536034a17.583914 17.583914 0 0 1 17.368499 19.758108z" fill="#6E6E96" p-id="5573"></path><path d="M749.0497 287.684861c0-31.024838 30.203253-56.413806 67.129474-56.413806h169.031012c13.475991 0 24.582412 2.028913 33.705007 5.540686l0.040077-9.247836c0-31.019828-18.756175-56.413806-67.134483-56.413806h-169.031012c-36.92622 0-67.129473 25.383958-67.129473 56.413806l-40.558225 316.801018 41.07923 0.115222 32.868393-256.795284z" fill="#6E6E96" opacity=".15" p-id="5574"></path><path d="M617.055121 588.660356L676.304396 162.814021s12.524155-37.572466 55.106284-37.572466h290.560407s49.635733 2.534889 49.635733 45.101988c0 0 10.855938-70.280551-60.772212-70.28055h-296.091074s-50.342095-9.558435-60.902464 63.246985l-61.739076 425.355387 24.953127-0.005009z" fill="#FFFFFF" opacity=".42" p-id="5575"></path><path d="M688.603116 601.745593H824.08943l224.638263-177.632602V132.811154s22.879127 12.804697 22.879127 37.532389l1.497889 278.141455-226.346557 180.097356h-109.310829l-48.844207-26.836761z" fill="#EBA821" p-id="5576"></path><path d="M1000.264221 125.241555s48.463472 5.916411 48.463472 48.463472v-40.893873s-17.568885-7.5696-48.463472-7.569599z" fill="#EBA821" p-id="5577"></path><path d="M391.735545 35.067635V739.746758H42.582129v24.351968h377.077273V35.067635zM619.585 737.677767c46.700071 0 85.765417 32.267234 96.365862 75.701006 1.848565-7.574609 2.940672-15.449798 2.940672-23.595509 0-54.840772-44.460752-99.301524-99.306534-99.301524-54.850791 0-99.306534 44.460752-99.306533 99.301524 0 8.145711 1.087097 16.0209 2.935662 23.595509 10.605455-43.423752 49.665791-75.701005 96.370871-75.701006z" fill="#6E6E96" opacity=".15" p-id="5578"></path><path d="M777.569707 358.671774s-3.842411-45.397559 12.208547-74.88944c9.63358-17.699137 30.303447-25.779722 52.386037-25.779722 58.87856-0.00501-49.400279 155.760417-64.594584 100.669162z" fill="#FFFFFF" opacity=".62" p-id="5579"></path><path d="M67.63044 440.850273H370.715002v280.541082H67.63044z" fill="#FFDF9C" p-id="5580"></path><path d="M370.715002 703.857538H67.63044l17.533817 17.533817v-280.541082l-17.533817 17.533817H370.715002l-17.533818-17.533817v280.541082l17.533818-17.533817z m0-280.541083H50.096622v315.608718h338.152198v-315.608718H370.715002z" fill="#6E6E96" p-id="5581"></path><path d="M67.63044 160.30919H370.715002v280.541083H67.63044z" fill="#FFDF9C" p-id="5582"></path><path d="M370.715002 423.316455H67.63044l17.533817 17.533818v-280.541083l-17.533817 17.533818H370.715002l-17.533818-17.533818v280.541083l17.533818-17.533818z m0-280.541083H50.096622v315.608718h338.152198v-315.608718H370.715002z" fill="#6E6E96" p-id="5583"></path><path d="M313.103887 177.843008v205.23584H85.164257v37.888076h227.93963v2.349531h40.077297v-245.473447zM315.608718 458.38409v205.235841H87.669088v37.888075H315.608718v2.349532h40.077298v-245.473448z" fill="#EBC371" p-id="5584"></path></svg>