<?xml version="1.0" standalone="no"?><!DOCTYPE svg PUBLIC "-//W3C//DTD SVG 1.1//EN" "http://www.w3.org/Graphics/SVG/1.1/DTD/svg11.dtd"><svg t="1711552793462" class="icon" viewBox="0 0 1028 1024" version="1.1" xmlns="http://www.w3.org/2000/svg" p-id="1514" xmlns:xlink="http://www.w3.org/1999/xlink" width="200.78125" height="200"><path d="M499.182933 787.8016v202.5728a20.834133 20.834133 0 0 0 41.664 0v-202.5728a20.834133 20.834133 0 0 0-41.664 0z" fill="#6E6E96" p-id="1515"></path><path d="M486.677333 773.154133l-199.210666 201.493334a20.829867 20.829867 0 1 0 29.632 29.290666l199.210666-201.493333a20.829867 20.829867 0 1 0-29.632-29.290667z" fill="#6E6E96" p-id="1516"></path><path d="M521.911467 802.4448l197.051733 199.317333a20.8256 20.8256 0 1 0 29.627733-29.2864l-197.064533-199.317333a20.817067 20.817067 0 0 0-29.4528-0.162133 20.821333 20.821333 0 0 0-0.162133 29.448533z" fill="#6E6E96" p-id="1517"></path><path d="M82.939733 121.7664v600.4736c0 34.376533 28.125867 62.493867 62.493867 62.493867h736.8448c34.368 0 62.4896-28.1216 62.4896-62.493867V121.7664" fill="#F0F0FF" p-id="1518"></path><path d="M882.2784 806.0672H145.4336c-46.2208 0-83.8272-37.602133-83.8272-83.8272V121.7664h42.666667v600.4736c0 22.6944 18.466133 41.160533 41.160533 41.160533h736.8448c22.6944 0 41.156267-18.466133 41.156267-41.160533V121.7664h42.666666v600.4736c0.004267 46.2208-37.602133 83.8272-83.822933 83.8272z" fill="#6E6E96" p-id="1519"></path><path d="M1002.666667 98.786133c0 34.376533-28.125867 62.493867-62.4896 62.493867h-849.92c-34.372267 0-62.493867-28.1216-62.493867-62.493867 0-34.372267 28.1216-62.4896 62.493867-62.4896h849.92c34.363733 0 62.4896 28.1216 62.4896 62.4896z" fill="#88C1DB" p-id="1520"></path><path d="M940.177067 182.6176h-849.92c-46.2208 0-83.8272-37.6064-83.8272-83.8272 0-46.2208 37.602133-83.822933 83.8272-83.822933h849.92C986.397867 14.9632 1024 52.565333 1024 98.786133c0 46.225067-37.602133 83.831467-83.822933 83.831467z m-849.92-124.987733c-22.6944 0-41.160533 18.461867-41.160534 41.156266 0 22.698667 18.466133 41.160533 41.160534 41.160534h849.92c22.6944 0 41.156267-18.466133 41.156266-41.160534s-18.461867-41.156267-41.156266-41.156266h-849.92z" fill="#6E6E96" p-id="1521"></path><path d="M82.939733 184.759467h861.832534v41.604266H82.939733z" fill="#6E6E96" opacity=".17" p-id="1522"></path><path d="M618.325333 493.2864m-57.024 0a57.024 57.024 0 1 0 114.048 0 57.024 57.024 0 1 0-114.048 0Z" fill="#FAA21B" p-id="1523"></path><path d="M540.4672 493.2864c0 42.9312 34.926933 77.8624 77.858133 77.8624s77.858133-34.935467 77.858134-77.8624c0-42.9312-34.926933-77.858133-77.858134-77.858133-42.9312 0-77.858133 34.926933-77.858133 77.858133z" fill="#F385A1" p-id="1524"></path><path d="M618.325333 457.092267c19.959467 0 36.1984 16.238933 36.1984 36.194133 0 19.959467-16.2432 36.194133-36.1984 36.194133s-36.194133-16.234667-36.194133-36.194133c0-19.9552 16.238933-36.194133 36.194133-36.194133z" fill="#F0F0FF" p-id="1525"></path><path d="M680.776533 464.814933l134.660267-134.651733a20.829867 20.829867 0 1 0-29.457067-29.461333l-134.656 134.656a20.821333 20.821333 0 0 0 0 29.457066 20.821333 20.821333 0 0 0 29.4528 0zM364.603733 518.523733l121.698134-121.698133a20.829867 20.829867 0 0 1-29.461334 0l83.498667 83.498667 29.457067-29.461334-83.498667-83.498666a20.8384 20.8384 0 0 0-29.461333 0l-121.7024 121.698133 29.469866 29.461333z" fill="#F385A1" p-id="1526"></path><path d="M308.4288 542.9504m-57.032533 0a57.032533 57.032533 0 1 0 114.065066 0 57.032533 57.032533 0 1 0-114.065066 0Z" fill="#FAA21B" p-id="1527"></path><path d="M230.562133 542.9504c0 42.9312 34.9312 77.858133 77.866667 77.858133s77.8624-34.926933 77.8624-77.858133-34.926933-77.866667-77.8624-77.866667-77.866667 34.9312-77.866667 77.866667z" fill="#F385A1" p-id="1528"></path><path d="M308.4288 506.752c19.963733 0 36.202667 16.238933 36.202667 36.1984s-16.2432 36.194133-36.202667 36.194133-36.202667-16.234667-36.202667-36.194133 16.238933-36.1984 36.202667-36.1984z" fill="#F0F0FF" p-id="1529"></path></svg>