<?xml version="1.0" standalone="no"?><!DOCTYPE svg PUBLIC "-//W3C//DTD SVG 1.1//EN" "http://www.w3.org/Graphics/SVG/1.1/DTD/svg11.dtd"><svg t="1711552681062" class="icon" viewBox="0 0 1141 1024" version="1.1" xmlns="http://www.w3.org/2000/svg" p-id="4067" xmlns:xlink="http://www.w3.org/1999/xlink" width="222.8515625" height="200"><path d="M65.209372 634.584006h1015.993598v43.204356H65.209372z" fill="#FFFFFF" opacity=".54" p-id="4068"></path><path d="M703.849222 869.172947H368.573715a15.925827 15.925827 0 1 0 0 31.851654h335.275507a15.925827 15.925827 0 1 0 0-31.851654z" fill="#6E6E96" p-id="4069"></path><path d="M414.872598 617.142959l-0.004578-308.010711 0.004578-42.403258H178.965278c-46.166129 0-69.141618 36.845927-74.026026 59.638308l-45.575606 253.568096-0.251774-0.027467c-4.884409 22.801536-8.880743 60.553848-8.880743 83.854354v178.928657c0 23.33255 19.075286 42.39868 42.389525 42.39868h78.750216l747.694456-0.009155h174.227356v-225.552556l0.009156-42.384948H414.872598z" fill="#FFCC4F" p-id="4070"></path><path d="M414.86802 601.121001l16.021959 16.021958V309.132248l0.004577-42.39868v-16.021959H178.965278c-54.438038 0-83.465249 43.2364-89.695502 72.318544l-0.068666 0.260929-0.045777 0.274662-45.56645 253.545207 17.477668-13.096807-14.351097-1.538108c-0.265507-0.027466-3.273057 14.090168-3.273058 14.090169-5.094983 23.781164-9.251537 62.911365-9.251536 87.223543v178.933234c0 32.199559 26.202769 58.416061 58.411483 58.416061h78.750216l747.694456-0.009155h190.249315V659.555373l0.009156-42.38037 0.004577-16.026536h-16.026536c0.004578-0.027466-678.410929-0.027466-678.415507-0.027466z m662.398126 16.017381l-0.009155 42.384947v225.557134l16.021958-16.021959H919.065326l-747.694456 0.009156H92.620654a26.395032 26.395032 0 0 1-26.367566-26.376722V663.766859c0-22.041637 3.909358-58.928764 8.52826-80.517209l-17.372381 12.579527 14.836333 1.588462c0.251774 0.041199 2.88853-14.64407 2.888531-14.64407l45.575606-253.568095-0.10071 0.521858c2.801554-13.069341 18.741114-46.990116 58.361129-46.990116H414.877175l-16.021958-16.021959-0.004578 42.403258v324.037248H1093.292682l-16.026536-16.017381z" fill="#6E6E96" p-id="4071"></path><path d="M803.743845 689.150219c-118.269521 0-161.483033 107.250991-161.483032 107.250992h285.900408l-747.689879 0.004577H101.716549l-0.086976-0.004577H420.873966s-47.763748-107.250991-166.033269-107.250992c-112.625214 0-157.147948 97.175468-161.14886 106.468204-19.519323-3.767449-34.383123-21.034543-34.383124-41.611315v79.619979c0 23.318816 19.075286 42.384947 42.389525 42.384947H180.453032l747.689878-0.004577h174.218201v-79.606246h-132.606885c0.018311-0.018311-47.745437-107.250991-166.010381-107.250992z m298.630999-81.103154v42.384947l0.009155-42.384947h-0.009155z" fill="#6E6E96" opacity=".12" p-id="4072"></path><path d="M1109.273442 871.095582c0 12.506283-10.217432 22.760337-22.746604 22.760337H52.437582c-12.506283 0-22.755759-10.235743-22.755759-22.760337v-42.43988c0-12.510861 10.235743-22.760337 22.755759-22.760336h1034.084678c12.510861 0 22.746604 10.231165 22.746604 22.760336l0.004578 42.43988z" fill="#F0F0FF" p-id="4073"></path><path d="M1084.237987 850.354012H50.148731c-12.506283 0-22.755759-10.231165-22.755759-22.755759v34.332769c0 12.506283 10.235743 22.755759 22.755759 22.755759h1034.084678a22.810691 22.810691 0 0 0 22.746604-22.755759v-34.332769c0.004578 12.515439-10.231165 22.755759-22.742026 22.755759z" fill="#6E6E96" opacity=".15" p-id="4074"></path><path d="M1086.526838 909.8733H52.437582c-21.382448 0-38.777718-17.399847-38.777718-38.782296v-42.439879c0-21.382448 17.395269-38.782295 38.777718-38.782296h1034.084678c21.377871 0 38.768562 17.399847 38.768563 38.782296l0.004577 42.439879c0 21.387026-17.390692 38.782295-38.768562 38.782296zM52.437582 821.921902c-3.648429 0-6.7338 3.085371-6.7338 6.738378v42.43988a6.820777 6.820777 0 0 0 6.7338 6.738378h1034.084678a6.820777 6.820777 0 0 0 6.724645-6.738378l-0.004577-42.43988a6.820777 6.820777 0 0 0-6.724645-6.738378H52.437582z" fill="#6E6E96" p-id="4075"></path><path d="M257.482031 866.760498m-112.597748 0a112.597748 112.597748 0 1 0 225.195496 0 112.597748 112.597748 0 1 0-225.195496 0Z" fill="#BABADB" p-id="4076"></path><path d="M257.482031 770.184709c53.252413 0 96.575789 43.323376 96.575789 96.589522 0 53.256991-43.323376 96.580367-96.575789 96.580367-53.266146 0-96.5941-43.323376-96.5941-96.580367 0.018311-53.266146 43.341687-96.589522 96.5941-96.589522zM128.862325 866.760498c0 70.913189 57.697362 128.628862 128.638017 128.628862 70.922344 0 128.619706-57.697362 128.619706-128.628862 0-70.913189-57.697362-128.628862-128.619706-128.628862-70.940655 0.009155-128.638017 57.706517-128.638017 128.628862z" fill="#6E6E96" p-id="4077"></path><path d="M814.945483 866.760498m-112.597747 0a112.597748 112.597748 0 1 0 225.195495 0 112.597748 112.597748 0 1 0-225.195495 0Z" fill="#BABADB" p-id="4078"></path><path d="M814.945483 770.184709c53.266146 0 96.5941 43.323376 96.5941 96.589522 0 53.256991-43.327954 96.580367-96.5941 96.580367-53.256991 0-96.584945-43.323376-96.584944-96.580367 0-53.266146 43.327954-96.589522 96.584944-96.589522z m-128.628862 96.575789c0 70.913189 57.697362 128.628862 128.628862 128.628862 70.922344 0 128.638017-57.697362 128.638018-128.628862 0-70.913189-57.697362-128.628862-128.638018-128.628862-70.926922 0.009155-128.628862 57.706517-128.628862 128.628862z" fill="#6E6E96" p-id="4079"></path><path d="M259.029295 867.685194m-37.528005 0a37.528005 37.528005 0 1 0 75.05601 0 37.528005 37.528005 0 1 0-75.05601 0Z" fill="#F0F0FF" p-id="4080"></path><path d="M280.535341 867.685194a21.322938 21.322938 0 0 1-6.298919 15.207127 21.377871 21.377871 0 0 1-15.207127 6.298919 21.519779 21.519779 0 0 1-21.506047-21.506046 21.506046 21.506046 0 1 1 43.012093 0z m-21.506046-53.554542c-29.526181 0-53.549964 24.023783-53.549964 53.536231 0 29.526181 24.023783 53.549964 53.549964 53.549963a53.192903 53.192903 0 0 0 37.862177-15.683208 53.211214 53.211214 0 0 0 15.701519-37.866755c-0.013733-29.512448-24.037516-53.53623-53.563696-53.536231z" fill="#6E6E96" p-id="4081"></path><path d="M816.112797 867.685194m-37.528004 0a37.528005 37.528005 0 1 0 75.056009 0 37.528005 37.528005 0 1 0-75.056009 0Z" fill="#F0F0FF" p-id="4082"></path><path d="M837.618844 867.685194a21.510624 21.510624 0 0 1-21.506047 21.506046 21.506046 21.506046 0 0 1-21.492313-21.506046 21.240539 21.240539 0 0 1 6.298919-15.193395 21.286317 21.286317 0 0 1 15.193394-6.298919 21.506046 21.506046 0 0 1 21.506047 21.492314z m-21.506047-53.554542a53.211214 53.211214 0 0 0-37.862177 15.687787 53.17917 53.17917 0 0 0-15.687786 37.862177c0 29.526181 24.023783 53.549964 53.53623 53.549963 29.526181 0 53.549964-24.023783 53.549964-53.549963 0.013733-29.526181-24.010049-53.549964-53.536231-53.549964z" fill="#6E6E96" p-id="4083"></path><path d="M1092.592294 643.510526c0 12.588682-10.299831 22.888512-22.888512 22.888512H421.835283c-12.588682 0-22.888512-10.299831-22.888512-22.888512V134.337257c0-12.588682 10.299831-22.888512 22.888512-22.888513h647.868499c12.588682 0 22.888512 10.299831 22.888512 22.888513v509.173269z" fill="#A1B5FF" p-id="4084"></path><path d="M1076.570335 643.510526c0 3.721672-3.144882 6.866554-6.866553 6.866553H421.835283a6.958108 6.958108 0 0 1-6.866554-6.866553V134.337257c0-3.721672 3.149459-6.866554 6.866554-6.866554h647.868499c3.721672 0 6.866554 3.144882 6.866553 6.866554v509.173269z m32.043918-509.173269c0-21.460269-17.45478-38.910471-38.910471-38.910471H421.835283c-21.455692 0-38.910471 17.450202-38.910471 38.910471v509.173269c0 21.460269 17.45478 38.910471 38.910471 38.910471h647.868499c21.455692 0 38.910471-17.450202 38.910471-38.910471V134.337257z" fill="#6E6E96" p-id="4085"></path><path d="M329.992838 332.693683H202.51298c-15.170506 0-30.212836 12.135489-33.39434 26.990134l-25.273495 141.524249c-1.432821 6.692601-2.764932 15.367347-3.767449 28.802904h189.928876l-0.004578-4.550236v-165.163505l-0.009156-27.603546z" fill="#F0F0FF" p-id="4086"></path><path d="M329.992838 316.671724H202.51298c-22.742026 0-44.293849 17.427313-49.059238 39.652059a7.008462 7.008462 0 0 0-0.096131 0.540169l-25.287229 141.52425c0.032044-0.183108 0.082399-0.361638 0.105287-0.540169-1.831081 8.541993-3.140304 18.393209-4.092466 30.963579a16.021959 16.021959 0 0 0 15.976182 17.230472h189.933453a16.017381 16.017381 0 0 0 16.021959-16.040269l-0.004578-4.550236V360.310962l0.004578-27.594391c0-4.261841-1.689172-8.326841-4.692145-11.343546a15.962449 15.962449 0 0 0-11.329814-4.701301z m-16.026536 43.625505v165.158927l0.004578 4.568547a16.063158 16.063158 0 0 1 4.673834-11.343546 16.031114 16.031114 0 0 1 11.348124-4.696723H140.059385a16.021959 16.021959 0 0 1 15.976182 17.230472c0.83772-11.091773 1.936368-19.551367 3.456165-26.637651 0.036622-0.17853 0.073243-0.357061 0.096132-0.540168l25.287228-141.52425-0.096132 0.540169c1.606774-7.516587 10.043479-14.34652 17.715709-14.34652h127.498169a16.067736 16.067736 0 0 1-11.343546-4.678412 16.081469 16.081469 0 0 1-4.678412-11.343547l-0.004578 27.612702z" fill="#6E6E96" p-id="4087"></path><path d="M401.176112 559.097692h691.416182v105.401599H401.176112zM203.451409 403.17199c3.181503-14.850067 18.214678-26.990134 33.394339-26.990134H332.295423v-13.600354l0.004577-27.598968H204.801831c-15.170506 0-30.212836 12.135489-33.394339 26.990134l-25.273496 141.52425c-1.432821 6.692601-2.764932 15.36277-3.762871 28.798326h38.026974l23.05331-129.123254z" fill="#6E6E96" opacity=".15" p-id="4088"></path><path d="M51.297734 676.795h61.54721v57.221281H51.297734z" fill="#FFF23F" p-id="4089"></path><path d="M112.849521 750.03824H51.297734a16.021959 16.021959 0 0 1-16.021959-16.021959v-57.221281a16.021959 16.021959 0 0 1 16.021959-16.021958h61.54721a16.021959 16.021959 0 0 1 16.021958 16.021958v57.221281a16.017381 16.017381 0 0 1-16.017381 16.021959z m-45.529828-32.043917h29.503292v-25.177364h-29.503292v25.177364z" fill="#6E6E96" p-id="4090"></path><path d="M661.317788 431.649877c0 2.723733-0.11902 5.04005-0.352483 6.958108s-0.581368 3.488209-1.048294 4.692145c-0.476081 1.222247-1.07576 2.082855-1.826503 2.595557a4.367128 4.367128 0 0 1-2.526892 0.769054h-104.467748a22.201857 22.201857 0 0 1-5.337601-0.563057 6.95353 6.95353 0 0 1-3.653007-2.174409c-0.938429-1.07576-1.620507-2.645912-2.037077-4.705878s-0.631723-4.724189-0.631723-8.001824c0-3.089949 0.137331-5.731284 0.421148-7.933158 0.288395-2.192719 0.79652-4.156554 1.547264-5.886926 0.750743-1.734949 1.707483-3.414966 2.879375-5.053783 1.171892-1.625084 2.691689-3.437855 4.568547-5.406267l31.471704-33.705623c6.27603-6.55527 11.348124-12.524594 15.170506-17.91255 3.84527-5.383378 6.839087-10.299831 8.995186-14.749357 2.156098-4.458682 3.630118-8.546571 4.426638-12.304864a51.361822 51.361822 0 0 0 1.19478-10.67978c0-3.080794-0.480659-6.001368-1.464864-8.761723a20.52184 20.52184 0 0 0-4.348818-7.209881 19.867229 19.867229 0 0 0-7.228192-4.847787c-2.902263-1.167314-6.317229-1.75326-10.244898-1.75326-5.520709 0-10.40054 0.700388-14.671537 2.101165-4.261841 1.400777-8.001824 2.966351-11.219948 4.692145-3.22728 1.725794-5.923547 3.314257-8.079645 4.765389-2.15152 1.441976-3.836115 2.174409-5.053784 2.174408a3.126571 3.126571 0 0 1-2.188142-0.842297c-0.608834-0.563057-1.089493-1.501486-1.464864-2.815287s-0.6775-3.071638-0.910963-5.273513a78.370266 78.370266 0 0 1-0.352483-8.088801c0-2.165253 0.068666-3.96429 0.210574-5.424577 0.137331-1.441976 0.347905-2.719155 0.631723-3.799493 0.288395-1.071182 0.663767-2.005034 1.126115-2.806132 0.476081-0.801098 1.286334-1.766993 2.458226-2.883952 1.167314-1.126115 3.332567-2.558936 6.454561-4.289307s6.990152-3.410388 11.577009-5.044629c4.58228-1.63424 9.631486-3.012128 15.156773-4.133665s11.274881-1.680017 17.262516-1.680017c9.439223 0 17.697398 1.19478 24.769948 3.584341 7.063395 2.384983 12.922854 5.712973 17.614999 9.970236a40.18765 40.18765 0 0 1 10.455473 15.165929c2.288851 5.841148 3.437855 12.140067 3.437854 18.8876 0 5.900658-0.563057 11.705185-1.684594 17.418158-1.126115 5.712973-3.469898 11.869983-7.026774 18.471029-3.556875 6.596469-8.564881 13.90706-15.028597 21.913462s-15.033175 17.299138-25.712955 27.882786l-21.213073 21.766975h71.641044c0.933851 0 1.803615 0.288395 2.586402 0.851453 0.805676 0.55848 1.47402 1.428243 2.037077 2.586402 0.563057 1.171892 0.984206 2.714578 1.258869 4.632635 0.283818 1.963834 0.421149 4.234375 0.421148 6.85282zM812.862629 394.451467c0 4.769966-0.480659 8.395506-1.464865 10.876621s-2.316317 3.721672-3.996334 3.721672h-16.127246v32.863326a3.831537 3.831537 0 0 1-0.842297 2.458226c-0.563057 0.700388-1.547263 1.286334-2.957196 1.753261-1.405355 0.476081-3.222703 0.828564-5.456622 1.052871-2.243074 0.233463-5.14076 0.352483-8.693057 0.352483a85.831921 85.831921 0 0 1-8.48706-0.352483c-2.293429-0.238041-4.115355-0.581368-5.465777-1.052871-1.359578-0.466926-2.288851-1.048294-2.806131-1.753261a4.151976 4.151976 0 0 1-0.769054-2.458226v-32.863326h-69.658899c-1.313801 0-2.485692-0.164797-3.524831-0.489814-1.039138-0.315861-1.895169-1.066605-2.600135-2.247652-0.700388-1.167314-1.222247-2.842753-1.547263-5.053783-0.329595-2.201875-0.489814-5.122449-0.489814-8.775456 0-2.993817 0.082399-5.589375 0.210574-7.79125 0.137331-2.192719 0.375372-4.188598 0.700388-5.964746 0.329595-1.785304 0.79652-3.460743 1.409933-5.053784 0.622568-1.59304 1.391622-3.273057 2.33005-5.053783l56.552937-99.706938c0.476081-0.842297 1.263446-1.570152 2.38956-2.178986 1.126115-0.613412 2.696267-1.126115 4.701301-1.547264 2.014189-0.430304 4.573125-0.727855 7.681385-0.91554a189.379551 189.379551 0 0 1 11.25657-0.288395c4.760811 0 8.82581 0.11902 12.176689 0.352483 3.360034 0.233463 6.051723 0.608834 8.070489 1.126115 2.005034 0.51728 3.483632 1.149003 4.412905 1.899746 0.938429 0.750743 1.405355 1.638817 1.405355 2.668801v109.539842h16.127246c1.496909 0 2.76951 1.144426 3.859003 3.437855 1.062027 2.302584 1.602196 6.111233 1.602196 11.444256z m-57.079372-98.562512h-0.283818l-48.070454 83.675824H755.778679V295.888955zM956.250003 441.908509a3.817804 3.817804 0 0 1-0.846875 2.458226c-0.55848 0.700388-1.492331 1.286334-2.796976 1.757838-1.313801 0.476081-3.112838 0.828564-5.401689 1.052871s-5.117871 0.352483-8.48706 0.352483c-3.456165 0-6.330963-0.11902-8.619814-0.352483-2.288851-0.238041-4.092466-0.581368-5.401689-1.052871-1.304645-0.471503-2.243074-1.048294-2.801554-1.757838s-0.842297-1.519797-0.842297-2.458226V370.418529c0-6.088344-0.45777-10.862888-1.341267-14.323631-0.892652-3.460743-2.192719-6.43625-3.886469-8.917365a17.303715 17.303715 0 0 0-6.559848-5.758749c-2.677956-1.355-5.813682-2.027922-9.375135-2.027922-4.513615 0-9.073006 1.629662-13.678175 4.907297-4.605169 3.28679-9.402601 8.061334-14.383141 14.323631v83.286719a3.799493 3.799493 0 0 1-0.85603 2.458226c-0.55848 0.700388-1.519797 1.286334-2.87022 1.757838-1.359578 0.476081-3.149459 0.823986-5.401688 1.052871-2.243074 0.233463-5.094983 0.352483-8.551149 0.352483a85.23682 85.23682 0 0 1-8.551148-0.352483c-2.243074-0.238041-4.046689-0.581368-5.401689-1.052871-1.355-0.471503-2.316317-1.048294-2.874797-1.757838s-0.851453-1.524375-0.851453-2.458226V257.161592c0-0.933851 0.288395-1.785304 0.851453-2.531469s1.519797-1.382466 2.874797-1.899747c1.355-0.503547 3.149459-0.906385 5.401689-1.19478a70.487463 70.487463 0 0 1 8.551148-0.421149c3.456165 0 6.308074 0.141909 8.551149 0.421149s4.042111 0.6775 5.401688 1.19478c1.350422 0.51728 2.31174 1.149003 2.87022 1.899747 0.563057 0.750743 0.85603 1.602196 0.85603 2.540624v69.301838c6.092922-6.001368 12.304864-10.46005 18.626672-13.412668a46.211906 46.211906 0 0 1 19.766519-4.435794c8.52826 0 15.728986 1.41451 21.593023 4.211487 5.854881 2.810709 10.592804 6.651402 14.209188 11.526654 3.60723 4.86152 6.198209 10.556182 7.804983 17.065675 1.59304 6.509493 2.384983 14.401452 2.384983 23.666722v76.823003l0.036621-0.009155z" fill="#FFFFFF" p-id="4091"></path><path d="M398.946771 541.18972h693.645523v32.043917H398.946771z" fill="#6E6E96" p-id="4092"></path><path d="M414.968729 486.820348h677.623565v54.369372H414.968729z" fill="#6E6E96" opacity=".15" p-id="4093"></path></svg>