<?xml version="1.0" standalone="no"?><!DOCTYPE svg PUBLIC "-//W3C//DTD SVG 1.1//EN" "http://www.w3.org/Graphics/SVG/1.1/DTD/svg11.dtd"><svg t="1711555622133" class="icon" viewBox="0 0 1024 1024" version="1.1" xmlns="http://www.w3.org/2000/svg" p-id="49219" xmlns:xlink="http://www.w3.org/1999/xlink" width="200" height="200"><path d="M935.563636 51.2c-67.490909-67.490909-174.545455-67.490909-242.036363 0 0 0 0 2.327273-2.327273 2.327273C795.927273 102.4 884.363636 186.181818 937.890909 288.581818 1003.054545 221.090909 1000.727273 116.363636 935.563636 51.2zM88.436364 51.2C23.272727 116.363636 20.945455 221.090909 83.781818 286.254545 139.636364 183.854545 225.745455 102.4 330.472727 51.2c0 0 0-2.327273-2.327272-2.327273-65.163636-65.163636-172.218182-65.163636-239.709091 2.327273z" fill="#4D7AE6" p-id="49220"></path><path d="M747.054545 893.672727C870.4 814.545455 954.181818 677.236364 954.181818 518.981818c0-244.363636-197.818182-442.181818-442.181818-442.181818s-442.181818 197.818182-442.181818 442.181818c0 158.254545 83.781818 297.890909 207.127273 374.690909l-72.145455 72.145455c-9.309091 9.309091-9.309091 25.6 0 34.909091 9.309091 9.309091 25.6 9.309091 34.909091 0l81.454545-81.454546c55.854545 25.6 121.018182 41.890909 188.509091 41.890909s130.327273-13.963636 188.509091-41.890909l81.454546 81.454546c9.309091 9.309091 25.6 9.309091 34.909091 0 9.309091-9.309091 9.309091-25.6 0-34.909091l-67.49091-72.145455zM512 567.854545c-9.309091 0-18.618182-4.654545-23.272727-11.636363-4.654545-4.654545-6.981818-11.636364-6.981818-20.945455V218.763636c0-16.290909 13.963636-30.254545 32.581818-30.254545 16.290909 0 32.581818 13.963636 32.581818 30.254545v283.927273h283.927273c16.290909 0 30.254545 13.963636 30.254545 32.581818 0 18.618182-13.963636 32.581818-30.254545 32.581818H512z" fill="#86A6F2" p-id="49221"></path><path d="M800.581818 1024c-11.636364 0-20.945455-4.654545-30.254545-11.636364l-74.472728-74.472727C637.672727 963.490909 574.836364 977.454545 512 977.454545c-65.163636 0-125.672727-13.963636-183.854545-39.563636l-74.472728 74.472727c-6.981818 6.981818-18.618182 11.636364-30.254545 11.636364s-20.945455-4.654545-27.927273-11.636364c-6.981818-6.981818-11.636364-18.618182-11.636364-27.927272 0-11.636364 4.654545-20.945455 11.636364-30.254546l58.181818-58.181818c-58.181818-39.563636-104.727273-90.763636-139.636363-151.272727-39.563636-67.490909-58.181818-146.618182-58.181819-225.745455 0-62.836364 11.636364-121.018182 34.909091-179.2 23.272727-53.527273 55.854545-102.4 97.745455-146.618182 41.890909-41.890909 90.763636-74.472727 146.618182-97.745454s116.363636-34.909091 179.2-34.909091 121.018182 11.636364 179.2 34.909091c53.527273 23.272727 102.4 55.854545 146.618182 97.745454 41.890909 41.890909 74.472727 90.763636 97.745454 146.618182s34.909091 116.363636 34.909091 179.2c0 79.127273-20.945455 158.254545-58.181818 225.745455-34.909091 60.509091-81.454545 114.036364-139.636364 151.272727l58.181818 58.181818c6.981818 6.981818 11.636364 18.618182 11.636364 30.254546s-4.654545 20.945455-11.636364 30.254545c-11.636364 4.654545-23.272727 9.309091-32.581818 9.309091z m-97.745454-125.672727l90.763636 90.763636c2.327273 2.327273 4.654545 2.327273 6.981818 2.327273 2.327273 0 4.654545 0 6.981818-2.327273 2.327273-2.327273 2.327273-4.654545 2.327273-6.981818 0-2.327273 0-4.654545-2.327273-6.981818L721.454545 891.345455l16.29091-11.636364c60.509091-37.236364 111.709091-90.763636 146.618181-151.272727 37.236364-62.836364 55.854545-137.309091 55.854546-209.454546 0-58.181818-11.636364-114.036364-32.581818-165.236363-23.272727-53.527273-55.854545-97.745455-93.090909-137.309091-39.563636-39.563636-83.781818-69.818182-134.981819-90.763637-53.527273-23.272727-109.381818-32.581818-165.236363-32.581818s-114.036364 11.636364-165.236364 32.581818c-53.527273 20.945455-100.072727 51.2-139.636364 90.763637s-69.818182 83.781818-90.763636 134.981818c-23.272727 53.527273-32.581818 109.381818-32.581818 165.236363 0 74.472727 18.618182 146.618182 55.854545 209.454546 34.909091 62.836364 86.109091 114.036364 146.618182 151.272727l16.290909 11.636364-86.109091 86.109091c-2.327273 2.327273-2.327273 4.654545-2.327272 6.981818 0 2.327273 0 4.654545 2.327272 6.981818 2.327273 2.327273 4.654545 2.327273 6.981819 2.327273 2.327273 0 4.654545 0 6.981818-2.327273l90.763636-90.763636 9.309091 4.654545c55.854545 25.6 118.690909 39.563636 181.527273 39.563637s123.345455-13.963636 181.527272-39.563637l6.981819-4.654545z m125.672727-314.181818H512c-13.963636 0-25.6-6.981818-34.909091-16.29091-9.309091-9.309091-11.636364-18.618182-11.636364-30.254545V221.090909c0-25.6 20.945455-46.545455 46.545455-46.545454s46.545455 20.945455 46.545455 46.545454V488.727273h269.963636c11.636364 0 23.272727 4.654545 32.581818 13.963636 9.309091 9.309091 13.963636 20.945455 13.963636 32.581818 0 27.927273-20.945455 48.872727-46.545454 48.872728z m-332.8-46.545455c0 4.654545 2.327273 6.981818 4.654545 9.309091 2.327273 2.327273 4.654545 4.654545 11.636364 4.654545h316.509091c9.309091 0 16.290909-6.981818 16.290909-16.290909 0-4.654545-2.327273-9.309091-4.654545-11.636363-2.327273-2.327273-6.981818-4.654545-11.636364-4.654546H528.290909V218.763636c0-9.309091-6.981818-16.290909-16.290909-16.290909-9.309091 0-16.290909 6.981818-16.290909 16.290909v318.836364z" fill="#4D7AE6" p-id="49222"></path><path d="M174.545455 332.8c-6.981818-2.327273-16.290909 2.327273-18.618182 9.309091l-25.6 79.127273c-2.327273 6.981818 2.327273 16.290909 9.309091 18.618181 6.981818 2.327273 16.290909-2.327273 18.618181-9.30909l25.6-79.127273c2.327273-9.309091-2.327273-16.290909-9.30909-18.618182z" fill="#FCFCFF" p-id="49223"></path><path d="M128 470.109091m-13.963636 0a13.963636 13.963636 0 1 0 27.927272 0 13.963636 13.963636 0 1 0-27.927272 0Z" fill="#FCFCFF" p-id="49224"></path></svg>