<?xml version="1.0" standalone="no"?><!DOCTYPE svg PUBLIC "-//W3C//DTD SVG 1.1//EN" "http://www.w3.org/Graphics/SVG/1.1/DTD/svg11.dtd"><svg t="1711553016120" class="icon" viewBox="0 0 1024 1024" version="1.1" xmlns="http://www.w3.org/2000/svg" p-id="2045" xmlns:xlink="http://www.w3.org/1999/xlink" width="200" height="200"><path d="M483.046753 1021.591985a502.967089 502.967089 0 0 1-204.886734-38.608134 193.611288 193.611288 0 0 0-102.494723-14.402443C94.135143 980.92962 27.075908 920.227089 38.248643 839.42733a361.3735 361.3735 0 0 0-13.694874-147.664984c-53.364361-196.201901-1.495024-370.115394 111.430628-533.266999s235.894212-186.47854 401.236997-125.079853c242.718825 90.157923 405.916079 262.485094 471.697126 516.627726 30.653694 118.688912 1.711859 222.130864-98.306374 304.368585C782.23411 960.467195 636.06415 1021.329499 483.046753 1021.591985z m0 0" fill="#36A511" p-id="2046"></path><path d="M986.949658 629.827276c-1.437962 166.187301-128.012839 260.328151-299.997637 212.533039-257.920136-71.74973-425.682348-241.942782-504.507762-498.288007a265.075707 265.075707 0 0 1-7.885966-128.44651c25.10727-129.142666 126.962899-197.035006 262.211197-174.347164 176.823654 29.832002 309.789473 129.873059 418.59525 266.205535 63.475743 79.487334 109.901367 168.047522 125.810246 270.245522 3.423719 17.392491 3.423719 34.750744 5.774672 52.12041z m0 0" fill="#FFFFFF" p-id="2047"></path><path d="M542.288497 527.435265c-7.326758 31.281376-2.339541 70.916625-15.77193 108.919901-7.737604 22.003098-19.983104 26.316984-36.051757 15.361084a440.712472 440.712472 0 0 1-119.704615-119.910038c-11.092848-16.799046-5.991508-28.530988 13.694874-34.339898 30.687931-9.209803 61.022078-19.024463 91.413287-29.295618 52.40572-16.662097 68.599909-4.085638 66.420141 59.218919z m87.008103-179.094721c6.413766-31.726459 2.042819-71.624193 15.908879-109.490521 7.988677-21.946036 20.291239-25.449642 37.523956-13.318266a486.510415 486.510415 0 0 1 115.618977 115.185307c13.420977 18.716328 9.129916 32.468265-14.653515 39.338527-29.215732 8.331049-58.40864 19.401072-87.601547 28.359802-54.323002 16.080065-68.999342 3.834565-66.79675-60.074849z m198.142008 72.970856a75.321809 75.321809 0 0 1 49.0733 52.040523 701.029211 701.029211 0 0 1 21.86615 86.117936c4.405185 22.356883-5.238289 33.632329-27.834832 22.219933-64.685457-32.274254-128.960068-65.803872-193.588463-98.294961a18.122884 18.122884 0 0 1-12.553635-18.704916c0-11.127085 9.335339-13.021543 16.776221-15.806168A348.078059 348.078059 0 0 1 827.427196 421.299988zM565.307299 665.742084c4.679082-53.638258 8.171275-93.901189 11.823241-134.072821 0-6.57354-1.90587-14.67634 6.425179-18.567967a16.319725 16.319725 0 0 1 18.682091 7.33817c45.26156 66.500028 96.183668 129.656224 128.423685 204.669899 8.901668 20.759147-1.460787 30.562395-21.980273 25.883313a720.122148 720.122148 0 0 1-96.206493-26.762067 68.542847 68.542847 0 0 1-47.16743-58.488527z m40.297168-441.260267c-3.777503 40.205869-7.406645 80.274789-11.492282 120.435008 0 6.584952 1.90587 15.977354-6.847437 18.134297s-17.392491-6.253993-22.642193-13.854648a1712.852185 1712.852185 0 0 1-100.143769-151.328363c-8.616359-15.498033-17.232717-31.133015-24.388289-47.361441s-0.867342-29.238557 16.365375-25.58659c39.121691 8.331049 80.594336 11.731942 115.173894 33.483968a66.408729 66.408729 0 0 1 34.02035 66.077769zM379.947173 454.179099c-45.101787 2.932986-68.166238-9.061442-83.070826-49.564033A727.426081 727.426081 0 0 1 273.149977 314.982112c-4.233999-17.974523 7.885965-27.332687 22.34547-20.542311 68.611321 32.753575 136.948745 66.385904 204.361764 102.357774 17.586501 9.506525 7.737604 24.856197-9.050029 30.402621-36.633789 12.359624-71.521482 28.884773-110.802947 26.978903z m269.332531 54.688198c73.005093 35.960458 149.365431 68.965105 212.418915 123.641892 22.927502 20.040166 25.255631 43.869248 1.027116 67.492906-36.633789 36.405541-52.257358 41.084623-80.297614 16.228426-21.752026-19.001638-33.860577-45.489808-49.92923-68.862393-30.220023-43.869248-59.994962-87.727083-90.066624-131.596331zM521.711948 367.193821c-70.756851-34.956167-143.624996-66.671214-205.423116-117.855807-31.669397-26.180035-32.114481-47.658163-5.535012-74.568591 36.78215-37.421244 60.086262-41.518294 85.250593-7.737604 46.425624 62.859474 89.016684 128.514984 133.137005 192.995018z m107.150981 94.722882c1.609148 16.662097-7.452294 21.683551-23.657896 19.309773-23.96603-3.663379-58.385815-38.014689-62.334504-62.003544-2.47649-15.794755 1.746096-25.289868 20.154291-24.422526 26.419695 1.472199 64.069188 39.418414 65.838109 67.116297z m0 0" fill="#167203" p-id="2048"></path></svg>