<?xml version="1.0" standalone="no"?><!DOCTYPE svg PUBLIC "-//W3C//DTD SVG 1.1//EN" "http://www.w3.org/Graphics/SVG/1.1/DTD/svg11.dtd"><svg t="1711552703128" class="icon" viewBox="0 0 1095 1024" version="1.1" xmlns="http://www.w3.org/2000/svg" p-id="4818" xmlns:xlink="http://www.w3.org/1999/xlink" width="213.8671875" height="200"><path d="M721.213763 276.025729c43.340435 0 330.997379 35.464316 330.997379 78.804751v137.893068c0 43.340435-287.656944 78.800395-330.997379 78.800394h4.025185" fill="#FFCD7F" p-id="4819"></path><path d="M1046.683048 428.268318V332.983834h-62.076711v124.201341c-86.78542 24.66079-233.695947 41.746044-268.140898 42.443045L714.426709 571.528299c43.336079 0 335.100977-35.464316 335.100977-78.800395v-71.878297c0 2.500493-1.010652 4.974849-2.844638 7.418711z" fill="#E6A84A" opacity=".58" p-id="4820"></path><path d="M721.213763 291.272641c62.8347 0 300.216043 37.141476 316.125106 65.435387a4.35626 4.35626 0 0 1-0.374638-1.877548v137.893068a4.312698 4.312698 0 0 1 0.374638-1.881905c-15.900351 28.293911-253.294762 65.435388-316.125106 65.435388a15.246911 15.246911 0 1 0 0 30.493823h4.025185a15.246911 15.246911 0 1 0 0-30.493823h-4.025185a15.246911 15.246911 0 1 0 0 30.493823c23.576081 0 107.181431-9.117653 184.518123-23.401831 142.136065-26.246469 161.726168-49.465337 161.726168-70.645475V354.83048c0-21.180138-19.590103-44.390294-161.726168-70.649831-77.345404-14.284178-160.942041-23.401831-184.518123-23.401831a15.246911 15.246911 0 1 0 0 30.493823z" fill="#6E6E96" p-id="4821"></path><path d="M378.663581 571.528299c-43.340435 0-335.100977-35.464316-335.100977-78.800395V354.826124c0-43.340435 278.691761-78.804751 322.032196-78.804751h4.696048" fill="#FFCD7F" p-id="4822"></path><path d="M383.159242 499.62822c-4.421604-0.091481-10.725113-0.453051-18.492326-1.062927l11.147671-210.912705-76.182283 9.126366s-10.415819 105.465065 0 194.811966C198.784876 478.709458 50.096995 451.792125 50.096995 420.849607v71.878297c0 43.336079 291.764898 78.800395 335.100977 78.800395l-2.03873-71.900079z" fill="#E6A84A" opacity=".58" p-id="4823"></path><path d="M378.663581 556.281387c-55.202532 0-303.21315-35.791036-320.254841-65.5138 0.108907 0.196032 0.400776 0.923527 0.400776 1.960317V354.826124a4.051322 4.051322 0 0 1-0.32672 1.703298c15.177211-28.219855 245.928326-65.252425 307.112004-65.252425h4.696048a15.246911 15.246911 0 1 0 0-30.493823h-4.696048c-23.240649 0-104.964095 9.122009-180.1183 23.4149C46.986625 310.536024 28.315693 334.678419 28.315693 354.826124v137.90178c0 21.184494 19.847122 44.403362 163.812817 70.654188 78.3517 14.279822 162.815233 23.393118 186.535071 23.393118a15.246911 15.246911 0 1 0 0-30.493823z" fill="#6E6E96" p-id="4824"></path><path d="M455.311983 926.127897H259.432733v-105.926828l139.317565-74.056428" fill="#FFCD7F" p-id="4825"></path><path d="M455.311983 910.880986H259.432733a15.246911 15.246911 0 0 1 15.246912 15.246911v-105.926828a15.251268 15.251268 0 0 1-8.089576 13.465201l139.317565-74.056428a15.242555 15.242555 0 1 0-14.310316-26.921689l-139.317564 74.056427a15.242555 15.242555 0 0 0-8.089576 13.465201v105.926829a15.246911 15.246911 0 0 0 15.246911 15.246911h195.87925a15.246911 15.246911 0 1 0-0.004356-30.502535z" fill="#6E6E96" p-id="4826"></path><path d="M625.506722 926.127897h204.622264v-110.283089l-142.580403-63.209339" fill="#FFCD7F" p-id="4827"></path><path d="M625.506722 941.374809h204.622264a15.246911 15.246911 0 0 0 15.246912-15.246912v-110.283089a15.233843 15.233843 0 0 0-9.061022-13.935677l-142.576047-63.209339a15.242555 15.242555 0 1 0-12.363068 27.871355l142.576048 63.209338a15.246911 15.246911 0 0 1-9.069734-13.935677v110.283089a15.246911 15.246911 0 0 1 15.246911-15.246911h-204.622264a15.246911 15.246911 0 1 0 0 30.493823z" fill="#6E6E96" p-id="4828"></path><path d="M713.655651 571.528299c12.65058-134.656366 11.57894-250.602593 11.57894-250.602594s1.341728-19.211108-4.025184-44.904332c-10.79917-51.778511-48.820611-129.868836-179.865637-129.868836-124.941905 0-160.937685 78.090324-171.070347 129.868836-5.027125 25.684511-3.689753 44.899976-3.689752 44.899976s-0.53582 115.946227 12.062485 250.602593c17.446823 186.500221 60.0859 408.913453 164.213593 408.913454 109.446687 0.004356 153.275023-222.40452 170.795902-408.909097z" fill="#FFCD7F" p-id="4829"></path><path d="M448.703536 387.763809s8.738658 166.70973 104.633019 166.70973c95.898717 0 98.93503-179.595548 98.935031-179.595548l-203.56805 12.885818z" fill="#E6A84A" opacity=".58" p-id="4830"></path><path d="M274.679645 881.55464H388.883368s-19.381003-68.062213-19.381003-102.598645l22.086241-11.735766 46.498723 143.665113H274.679645v-29.330702z" fill="#E6A84A" p-id="4831"></path><path d="M676.749413 259.454515c-9.178641-44.015655-41.497737-110.400708-152.900385-110.400708-106.214342 0-136.812715 66.380696-145.429398 110.405064-4.273491 21.837933-3.136508 38.169554-3.136507 38.169554s-0.453051 98.564748 10.254637 213.038559c13.08185 139.831603 42.830752 303.374332 110.396352 340.045333-41.937719-55.47262-61.885036-186.700609-71.364259-301.100365-8.952115-108.043971-8.573121-201.076269-8.57312-201.076268s-0.949665-15.416806 2.626825-36.026274c7.200898-41.545656 32.789572-104.197393 121.596297-104.197393 93.14556 0 120.167444 62.651737 127.851887 104.197393 3.811728 20.613824 2.857707 36.03063 2.857707 36.03063s0.757989 93.032298-8.233332 201.076269c-2.487425 29.940578-5.728482 61.035565-9.949699 91.620869 7.919681-42.874315 13.561039-87.826566 17.577511-130.565837 10.76432-114.469455 9.853861-213.03856 9.853861-213.03856s1.128271-16.335977-3.428377-38.178266z" fill="#FFDCA6" p-id="4832"></path><path d="M733.459211 273.250791c-10.79917-51.782868-48.820611-129.868836-179.856924-129.868835-124.946261 0-160.937685 78.085968-171.074703 129.868835-5.027125 25.684511-3.689753 44.899976-3.689753 44.899976s-0.53582 115.946227 12.062486 250.602594c17.446823 186.500221 60.0859 408.913453 164.213592 408.913453 109.437974 0 153.270667-222.413232 170.78719-408.913453 12.65058-134.656366 11.57894-250.602593 11.57894-250.602594s1.346084-19.206752-4.020828-44.899976z m-61.837117 247.683899c-14.01409 158.851036-49.064561 348.278665-136.586189 348.278665-83.278631 0-117.379437-189.427628-131.332539-348.278665-10.07603-114.691624-9.644761-213.448048-9.644761-213.448048s-1.067284-16.362114 2.949189-38.234898c8.102644-44.107137 36.89317-110.614165 136.821427-110.614164 104.794201 0 135.200898 66.511384 143.839363 110.614164 4.290917 21.87714 3.219276 38.239254 3.219276 38.239254s0.853827 98.752068-9.265766 213.443692z" fill="#E6A84A" opacity=".58" p-id="4833"></path><path d="M728.837219 572.952796c12.585236-133.889664 11.657353-251.003369 11.64864-252.170847 0.008713 0.400776-0.008713 0.801552-0.03485 1.197971 0.060988-0.871252 1.415785-21.637546-4.312698-49.081986-11.060545-53.028758-51.077153-141.996665-194.777116-141.996665-137.653473 0-175.640064 89.085526-186.034101 142.188341-5.349488 27.344247-3.994691 48.014702-3.93806 48.885954a13.879046 13.879046 0 0 1-0.03485-1.128271c-0.004356 1.167478-0.392063 118.241977 12.127829 252.09679 26.237757 280.512677 86.598101 422.740224 179.395161 422.740224 97.040057 0.004356 159.604669-142.22319 185.960045-422.731511z m-185.968758 392.242045c-72.274717 0-125.203281-140.310792-149.032025-395.086683-12.376136-132.299629-12.001497-247.958343-11.997141-249.112752 0-0.374638-0.008713-0.753633-0.03485-1.132628-0.008713-0.1394-1.089065-17.747405 3.445802-40.913998 10.494231-53.625566 46.097948-117.549331 156.106592-117.549331 116.015928 0 153.736787 64.019603 164.936732 117.727938 4.809312 23.062043 3.746384 40.587278 3.733315 40.761528a14.593472 14.593472 0 0 1-0.026137 1.163122c0.008713 1.154409 0.910458 116.782629-11.517953 249.038696-23.942007 254.78896-79.205527 395.104108-155.614335 395.104108z" fill="#6E6E96" p-id="4834"></path><path d="M556.60375 146.16125V71.142089c0-8.420651-6.817548-15.246911-15.246911-15.246912s-15.246911 6.82626-15.246911 15.246912v75.019161a15.246911 15.246911 0 1 0 30.493822 0z" fill="#6E6E96" p-id="4835"></path><path d="M376.995133 76.234557h332.434946a15.246911 15.246911 0 1 0 0-30.493823H376.995133a15.246911 15.246911 0 1 0 0 30.493823z" fill="#6E6E96" p-id="4836"></path><path d="M637.194568 366.065276c0 75.785863-39.0016 137.222203-87.125208 137.222203-48.114896 0-87.125208-61.436341-87.125209-137.222203s39.005956-128.509682 87.125209-128.509683 87.125208 52.72382 87.125208 128.509683z" fill="#9FD6ED" p-id="4837"></path><path d="M600.554062 341.874962c0 53.812885-27.87571 97.440833-62.272743 97.440833-34.392676 0-62.272743-43.632304-62.272743-97.440833 0-53.817241 27.880067-91.250587 62.272743-91.250587 34.397032 0 62.272743 37.437702 62.272743 91.250587z" fill="#B8E9FF" p-id="4838"></path><path d="M621.947657 366.065276c0 66.119321-32.915904 121.975292-71.878297 121.975292-38.958037 0-71.878297-55.855971-71.878297-121.975292 0-33.033523 8.089576-62.852125 22.783242-83.962564 13.15155-18.893101 30.585304-29.300208 49.095055-29.300207 18.514107 0 35.947861 10.407106 49.099411 29.300207 14.684954 21.110438 22.778886 50.929041 22.778886 83.962564z m-71.878297-143.756594c-28.777456 0-55.097982 15.05088-74.121771 42.373345-18.217881 26.181125-28.250349 62.181261-28.250349 101.383249 0 85.495967 44.96532 152.469115 102.37212 152.469115 57.411156 0 102.37212-66.973148 102.37212-152.469115 0-39.201988-10.032468-75.20648-28.245993-101.383249-19.023789-27.322465-45.348671-42.373345-74.126127-42.373345z" fill="#6E6E96" p-id="4839"></path><path d="M565.307559 316.79597c0 19.751285-10.245925 35.773611-22.870367 35.773611s-22.866011-16.022326-22.866011-35.773611c0-19.759997 10.237212-33.499643 22.866011-33.499642 12.624443 0 22.870367 13.744002 22.870367 33.499642z" fill="#D9FAFF" p-id="4840"></path><path d="M668.564 874.636899h110.936528v-64.55978l35.381547 15.682538v85.121329h-162.767315z" fill="#E6A84A" p-id="4841"></path><path d="M83.592281 446.812919V370.421536S154.690808 336.8914 297.92465 318.081067v-21.093013s-174.228636 17.551373-239.119491 57.833714v79.135827l24.787122 12.855324zM740.481503 320.781949s116.691148 6.076983 244.111765 38.021441v-25.819556s-169.062111-41.035973-245.370724-41.035973l1.258959 28.834088zM274.679645 829.366641l97.29272-23.401831-2.47-27.008815zM692.562638 799.212606l86.93789 10.864513-80.882688-35.860735z" fill="#FFDCA6" p-id="4842"></path></svg>