<?xml version="1.0" standalone="no"?><!DOCTYPE svg PUBLIC "-//W3C//DTD SVG 1.1//EN" "http://www.w3.org/Graphics/SVG/1.1/DTD/svg11.dtd"><svg t="1711552842977" class="icon" viewBox="0 0 1024 1024" version="1.1" xmlns="http://www.w3.org/2000/svg" p-id="2035" xmlns:xlink="http://www.w3.org/1999/xlink" width="200" height="200"><path d="M356.133129 489.736815C281.593446 489.736815 221.165387 429.308756 221.165387 354.769073 221.165387 280.233487 281.593446 219.805428 356.133129 219.805428c74.539683 0 134.967742 60.423963 134.967741 134.963645" fill="#DEFF9C" p-id="2036"></path><path d="M356.133129 510.218126C270.418843 510.218126 200.684076 440.483359 200.684076 354.769073 200.684076 269.054788 270.418843 199.324117 356.133129 199.324117c85.714286 0 155.449053 69.730671 155.449052 155.444956a20.481311 20.481311 0 0 1-40.962621 0c0-63.127496-51.358935-114.482335-114.486431-114.482335S241.646697 291.645673 241.646697 354.769073c0 63.127496 51.358935 114.486431 114.486432 114.486431a20.481311 20.481311 0 0 1 0 40.962622z" fill="#6E6E96" p-id="2037"></path><path d="M734.418843 983.041475h-313.159242L366.349206 373.259601h435.068101z" fill="#F0F0FF" p-id="2038"></path><path d="M734.418843 983.041475h-313.159242l-39.381465-417.937532h396.714798z" fill="#BFFFFB" p-id="2039"></path><path d="M734.418843 1003.522785h-313.159242a20.481311 20.481311 0 0 1-20.391193-18.560163l-39.381465-417.937532a20.485407 20.485407 0 0 1 20.391193-22.402458h396.714798a20.489503 20.489503 0 0 1 20.370712 22.631848L754.789555 985.192012a20.4936 20.4936 0 0 1-20.370712 18.330773z m-294.517153-40.962621h276.088069l39.844342-376.974911H404.378904l35.522786 376.974911z" fill="#6E6E96" p-id="2040"></path><path d="M647.262673 585.585253a20.481311 20.481311 0 0 1-20.481311-20.48131V208.823349c0-5.431644 2.154634-10.642089 6.001024-14.484383l167.860727-167.860727a20.481311 20.481311 0 0 1 28.960574 28.964669L667.743984 217.306708v347.797235a20.481311 20.481311 0 0 1-20.481311 20.48131z" fill="#6E6E96" p-id="2041"></path><path d="M655.705069 373.259601l-0.630824 609.781874h79.344598l44.174091-609.781874z" fill="#6E6E96" opacity=".1" p-id="2042"></path><path d="M493.56682 373.259601l32.770098 609.781874H421.259601L366.349206 373.259601z" fill="#FFFFFF" opacity=".42" p-id="2043"></path><path d="M734.418843 962.560164h-313.159242a20.485407 20.485407 0 0 1 20.399385 18.646185L386.748592 371.424475a20.477215 20.477215 0 0 1-20.399386 22.316436h435.068101a20.489503 20.489503 0 0 1-20.362519-22.71787l-66.994368 609.781875a20.477215 20.477215 0 0 1 20.358423-18.244752z m66.998464-609.781874H366.349206a20.473118 20.473118 0 0 0-20.399385 22.316436l54.910394 609.781874a20.485407 20.485407 0 0 0 20.399386 18.646185h313.159242c10.445469 0 19.21147-7.860727 20.358423-18.244751l66.998464-609.781874a20.4936 20.4936 0 0 0-20.358423-22.71787z" fill="#6E6E96" p-id="2044"></path></svg>